<?xml version="1.0" encoding="utf-8"?>
<!-- Generator: $$$/GeneralStr/196=Adobe Illustrator 27.6.0, SVG Export Plug-In . SVG Version: 6.00 Build 0)  -->
<svg version="1.1" id="圖層_1" xmlns="http://www.w3.org/2000/svg" xmlns:xlink="http://www.w3.org/1999/xlink" x="0px" y="0px"
	 viewBox="0 0 200 100" style="enable-background:new 0 0 200 100;" xml:space="preserve">
<style type="text/css">
	.st0{fill:#1FAD9E;}
	.st1{fill:#4A5E99;}
	.st2{fill:#9C97A0;}
</style>
<g id="圖層_1_00000054962962250427020500000014123323076001242244_">
</g>
<g id="圖層_2_00000109725927308925179200000002431466354278644156_">
	<g>
		<g>
			<g>
				<path class="st0" d="M154.2,69.8c-9.6-1.5-18.8-5.8-24.2-12.5c-0.1-0.1-0.2-0.3-0.3-0.5c-4.6-6.7-6.3-16.4-4.8-26.8
					c0.7-4.4,4.8-7.5,9.3-6.8c4.4,0.7,7.5,4.8,6.8,9.3c-0.9,5.9-0.1,11.6,2,14.9c5.4,6.4,21.5,8.8,28.5,4.3
					c2.9-2.5,5.4-7.8,6.3-13.6c0.7-4.4,4.8-7.5,9.3-6.8c4.4,0.7,7.5,4.8,6.8,9.3c-1.6,10.3-6.1,19.1-12.5,24.2
					c-0.1,0.1-0.3,0.2-0.5,0.3C173.9,69.8,163.9,71.2,154.2,69.8z"/>
			</g>
		</g>
		<g>
			<circle class="st0" cx="160.1" cy="32.5" r="13.9"/>
		</g>
	</g>
	<g>
		<g>
			<g>
				<path class="st0" d="M44,69c-9.7,1.1-19.7-0.7-26.6-5.8c-0.2-0.1-0.3-0.2-0.4-0.3C10.8,57.5,6.6,48.6,5.4,38.2
					c-0.5-4.5,2.7-8.5,7.2-9s8.5,2.7,9,7.2c0.7,5.9,2.9,11.3,5.8,13.9c6.8,4.7,23,2.8,28.6-3.3c2.2-3.2,3.2-8.9,2.5-14.8
					c-0.5-4.5,2.7-8.5,7.2-9s8.5,2.7,9,7.2c1.2,10.4-0.9,20-5.8,26.6c-0.1,0.1-0.2,0.3-0.3,0.4C63,63.8,53.7,67.8,44,69z"/>
			</g>
		</g>
		<g>
			<circle class="st0" cx="39.9" cy="31.5" r="13.9"/>
		</g>
	</g>
	<g>
		<g>
			<path class="st1" d="M99.6,72.2c-11.6,0-23.2-3.5-30.7-10.4c-0.2-0.2-0.3-0.3-0.5-0.5C61.8,54.2,58,43.1,58,30.6
				c0-5.4,4.3-9.7,9.7-9.7s9.7,4.3,9.7,9.7c0,7,1.9,13.7,4.9,17.2c7.4,6.5,26.9,6.5,34.3,0c3-3.4,4.9-10.1,4.9-17.2
				c0-5.4,4.3-9.7,9.7-9.7c5.4,0,9.7,4.3,9.7,9.7c0,12.4-3.8,23.6-10.4,30.7c-0.2,0.2-0.3,0.3-0.5,0.5
				C122.8,68.7,111.2,72.2,99.6,72.2z"/>
		</g>
		<circle class="st1" cx="99.8" cy="26" r="19.2"/>
	</g>
	<ellipse class="st2" cx="100.6" cy="86.5" rx="73.5" ry="6.6"/>
</g>
</svg>
