<?xml version="1.0" encoding="utf-8"?>
<!-- Generator: $$$/GeneralStr/196=Adobe Illustrator 27.6.0, SVG Export Plug-In . SVG Version: 6.00 Build 0)  -->
<svg version="1.1" xmlns="http://www.w3.org/2000/svg" xmlns:xlink="http://www.w3.org/1999/xlink" x="0px" y="0px"
	 viewBox="0 0 200 100" style="enable-background:new 0 0 200 100;" xml:space="preserve">
<style type="text/css">
	.st0{fill:#FFFFFF;}
	.st1{fill:#1F83A8;}
	.st2{fill:#D94C74;}
	.st3{fill:#8DC21F;}
	.st4{fill:#4F2560;}
	.st5{fill:#D94C74;stroke:#FFFFFF;stroke-width:3;stroke-miterlimit:10;}
	.st6{fill:#4F2560;stroke:#FFFFFF;stroke-width:3;stroke-miterlimit:10;}
	.st7{fill:#049189;stroke:#FFFFFF;stroke-width:3;stroke-miterlimit:10;}
	.st8{fill:#049189;}
	.st9{fill:#9B204D;}
	.st10{fill:#EAC249;}
	.st11{fill:none;stroke:#947026;stroke-width:2;stroke-linecap:round;stroke-linejoin:round;stroke-miterlimit:10;}
	.st12{fill:none;stroke:#074B45;stroke-width:2;stroke-linecap:round;stroke-linejoin:round;stroke-miterlimit:10;}
	.st13{fill:#EC6F4A;}
	.st14{fill:none;stroke:#A64B30;stroke-width:2;stroke-linecap:round;stroke-linejoin:round;stroke-miterlimit:10;}
	.st15{fill:#EC6F4A;stroke:#A64B30;stroke-width:2;stroke-linecap:round;stroke-linejoin:round;stroke-miterlimit:10;}
	.st16{fill:#1FAD9E;}
	.st17{fill:#4A5E99;}
	.st18{fill:#C6E4E6;}
	.st19{opacity:0.5;fill:#4A5E99;}
	.st20{opacity:0.5;fill:#4F2560;}
</style>
<g id="圖層_1">
</g>
<g id="圖層_2">
	<path class="st4" d="M63.4,73.2c-16.5-10.3-17.9-37-8.9-44.5c3.5-2.9,13.3-5.7,13.4-1.2c0.1,11.4-1,21.8,4.5,25.1
		c4.8,2.9,18.3-5.3,19.2-14.6C92.3,28.8,80,22.5,82,18.7c1.6-2.9,10.7-2.6,16.9,1.7c8.7,6,12.4,20.5,8.6,32.9
		c-0.7,2.4,18.9,22.3,16.4,21.7C97,68,84,86,63.4,73.2z"/>
	<path class="st18" d="M104.7,53.7c-3.7-14.7-4.2-37.4,7.7-38.9c14.6-1.8-5.1,32.5,21.2,30.3C148,44,135.8,15,148,15
		c10,0,7.4,19.6,5.4,32.7C148,85,113,83,104.7,53.7z"/>
	<g>
		<path class="st16" d="M62,82c8.1-7.3,9.3-44.8-1.1-50.8C46.1,22.8,63,70.3,33.3,56.4c-9.7-4.6-1.9-31.5-6.5-35.7
			s-14.6,13-16.1,26.2C7,78,44.2,101.8,62,82z"/>
	</g>
	<path class="st17" d="M139,79c32.6,12.2,39.5-1.6,50.8-16.6c6.9-9.2,1.9-26.3-5.9-14c-7.8,12.3-16.3,13.4-24.9,6.3
		s11.6-26.1,6.6-28.6c-12.2-6.4-26.3,20.8-26.3,37.9c0,11-15.3,11-15.3,11S131,76,139,79z"/>
	<circle class="st2" cx="39.5" cy="45.8" r="10.5"/>
	<circle class="st2" cx="130.5" cy="31.8" r="10.5"/>
	<circle class="st10" cx="80.5" cy="39.8" r="10.5"/>
	<circle class="st10" cx="169.5" cy="47.8" r="10.5"/>
</g>
</svg>
