<?xml version="1.0" encoding="utf-8"?>
<!-- Generator: $$$/GeneralStr/196=Adobe Illustrator 27.6.0, SVG Export Plug-In . SVG Version: 6.00 Build 0)  -->
<svg version="1.1" xmlns="http://www.w3.org/2000/svg" xmlns:xlink="http://www.w3.org/1999/xlink" x="0px" y="0px"
	 viewBox="0 0 200 100" style="enable-background:new 0 0 200 100;" xml:space="preserve">
<style type="text/css">
	.st0{fill:#FFFFFF;}
	.st1{fill:#1F83A8;}
	.st2{fill:#D94C74;}
	.st3{fill:#8DC21F;}
	.st4{fill:#4F2560;}
	.st5{fill:#D94C74;stroke:#FFFFFF;stroke-width:3;stroke-miterlimit:10;}
	.st6{fill:#4F2560;stroke:#FFFFFF;stroke-width:3;stroke-miterlimit:10;}
	.st7{fill:#049189;stroke:#FFFFFF;stroke-width:3;stroke-miterlimit:10;}
	.st8{fill:#049189;}
	.st9{fill:#9B204D;}
	.st10{fill:#EAC249;}
	.st11{fill:none;stroke:#947026;stroke-width:2;stroke-linecap:round;stroke-linejoin:round;stroke-miterlimit:10;}
	.st12{fill:none;stroke:#074B45;stroke-width:2;stroke-linecap:round;stroke-linejoin:round;stroke-miterlimit:10;}
	.st13{fill:#EC6F4A;}
	.st14{fill:none;stroke:#A64B30;stroke-width:2;stroke-linecap:round;stroke-linejoin:round;stroke-miterlimit:10;}
	.st15{fill:#EC6F4A;stroke:#A64B30;stroke-width:2;stroke-linecap:round;stroke-linejoin:round;stroke-miterlimit:10;}
	.st16{fill:#1FAD9E;}
	.st17{fill:#4A5E99;}
	.st18{fill:#C6E4E6;}
	.st19{opacity:0.5;fill:#4A5E99;}
	.st20{opacity:0.5;fill:#4F2560;}
</style>
<g id="圖層_1">
</g>
<g id="圖層_2">
	<path class="st17" d="M101,68.7c0-10.9,8.9-19.7,19.7-19.7H81.3C92.1,49,101,57.9,101,68.7z"/>
	<path class="st17" d="M101,68.7c0,10.9-8.9,19.7-19.7,19.7h39.5C109.9,88.5,101,79.6,101,68.7z"/>
	<g>
		<path class="st16" d="M101,68.7C101,57.9,92.1,49,81.3,49h0c-10.9,0-19.7,8.9-19.7,19.7s8.9,19.7,19.7,19.7h0
			C92.1,88.5,101,79.6,101,68.7z"/>
	</g>
	<path class="st4" d="M160.2,49h-39.5c10.9,0,19.7,8.9,19.7,19.7s-8.9,19.7-19.7,19.7h39.5c10.9,0,19.7-8.9,19.7-19.7
		S171.1,49,160.2,49z"/>
	<circle class="st17" cx="120.7" cy="68.7" r="19.7"/>
	<g>
		<path class="st16" d="M61.5,68.7c0-10.9,8.9-19.7,19.7-19.7H41.8c-10.9,0-19.7,8.9-19.7,19.7s8.9,19.7,19.7,19.7h39.5
			C70.4,88.5,61.5,79.6,61.5,68.7z"/>
	</g>
	<path class="st19" d="M101,68.7C101,57.9,92.1,49,81.3,49h0c-10.9,0-19.7,8.9-19.7,19.7s8.9,19.7,19.7,19.7h0
		C92.1,88.5,101,79.6,101,68.7z"/>
	<circle class="st20" cx="120.7" cy="68.7" r="19.7"/>
	<circle class="st17" cx="101" cy="27.8" r="18.6"/>
	<g>
		<circle class="st16" cx="61.5" cy="27.8" r="18.6"/>
	</g>
	<circle class="st4" cx="140.5" cy="27.8" r="18.6"/>
</g>
</svg>
