<?xml version="1.0" encoding="utf-8"?>
<!-- Generator: $$$/GeneralStr/196=Adobe Illustrator 27.6.0, SVG Export Plug-In . SVG Version: 6.00 Build 0)  -->
<svg version="1.1" xmlns="http://www.w3.org/2000/svg" xmlns:xlink="http://www.w3.org/1999/xlink" x="0px" y="0px"
	 viewBox="0 0 200 100" style="enable-background:new 0 0 200 100;" xml:space="preserve">
<style type="text/css">
	.st0{fill:#FFFFFF;}
	.st1{fill:#1F83A8;}
	.st2{fill:#D94C74;}
	.st3{fill:#8DC21F;}
	.st4{fill:#4F2560;}
	.st5{fill:#D94C74;stroke:#FFFFFF;stroke-width:3;stroke-miterlimit:10;}
	.st6{fill:#4F2560;stroke:#FFFFFF;stroke-width:3;stroke-miterlimit:10;}
	.st7{fill:#049189;stroke:#FFFFFF;stroke-width:3;stroke-miterlimit:10;}
	.st8{fill:#049189;}
	.st9{fill:#9B204D;}
	.st10{fill:#EAC249;}
	.st11{fill:none;stroke:#947026;stroke-width:2;stroke-linecap:round;stroke-linejoin:round;stroke-miterlimit:10;}
	.st12{fill:none;stroke:#074B45;stroke-width:2;stroke-linecap:round;stroke-linejoin:round;stroke-miterlimit:10;}
	.st13{fill:#EC6F4A;}
	.st14{fill:none;stroke:#A64B30;stroke-width:2;stroke-linecap:round;stroke-linejoin:round;stroke-miterlimit:10;}
	.st15{fill:#EC6F4A;stroke:#A64B30;stroke-width:2;stroke-linecap:round;stroke-linejoin:round;stroke-miterlimit:10;}
	.st16{fill:#1FAD9E;}
	.st17{fill:#4A5E99;}
	.st18{fill:#C6E4E6;}
	.st19{opacity:0.5;fill:#4A5E99;}
	.st20{opacity:0.5;fill:#4F2560;}
</style>
<g id="圖層_1">
</g>
<g id="圖層_2">
	<path class="st18" d="M183.9,27.1c0-11.5-9.3-20.8-20.8-20.8s-20.8,9.3-20.8,20.8c0,13.4-10.9,24.3-24.3,24.3
		c-13.4,0-24.3-10.9-24.3-24.3c0-11.5-9.3-20.8-20.8-20.8s-20.8,9.3-20.8,20.8c0,13.4-10.9,24.3-24.3,24.3
		c-11.5,0-20.8,9.3-20.8,20.8S16.4,93,27.9,93s20.8-9.3,20.8-20.8c0-13.4,10.9-24.3,24.3-24.3c13.4,0,24.3,10.9,24.3,24.3
		c0,11.5,9.3,20.8,20.8,20.8s20.8-9.3,20.8-20.8c0-13.4,10.9-24.3,24.3-24.3C174.6,47.9,183.9,38.6,183.9,27.1z"/>
	<circle class="st17" cx="32.5" cy="24.8" r="20.8"/>
	<circle class="st8" cx="77.6" cy="69.9" r="20.8"/>
	<circle class="st4" cx="122.7" cy="24.8" r="20.8"/>
</g>
</svg>
