<?xml version="1.0" encoding="utf-8"?>
<!-- Generator: $$$/GeneralStr/196=Adobe Illustrator 27.6.0, SVG Export Plug-In . SVG Version: 6.00 Build 0)  -->
<svg version="1.1" xmlns="http://www.w3.org/2000/svg" xmlns:xlink="http://www.w3.org/1999/xlink" x="0px" y="0px"
	 viewBox="0 0 200 100" style="enable-background:new 0 0 200 100;" xml:space="preserve">
<style type="text/css">
	.st0{fill:#FFFFFF;}
	.st1{fill:#1F83A8;}
	.st2{fill:#D94C74;}
	.st3{fill:#8DC21F;}
	.st4{fill:#4F2560;}
	.st5{fill:#D94C74;stroke:#FFFFFF;stroke-width:3;stroke-miterlimit:10;}
	.st6{fill:#4F2560;stroke:#FFFFFF;stroke-width:3;stroke-miterlimit:10;}
	.st7{fill:#049189;stroke:#FFFFFF;stroke-width:3;stroke-miterlimit:10;}
	.st8{fill:#049189;}
	.st9{fill:#9B204D;}
	.st10{fill:#EAC249;}
	.st11{fill:none;stroke:#947026;stroke-width:2;stroke-linecap:round;stroke-linejoin:round;stroke-miterlimit:10;}
	.st12{fill:none;stroke:#074B45;stroke-width:2;stroke-linecap:round;stroke-linejoin:round;stroke-miterlimit:10;}
	.st13{fill:#EC6F4A;}
	.st14{fill:none;stroke:#A64B30;stroke-width:2;stroke-linecap:round;stroke-linejoin:round;stroke-miterlimit:10;}
	.st15{fill:#EC6F4A;stroke:#A64B30;stroke-width:2;stroke-linecap:round;stroke-linejoin:round;stroke-miterlimit:10;}
	.st16{fill:#1FAD9E;}
	.st17{fill:#4A5E99;}
	.st18{fill:#C6E4E6;}
	.st19{opacity:0.5;fill:#4A5E99;}
	.st20{opacity:0.5;fill:#4F2560;}
</style>
<g id="圖層_1">
</g>
<g id="圖層_2">
	<g>
		<path class="st8" d="M45.2,20.1L45.2,20.1c8.1,0,16,2.9,22.1,8.1c0.6,0.5,1.2,1,1.7,1.5c5.1,4.9,11.8,7.6,18.9,7.6
			c2.4,0,4.8-0.3,7.1-0.9c2.3-0.6,4.6-0.9,7-0.9c6.4,0,12.6,2.3,17.4,6.4c7.3,6.2,10.8,15.8,9.1,25.2c-1.7,9.9-8.8,17.9-19.3,21.8
			c-2,0.8-4.2,1.2-6.4,1.2c-1,0-2-0.1-3-0.3c-4.1-0.7-7.9-2-11.1-3.9c-4.6-2.6-9.8-4-15.1-4c-4.6,0-9.2,1.1-13.3,3.1
			c-4.7,2.3-10,3.6-15.3,3.6c-8,0-15.9-2.9-22-8.1c-7-5.9-11.3-14.2-12.1-23.3c-0.8-9.1,2.1-18,8-25C25.6,24.6,35.1,20.1,45.2,20.1
			 M45.2,13.1c-11.7,0-23.4,5-31.6,14.6C-1.1,45.3,1.1,71.3,18.6,86c7.7,6.5,17.2,9.7,26.6,9.7c6.3,0,12.6-1.4,18.4-4.3
			c3.2-1.6,6.7-2.4,10.2-2.4c4,0,8,1.1,11.7,3.1c3.8,2.2,8.3,3.8,13.4,4.7c1.4,0.2,2.8,0.4,4.2,0.4c3,0,6-0.5,8.8-1.6
			C139.9,85,142.9,52.7,124,36.6c-6.4-5.4-14.2-8.1-21.9-8.1c-3,0-5.9,0.4-8.8,1.2c-1.7,0.5-3.5,0.7-5.3,0.7c-5.2,0-10.2-2-14-5.6
			c-0.7-0.6-1.3-1.2-2-1.8C64.1,16.4,54.7,13.1,45.2,13.1L45.2,13.1z"/>
	</g>
	<g>
		<path class="st8" d="M152.7,17.6c2.4,0,4.7,0.3,7,0.9c7.3,1.9,13.5,6.5,17.3,13c3.8,6.5,4.9,14.1,3,21.5
			c-3.2,12.5-14.5,21.2-27.4,21.2c-2.4,0-4.8-0.3-7.1-0.9c-0.6-0.2-1.2-0.3-1.8-0.5c-3.4-1.1-6.8-1.7-10.4-1.7
			c-8,0-15.7,2.9-21.7,8.1c-3.8,3.3-8.7,5.1-13.7,5.1c-1.8,0-3.5-0.2-5.3-0.7c-7.2-1.9-12.9-7.4-14.9-14.6
			c-1.3-4.5-2.1-13.3,6.5-22.3c1.5-1.5,3.3-2.7,5.4-3.3c2.7-0.8,5.4-1.2,7.9-1.2c0.6,0,1.1,0,1.7,0.1c0.9,0.1,1.7,0.1,2.6,0.1
			c11.3,0,21.7-5.1,28.6-13.9C135.8,21.7,144.1,17.6,152.7,17.6 M152.7,4.6c-12.8,0-24.8,6-32.6,15.9c-4.4,5.7-11.2,8.9-18.3,8.9
			c-0.6,0-1.1,0-1.7-0.1c-0.9-0.1-1.7-0.1-2.6-0.1c-3.7,0-7.5,0.5-11.5,1.7c-4.2,1.2-8.1,3.6-11.1,6.8
			c-20.8,21.7-9.4,52.2,14.6,58.4c2.9,0.7,5.7,1.1,8.6,1.1c8.2,0,16.1-3,22.2-8.2c3.7-3.2,8.4-4.9,13.2-4.9c2.1,0,4.2,0.3,6.3,1
			c0.9,0.3,1.7,0.5,2.6,0.8c3.5,0.9,7,1.3,10.4,1.3c18.4,0,35.1-12.4,39.9-31c5.7-22.2-7.6-44.6-29.7-50.3
			C159.6,5,156.1,4.6,152.7,4.6L152.7,4.6z"/>
	</g>
	<g>
		<path class="st10" d="M36.6,36.4c0,0,20.7,12.8,34.7,2.7S88.5,24.9,93,26.5c2.5,0.9,2.6,2.4,2.6,2.4s8-9.1,11.6-7.5
			c5.1,2.3,3.5,6.7,3.5,6.7s7.1-5.3,11,0.4c4.4,6.4-4.8,12.5-4.8,12.5s3.9,3.6,2.3,8.1s-20.6,22-20.6,22s6.5,6,2.3,9.3
			c-4.2,3.3-14.4,0-21.8,4.2c-7.3,4.1-16.4,11.4-31.8,5.9s-28.6-20-28.6-20S11,52.8,36.6,36.4z"/>
		<path class="st11" d="M76.9,45.5c0,0,9.2-4.8,18.7-16.6"/>
		<path class="st11" d="M84.1,52c0,0,21.4-13.5,26.6-23.8"/>
		<path class="st11" d="M93.9,59.2c0,0,8.6-4.2,23-18"/>
		<path class="st11" d="M66.5,78c0,0,11-13.1,32-6.9"/>
	</g>
	<g>
		<path class="st13" d="M121.1,92.1c-5.5-2.7-15.8-5.4-15.6-20.8c0.2-18.9,10.8-26.3,10.8-26.3s3.6-43,14.6-42
			c11.8,1.1,5,40.4,5,40.4s4-2.5,8.7-0.7c4.7,1.8,3.9,6.9,3.9,6.9s4.8-2.5,7.9-0.7s3.9,6.9,3.9,6.9s7.1,1.2,7.6,4.2
			c0.9,6-4.1,31.9-16.8,33.4C138.5,94.9,126.6,94.8,121.1,92.1z"/>
		<path class="st14" d="M135.1,45c0,0-7.2,19.3-0.9,22.1c5.6,2.6,10-6.8,14.1-17.8"/>
		<path class="st14" d="M164.1,72c0,0-10.8,7.6-12.3-2.6"/>
		<path class="st14" d="M160.6,55.8c0,0-8.8,20.1-16,14.9c-3.3-2.4-1.1-9.7-1.1-9.7"/>
		<path class="st14" d="M125.6,64.8c0,0,3.7,2.4,5.7,8.2s-0.9,12-0.9,12"/>
		<path class="st15" d="M120,48c0,0,20.1,16.5,14.1,22c-6,5.5-22.5-9-22.5-9"/>
	</g>
</g>
</svg>
