<?xml version="1.0" encoding="utf-8"?>
<!-- Generator: $$$/GeneralStr/196=Adobe Illustrator 27.6.0, SVG Export Plug-In . SVG Version: 6.00 Build 0)  -->
<svg version="1.1" xmlns="http://www.w3.org/2000/svg" xmlns:xlink="http://www.w3.org/1999/xlink" x="0px" y="0px"
	 viewBox="0 0 200 100" style="enable-background:new 0 0 200 100;" xml:space="preserve">
<style type="text/css">
	.st0{fill:#FFFFFF;}
	.st1{fill:#1F83A8;}
	.st2{fill:#D94C74;}
	.st3{fill:#8DC21F;}
	.st4{fill:#4F2560;}
	.st5{fill:#D94C74;stroke:#FFFFFF;stroke-width:3;stroke-miterlimit:10;}
	.st6{fill:#4F2560;stroke:#FFFFFF;stroke-width:3;stroke-miterlimit:10;}
	.st7{fill:#049189;stroke:#FFFFFF;stroke-width:3;stroke-miterlimit:10;}
	.st8{fill:#049189;}
	.st9{fill:#9B204D;}
	.st10{fill:#EAC249;}
	.st11{fill:none;stroke:#947026;stroke-width:2;stroke-linecap:round;stroke-linejoin:round;stroke-miterlimit:10;}
	.st12{fill:none;stroke:#074B45;stroke-width:2;stroke-linecap:round;stroke-linejoin:round;stroke-miterlimit:10;}
	.st13{fill:#EC6F4A;}
	.st14{fill:none;stroke:#A64B30;stroke-width:2;stroke-linecap:round;stroke-linejoin:round;stroke-miterlimit:10;}
	.st15{fill:#EC6F4A;stroke:#A64B30;stroke-width:2;stroke-linecap:round;stroke-linejoin:round;stroke-miterlimit:10;}
	.st16{fill:#1FAD9E;}
	.st17{fill:#4A5E99;}
	.st18{fill:#C6E4E6;}
	.st19{opacity:0.5;fill:#4A5E99;}
	.st20{opacity:0.5;fill:#4F2560;}
</style>
<g id="圖層_1">
</g>
<g id="圖層_2">
	<g>
		<g>
			<path class="st7" d="M35,43.5c0,0.3-17.1,10.2-11.7,22.7C29.7,79.6,53,85.1,79.5,81.6c26.3-3,55.9-15,70.1-25.2
				c16.9-12.1,29.7-5.9,27.3,6.7c-2.7,12.5-14.2,12.9-14.1,13c-0.4-0.1,23.8,6.4,25.9-24.3c0.3-27.1-23.9-18.8-34.9-9.1
				c-33,28.2-67.8,35.3-92.3,33.5C37,74,23,62.8,35,43.5z"/>
			<path class="st4" d="M188,57.5c0.2,0-3.5,18.2-20.8,19c-19.7,1.5-35.1-32.2-78.8-60.8c-13.1-9-32.6-3-50.4,7.1
				C20.7,33.3,5.1,47.9,8.5,65c5.3,19.3,30.9,26.5,57.1,23.1c25.9-2.5,52.4-15.7,52.8-16c-0.1,0.1-21.8,7.6-44.1,8.8
				c-22.4,1.7-45.4-3-51.4-16.4c-2.2-4.9,2.5-14.5,13.3-21.7c10.8-6.8,27.7-11.2,50.9,3.3c39.2,25.4,50.1,44.1,74.8,41.5
				C170.5,86.8,185.1,81.3,188,57.5z"/>
		</g>
	</g>
	<g>
		<path class="st9" d="M133.5,41.4c3.6,8.6,18,15,26.8,12c4.8-2,8.9-7.3,11.1-13.2c-2.3,4.4-5.7,8.1-9.5,9.7
			c-8.8,3-23.2-3.5-26.8-12c-1.1-3.2-1.6-8.3-0.6-12.3C131.6,29.5,132,37.1,133.5,41.4z"/>
		<path class="st2" d="M135.1,37.9c3.6,8.6,18,15,26.8,12c3.8-1.6,7.2-5.3,9.5-9.7c1.8-4.7,2.3-9.7,1-13.6
			c-2.2-5.2-8-12.2-14.8-11.6c-4.1,0.4-6.5,3.7-7.8,6.5c-0.7,1.5-2.5,2.1-4,1.5c-2.8-1.1-5.8-1.4-9.5,0.9c-0.7,0.4-1.3,1-1.8,1.7
			C133.4,29.6,134,34.7,135.1,37.9z"/>
	</g>
</g>
</svg>
