<?xml version="1.0" encoding="utf-8"?>
<!-- Generator: $$$/GeneralStr/196=Adobe Illustrator 27.6.0, SVG Export Plug-In . SVG Version: 6.00 Build 0)  -->
<svg version="1.1" xmlns="http://www.w3.org/2000/svg" xmlns:xlink="http://www.w3.org/1999/xlink" x="0px" y="0px"
	 viewBox="0 0 640 640" style="enable-background:new 0 0 640 640;" xml:space="preserve">
<style type="text/css">
	.st0{opacity:0.8;}
	.st1{fill:#E4EBF1;}
	.st2{opacity:0.7;}
	.st3{fill:#FFFFFF;}
	.st4{fill:#DDDDDD;}
	.st5{fill:#C6C6C6;stroke:#FFFFFF;stroke-width:4;stroke-miterlimit:10;}
	.st6{clip-path:url(#SVGID_00000102526781286616919160000015564396347306937998_);}
	.st7{clip-path:url(#SVGID_00000072991796453981712400000014908279285914190503_);}
	.st8{clip-path:url(#SVGID_00000178922651821368626850000018194375207994193546_);}
	.st9{clip-path:url(#SVGID_00000006674303497348932240000009398082692415663530_);}
	.st10{clip-path:url(#SVGID_00000031919057170941152010000015282575494357206912_);}
	.st11{clip-path:url(#SVGID_00000134972455859543238550000002574551409642988985_);}
	.st12{clip-path:url(#SVGID_00000020369166063790850890000002492499420803338376_);fill:none;stroke:#FFFFFF;stroke-miterlimit:10;}
	.st13{fill:#727272;}
	.st14{fill:#EF5C60;}
	.st15{fill:#FEC92C;}
	.st16{fill:#C6C6C6;}
	.st17{fill:none;stroke:#FFFFFF;stroke-width:5;stroke-linecap:round;stroke-linejoin:round;stroke-miterlimit:10;}
	.st18{fill:none;stroke:#FEC92C;stroke-width:8;stroke-linecap:round;stroke-linejoin:round;}
	.st19{fill:none;stroke:#FEC92C;stroke-width:8;stroke-linecap:round;stroke-linejoin:round;stroke-dasharray:0,19.584;}
	.st20{fill:none;stroke:#FEC92C;stroke-width:8;stroke-linecap:round;stroke-linejoin:round;stroke-dasharray:0,14.8603;}
	.st21{fill:none;stroke:#FEC92C;stroke-width:8;stroke-linecap:round;stroke-linejoin:round;stroke-dasharray:0,14.6977;}
	.st22{fill:none;stroke:#FEC92C;stroke-width:8;stroke-linecap:round;stroke-linejoin:round;stroke-dasharray:0,15.0712;}
	.st23{fill:none;stroke:#FEC92C;stroke-width:8;stroke-linecap:round;stroke-linejoin:round;stroke-dasharray:0,18.1126;}
	.st24{fill:none;stroke:#FEC92C;stroke-width:8;stroke-linecap:round;stroke-linejoin:round;stroke-dasharray:0,18.9303;}
	.st25{fill:none;stroke:#727272;stroke-width:8;stroke-linecap:round;stroke-linejoin:round;}
	.st26{fill:none;stroke:#727272;stroke-width:8;stroke-linecap:round;stroke-linejoin:round;stroke-dasharray:0,19.584;}
	.st27{fill:none;stroke:#727272;stroke-width:8;stroke-linecap:round;stroke-linejoin:round;stroke-dasharray:0,14.8603;}
	.st28{fill:none;stroke:#727272;stroke-width:8;stroke-linecap:round;stroke-linejoin:round;stroke-dasharray:0,14.6977;}
	.st29{fill:none;stroke:#727272;stroke-width:8;stroke-linecap:round;stroke-linejoin:round;stroke-dasharray:0,15.0712;}
	.st30{fill:none;stroke:#727272;stroke-width:8;stroke-linecap:round;stroke-linejoin:round;stroke-dasharray:0,18.1126;}
	.st31{fill:none;stroke:#727272;stroke-width:8;stroke-linecap:round;stroke-linejoin:round;stroke-dasharray:0,18.9303;}
	.st32{fill:none;stroke:#727272;stroke-width:3;stroke-linejoin:round;stroke-miterlimit:10;}
	.st33{clip-path:url(#SVGID_00000129179528153162037890000007903592757134289320_);}
	.st34{clip-path:url(#SVGID_00000031202310506618692450000005935249968943833789_);}
	.st35{fill:none;stroke:#FFFFFF;stroke-width:4;stroke-linecap:round;stroke-linejoin:round;stroke-miterlimit:10;}
	.st36{fill:#FFFFFF;stroke:#C6C6C6;stroke-miterlimit:10;}
	.st37{fill:#DDDDDD;stroke:#727272;stroke-miterlimit:10;}
	.st38{fill:#727272;stroke:#FFFFFF;stroke-width:3;stroke-miterlimit:10;}
</style>
<g id="liquid">
	<g class="st0">
		
			<image style="overflow:visible;opacity:0.12;" width="135" height="135" xlink:href="2D61E70CCD443CB1.png"  transform="matrix(1 0 0 1 312.83 81.6961)">
		</image>
		<g>
			<circle class="st1" cx="380.5" cy="146.2" r="57.7"/>
		</g>
	</g>
	<g class="st0">
		
			<image style="overflow:visible;opacity:0.12;" width="374" height="316" xlink:href="2D61E70CCD443CB3.png"  transform="matrix(1 0 0 1 155.83 247.6961)">
		</image>
		<g>
			<path class="st1" d="M366.9,525c-73.8-102.5-171.6,46.2-195.8-48.9c-24.2-95.1,33.3-191.8,128.5-216s191.8,33.3,216,128.5
				C546.1,508.8,419.5,598.1,366.9,525z"/>
		</g>
	</g>
	<g class="st0">
		
			<image style="overflow:visible;opacity:0.12;" width="574" height="266" xlink:href="2D61E70CCD443CB6.png"  transform="matrix(1 0 0 1 32.83 139.6961)">
		</image>
		<g>
			<path class="st1" d="M349.7,248.7c-40.8-2.4-20.6-96.1-123.8-102.2C122.6,140.4,6.5,257.9,52.9,347
				c26.7,51.3,104.2,61.9,149.5,22.2c34.1-29.8,51-93.7,141.6-88.4c64.3,3.8,82.3,53.7,143.1,58.8c54.4,4.6,119.7-53.3,109.4-123
				c-7.6-51.3-65.5-79.2-124.9-47.4C431.2,190.8,395.4,251.4,349.7,248.7z"/>
		</g>
	</g>
	<g class="st2">
		
			<image style="overflow:visible;opacity:0.12;" width="404" height="404" xlink:href="2D61E70CCD443CB7.png"  transform="matrix(1 0 0 1 131.83 116.6961)">
		</image>
		<g>
			<circle class="st3" cx="333.8" cy="315.4" r="192.4"/>
		</g>
	</g>
</g>
<g id="objs">
	<polygon class="st16" points="409.4,387.3 482.2,414.9 445.8,230.6 390.6,211.9 	"/>
	<polygon class="st4" points="336.5,402.8 409.4,387.3 390.6,211.9 336.5,225.1 	"/>
	<polygon class="st16" points="262.6,387.3 336.5,402.8 336.5,225.1 274.7,205.2 	"/>
	<polygon class="st4" points="185.3,414.9 262.6,387.3 274.7,205.2 219.6,229.5 	"/>
	<polygon class="st17" points="445.8,230.6 390.6,211.9 336.5,225.1 274.7,205.2 219.6,229.5 185.3,414.9 262.6,387.3 336.5,402.8 
		409.4,387.3 482.2,414.9 	"/>
	<g>
		<g>
			<line class="st25" x1="237.7" y1="332.3" x2="237.7" y2="332.3"/>
			<line class="st26" x1="252.8" y1="319.8" x2="260.4" y2="313.6"/>
			<line class="st25" x1="267.9" y1="307.3" x2="267.9" y2="307.3"/>
			<line class="st27" x1="278.9" y1="317.3" x2="328.3" y2="362.4"/>
			<line class="st25" x1="333.8" y1="367.4" x2="333.8" y2="367.4"/>
			<line class="st28" x1="348.1" y1="364.3" x2="398.4" y2="353.3"/>
			<line class="st25" x1="405.6" y1="351.7" x2="405.6" y2="351.7"/>
			<line class="st29" x1="413.3" y1="338.8" x2="432.5" y2="306.4"/>
			<line class="st25" x1="436.4" y1="299.9" x2="436.4" y2="299.9"/>
			<line class="st30" x1="423.6" y1="287.1" x2="404.3" y2="268"/>
			<line class="st25" x1="397.9" y1="261.6" x2="397.9" y2="261.6"/>
			<line class="st31" x1="381.9" y1="271.7" x2="373.9" y2="276.7"/>
			<line class="st25" x1="365.9" y1="281.7" x2="365.9" y2="281.7"/>
		</g>
	</g>
	<g>
		<path class="st14" d="M403.1,217.8c0-21.3-18-38.5-39.6-37.1c-18.9,1.2-34.1,16.7-34.8,35.6c-0.5,12.6,5.2,23.8,14.4,30.9
			c3.5,2.7,6.5,5.9,8.7,9.7l14.2,24.8l13.1-23.1c2.5-4.5,5.8-8.5,9.9-11.7C397.5,240.2,403.1,229.6,403.1,217.8z"/>
		<path class="st3" d="M365.9,234L365.9,234c-8.4,0-15.3-6.9-15.3-15.3v0c0-8.4,6.9-15.3,15.3-15.3h0c8.4,0,15.3,6.9,15.3,15.3v0
			C381.2,227.1,374.3,234,365.9,234z"/>
	</g>
</g>
</svg>
