<?xml version="1.0" encoding="utf-8"?>
<!-- Generator: $$$/GeneralStr/196=Adobe Illustrator 27.6.0, SVG Export Plug-In . SVG Version: 6.00 Build 0)  -->
<svg version="1.1" xmlns="http://www.w3.org/2000/svg" xmlns:xlink="http://www.w3.org/1999/xlink" x="0px" y="0px"
	 viewBox="0 0 640 640" style="enable-background:new 0 0 640 640;" xml:space="preserve">
<style type="text/css">
	.st0{opacity:0.8;}
	.st1{fill:#E4EBF1;}
	.st2{opacity:0.7;}
	.st3{fill:#FFFFFF;}
	.st4{fill:#DDDDDD;}
	.st5{fill:#C6C6C6;stroke:#FFFFFF;stroke-width:4;stroke-miterlimit:10;}
	.st6{clip-path:url(#SVGID_00000143591514577140827540000007227227684876067713_);}
	.st7{clip-path:url(#SVGID_00000182499603776252424730000006687756843893046969_);}
	.st8{clip-path:url(#SVGID_00000095323382946236668170000014236107790752908674_);}
	.st9{clip-path:url(#SVGID_00000113354177893636795440000008948899996657478057_);}
	.st10{clip-path:url(#SVGID_00000135693187461429986030000005748141494585587892_);}
	.st11{clip-path:url(#SVGID_00000059269770295291988510000009248057655378077351_);}
	.st12{clip-path:url(#SVGID_00000052081119139712362120000002593502167575009423_);fill:none;stroke:#FFFFFF;stroke-miterlimit:10;}
	.st13{fill:#727272;}
	.st14{fill:#EF5C60;}
	.st15{fill:#FEC92C;}
	.st16{fill:#C6C6C6;}
	.st17{fill:none;stroke:#FFFFFF;stroke-width:5;stroke-linecap:round;stroke-linejoin:round;stroke-miterlimit:10;}
	.st18{fill:none;stroke:#FEC92C;stroke-width:8;stroke-linecap:round;stroke-linejoin:round;}
	.st19{fill:none;stroke:#FEC92C;stroke-width:8;stroke-linecap:round;stroke-linejoin:round;stroke-dasharray:0,19.584;}
	.st20{fill:none;stroke:#FEC92C;stroke-width:8;stroke-linecap:round;stroke-linejoin:round;stroke-dasharray:0,14.8603;}
	.st21{fill:none;stroke:#FEC92C;stroke-width:8;stroke-linecap:round;stroke-linejoin:round;stroke-dasharray:0,14.6977;}
	.st22{fill:none;stroke:#FEC92C;stroke-width:8;stroke-linecap:round;stroke-linejoin:round;stroke-dasharray:0,15.0712;}
	.st23{fill:none;stroke:#FEC92C;stroke-width:8;stroke-linecap:round;stroke-linejoin:round;stroke-dasharray:0,18.1126;}
	.st24{fill:none;stroke:#FEC92C;stroke-width:8;stroke-linecap:round;stroke-linejoin:round;stroke-dasharray:0,18.9303;}
	.st25{fill:none;stroke:#727272;stroke-width:8;stroke-linecap:round;stroke-linejoin:round;}
	.st26{fill:none;stroke:#727272;stroke-width:8;stroke-linecap:round;stroke-linejoin:round;stroke-dasharray:0,19.584;}
	.st27{fill:none;stroke:#727272;stroke-width:8;stroke-linecap:round;stroke-linejoin:round;stroke-dasharray:0,14.8603;}
	.st28{fill:none;stroke:#727272;stroke-width:8;stroke-linecap:round;stroke-linejoin:round;stroke-dasharray:0,14.6977;}
	.st29{fill:none;stroke:#727272;stroke-width:8;stroke-linecap:round;stroke-linejoin:round;stroke-dasharray:0,15.0712;}
	.st30{fill:none;stroke:#727272;stroke-width:8;stroke-linecap:round;stroke-linejoin:round;stroke-dasharray:0,18.1126;}
	.st31{fill:none;stroke:#727272;stroke-width:8;stroke-linecap:round;stroke-linejoin:round;stroke-dasharray:0,18.9303;}
	.st32{fill:none;stroke:#727272;stroke-width:3;stroke-linejoin:round;stroke-miterlimit:10;}
	.st33{clip-path:url(#SVGID_00000071541980712086489750000008563573642389883306_);}
	.st34{clip-path:url(#SVGID_00000000922633735804584580000015608811242551031993_);}
	.st35{fill:none;stroke:#FFFFFF;stroke-width:4;stroke-linecap:round;stroke-linejoin:round;stroke-miterlimit:10;}
	.st36{fill:#FFFFFF;stroke:#C6C6C6;stroke-miterlimit:10;}
	.st37{fill:#DDDDDD;stroke:#727272;stroke-miterlimit:10;}
	.st38{fill:#727272;stroke:#FFFFFF;stroke-width:3;stroke-miterlimit:10;}
	.st39{font-family:'GenJyuuGothicX-P-Bold';}
	.st40{font-size:32px;}
	.st41{letter-spacing:6;}
</style>
<g id="liquid">
	<g class="st0">
		
			<image style="overflow:visible;opacity:0.12;" width="247" height="232" xlink:href="5CC8AE9A2C0398C1.png"  transform="matrix(1 0 0 1 296.4159 346.1101)">
		</image>
		<g>
			<path class="st1" d="M481.6,430.1c59.4-8.8,66.2,37.6,32.1,80.8c-30.5,38.6-92.2,69.7-122.7,48c-51.1-36.3,10.4-141.7-52.4-151.7
				c-59.1-9.5-26-69.7,9.3-50.3C373.5,370.9,331,452.4,481.6,430.1z"/>
		</g>
	</g>
	<g class="st0">
		
			<image style="overflow:visible;opacity:0.12;" width="76" height="76" xlink:href="5CC8AE9A2C0398C3.png"  transform="matrix(1 0 0 1 68.5823 214.3779)">
		</image>
		<g>
			<path class="st1" d="M78.5,243c3.4-15.4,18.7-25.1,34.1-21.6c15.4,3.4,25.1,18.7,21.6,34.1s-18.7,25.1-34.1,21.6
				C84.8,273.6,75.1,258.4,78.5,243z"/>
		</g>
	</g>
	<g>
		
			<image style="overflow:visible;opacity:0.12;" width="39" height="40" xlink:href="5CC8AE9A2C0398C6.png"  transform="matrix(1 0 0 1 320.4159 394.1101)">
		</image>
		<g>
			
				<ellipse transform="matrix(0.2371 -0.9715 0.9715 0.2371 -139.9982 643.9254)" class="st1" cx="340" cy="411.1" rx="10.3" ry="10.3"/>
		</g>
	</g>
	<g class="st0">
		
			<image style="overflow:visible;opacity:0.12;" width="234" height="233" xlink:href="5CC8AE9A2C0398C7.png"  transform="matrix(1 0 0 1 61.4159 320.1101)">
		</image>
		<g>
			<circle class="st1" cx="178.5" cy="433.6" r="107.3"/>
		</g>
	</g>
	<g class="st0">
		
			<image style="overflow:visible;opacity:0.1;" width="459" height="435" xlink:href="5CC8AE9A2C0398C2.png"  transform="matrix(1 0 0 1 122.8718 49.0106)">
		</image>
		<g>
			<path class="st1" d="M487.9,462.8c-54.6,26.9-121.8-1.3-121-65.2c1.4-114.9-78.5-161.6-158.7-177.4
				c-73-14.4-100.2-43.9-52.2-94.9c72.9-77.4,219.8-104.7,335.7-2C605.7,224.4,594.3,410.4,487.9,462.8z"/>
		</g>
	</g>
	<g class="st2">
		
			<image style="overflow:visible;opacity:0.12;" width="404" height="404" xlink:href="5CC8AE9A2C0398CD.png"  transform="matrix(1 0 0 1 118.4159 117.1101)">
		</image>
		<g>
			<circle class="st3" cx="320.5" cy="316.1" r="192.4"/>
		</g>
	</g>
</g>
<g id="objs">
	<g>
		<polygon class="st32" points="426.2,132.1 391.7,169.6 460.8,169.6 		"/>
		<polygon class="st32" points="288.2,132.1 253.7,169.6 322.7,169.6 		"/>
		<polygon class="st32" points="391.7,169.6 426.2,132.1 357.2,132.1 		"/>
		<polygon class="st32" points="426.2,207.1 460.8,169.6 391.7,169.6 		"/>
		<polygon class="st32" points="426.2,206.7 391.7,169.3 391.7,244.2 		"/>
		<polygon class="st32" points="426.2,206.7 460.8,244.2 460.8,169.3 		"/>
		<polygon class="st32" points="426.2,207.1 391.7,244.6 460.8,244.6 		"/>
		<polygon class="st32" points="426.2,282.1 460.8,244.6 391.7,244.6 		"/>
		<polygon class="st32" points="426.2,281.7 391.7,244.3 391.7,319.2 		"/>
		<polygon class="st32" points="426.2,281.7 460.8,319.2 460.8,244.3 		"/>
		<polygon class="st32" points="357.2,132.1 322.7,169.6 391.7,169.6 		"/>
		<polygon class="st32" points="322.7,169.6 357.2,132.1 288.2,132.1 		"/>
	</g>
	<path class="st5" d="M467.7,464.9H172.3c-10.4,0-19-8.5-19-19V244.3c0-10.4,8.5-19,19-19h295.5c10.4,0,19,8.5,19,19v201.7
		C486.7,456.4,478.2,464.9,467.7,464.9z"/>
	<path class="st3" d="M454.4,446.3H185.6c-8.7,0-15.8-7.1-15.8-15.8V278.7c0-8.7,7.1-15.8,15.8-15.8h268.9c8.7,0,15.8,7.1,15.8,15.8
		v151.9C470.2,439.2,463.1,446.3,454.4,446.3z"/>
	<g>
		<path class="st4" d="M316.5,393.5l-124.8-20.9c-8.1-1.4-13.7-9.1-12.3-17.3l14.6-86.9c1.4-8.1,9.1-13.7,17.3-12.3L336,277
			c8.1,1.4,13.7,9.1,12.3,17.3l-14.6,86.9C332.4,389.3,324.6,394.9,316.5,393.5z"/>
		<path class="st13" d="M291,372.8l-14-37.5c-2.7-7.3-12.4-9-17.4-2.9l-12.5,15.1L235.3,316c-3.5-9.3-15.7-11.3-22-3.7l-31.4,38.1
			c-6.3,7.6-2,19.2,7.8,20.9l48.7,8.2c0.4,0.1,0.7,0.1,1.1,0.1c0.2,0.1,0.5,0.1,0.7,0.2l39.5,6.6C287.5,387.7,293.7,380.1,291,372.8
			z"/>
		<circle class="st3" cx="311.9" cy="311.6" r="20.9"/>
	</g>
	<path class="st13" d="M275.6,222.1H257v-51.4h-4.2v51.4h-18.5c-7.5,0-13,7-11.3,14.3l5.2,11.5c1.3,5.2,5.9,8.9,11.3,8.9h10.7
		c-0.2,0.4-0.3,0.7-0.5,1.1c-0.4,1-0.9,2.1-1.7,3.1c-0.8,1.1-1.5,2.1-2.4,3c-0.8,0.9-1.6,1.9-2.4,2.8c-0.8,1-1.4,2.1-1.9,3.3
		c-0.5,1.2-0.8,2.5-0.8,3.8c0,3.7,1.1,6.5,3.4,8.5c2.3,1.9,5.3,2.9,9,2.9c3.7,0,7.1-1.2,10.2-3.7c0.7-0.5,1.1-1.2,1.1-2.1
		c0-0.9-0.4-1.7-1.1-2.4c-0.7-0.6-1.5-0.9-2.3-0.9c-0.9,0-1.8,0.3-2.6,0.8c-1.3,0.9-2.7,1.3-4.1,1.3c-1.6,0-2.8-0.4-3.7-1.3
		c-0.9-0.9-1.4-2.1-1.4-3.6c0-0.9,0.3-1.8,0.8-2.8c0.5-1,1.2-1.9,2-2.8c0.8-0.9,1.6-1.9,2.4-2.8c0.8-1,1.5-2,2.2-3.3
		c0.7-1.2,1.1-2.5,1.4-3.8c0-0.2,0.1-0.4,0.1-0.6c0-0.2,0-0.4-0.1-0.5h12.3c5.3,0,9.9-3.6,11.3-8.8l5.4-11.5
		C288.7,229.2,283.1,222.1,275.6,222.1z"/>
	<text transform="matrix(1 0 0 1 223.9998 429.3396)" class="st14 st39 st40 st41">資料建置中</text>
	<path class="st16" d="M452.8,310.4h-96.2c-1.7,0-3-1.4-3-3l0,0c0-1.7,1.4-3,3-3h96.2c1.7,0,3,1.4,3,3l0,0
		C455.8,309,454.5,310.4,452.8,310.4z"/>
	<path class="st16" d="M452.8,327.1h-96.2c-1.7,0-3-1.4-3-3v0c0-1.7,1.4-3,3-3h96.2c1.7,0,3,1.4,3,3v0
		C455.8,325.7,454.5,327.1,452.8,327.1z"/>
	<path class="st16" d="M452.8,343.8h-96.2c-1.7,0-3-1.4-3-3l0,0c0-1.7,1.4-3,3-3h96.2c1.7,0,3,1.4,3,3l0,0
		C455.8,342.5,454.5,343.8,452.8,343.8z"/>
	<path class="st16" d="M452.8,360.5h-77.3c-1.7,0-3-1.4-3-3l0,0c0-1.7,1.4-3,3-3h77.3c1.7,0,3,1.4,3,3l0,0
		C455.8,359.2,454.5,360.5,452.8,360.5z"/>
	<path class="st16" d="M452.8,377.3h-77.3c-1.7,0-3-1.4-3-3l0,0c0-1.7,1.4-3,3-3h77.3c1.7,0,3,1.4,3,3l0,0
		C455.8,375.9,454.5,377.3,452.8,377.3z"/>
</g>
</svg>
