<?xml version="1.0" encoding="utf-8"?>
<!-- Generator: $$$/GeneralStr/196=Adobe Illustrator 27.6.0, SVG Export Plug-In . SVG Version: 6.00 Build 0)  -->
<svg version="1.1" xmlns="http://www.w3.org/2000/svg" xmlns:xlink="http://www.w3.org/1999/xlink" x="0px" y="0px"
	 viewBox="0 0 640 640" style="enable-background:new 0 0 640 640;" xml:space="preserve">
<style type="text/css">
	.st0{opacity:0.8;}
	.st1{fill:#E4EBF1;}
	.st2{opacity:0.7;}
	.st3{fill:#FFFFFF;}
	.st4{fill:#DDDDDD;}
	.st5{fill:#C6C6C6;stroke:#FFFFFF;stroke-width:4;stroke-miterlimit:10;}
	.st6{clip-path:url(#SVGID_00000132081394945943596080000016751737168796152714_);}
	.st7{clip-path:url(#SVGID_00000147910272355699795580000013146784138419746718_);}
	.st8{clip-path:url(#SVGID_00000000204611783060406700000008573996711027212185_);}
	.st9{clip-path:url(#SVGID_00000126297914051845598100000004259804935602344622_);}
	.st10{clip-path:url(#SVGID_00000150781688628687172400000004357826726161726384_);}
	.st11{clip-path:url(#SVGID_00000158012263110275953300000010872457377610894241_);}
	.st12{clip-path:url(#SVGID_00000178903374948251882050000011693884745881424010_);fill:none;stroke:#FFFFFF;stroke-miterlimit:10;}
	.st13{fill:#727272;}
	.st14{fill:#EF5C60;}
	.st15{fill:#FEC92C;}
	.st16{fill:#C6C6C6;}
	.st17{fill:none;stroke:#FFFFFF;stroke-width:5;stroke-linecap:round;stroke-linejoin:round;stroke-miterlimit:10;}
	.st18{fill:none;stroke:#FEC92C;stroke-width:8;stroke-linecap:round;stroke-linejoin:round;}
	.st19{fill:none;stroke:#FEC92C;stroke-width:8;stroke-linecap:round;stroke-linejoin:round;stroke-dasharray:0,19.584;}
	.st20{fill:none;stroke:#FEC92C;stroke-width:8;stroke-linecap:round;stroke-linejoin:round;stroke-dasharray:0,14.8603;}
	.st21{fill:none;stroke:#FEC92C;stroke-width:8;stroke-linecap:round;stroke-linejoin:round;stroke-dasharray:0,14.6977;}
	.st22{fill:none;stroke:#FEC92C;stroke-width:8;stroke-linecap:round;stroke-linejoin:round;stroke-dasharray:0,15.0712;}
	.st23{fill:none;stroke:#FEC92C;stroke-width:8;stroke-linecap:round;stroke-linejoin:round;stroke-dasharray:0,18.1126;}
	.st24{fill:none;stroke:#FEC92C;stroke-width:8;stroke-linecap:round;stroke-linejoin:round;stroke-dasharray:0,18.9303;}
	.st25{fill:none;stroke:#727272;stroke-width:8;stroke-linecap:round;stroke-linejoin:round;}
	.st26{fill:none;stroke:#727272;stroke-width:8;stroke-linecap:round;stroke-linejoin:round;stroke-dasharray:0,19.584;}
	.st27{fill:none;stroke:#727272;stroke-width:8;stroke-linecap:round;stroke-linejoin:round;stroke-dasharray:0,14.8603;}
	.st28{fill:none;stroke:#727272;stroke-width:8;stroke-linecap:round;stroke-linejoin:round;stroke-dasharray:0,14.6977;}
	.st29{fill:none;stroke:#727272;stroke-width:8;stroke-linecap:round;stroke-linejoin:round;stroke-dasharray:0,15.0712;}
	.st30{fill:none;stroke:#727272;stroke-width:8;stroke-linecap:round;stroke-linejoin:round;stroke-dasharray:0,18.1126;}
	.st31{fill:none;stroke:#727272;stroke-width:8;stroke-linecap:round;stroke-linejoin:round;stroke-dasharray:0,18.9303;}
	.st32{fill:none;stroke:#727272;stroke-width:3;stroke-linejoin:round;stroke-miterlimit:10;}
	.st33{clip-path:url(#SVGID_00000096742335935288346950000007077276416708724106_);}
	.st34{clip-path:url(#SVGID_00000103961264837122051700000006021671750212859285_);}
	.st35{fill:none;stroke:#FFFFFF;stroke-width:4;stroke-linecap:round;stroke-linejoin:round;stroke-miterlimit:10;}
	.st36{fill:#FFFFFF;stroke:#C6C6C6;stroke-miterlimit:10;}
	.st37{fill:#DDDDDD;stroke:#727272;stroke-miterlimit:10;}
	.st38{fill:#727272;stroke:#FFFFFF;stroke-width:3;stroke-miterlimit:10;}
</style>
<g id="liquid">
	<g class="st0">
		
			<image style="overflow:visible;opacity:0.12;" width="35" height="35" xlink:href="D8080E54C5693145.png"  transform="matrix(1 0 0 1 336.7663 225.1101)">
		</image>
		<g>
			<circle class="st1" cx="354.2" cy="239.7" r="8.1"/>
		</g>
	</g>
	<g class="st0">
		
			<image style="overflow:visible;opacity:0.12;" width="102" height="103" xlink:href="D8080E54C5693147.png"  transform="matrix(1 0 0 1 392.7663 108.1101)">
		</image>
		<g>
			<path class="st1" d="M485.6,156.4c0,23.2-18.8,41.9-41.9,41.9c-23.2,0-41.9-18.8-41.9-41.9s18.8-41.9,41.9-41.9
				C466.9,114.5,485.6,133.2,485.6,156.4z"/>
		</g>
	</g>
	<g class="st0">
		
			<image style="overflow:visible;opacity:0.12;" width="307" height="304" xlink:href="D8080E54C5693142.png"  transform="matrix(1 0 0 1 58.7663 122.1101)">
		</image>
		<g>
			<path class="st1" d="M112.2,213.6c-52-1.8-59.5-59.4-12.5-81.3c46.6-21.7,45,56.7,101.9,40.6c48.2-13.7,126.4-55.9,148.4,21.6
				c24,84.5-20.3,168.7-104.7,181.1c-101.9,14.9-102,43.2-139.4,37.2c-34.1-5.5-48-54.5-21.7-83c20.7-22.4,56.8-41.2,66.3-65.6
				C162.7,232.7,137.9,214.5,112.2,213.6z"/>
		</g>
	</g>
	<g class="st0">
		
			<image style="overflow:visible;opacity:0.12;" width="438" height="345" xlink:href="D8080E54C5693143.png"  transform="matrix(1 0 0 1 158.7663 219.1101)">
		</image>
		<g>
			<path class="st1" d="M587.1,379.8c-0.6,54.6-50.8,97.2-102.1,71c-92.1-47.1-162.5-1.7-208,56.4c-41.4,52.8-76.4,62.9-97.9,3.9
				c-32.7-89.5,5.3-218.2,135.5-270.1C442.8,189.9,588.3,273.5,587.1,379.8z"/>
		</g>
	</g>
	<g class="st2">
		
			<image style="overflow:visible;opacity:0.12;" width="404" height="404" xlink:href="D8080E54C569314D.png"  transform="matrix(1 0 0 1 118.7663 126.1101)">
		</image>
		<g>
			<circle class="st3" cx="321.1" cy="325.5" r="192.4"/>
		</g>
	</g>
</g>
<g id="objs">
	<g>
		<path class="st36" d="M433,450l-103.4-17.3c-8.6-1.4-14.4-9.6-13-18.2l27.1-161.7c1.4-8.6,9.6-14.4,18.2-13l103.4,17.3
			c8.6,1.4,14.4,9.6,13,18.2L451.2,437C449.8,445.6,441.6,451.5,433,450z"/>
		<path class="st4" d="M450.8,353.5l-65.6-11c-1.8-0.3-3.1-2.1-2.8-3.9v0c0.3-1.8,2.1-3.1,3.9-2.8l65.6,11c1.8,0.3,3.1,2.1,2.8,3.9
			l0,0C454.4,352.5,452.6,353.8,450.8,353.5z"/>
		<path class="st4" d="M448.6,366.4l-65.6-11c-1.8-0.3-3.1-2.1-2.8-3.9l0,0c0.3-1.8,2.1-3.1,3.9-2.8l65.6,11
			c1.8,0.3,3.1,2.1,2.8,3.9l0,0C452.2,365.5,450.5,366.7,448.6,366.4z"/>
		<path class="st4" d="M446.5,379.4l-65.6-11c-1.8-0.3-3.1-2.1-2.8-3.9l0,0c0.3-1.8,2.1-3.1,3.9-2.8l65.6,11
			c1.8,0.3,3.1,2.1,2.8,3.9l0,0C450,378.4,448.3,379.7,446.5,379.4z"/>
		<path class="st4" d="M444.6,390.7l-65.6-11c-1.8-0.3-3.1-2.1-2.8-3.9l0,0c0.3-1.8,2.1-3.1,3.9-2.8l65.6,11
			c1.8,0.3,3.1,2.1,2.8,3.9l0,0C448.1,389.8,446.4,391,444.6,390.7z"/>
		<path class="st4" d="M441.3,409.8l-65.6-11c-1.8-0.3-3.1-2.1-2.8-3.9l0,0c0.3-1.8,2.1-3.1,3.9-2.8l65.6,11
			c1.8,0.3,3.1,2.1,2.8,3.9l0,0C444.9,408.9,443.2,410.2,441.3,409.8z"/>
		<path class="st4" d="M439.2,422.8l-65.6-11c-1.8-0.3-3.1-2.1-2.8-3.9l0,0c0.3-1.8,2.1-3.1,3.9-2.8l65.6,11
			c1.8,0.3,3.1,2.1,2.8,3.9l0,0C442.7,421.9,441,423.1,439.2,422.8z"/>
		<path class="st4" d="M437,435.8l-65.6-11c-1.8-0.3-3.1-2.1-2.8-3.9l0,0c0.3-1.8,2.1-3.1,3.9-2.8l65.6,11c1.8,0.3,3.1,2.1,2.8,3.9
			v0C440.6,434.8,438.8,436.1,437,435.8z"/>
	</g>
	<g>
		<path class="st37" d="M400.2,429l-104.3,10.7c-8.7,0.9-16.5-5.5-17.4-14.1l-16.8-163.1c-0.9-8.7,5.5-16.5,14.1-17.4l104.3-10.7
			c8.7-0.9,16.5,5.5,17.4,14.1l16.8,163.1C415.2,420.3,408.8,428.1,400.2,429z"/>
		<path class="st16" d="M391.7,331.2l-66.1,6.8c-1.8,0.2-3.5-1.2-3.7-3h0c-0.2-1.8,1.2-3.5,3-3.7l66.1-6.8c1.8-0.2,3.5,1.2,3.7,3v0
			C394.9,329.4,393.5,331,391.7,331.2z"/>
		<path class="st16" d="M393,344.3l-66.1,6.8c-1.8,0.2-3.5-1.2-3.7-3l0,0c-0.2-1.8,1.2-3.5,3-3.7l66.1-6.8c1.8-0.2,3.5,1.2,3.7,3
			l0,0C396.2,342.4,394.9,344.1,393,344.3z"/>
		<path class="st16" d="M394.4,357.4l-66.1,6.8c-1.8,0.2-3.5-1.2-3.7-3l0,0c-0.2-1.8,1.2-3.5,3-3.7l66.1-6.8c1.8-0.2,3.5,1.2,3.7,3
			v0C397.6,355.5,396.2,357.2,394.4,357.4z"/>
		<path class="st16" d="M395.6,368.8l-66.1,6.8c-1.8,0.2-3.5-1.2-3.7-3l0,0c-0.2-1.8,1.2-3.5,3-3.7l66.1-6.8c1.8-0.2,3.5,1.2,3.7,3
			v0C398.8,366.9,397.4,368.6,395.6,368.8z"/>
		<path class="st16" d="M397.5,388.1l-66.1,6.8c-1.8,0.2-3.5-1.2-3.7-3v0c-0.2-1.8,1.2-3.5,3-3.7l66.1-6.8c1.8-0.2,3.5,1.2,3.7,3
			l0,0C400.7,386.2,399.4,387.9,397.5,388.1z"/>
		<path class="st16" d="M398.9,401.2l-66.1,6.8c-1.8,0.2-3.5-1.2-3.7-3l0,0c-0.2-1.8,1.2-3.5,3-3.7l66.1-6.8c1.8-0.2,3.5,1.2,3.7,3
			l0,0C402.1,399.3,400.7,401,398.9,401.2z"/>
		<path class="st16" d="M400.2,414.2l-66.1,6.8c-1.8,0.2-3.5-1.2-3.7-3l0,0c-0.2-1.8,1.2-3.5,3-3.7l66.1-6.8c1.8-0.2,3.5,1.2,3.7,3
			v0C403.4,412.4,402.1,414,400.2,414.2z"/>
	</g>
	<g>
		<circle class="st13" cx="407.4" cy="243.7" r="63.1"/>
		<circle class="st3" cx="407.4" cy="243.7" r="49.4"/>
		
			<rect x="438.4" y="285.8" transform="matrix(0.8255 -0.5644 0.5644 0.8255 -91.2594 303.6417)" class="st13" width="14.1" height="27.2"/>
		<path class="st16" d="M508.9,384l-7.6,5.2c-4,2.8-9.6,1.7-12.3-2.3l-49.6-72.5c-2.8-4-1.7-9.6,2.3-12.3l7.6-5.2
			c4-2.8,9.6-1.7,12.3,2.3l49.6,72.5C513.9,375.7,512.9,381.2,508.9,384z"/>
	</g>
	<g>
		<path class="st38" d="M357.8,421.6l-138.9,37.1c-8.4,2.2-17.1-2.8-19.4-11.2l-53-198.1c-2.2-8.4,2.8-17.1,11.2-19.4l138.9-37.1
			c8.4-2.2,17.1,2.8,19.4,11.2l53,198.1C371.2,410.6,366.2,419.3,357.8,421.6z"/>
		<g>
			<path class="st3" d="M330.4,401.6l-101.3,27.1c-8.4,2.2-17.1-2.8-19.4-11.2l-42.4-158.4c-2.2-8.4,2.8-17.1,11.2-19.4l101.3-27.1
				c8.4-2.2,17.1,2.8,19.4,11.2l42.4,158.4C343.9,390.6,338.8,399.4,330.4,401.6z"/>
			<path class="st4" d="M306.6,306.4l-64.2,17.2c-1.8,0.5-3.6-0.6-4.1-2.4h0c-0.5-1.8,0.6-3.6,2.4-4.1l64.2-17.2
				c1.8-0.5,3.6,0.6,4.1,2.4l0,0C309.5,304,308.4,305.9,306.6,306.4z"/>
			<path class="st4" d="M310,319.1l-64.2,17.2c-1.8,0.5-3.6-0.6-4.1-2.4h0c-0.5-1.8,0.6-3.6,2.4-4.1l64.2-17.2
				c1.8-0.5,3.6,0.6,4.1,2.4l0,0C312.9,316.7,311.8,318.6,310,319.1z"/>
			<path class="st4" d="M313.4,331.8l-64.2,17.2c-1.8,0.5-3.6-0.6-4.1-2.4l0,0c-0.5-1.8,0.6-3.6,2.4-4.1l64.2-17.2
				c1.8-0.5,3.6,0.6,4.1,2.4l0,0C316.2,329.4,315.2,331.3,313.4,331.8z"/>
			<path class="st4" d="M316.4,342.9L252.1,360c-1.8,0.5-3.6-0.6-4.1-2.4v0c-0.5-1.8,0.6-3.6,2.4-4.1l64.2-17.2
				c1.8-0.5,3.6,0.6,4.1,2.4l0,0C319.2,340.5,318.1,342.4,316.4,342.9z"/>
			<path class="st4" d="M321.4,361.6l-64.2,17.2c-1.8,0.5-3.6-0.6-4.1-2.4l0,0c-0.5-1.8,0.6-3.6,2.4-4.1l64.2-17.2
				c1.8-0.5,3.6,0.6,4.1,2.4l0,0C324.2,359.3,323.2,361.1,321.4,361.6z"/>
			<path class="st4" d="M324.8,374.3l-64.2,17.2c-1.8,0.5-3.6-0.6-4.1-2.4l0,0c-0.5-1.8,0.6-3.6,2.4-4.1l64.2-17.2
				c1.8-0.5,3.6,0.6,4.1,2.4l0,0C327.6,372,326.5,373.8,324.8,374.3z"/>
			<path class="st4" d="M328.2,387l-64.2,17.2c-1.8,0.5-3.6-0.6-4.1-2.4l0,0c-0.5-1.8,0.6-3.6,2.4-4.1l64.2-17.2
				c1.8-0.5,3.6,0.6,4.1,2.4l0,0C331,384.7,329.9,386.5,328.2,387z"/>
		</g>
		<path class="st4" d="M262.7,295L204,310.7c-3.8,1-7.8-1.3-8.8-5.1l-10.9-40.9c-1-3.8,1.3-7.8,5.1-8.8l58.7-15.7
			c3.8-1,7.8,1.3,8.8,5.1l10.9,40.9C268.9,290,266.6,294,262.7,295z"/>
		<path class="st13" d="M247.5,291.1l-13.6-13.6c-2.7-2.7-7.2-1.4-8.2,2.2l-2.4,9.1l-11.4-11.4c-3.4-3.4-9.1-1.8-10.3,2.8l-6.2,22.9
			c-1.2,4.6,3,8.8,7.6,7.6l22.9-6.1c0.2,0,0.3-0.1,0.5-0.2c0.1,0,0.2,0,0.3-0.1l18.6-5C248.9,298.3,250.1,293.7,247.5,291.1z"/>
		<circle class="st3" cx="244.4" cy="260.1" r="10.1"/>
		<g>
			<path class="st16" d="M253.4,201.1l-14.6,3.9l-1.9-7.2c-1.8-6.8-8.9-10.9-15.7-9.1l0,0c-6.8,1.8-10.9,8.9-9.1,15.7l1.9,7.2
				l-14.6,3.9c-7.1,1.9-11.3,9.3-9.5,16.4l0,0c1.9,7.1,9.3,11.3,16.4,9.5l54.1-14.5c7.1-1.9,11.3-9.3,9.5-16.4l0,0
				C267.8,203.5,260.5,199.2,253.4,201.1z"/>
			<circle class="st3" cx="224.6" cy="201.9" r="5.9"/>
		</g>
	</g>
	<g>
		<path class="st14" d="M402,238.6l3.4,0.3c3,0,5.8-1.2,8.3-3.7c2.5-2.4,3.7-5.3,3.7-8.7c0-6.7-2.8-10.1-8.3-10.1
			c-2.4,0-4.4,1-5.9,2.8c-1.5,1.9-2.3,4.1-2.3,6.7v1.2h-11.9c0-5.8,1.9-10.6,5.6-14.5c3.8-3.8,8.5-5.8,14.3-5.8
			c5.8,0,10.6,1.9,14.4,5.7c3.8,3.8,5.7,8.6,5.7,14.4c0,4.7-1.4,8.8-4.1,12.3c-2.8,3.6-6.4,5.9-11,7l-0.7,9H402V238.6z M414.4,273
			c0,2.1-0.7,3.8-2.2,5.2c-1.4,1.4-3.2,2.2-5.2,2.2c-2.1,0-3.8-0.7-5.3-2.2c-1.5-1.5-2.2-3.2-2.2-5.2c0-2,0.7-3.7,2.2-5.2
			c1.4-1.4,3.2-2.2,5.3-2.2s3.9,0.7,5.3,2.2C413.6,269.2,414.4,270.9,414.4,273z"/>
	</g>
</g>
</svg>
