<?xml version="1.0" encoding="utf-8"?>
<!-- Generator: $$$/GeneralStr/196=Adobe Illustrator 27.6.0, SVG Export Plug-In . SVG Version: 6.00 Build 0)  -->
<svg version="1.1" xmlns="http://www.w3.org/2000/svg" xmlns:xlink="http://www.w3.org/1999/xlink" x="0px" y="0px"
	 viewBox="0 0 2500 2000" style="enable-background:new 0 0 2500 2000;" xml:space="preserve">
<style type="text/css">
	.st0{opacity:0.8;fill:#BADBD8;}
	.st1{fill:#BADBD8;}
	.st2{opacity:0.6;fill:#FFFFFF;}
	.st3{fill:#F1F9FD;}
	.st4{fill:#F5C796;}
	.st5{fill:#2480B4;}
	.st6{fill:#663333;}
	.st7{fill:#653512;}
	.st8{fill:#F7981C;}
	.st9{fill:#006E61;}
	.st10{fill:#3F96D2;}
	.st11{fill:#12434F;}
	.st12{fill:#FFFFFF;}
	.st13{fill:#194E60;}
	.st14{fill:#2E67B0;}
	.st15{fill:#FFFCEA;}
	.st16{fill:#1A2042;}
	.st17{fill:#558FCB;}
	.st18{fill:#221E1F;}
	.st19{fill:#FCF8CD;}
	.st20{fill:#5FC1A4;}
	.st21{fill:#58A991;}
	.st22{fill:#404768;}
	.st23{fill:#02887D;}
	.st24{fill:#00A69C;}
	.st25{fill:none;stroke:#1A2042;stroke-width:0.8046;stroke-miterlimit:10;}
	.st26{fill:#FAC049;}
	.st27{fill:#FFD182;}
	.st28{fill:#121C3E;}
	.st29{fill:#FFCC00;}
	.st30{fill:#1D9AC5;}
	.st31{fill:#F59698;}
	.st32{fill:#25A9E0;}
	.st33{fill:#D4EBF5;}
	.st34{fill:#14253E;}
	.st35{fill:#1F3256;}
	.st36{fill:#162546;}
	.st37{fill:#116E96;}
	.st38{fill:#235E6D;}
	.st39{fill:#0E9282;}
	.st40{fill:#2C6C52;}
	.st41{fill:#3D876C;}
	.st42{fill:#E2A232;}
	.st43{fill:#4095D1;}
	.st44{fill:#368BBE;}
	.st45{fill:#4C9D81;}
	.st46{fill:none;stroke:#1A2042;stroke-width:0.7302;stroke-miterlimit:10;}
	.st47{fill:#0E353E;}
	.st48{fill:#164754;}
	.st49{fill:#CA9665;}
	.st50{fill:#986732;}
	.st51{fill:#98CBCB;}
	.st52{fill:#0F3A43;}
	.st53{opacity:0.51;}
	.st54{opacity:0.66;}
	.st55{fill:#D1EAF6;}
	.st56{fill:#4785B7;}
	.st57{fill:none;stroke:#1A2042;stroke-width:1.0618;stroke-miterlimit:10;}
	.st58{fill:#1174AA;}
	.st59{fill:#F4F5FA;}
	.st60{fill:#3A7C64;}
	.st61{fill:#D7AF28;}
	.st62{fill:#144551;}
	.st63{fill:#D1ECF2;stroke:#144551;stroke-width:0.782;stroke-miterlimit:10;}
	.st64{fill:#326667;stroke:#99CBCB;stroke-width:0.2172;stroke-miterlimit:10;}
	.st65{fill:url(#SVGID_1_);}
	.st66{fill:#339866;}
	.st67{fill:url(#SVGID_00000175289957424028598050000016080469381998259119_);}
	.st68{fill:#558FCC;}
	.st69{fill:#2D67B1;}
	.st70{fill:#164956;}
	.st71{fill:#2E606C;}
	.st72{fill:#366B7A;}
	.st73{fill:#3D7883;}
	.st74{fill:#37B999;}
	.st75{fill:#142547;}
	.st76{fill:#51A98E;}
	.st77{fill:#2B81A7;}
	.st78{fill:#368DBE;}
	.st79{fill:#8BC53F;}
	.st80{fill:#1E3356;}
	.st81{fill:#F16621;}
	.st82{fill:#CA1F26;}
	.st83{fill:none;stroke:#1A2042;stroke-width:0.7221;stroke-miterlimit:10;}
	.st84{opacity:0.8;}
	.st85{fill:#1C2F3B;}
	.st86{fill:#575756;}
	.st87{fill:#F1F2F2;}
	.st88{fill:#99CCFF;}
	.st89{fill:#ECE3D4;}
	.st90{fill:#C3DF95;}
	.st91{fill:#F8D3B6;}
	.st92{fill:#F6F6F6;}
	.st93{fill:#FFF597;}
	.st94{fill:#1A4D5E;}
	.st95{fill:#2E63A5;}
	.st96{fill:#FCF9E8;}
	.st97{fill:#1A2041;}
	.st98{fill:#5488BF;}
	.st99{fill:#221D1E;}
	.st100{fill:#F8F5CC;}
	.st101{fill:#121C3D;}
	.st102{fill:#F4C625;}
	.st103{fill:#2A92B9;}
	.st104{fill:#EA9294;}
	.st105{fill:#1B193A;}
	.st106{fill:#169D94;}
	.st107{fill:#309ED0;}
	.st108{fill:#2891B9;}
	.st109{fill:#442006;}
	.st110{fill:#0E8479;}
	.st111{fill:#D0E5EF;}
	.st112{fill:#15253E;}
	.st113{fill:#1D3254;}
	.st114{fill:#ED9429;}
	.st115{fill:#438DC4;}
	.st116{fill:#EBB88A;}
	.st117{fill:#F4C526;}
	.st118{fill:#121B3C;}
	.st119{fill:#0D162C;}
	.st120{fill:#721F0C;}
	.st121{fill:url(#SVGID_00000063609371041082596440000017383295251229586111_);}
	.st122{fill:url(#SVGID_00000078723477596860427050000014824394562701650565_);}
	.st123{fill:#CC3333;}
	.st124{fill:#184C59;}
	.st125{fill:#2D7DAA;}
	.st126{fill:#F45346;}
	.st127{fill:#D37580;}
	.st128{fill:#111C3D;}
	.st129{fill:#1F4E5E;}
	.st130{fill:#5FB99E;}
	.st131{fill:#164552;}
	.st132{fill:#E7E5DC;}
	.st133{fill:#333332;}
</style>
<g id="圖層_2">
	<path class="st0" d="M460.7,1109.2c115-119.2,243.2-200.8,258.6-419.8c8.6-122.2-179-255.9,2.9-391.6
		c229.9-171.4,361.7,52.8,583.1,1.8c184.3-49,299-176.3,514.8-81.9c154.9,64.5,261.1,200.2,285,339.3c18.5,95.1-0.6,188.5,1.6,283
		c-0.7,74.9,27.6,149.7,81.2,212.7c61.8,74.4,142.9,136.5,201.7,213c97.2,117.5,118.6,269.5,54.2,392.5
		c-72,141-236.7,277.2-439.2,245.7c-201.3-32.1-364.5-159.5-554.2-221.6c-164-60.4-335-22.3-496.2,1.2
		c-113.6,15.9-239.6,27.8-348.7-24.5C413.8,1569.4,345.7,1228.4,460.7,1109.2z"/>
	<path class="st1" d="M592.9,854c-21.9,30.6-58.7,59.2-105.4,57.2c-47.5-1.2-93.9-42.5-73.3-81.1c13.6-29.5,45.3-50.2,55.9-81.1
		c15-44.1-13.4-95.4,12.5-137c30.4-51.9,82.9-22.4,107.5,20.6C637,702.2,638.8,789.7,592.9,854z"/>
	<path class="st1" d="M2182.5,918.2c81.6,122.6,286.7,121.1,193.5-47.1C2274.9,672.2,2116.6,723.8,2182.5,918.2z"/>
	<path class="st2" d="M2109.7,1132.4c-59.9-48.5-138-78.8-185.5-143.2c-45.5-61.7-48-138-48.4-202.7c-0.4-80.1-0.4-191.6-82.1-254.8
		c-153.7-118.8-268.7,78.3-388.5,100.4c-97.6,18-196.4-43.7-296.4-68.3C946.2,524,825.1,657.7,789,791.5
		c-46,170.5,83.7,331.3,201.4,475.7c87.3,107.1,122.1,237,206.1,345.3c169.1,218.4,449.6,230.2,604.8,96
		c62.1-53.7,132.7-102,218.7-119.3c83.1-16.7,160.6-15.4,204.2-95C2282.3,1388.3,2221.5,1222.8,2109.7,1132.4z"/>
</g>
<g id="Layer_1">
	<g class="st84">
		<ellipse class="st85" cx="1485.4" cy="1671" rx="848.3" ry="76.3"/>
	</g>
	<g>
		<g>
			<g>
				<path class="st86" d="M1392.5,1476.5V439.7c0-47.1-38.2-85.3-85.3-85.3H837.6c-47.1,0-85.3,38.2-85.3,85.3v1036.8
					c0,47.1,38.2,85.3,85.3,85.3h469.6C1354.3,1561.8,1392.5,1523.6,1392.5,1476.5z"/>
			</g>
		</g>
		<path class="st87" d="M786.5,440.9v1034.4c0,27.8,22.5,50.4,50.3,50.4h472.1c1.7,0,3.3-0.1,4.9-0.2c25.5-2.5,45.4-24,45.4-50.2
			V440.9c0-27.8-22.5-50.4-50.3-50.4H836.8C809,390.5,786.5,413.1,786.5,440.9z"/>
		<path class="st88" d="M786.5,1036.1v31.3c1.1-0.3,2.3-0.5,3.4-0.8c84.5-19.5,149.3,4,211.9,26.8c78.4,28.5,152.5,55.4,243.5-15.3
			c42.9-33.3,58.7-103,74-170.4c10.4-46.1,21.2-93.6,39.8-118.6v-41.2c-5.5,3.8-10.4,7.7-14.5,11.6c-29.3,28.3-41.8,83.3-55,141.5
			c-14.1,62.2-28.7,126.5-63,153.1c-77.8,60.4-138.2,38.5-214.6,10.8C949.3,1041.9,878.1,1016.1,786.5,1036.1z"/>
		<path class="st88" d="M1273.3,514c32.8,52,41.6,99.7,85.9,84V440.9c0-27.8-22.5-50.4-50.3-50.4h-100.4c-4.8,11.4-8,22.3-9.1,32.5
			C1194.2,468.1,1240.5,462,1273.3,514z"/>
		<polygon class="st89" points="786.5,519.8 882.5,390.5 1079,390.5 1289.8,802.5 1046.7,944.8 786.5,975.3 		"/>
		<path class="st89" d="M786.4,1187.1l572.9-14v240.6l-113.5,112l-409.2-0.3c-27.5,0.1-49.9-22.1-49.9-49.7L786.4,1187.1z"/>
		<g>
			<path class="st90" d="M1151.1,1377.9l71.7,147.5h90.4c20.9,0.3,46.1-20.1,46.1-46.2v-101.3H1151.1z"/>
			<polygon class="st90" points="921.4,1183.9 1075.9,1178 1130.9,1319.2 982.1,1324 			"/>
			<polygon class="st90" points="1169.3,1181.1 1218.5,1294.5 1359.2,1290.3 1359.2,1173.1 			"/>
			<path class="st90" d="M994.7,538L923,390.5h-90.4c-25.4,0-46.1,20.7-46.1,46.2V538H994.7z"/>
			<polygon class="st90" points="970.6,722.2 930.1,623.3 786.5,632.9 786.5,721.8 			"/>
			<polygon class="st90" points="1229.1,692.5 1183.5,603.6 1037.2,603.6 1094.6,721.6 			"/>
			<polygon class="st91" points="1142.4,879.2 1087.1,736 884.9,779.7 1047.9,934.5 			"/>
		</g>
		<g>
			<path class="st12" d="M1111.2,385.6h-38.8l74.3,148.2h-139.9l-68.9-148.2h-22.3l68.9,148.2H786.5v13.5h204.2l25.4,54.6
				l-229.7,18.6v18.1l136.8-11.1l31.9,90.4H786.4V736h239l-238.9,53.5v12l96.7-21.7l133.9,135.9l-230.7,42.3v49.1l261.5-48
				l124.8-62.2h2.8l-0.5-1.2l122.5-61.1l61.8,123.3v-69.2L1111.2,385.6z M1045.7,617.7l137.4-11.1l36.5,72.9l-128.1,36.8
				L1045.7,617.7z M1013,547.4h140.4l21,41.8l-136.8,11.1L1013,547.4z M936.6,626.5l87.6-7.1l45.8,98.5H968.9L936.6,626.5z
				 M1047.9,910.1l-18.3,3.4L895.3,777.2l183.2-41l60.7,130.6l-91.3,42.8V910.1z M1157.5,858.2l-58.6-126l128.6-36.9l52.8,105.3
				L1157.5,858.2z"/>
			<path class="st12" d="M786.5,1197.5l137.6-2.3l46.1,121.1H786.4v19h191.1l72.5,190.4h20l-72.5-190.4h131.4l72.5,190.4h30.6
				l-83.5-219.3h210.7v-25.6h-139.8L1179,1191l180.2-3v-24.3l-572.7,9.5V1197.5z M990.3,1316.3L944,1194.9l130.6-2.2l47.1,123.6
				H990.3z M1205.8,1280.8h-67l-33.8-88.6l60.5-1L1205.8,1280.8z"/>
		</g>
		<g>
			<g>
				<path class="st92" d="M1308.5,393.5c26.2,0,47.6,21.3,47.6,47.6v1033.9c0,26.2-21.3,47.6-47.6,47.6H836.2
					c-26.2,0-47.6-21.3-47.6-47.6V441.1c0-26.2,21.3-47.6,47.6-47.6H1308.5 M1308.5,385.6H836.2c-30.7,0-55.5,24.9-55.5,55.5v1033.9
					c0,30.7,24.9,55.5,55.5,55.5h472.3c30.7,0,55.5-24.9,55.5-55.5V441.1C1364,410.5,1339.2,385.6,1308.5,385.6L1308.5,385.6z"/>
			</g>
		</g>
	</g>
	<g>
		<path class="st93" d="M2274.7,1022.8c-64.9-65.6-156-106.2-203.2-188.5c-16.6-29-25.5-61.9-28.2-95.1
			c-11.7-144.3,75.2-281.9,46.3-426.1c-4.7-21.1-12.8-42-24.7-60c0,0-3-4.5-3-4.5c-0.5-0.8-1-1.5-1.6-2.2c0,0-1.6-2.1-1.6-2.1
			s-3.3-4.3-3.3-4.3c-1.1-1.4-2.3-2.7-3.5-4.1c0,0-3.5-4-3.5-4c-1.2-1.3-2.5-2.5-3.8-3.8c-46.3-46.7-104.2-62.6-168.5-49.9
			c-90,18.3-168.2,69.4-249.7,109.9c-46,22.9-93.4,45.4-144.9,52.9c-109.8,15.5-207.9-34.1-305.2-76.2
			c-55.9-24-113.6-46.3-175.2-45.9c-123.6-0.3-237.4,67.7-322.3,153.5c-43,43.6-80.3,93.1-108.9,147.3
			c-43.5,80.9-55.1,176.2-37.1,265.9c25.2,128.6,93.8,242.8,159,354.8c7.9,13.7,15.3,27.7,22.1,41.9
			c43.5,91.6,62.3,192.1,91.6,288.5c17.5,57.7,39.4,114.7,72.2,165.5c82.2,130,222.7,204,374.4,215.2c120,9.1,242.1-18.3,347.9-75.6
			c19.2-10,40.1-23.9,58.6-35.4c99.4-62.1,207.8-115.3,324.9-132.5c106.6-15.8,215.8-8.7,299.8-88.8c6.9-6.4,13.4-13.3,19.7-20.3
			c2.6-3.1,6.5-7.7,9.1-10.8c0,0,0.9-1.1,0.9-1.1s0.8-1.1,0.8-1.1c5.8-7.4,11.3-15.3,16.4-23.2c0.8-1.2,2.3-3.6,3-4.8
			c2-3.5,6.7-11.2,8.5-14.8c1.3-2.6,3.9-7.6,5.2-10.1c1.3-2.5,5.6-12.5,7.1-15.6c2.4-6.3,6.1-15,8-21.4c2.6-7.2,5.3-17.2,7.4-24.6
			c0,0,0.6-2.8,0.6-2.8s1.3-5.6,1.3-5.6c3.1-12.9,4.9-26.3,6.6-39.5c0.8-8.7,1.7-19.8,1.8-28.6c0.2-6.5,0.1-13.6,0-20.1
			c-0.3-5.5-0.6-14.7-1.2-20.1c-0.2-2.9-0.8-8.6-1.1-11.5c-0.3-2.7-1.8-13.9-2.3-17.1c-1.9-11.1-4.2-23-6.9-33.8c0,0-3-11.1-3-11.1
			c-1.7-6.3-4-13.1-5.9-19.3c-2.7-7.5-6.1-17-9.2-24.2c-5-12.5-11.1-24.5-17.3-36.4c-4.3-7.6-9.9-17.3-14.8-24.7
			c-3.5-5.5-7.7-11.3-11.4-16.6c-3.5-4.3-8.8-11.7-12.5-15.8c-1.9-2.2-5.6-6.6-7.5-8.8C2284.7,1033.3,2276.9,1025.3,2274.7,1022.8
			L2274.7,1022.8z M2277,1020.6c121,123,150.5,337.1,43.5,477.9c-37.7,50.3-89,85.5-149.5,102.9c-60,17.8-122.5,21.2-183.5,32.2
			c-74.7,13.2-145.9,41.5-212.9,76.7c-33.5,17.6-66.8,37.3-98.8,57.7c-18.8,12.1-40.3,26.3-60,37
			c-252.7,141.4-602.8,108-764.4-151.9c-80.2-126.5-92.5-279.8-143.3-418c-8-21.3-16.8-42.2-27-62.5
			c-66.1-122.3-139.9-245.1-163.5-384.3c-10.5-61.8-9.2-126.1,7.7-186.7C558,485.3,647.1,376.9,742.1,304.2
			c86.6-65.6,196.1-110.2,306.1-95.7c46.7,5.9,91.4,23.1,134.8,40c87.4,34.6,176.7,77.7,272.8,69.7c5.2-0.3,11.4-1.1,16.6-1.7
			c7-0.9,14.7-2.3,21.5-4c42.2-10.2,80.9-29.3,119.8-49.3c54.9-28.4,108.9-60.2,166.1-84.4c95.3-40.6,192.8-53.8,274.3,23
			c76.5,70.5,69.1,178.8,47.9,271.7c-19.5,87.9-55.3,173.8-50.5,265.1c2.1,38.8,12.5,74.9,33.8,107.6
			C2133.7,919.8,2216.1,959.1,2277,1020.6L2277,1020.6z"/>
	</g>
	<g>
		<path class="st16" d="M1223.9,1629l-113.7-44.9c-3.1-1.2-4.6-4.7-3.4-7.8l2.1-5.3c1.2-3.1,4.7-4.6,7.8-3.4l113.7,44.9
			c3.1,1.2,4.6,4.7,3.4,7.8l-2.1,5.3C1230.5,1628.7,1227,1630.2,1223.9,1629z"/>
		<g>
			<g>
				<path class="st22" d="M1334.2,1537c-19.8,8.5-32.7,29-30.5,50.6c2.1,21.7,18.6,39.3,39.9,43.1c20.4,3.7,40.8-6.2,51.2-23.7
					c5.6-9.4,7.5-21,6.2-31.8c-1.3-11-7-19.8-15-27.2C1372.2,1535.1,1352,1530.2,1334.2,1537c-7.1,2.7-2.3,13.5,4.8,10.8
					c10.2-3.9,22.4-2.2,31.6,3.3c15.6,9.3,22.2,25.3,17.1,42.8c-4.4,15.2-19.2,25.5-34.8,25.8c-16.9,0.4-31.9-10.8-36.4-27.2
					c-5.1-18.5,5.1-37.3,22.4-44.8C1346,1544.8,1341.2,1534,1334.2,1537L1334.2,1537z"/>
			</g>
			<path class="st22" d="M1357,1583.3c-0.3,2.6-2.6,4.4-5.1,4.1c-2.6-0.3-4.4-2.6-4.1-5.1c0.3-2.6,2.6-4.4,5.1-4.1
				C1355.4,1578.4,1357.2,1580.7,1357,1583.3z"/>
		</g>
		<path class="st40" d="M1967.2,893.1c0,1.7-5.4,3-12.2,3c-6.7,0-12.2-1.4-12.2-3c0-1.7,5.4-3,12.2-3
			C1961.8,890,1967.2,891.4,1967.2,893.1z"/>
		<path class="st4" d="M1955.7,935.5c-0.3-10.5,13.3-19,2.8-18.6c-10.5,0.4-28.1,2.4-36.4,8.8c-11.4,8.8-18.9,38.9-21.5,49.1
			c-9.1,34.9-14.8,72.8-38.1,101.5c-13.3,16.4-100.1,45.5-147,51.6c8.1,17.2,7.6,25.2,11.5,43.8c27-5.7,149.6-21,172.9-43
			c25.7-24.2,32.3-68.5,42.3-102.4c5.1-17.3,10.3-34.8,12.4-52.7c1.6-13.2,1.5-26.5-0.3-39.7L1955.7,935.5z"/>
		<path class="st41" d="M1942.7,923.7c-8.2-8.5-22.2-6-31.3,1.6c-9.1,7.6-13.6,19.2-17.4,30.5c-8.9,26.6-15.3,54-19.2,81.7
			c20.2,6.9,40.4,13.9,60.6,20.8c1.2,0.4,2.5,0.9,3.8,0.8c3.5-0.2,5.6-3.8,7-7c14.1-31.7,17.7-67.9,10.1-101.7
			c-3.1-13.7-10-29-23.7-31.9L1942.7,923.7z"/>
		<path class="st4" d="M1719.1,1125.8c-9.4-0.9-21.8-1.4-31.3-2.2c-1.9,4.7-5.8,12.2-6.8,19.1c12.5-0.7,26.5-9.8,37.4-16.1
			L1719.1,1125.8z"/>
		<path class="st4" d="M1735.9,1160.8c-3,1.3-6.1,9.4-9,11c-5.7,3.2-11.9,10-24.3,15.9c-9.4-7.8-18.8-15.7-28.2-23.5
			c-0.8-0.7-1.7-1.5-1.8-2.6c0-0.6,0.3-1.3,0.5-1.8c3.5-7.3,7.1-14.6,10.6-22c0.6-1.3,1.3-2.7,2.5-3.5c0.9-0.6,2-0.8,3.1-1
			c7.3-1.3,18.7-4,25.9-5.3c7.2,11.4,10.2,24.1,17.5,35.5c0.3,0.5,0.6,1.2,0.2,1.7c-0.4,0.5-1.2-0.5-0.6-0.6L1735.9,1160.8z"/>
		<path class="st109" d="M1600.5,960.1c-15.9-6.7-40.4,18.1-40.1,37.5c0.1,5.2,1.3,10.6,4.9,14.4c5.3,5.4,14.5,6.3,18.5,12.7
			c6.8,10.6-5.8,27.8,3.5,36.3c6.6,6,18.5,1.3,25.2,7.1c3.1,2.7,4.3,7,6.6,10.4c4.7,7.2,15,10,22.8,6.4
			c10.1-4.7,15.8-18.4,26.9-18.7c11-0.3,19.2,13.6,30.1,11.9c3.1-0.5,5.9-2.2,8.3-4.2c6-5.2,10.1-12.9,10-20.8
			c-0.1-7.9-4.7-15.9-12-19.1c-6.4-2.8-15.5-3.1-17.7-9.7c-2.9-8.7,10.3-15.9,9.1-25c-0.7-5.6-6.7-9-12.3-9.4
			c-5.6-0.4-11.1,1.4-16.7,1.9c-5.6,0.5-12-0.6-15.2-5.1c-1.7-2.4-2.3-5.3-3.1-8.1c-3.8-12-15.6-22-28-20.3
			C1614.2,959.2,1606.7,963.6,1600.5,960.1L1600.5,960.1z"/>
		<g>
			<g>
				<g>
					<g>
						<path class="st22" d="M1509.4,1381.8c-54.9,22.8-91.5,80.1-86.8,139.6c2.3,29.2,14.2,58,33.2,80.2
							c20,23.4,47.7,38.7,77.9,44.4c31.7,6,62.2-0.2,91.1-13.7c24.2-11.4,42.7-31.5,56.1-54.4c15.8-27.1,20.7-61.8,15.9-92.7
							c-4.7-30.8-22.4-55.3-45.5-75.6c-35.2-30.8-85.1-44.3-130.6-31.5C1516.8,1379.2,1513.1,1380.4,1509.4,1381.8
							c-7.7,3-2.5,14.8,5.3,11.8c35.2-13.8,77.4-7.9,109.1,11.8c22.8,14.1,45.5,36,55.1,61.6c10.1,26.9,8.1,58.5-0.5,85.5
							c-4.2,13-11.6,24.7-20,35.4c-6,7.7-12.6,15.4-20.2,21.5c-10.9,8.7-24.5,14.4-37.5,19.1c-13.5,4.9-28,7.3-42.4,7.1
							c-28.2-0.4-55.9-9.8-77.8-27.7c-21-17.2-35.8-42-42-68.4c-14.1-60.1,19.4-122.3,76.2-145.9
							C1522.3,1390.5,1517.1,1378.7,1509.4,1381.8L1509.4,1381.8z"/>
					</g>
				</g>
				<g>
					<g>
						<path class="st22" d="M1518.7,1403.3c-45.4,18.9-75.9,66.3-71.6,115.7c4.5,51.3,42.8,94.1,93.9,102.5
							c26.2,4.3,51.4-1.2,75-12.9c19.2-9.5,33.8-26.3,44.4-44.6c12.7-22.1,16.4-50.7,12.6-75.7c-3.9-25.1-18.3-45.1-37.2-61.6
							C1604.3,1399.2,1558.3,1387.8,1518.7,1403.3c-1.7,0.6-0.5,3.2,1.1,2.5c31.5-12.3,68.9-7.1,97.3,10.5
							c19.8,12.3,39.5,31.4,48.1,53.5c9.3,24.2,7.7,52.6-0.1,76.9c-6,18.7-19.9,37.6-35.2,50c-9.2,7.4-20.6,12.3-31.5,16.5
							c-12.3,4.7-25.4,7.1-38.6,7.1c-50.9,0-94.9-34.8-107.1-84.1c-13.2-53.5,16.5-109.3,67.1-130.3
							C1521.4,1405.1,1520.3,1402.6,1518.7,1403.3L1518.7,1403.3z"/>
					</g>
				</g>
				<g>
					<path class="st22" d="M1574.1,1512.7c-0.8,7.8-7.9,13.4-15.7,12.6c-7.8-0.8-13.4-7.9-12.6-15.7c0.8-7.8,7.9-13.4,15.7-12.6
						C1569.3,1497.9,1575,1504.9,1574.1,1512.7z"/>
				</g>
				<g>
					
						<rect x="1559.5" y="1379.2" transform="matrix(0.1118 -0.9937 0.9937 0.1118 -115.4892 2892.2068)" class="st22" width="1.2" height="262.9"/>
				</g>
				<g>
					
						<rect x="1559.4" y="1379.7" transform="matrix(0.8033 -0.5956 0.5956 0.8033 -593.1576 1226.285)" class="st22" width="1.2" height="262.9"/>
				</g>
				<g>
					
						<rect x="1428.2" y="1513.7" transform="matrix(0.8035 -0.5953 0.5953 0.8035 -594.9929 1225.9664)" class="st22" width="262.9" height="1.2"/>
				</g>
				<g>
					
						<rect x="1428.7" y="1509.3" transform="matrix(9.344654e-02 -0.9956 0.9956 9.344654e-02 -88.9058 2922.1819)" class="st22" width="262.9" height="1.2"/>
				</g>
			</g>
			<g>
				<g>
					<path class="st22" d="M1569.7,1510.6c4.7-42.9,9.3-85.8,14-128.8c7.4-67.8,14.8-135.6,22.1-203.4c1.7-15.4,3.4-30.9,5-46.3
						c-1.1,0.9-2.2,1.7-3.2,2.6c26.8,2.9,53.7,5.8,80.5,8.8c3.8,0.4,4.4-5.4,0.6-5.9c-26.8-2.9-53.7-5.8-80.5-8.8
						c-1.6-0.2-3.1,1-3.2,2.6c-4.7,42.9-9.3,85.8-14,128.8c-7.4,67.8-14.8,135.6-22.1,203.4c-1.7,15.4-3.4,30.9-5,46.3
						C1563.4,1513.8,1569.3,1514.4,1569.7,1510.6L1569.7,1510.6z"/>
				</g>
				<path class="st22" d="M1754.1,1169l-94.1-10.2c-7.7-0.8-13.4-7.9-12.5-15.6l0.8-7c0.8-7.7,7.9-13.4,15.6-12.5l94.1,10.2
					c7.7,0.8,13.4,7.9,12.5,15.6l-0.8,7C1768.8,1164.2,1761.8,1169.9,1754.1,1169z"/>
				<path class="st22" d="M1557.8,1411.1l-219.1-23.8c-11.9-1.3-20.5-12-19.2-23.8l2.5-23.2c1.3-11.9,12-20.5,23.8-19.2l219.1,23.8
					c11.9,1.3,20.5,12,19.2,23.8l-2.5,23.2C1580.3,1403.8,1569.7,1412.4,1557.8,1411.1z"/>
				<g>
					<path class="st22" d="M1580.2,1369.3c-24.6-2.7-49.2-5.4-73.8-8c-39.3-4.3-78.5-8.5-117.8-12.8c-9.1-1-18.2-2-27.3-3
						c0.9,1.1,1.7,2.1,2.6,3.2c1.9-17.1,3.7-34.2,5.6-51.3c-1.1,0.9-2.1,1.7-3.2,2.6c24.6,2.7,49.2,5.4,73.8,8
						c39.3,4.3,78.5,8.5,117.8,12.8c9.1,1,18.2,2,27.3,3c-0.9-1.1-1.7-2.1-2.6-3.2c-1.9,17.1-3.7,34.2-5.6,51.3
						c-0.4,3.7,5.4,4.4,5.8,0.6c1.9-17.1,3.7-34.2,5.6-51.3c0.2-1.6-1-3.1-2.6-3.2c-24.6-2.7-49.2-5.4-73.8-8
						c-39.3-4.3-78.5-8.5-117.8-12.8c-9.1-1-18.2-2-27.3-3c-1.6-0.2-3.1,1-3.2,2.6c-1.9,17.1-3.7,34.2-5.6,51.3
						c-0.2,1.6,1,3.1,2.6,3.2c24.6,2.7,49.2,5.4,73.8,8c39.3,4.3,78.5,8.5,117.8,12.8c9.1,1,18.2,2,27.3,3
						C1583.3,1375.5,1583.9,1369.7,1580.2,1369.3z"/>
				</g>
				<path class="st22" d="M1511.6,1312.8l-124.2-13.5c-4.7-0.5-8.2-4.8-7.7-9.5l0,0c0.5-4.7,4.8-8.2,9.5-7.7l124.2,13.5
					c4.7,0.5,8.2,4.8,7.7,9.5l0,0C1520.6,1309.9,1516.3,1313.3,1511.6,1312.8z"/>
			</g>
		</g>
		<path class="st4" d="M1618.4,1353.3c0.4,28.1-1.7,61.5-23.8,77.6c-21.6,15.7-49.6,6-73.1-3.5c-48.5-19.6-98.1-36.1-148.7-49.3
			c-7.3-1.9-18.7-9.7-22.5-3.1c-78,138.2-112.1,153.3-116.1,206.9c-19.3-2-41.5-16-40.4-19.5c19.7-60.6,30.4-132.4,68.6-206.4
			c18.1-34.9,34.8-62,67-75.5c20.6-8.6,29.8-5.9,51.3-3.5c36.5,4.1,120.7,37.5,156.8,44c46.7,8.4,48.3-7.5,79.7,29.6L1618.4,1353.3z
			"/>
		<path class="st123" d="M1258.8,1540.8c-9.5,25.4-21.4,49.9-35.5,73c-15.2-5.6-30.3-11.3-45.5-16.9c-16.8-6.3-43.2-15.5-61.5-25.4
			c17.9-6.7,68-5.4,68.8-6.3c0.6-0.7,10.2-33.1,14.8-48.4c6.8,1.2,42.7,8.6,58.7,22.4L1258.8,1540.8z"/>
		<path class="st4" d="M1631,1343.4c5.3,27.6,9,60.8-9.9,80.6c-18.5,19.3-47.8,14.6-72.6,9.3c-51.1-10.9-89.7-31.1-141.7-35.3
			c-7.6-0.6-37.9-1.2-40.8,5.9c-18.4,45.4-50.6,139.5-67.3,197.2c-10.2-5.8-37.7-8.1-36.7-11.7c18.6-72.5,7.8-246.8,62.9-276.2
			c19.7-10.5,41.2-16.1,62.8-17.5c36.7-2.3,69.6,10.7,106.3,10.8c47.5,0.1,98.2,3.6,135.6,34.7L1631,1343.4z"/>
		<path class="st4" d="M1598.5,1069.7c-21.7-1.1-39.4,2.4-59.1-12.2c3.4-5,25.3-14.9,28.9-19.4c3.6-4.6,6.1-15.2,6.9-16.7
			c-3.4-0.8-6.9-3.1-6.4-10.4c0.7-9.9,5.5-19.1,10.1-27.9c1.2-2.2,2.4-4.4,4.3-6c3.8-3,9.5-2.7,13.1,0.4c3.6,3.1,6.4,8.7,5.4,13.5
			l0,0c-0.9,5.9-1.8,11.8-4.1,17.2c0.5,0.6,0.9,1.3,1.3,2.1c0.8,1.6,1.5,3.5,1,5.2c-0.6,1.9-2.6,3.1-4.6,3.3c-1.7,0.1-5-0.7-5-0.7
			c-5.1,7.1-7.6,19.8-8.3,23.6C1581.4,1045.3,1589.3,1063.6,1598.5,1069.7z"/>
		<path class="st123" d="M1319.6,1566c-4.9,26.6-12.4,52.8-22.2,78c-15.9-2.9-31.9-5.8-47.8-8.8c-17.6-3.2-45.2-7.7-65-14.3
			c16.4-9.7,66-17.1,66.7-18.2c0.5-0.8,4.3-34.4,6.1-50.2c6.9,0,43.5,1.1,61.7,11.8L1319.6,1566z"/>
		<g>
			<path class="st4" d="M1402.5,957.4c0.3-10.2,0.6-20.4,0.9-30.6c0.1-2.8-0.1-6.2-2.4-7.8c-1.4-0.9-3.2,3.9-3.8,6.4
				c-0.5,2.5-0.7,5.1-1.9,7.4c-0.4,0.7-0.9,1.3-1.7,1.3c-0.3,0-0.6-0.2-0.9-0.3c-1.6-1.1-2.8-2.7-3.6-4.5c-4.1-9-8.7-17.9-13.7-26.4
				c-0.6-1-1.3-2-2.1-2.9c-0.5-0.6-1.1-1.1-1.9-0.9c-0.6,0.1-1.1,0.6-1.3,1.2c-0.4,1.1,0,2.3,0.4,3.4c1.7,4.5,6.9,19.2,6,19.4
				c-0.6,0.2-7.3-18.6-12.1-23.6c-0.5-0.5-1.3-0.7-2-0.3c-0.7,0.4-0.7,1.1-0.6,1.7c0.6,6.1,6.8,25,6,24.4c-4.9-4-5.6-16.7-11-21.1
				c-0.8-0.6-1.6-1.1-2.5-0.7c-3.6,1.6,7,26.1,6.2,25.9c-1.5-0.3-8.5-12.4-11.4-14.8c-0.6-0.5-1.5-0.7-2.2-0.3
				c-0.9,0.4-0.9,1.3-0.8,2.1c0.1,0.9,0.4,1.8,0.7,2.7c6.3,18.6,13.8,37.1,25.5,52.9c0.3,0.4,0.6,0.8,1.1,1c0.4,0.1,0.8,0.1,1.2,0.1
				c6.2-0.6,12.1-3,17-6.8c4-3.1,5.2-6.7,10.2-7.3L1402.5,957.4z"/>
			<path class="st42" d="M1612.6,1097.2c-23.6,3.9-47.9,6.8-71.2,1.7c-36.4-7.9-66.1-34.2-89.7-62.9c-24.7-30.1-30.6-49.6-44.5-86.8
				c-9,8.2-36,26.8-42.6,27.3c-2.3,0.1,49.2,178.6,174.8,207.6c3.6,0.8,7.3,3.2,10.4,1.3c17.4-10.9,31.8-26.7,40.9-45.1
				c7-14.1,11.2-30,21.4-42c0.2-0.2,0.3-0.5,0.4-0.8L1612.6,1097.2z"/>
			<g>
				<path class="st12" d="M1370.3,995.2c14.6-8.5,29.2-16.9,43.8-25.4c0.8-0.4,1.3,0.8,0.6,1.3c-14.6,8.5-29.2,16.9-43.8,25.4
					C1370.1,996.9,1369.5,995.7,1370.3,995.2L1370.3,995.2z"/>
			</g>
			<g>
				<path class="st12" d="M1372.4,1003.5c15.3-7.5,31-14.6,44.8-24.6c0.7-0.5,1.6,0.6,0.9,1.1c-13.9,10.1-29.7,17.2-45.1,24.8
					C1372.1,1005.1,1371.6,1003.8,1372.4,1003.5L1372.4,1003.5z"/>
			</g>
		</g>
		<path class="st104" d="M1460.3,1273.7c-31.5-8.1-63.5-16.3-96-15.9c-32.5,0.5-66.3,10.6-88.6,34.3c-19.3,20.4-28.3,48.5-46.4,69.9
			c22.9,28.9,52.3,59.7,128.9,79.8c7-23.6,29.4-42.5,53.8-44.8s48.8,4.6,72.8,10c33.3,7.5,67.3,12.1,101.4,13.7
			c12.8,0.6,26.8,0.5,37.1-7.1c16.9-12.4,16.1-37.5,13.5-58.4c-0.6-4.5-1.2-9.3-3.8-13c-2.9-4.1-7.8-6.2-12.4-8.2
			c-40.6-17.2-81.1-34.4-121.7-51.6c-15.1-6.4-30.8-12.9-47.2-12.1L1460.3,1273.7z"/>
		<g>
			<path class="st22" d="M1372.8,1382.1c-6.3,58.3-12.7,116.5-19,174.8c-0.9,8.1-1.8,16.3-2.7,24.4c-0.2,1.8,2.5,2.1,2.7,0.3
				c6.3-58.3,12.7-116.5,19-174.8c0.9-8.1,1.8-16.3,2.7-24.4C1375.8,1380.6,1373,1380.3,1372.8,1382.1L1372.8,1382.1z"/>
		</g>
		<polygon class="st16" points="1681,1221.9 1631.2,1177.2 1615.2,1323.5 1663.2,1354.6 		"/>
		<g>
			<g>
				<path class="st16" d="M1597.3,1437.9c-49.9,20.8-82.9,73.5-78.2,127.5c4.9,57,48.1,103.8,104.6,112.7c28.7,4.5,56.5-2,82.1-14.9
					c21.2-10.6,37.3-29.7,48.8-50.2c14.7-26.2,18.2-61.5,11.3-90.5c-6.5-27.2-26.3-50.1-48.5-66.4
					C1683.3,1431.2,1637.1,1422.4,1597.3,1437.9c-7.7,3-11.1-9.5-3.4-12.5c39-15.2,85.6-8.6,120.7,13.2
					c24.7,15.3,48.6,38.9,59.3,66.3c12,30.6,10.3,68.2-0.9,98.8c-8.3,22.7-25.4,46.2-44.9,60.8c-24.7,18.5-58.3,28.6-89,27.7
					c-62.8-1.9-116.2-46.1-130-107.3c-15-66.4,22.5-133.7,84.7-159.6C1601.5,1422.3,1604.8,1434.8,1597.3,1437.9L1597.3,1437.9z"/>
			</g>
			<g>
				<path class="st16" d="M1603.1,1449.8c-44.4,18.6-74.3,65.1-69.8,113.5c4.7,50.9,43.4,92.7,94.2,99.8c25.4,3.6,49.9-2.3,72.5-14
					c18.3-9.5,32.7-26.7,42.5-44.6c12.9-23.5,15.8-54.8,9.3-80.6c-6.1-24.3-24.1-44.4-43.9-58.8
					C1678.3,1443.7,1637.7,1436.4,1603.1,1449.8c-1.7,0.6-2.4-2-0.7-2.7c32.3-12.6,70.4-7.3,99.6,10.7
					c20.1,12.4,39.9,31.6,48.8,53.8c10.2,25.4,8.8,56.5-0.3,82.1c-16.1,45.1-62.5,74.2-109.7,73.2c-51.4-1.1-95.3-36.8-107.4-86.7
					c-13.3-54.9,17.4-111.5,69-133.1C1604,1446.5,1604.8,1449.2,1603.1,1449.8L1603.1,1449.8z"/>
			</g>
			<path class="st16" d="M1657.7,1556.7c-0.8,7.8-7.9,13.4-15.7,12.6c-7.8-0.8-13.4-7.9-12.6-15.7c0.8-7.8,7.9-13.4,15.7-12.6
				C1652.9,1541.9,1658.5,1548.9,1657.7,1556.7z"/>
			<path class="st46" d="M1513,1540l261.3,29.4L1513,1540z"/>
			<path class="st46" d="M1565.2,1449.5l156.6,211.2L1565.2,1449.5z"/>
			<path class="st46" d="M1537.5,1636.5l211.3-156.4L1537.5,1636.5z"/>
			<path class="st46" d="M1656,1423l-24.6,261.8L1656,1423z"/>
		</g>
		<g>
			<g>
				<path class="st16" d="M1382,1587c-20.7,9.1-30.8,32.9-19.6,53.4c10.6,19.3,37,24.6,54.7,11.7c18-13.1,19.7-40.1,4-55.3
					c-10.8-10.4-26.3-14.5-40.5-9.2c-7.1,2.7-10.2-8.7-3.1-11.4c14.2-5.3,31.1-2.9,43.6,5.5c19.5,13,27.7,35.1,19.6,57.5
					c-6.8,18.9-25.4,31.3-45.2,31.8c-21.9,0.5-41.4-13.9-47.7-34.8c-7.1-23.9,5.5-49.4,28.1-59.4C1383,1573.7,1389,1583.9,1382,1587
					L1382,1587z"/>
			</g>
			<path class="st16" d="M1399.4,1622.8c-0.3,2.6-2.6,4.4-5.1,4.1c-2.6-0.3-4.4-2.6-4.1-5.1c0.3-2.6,2.6-4.4,5.1-4.1
				C1397.8,1617.9,1399.7,1620.2,1399.4,1622.8z"/>
		</g>
		<g>
			<path class="st16" d="M1640.6,1555.1c4.6-42.6,9.3-85.2,13.9-127.7c7.4-67.9,14.8-135.9,22.2-203.8c1.7-15.7,3.4-31.4,5.1-47
				c0.2-1.4,1.2-3.1,2.9-2.9c26.8,2.9,53.7,5.8,80.5,8.8c3.7,0.4,3.8,6.3,0,5.9c-26.8-2.9-53.7-5.8-80.5-8.8c1-1,2-2,2.9-2.9
				c-4.6,42.6-9.3,85.2-13.9,127.7c-7.4,67.9-14.8,135.9-22.2,203.8c-1.7,15.7-3.4,31.4-5.1,47
				C1646.1,1558.9,1640.2,1558.9,1640.6,1555.1L1640.6,1555.1z"/>
		</g>
		<path class="st16" d="M1830.9,1213.8l-94.1-10.2c-7.7-0.8-13.4-7.9-12.5-15.6l0.8-7c0.8-7.7,7.9-13.4,15.6-12.5l94.1,10.2
			c7.7,0.8,13.4,7.9,12.5,15.6l-0.8,7C1845.6,1209,1838.6,1214.7,1830.9,1213.8z"/>
		<path class="st16" d="M1637.9,1456.3l-250.5-27.3c-10-1.1-17.3-10.1-16.2-20.1l3.2-29.9c1.1-10,10.1-17.3,20.1-16.2l250.5,27.3
			c10,1.1,17.3,10.1,16.2,20.1l-3.2,29.9C1657,1450.1,1648,1457.4,1637.9,1456.3z"/>
		<g>
			<path class="st16" d="M1656.7,1419.9c-63.9-7-127.9-13.9-191.8-20.9c-9-1-18-2-27-2.9c-1.4-0.2-3.1-1.2-2.9-2.9
				c1.9-17.1,3.7-34.2,5.6-51.3c0.2-1.4,1.2-3.1,2.9-2.9c63.9,7,127.9,13.9,191.8,20.9c9,1,18,2,27,2.9c1.4,0.2,3.1,1.2,2.9,2.9
				c-1.9,17.1-3.7,34.2-5.6,51.3c-0.4,3.7-6.3,3.7-5.8,0c1.9-17.1,3.7-34.2,5.6-51.3c1,1,1.9,1.9,2.9,2.9
				c-63.9-7-127.9-13.9-191.8-20.9c-9-1-18-2-27-2.9c1-1,1.9-1.9,2.9-2.9c-1.9,17.1-3.7,34.2-5.6,51.3c-1-1-1.9-1.9-2.9-2.9
				c63.9,7,127.9,13.9,191.8,20.9c9,1,18,2,27,2.9C1660.4,1414.5,1660.4,1420.3,1656.7,1419.9z"/>
		</g>
		<g>
			<path class="st16" d="M1418,1421.7c-6.3,58.2-12.7,116.5-19,174.7c-0.9,8.2-1.8,16.4-2.7,24.5c-0.2,1.7-2.9,1.8-2.8,0
				c6.3-58.2,12.7-116.5,19-174.7c0.9-8.2,1.8-16.4,2.7-24.5C1415.4,1420,1418.2,1420,1418,1421.7L1418,1421.7z"/>
		</g>
		<path class="st16" d="M1307.6,1663l-119.5-25.4c-3.2-0.7-5.3-3.9-4.6-7.1l1.2-5.5c0.7-3.2,3.9-5.3,7.1-4.6l119.5,25.4
			c3.2,0.7,5.3,3.9,4.6,7.1l-1.2,5.5C1314.1,1661.6,1310.9,1663.7,1307.6,1663z"/>
		<g>
			<path class="st16" d="M1305.2,1651.8c18.4-71.2,36.9-142.3,55.3-213.5c2.6-10.1,5.2-20.1,7.8-30.2c1-3.7,6.6-2.1,5.7,1.6
				c-18.4,71.2-36.9,142.3-55.3,213.5c-2.6,10.1-5.2,20.1-7.8,30.2C1310,1657,1304.3,1655.5,1305.2,1651.8L1305.2,1651.8z"/>
		</g>
		<path class="st109" d="M1580.6,976.1c-3.4,4-0.5,10.5,3.9,13.5c4.4,2.9,9.9,3.8,14.4,6.5c4.6,2.6,8.3,8.5,5.7,13.1
			c5.5-4.6,8.4-12.2,7.3-19.3c-1.1-7.1-6.1-13.5-12.7-16.3c-5.8-2.4-13.4-1.7-17.2,3.4c-0.3,0.4-0.6,0.8-1,0.7
			c-0.4-0.1-0.1-1,0.2-0.6L1580.6,976.1z"/>
		<path class="st26" d="M1641.1,1354.6c0,0-52.7-10.6-122.3-33.6c-69-22.7-70.2-50.3-70.2-50.3c4.5-46.5,17-118.8,32.4-165.8
			c11.8-36.1,52.2-61.2,75.6-62.1c0,0-1,2.1-1.5,5c-1.4,8.1,8.8,12.4,18,10.2c9.2-2.2,15.1-10.4,15.1-10.4
			c22.4,5.3,54.4,39.1,59.1,62.4c4.8,23.2,2,56.7-1.6,80.2C1627.5,1309.3,1645.4,1327.7,1641.1,1354.6z"/>
		<path class="st16" d="M1588.4,1357.6l-124.2-13.5c-4.7-0.5-8.2-4.8-7.7-9.5l0,0c0.5-4.7,4.8-8.2,9.5-7.7l124.2,13.5
			c4.7,0.5,8.2,4.8,7.7,9.5l0,0C1597.4,1354.7,1593.1,1358.1,1588.4,1357.6z"/>
		<path class="st16" d="M1981.6,845c1.2,13.4,1.3,27-1.5,40.2c-8.6,2.8-23.1,2.1-32.1,0.8C1946.4,850.2,1968,854.2,1981.6,845
			L1981.6,845z"/>
		<path class="st4" d="M2003.1,1108.1c31.5,64,60.5,167.8,100.3,211c15.1,16.4,75.1-6.3,102.8-18.1c40.1-17,56.2-22.9,91-49.5
			c11.7,34,16.7,24.5,19.4,38.1c0.7,3.5-160.5,140.5-224,124.4c-33.5-8.5-56.3-45.6-71.3-77.5c-18.6-39.5-37.1-78.9-55.7-118.4
			c-2.1-4.4-4.2-9.1-4.1-14c0.1-4.8,2.3-9.3,4.5-13.5C1978.1,1166.6,1990.9,1132.1,2003.1,1108.1L2003.1,1108.1z"/>
		<path class="st47" d="M1956.7,1267.1c7.6,29.3,14.9,48.3,33.2,72.1c31.4,40.9,84.2,85.8,110.8,84.9c6.9-40.3,36.6-99.2,37.5-114.7
			c-79,6-119.7-209.3-124.3-208.4c-18.6,3.5-49,9.5-67.6,12.9c-2.7,0.5-5.6,1.1-7.6,3c-2.6,2.6-3,6.7-3,10.4
			C1934.6,1174.9,1936.6,1224.1,1956.7,1267.1L1956.7,1267.1z"/>
		<g>
			<path class="st4" d="M1976.2,842.9c1.6-7.3-7.1-11.2-14.3-12.1c-7.2-0.9-11.9,0.1-15.9,6.3c-4,6.2-5.3,13.9-5.5,21.3
				c-0.3,9.4,1.7,20,9.4,25.1c9.3,6.2,22.7,0.4,27.9-9.6C1982.8,863.9,1980.2,853.5,1976.2,842.9L1976.2,842.9z"/>
		</g>
		<path class="st4" d="M1953.8,881.7c-0.8,4.7-1.2,14.5-2,19.2c-0.3,1.5-0.5,3.1-1.3,4.4c-0.7,1.2-4,5.5-4.5,6.8
			c-3.1,8.5-4.9,9.1-9,21.5c19.3,1.8,16.1,0.6,35.5-0.1c-2-10-5.4-21.8-8.7-31.5c-2.4-6.9-3.4-18.6-3.4-18.6
			c-0.3-0.7-0.9-1.6-1.6-1.4c-0.8,0.1-0.1,1.7,0.3,1.1L1953.8,881.7z"/>
		<path class="st4" d="M1977,863.8c1.5-1.9,4.6-2.1,6.4-0.4c1.8,1.6,2.1,4.6,0.8,6.7c-1.8,3-6.4,3.5-8.8,1.1L1977,863.8z"/>
		<path class="st45" d="M1945.8,905.5c0.4,5.4,5,7,10.3,6.8c4.5-0.2,9.7-3.4,7.9-11.3c33.6,43.8,48.5,208.2,47.4,210
			c-1,1.6-94,7.4-96.5,6.7C1906.9,1115.2,1886,970.5,1945.8,905.5L1945.8,905.5z"/>
		<path class="st4" d="M1916.6,1118.2c-22.1,49.9-67.8,172-69.1,230.1c-1,42.9,127.1,277.9,134.7,295c4.3,9.6,32,3.4,50.9,3.6
			c-32.5-87-60.7-174-93.2-260.9c-8.4-22.5-17-46.2-13.5-70.1c2.4-16.6,57.6-128.3,74.2-170.5c4.3-11,8.6-23.1,5.5-34.6
			c-0.5-1.9-1.3-3.8-2.8-5c-2.2-1.8-5.3-1.5-8.1-1.2c-24.9,2.9-49.8,5.8-74.7,8.7L1916.6,1118.2z"/>
		<path class="st48" d="M1910.2,1113.3c-21.9,67.6-68.7,126.7-76.8,197.5c-7,61.7,19.1,151.7,20.8,153.2c0,0,88.9-9.2,117-14.4
			c-25.9-55.6-43.4-122.8-8.9-178.4c14.8-23.8,60.9-51.7,69.8-84.2c9-33.1-7.1-59.7-20.5-91.2
			C1979.4,1102.1,1942.9,1110.6,1910.2,1113.3L1910.2,1113.3z"/>
		<path class="st44" d="M1971.4,1630.7c3.7,12.1,6.4,24.5-7,26.6c-10.5,1.6-15.8,0.5-25.9,4c-10.1,3.5-19.7,14.5-17.7,25.2
			c43-0.1,84.3,0,126.1,1.2c5.1-18.6,0.1-30.3-10-46.6c-0.6-0.9-4.2-10.8-5.2-11.3C2030.7,1629.2,1983.8,1634,1971.4,1630.7
			L1971.4,1630.7z"/>
		<path class="st44" d="M2297.5,1313.2c7.6-8.4,15.9-16.3,23.6-6.4c6.1,7.8,7.6,12.5,14.8,19c7.3,6.6,20.1,9.3,27.4,2.8
			c-19.6-34.6-38.3-67.9-56.3-102.2c-16.6,4.3-23.3,13.7-31.2,29.2c-0.4,0.9-6.4,8.3-6.3,9.3
			C2269.5,1266.1,2294.5,1301.8,2297.5,1313.2L2297.5,1313.2z"/>
		<path class="st4" d="M1838.9,1167.1c-10.7-3.4-24.9-7.2-35.5-10.6c-3.4,4.9-9.8,12.6-12.8,20.3c14.6,2.4,33.1-4.5,47.4-9
			L1838.9,1167.1z"/>
		<path class="st4" d="M1849.4,1211.8c-3.8,0.7-9.4,9.3-13.2,10.4c-7.4,2.3-16.4,8.5-32.1,12.1c-8.8-11.5-17.7-23-26.5-34.4
			c-0.8-1-1.6-2.2-1.4-3.4c0.1-0.8,0.6-1.4,1.1-2c6-7.5,11.9-15.1,17.9-22.6c1.1-1.4,2.2-2.8,3.8-3.4c1.2-0.5,2.5-0.4,3.8-0.4
			c8.7,0.4,22.6,0.2,31.3,0.5c5.4,15,5.6,30.5,11,45.5c0.2,0.7,0.4,1.5-0.1,2c-0.6,0.4-1.2-0.9-0.5-0.9L1849.4,1211.8z"/>
		<path class="st4" d="M1954.6,984.8c-7.4-13.4-14.5-45.5-4.3-57.4c10.2-11.9,20.1-12.4,34.7-7.7c18.9,6.1,31.3,28.4,39.9,41.3
			c20.4,30.7,29.8,75.6,41.7,110.7c3.7,10.8,7.3,22.5,3.8,33.4c-2.1,6.8-6.8,12.4-11.6,17.6c-27.2,29.3-62.5,49.8-99.3,64.2
			c-36.9,14.4-76.4,20.4-115,28.6c-5.5-19-4.8-27.6-10.4-46.6c28.2-9.6,54.9-20.1,83.1-29.8c23-7.8,55.3-24.4,71.3-43.1
			c6.6-7.7-2.1-40.2-4.6-48C1976.8,1024.6,1965.6,1004.5,1954.6,984.8L1954.6,984.8z"/>
		<g>
			<path class="st13" d="M1969.8,864.2c-1.9,3.5-10.6,4.5-10.4-0.8c0-1.2,1.9-1.2,1.9,0c-0.1,3.2,5.9,1.7,6.9-0.1
				C1968.8,862.1,1970.4,863.1,1969.8,864.2L1969.8,864.2z"/>
		</g>
		<g>
			<path class="st13" d="M1950.1,863.1c-2.2,3.4-7,3.3-9-0.2c-0.6-1.1,1-2,1.6-0.9c1.3,2.3,4.3,2.5,5.7,0.2
				C1949.2,861.1,1950.8,862,1950.1,863.1L1950.1,863.1z"/>
		</g>
		<g>
			<path class="st13" d="M1955.1,864c-1,3.3-1.7,6.7-2.2,10.1c-0.2-0.4-0.4-0.8-0.7-1.2c1.3,0.3,2.5,0.4,3.8,0.3
				c1.2-0.1,1.2,1.8,0,1.9c-1.5,0.1-2.8,0-4.3-0.3c-0.5-0.1-0.7-0.7-0.7-1.2c0.5-3.4,1.2-6.8,2.2-10.1
				C1953.7,862.3,1955.5,862.8,1955.1,864L1955.1,864z"/>
		</g>
		<g>
			<path class="st13" d="M1966.8,876.5c-1.8,3.9-6,5.9-10.2,5.1c-1.2-0.2-0.7-2,0.5-1.8c3.4,0.7,6.6-1.1,8-4.2
				C1965.6,874.5,1967.2,875.4,1966.8,876.5L1966.8,876.5z"/>
		</g>
		<path class="st41" d="M1954,920.1c-9.8,7.9-13.4,21.5-12.2,34.1c1.2,12.5,6.5,24.2,11.6,35.7c9.9,21.7,19.7,43.5,29.6,65.2
			c26.4-6.3,52.2-14.8,77.2-25.3c-5.5-15.5-11.1-30.9-16.6-46.4c-7.3-20.4-15.1-41.7-30.9-56.5C1996.9,912,1971.1,906.7,1954,920.1
			L1954,920.1z"/>
		<path class="st16" d="M1976.2,860.1c0.6,6.3,0.2,12.7-1.3,18.8c1,0.2,2.1,0.5,3.1,0.7c2.2-8.6,4.5-17.3,6.7-25.9
			c1.5-5.8,3-11.7,2.5-17.6c-0.5-5.9-3.3-12.1-8.5-14.9c-2.2-1.2-4.8-1.7-7.2-1c-1.9,0.6-3.5,1.8-5.3,2.5c-1.7,0.6-3.5,0.7-5.2,0.2
			c-3.4-0.9-6.4-3.8-9.8-3c-2.7,0.6-4.4,3.4-7,4.5c-2.8,1.1-5.9,0.1-8.7-0.9c-2.8-1-6.1-1.7-8.6-0.1c-1.8,1.1-2.7,3.1-3.8,4.9
			c-1.1,1.8-2.8,3.5-4.9,3.4c-1.1-0.1-2.2-0.6-3.3-0.7c-1.8-0.1-3.5,1.3-4.1,3c-0.6,1.7-0.4,3.6,0.3,5.4c1.7,4.4,6.5,7.8,11.2,6.8
			c1.9-0.4,3.6-1.5,5.3-2.4c1.7-0.9,3.7-1.6,5.6-1.1c1.9,0.4,3.6,2.3,3.1,4.2c-0.3,1-1.1,2-0.7,2.9c0.2,0.5,0.8,0.9,1.3,1
			c2.7,0.7,5.6-1.5,8.1-0.4c2,0.8,3,3.4,5.1,4.1c2.2,0.8,4.4-0.8,6.3-2.1c2-1.5,4.4-2.8,6.9-2.6c3.3,0.3,6.5,3.4,9.6,2
			c1.2-0.6,2.3-1.8,3.6-1.5c0.6,3.4,0.5,6.9-0.2,10.3L1976.2,860.1z"/>
		<path class="st41" d="M1942.9,893c1.6,4.9,2.2,10.1,1.8,15.2c0,0.5-0.1,1.1,0.2,1.6c0.2,0.3,0.4,0.5,0.7,0.8
			c2.9,2.3,7,3.2,10.8,2.8c3.8-0.4,7.4-1.9,10.7-3.8c0.1-5.9,0.2-11.8,0-17.7c-9,4.2-19.2,3.4-23.8,1.7L1942.9,893z"/>
		<g>
			<path class="st13" d="M1577.9,998.1c-0.7,1.7-1.6,3.4-2.5,5c-0.4,0.7-1.3,1.6-1.5,2.3c-0.5,0.4-0.5,0.7,0,1
				c0.5,0.2,0.9,0.4,1.4,0.4c1.2,0.2,0.7,2-0.5,1.8c-1.6-0.3-4-1.3-3.1-3.3c0.6-1.3,1.7-2.5,2.4-3.8c0.8-1.4,1.5-2.9,2.2-4.4
				C1576.7,996,1578.3,997,1577.9,998.1L1577.9,998.1z"/>
		</g>
		<g>
			<path class="st13" d="M1580.1,999.1c1.4-0.8,3.1-1.1,4.6-0.4c1.4,0.7,2.3,2.1,2.1,3.6c-0.1,0.8-1,1.3-1.6,0.7
				c-0.1-0.1-0.2-0.2-0.3-0.3c-0.9-0.9,0.5-2.2,1.3-1.3c0.1,0.1,0.2,0.2,0.3,0.3c-0.5,0.2-1.1,0.4-1.6,0.7c0.2-2.3-2.4-2.5-4-1.6
				C1580,1001.3,1579,999.7,1580.1,999.1L1580.1,999.1z"/>
		</g>
		<g>
			<path class="st13" d="M1573.7,997.6c-0.3-0.7-1-1.1-1.7-0.9c-1.2,0.3-1.7-1.5-0.5-1.8c1.5-0.4,3.2,0.3,3.8,1.8
				C1575.9,997.7,1574.2,998.7,1573.7,997.6L1573.7,997.6z"/>
		</g>
		<g>
			<path class="st13" d="M1573.2,1012.1c2.4,1.8,5.2,1.7,8,1.1c1.2-0.3,1.7,1.5,0.5,1.8c-3.3,0.8-6.7,0.9-9.5-1.2
				C1571.3,1013,1572.3,1011.4,1573.2,1012.1L1573.2,1012.1z"/>
		</g>
		<g>
			<path class="st13" d="M1594.5,1013.5c1.1-0.1,2.1,0.1,3.1,0.6c1.1,0.5,0.1,2.1-0.9,1.6c-0.7-0.3-1.4-0.4-2.2-0.3
				C1593.3,1015.5,1593.3,1013.6,1594.5,1013.5L1594.5,1013.5z"/>
		</g>
		<g>
			<path class="st13" d="M1595,1014c0.5,0.6,0.8,1.1,1,1.8c0.4,1.1-1.4,1.6-1.8,0.5c-0.1-0.4-0.3-0.7-0.5-1
				C1592.9,1014.4,1594.2,1013.1,1595,1014L1595,1014z"/>
		</g>
		<g>
			<path class="st12" d="M1237.2,1354.6c17,17.5,34.8,34.5,55.5,47.7c21.2,13.5,45.1,22.2,68.2,31.7c0.8,0.3,0.5,1.7-0.4,1.3
				c-23.3-9.5-47.3-18.2-68.6-31.8c-20.8-13.2-38.6-30.3-55.7-47.9C1235.5,1354.9,1236.5,1354,1237.2,1354.6L1237.2,1354.6z"/>
		</g>
		<g>
			<path class="st12" d="M1242.2,1347.6c16.9,20.1,36.9,37.4,59.4,51c11.4,6.9,23.3,12.8,35.7,17.7c5.6,2.2,11.3,4.2,17.1,6
				c3.8,1.2,7.7,1.4,9.8,5c0.5,0.8-0.7,1.5-1.2,0.7c-2.8-4.7-15.1-6.3-20-8c-5.3-1.9-10.6-4.1-15.7-6.4c-11-4.9-21.6-10.7-31.8-17.2
				c-20.4-13.1-38.6-29.3-54.2-47.8C1240.6,1347.9,1241.6,1346.9,1242.2,1347.6L1242.2,1347.6z"/>
		</g>
		<g>
			<path class="st12" d="M1550.9,1044.8c-7.2,15.5,6.7,27.8,21.4,23.8c9.8-2.6,17.8-9.2,23.1-17.7c0.5-0.8,1.7-0.1,1.2,0.7
				c-6.8,10.9-20.6,21.6-34.3,19.2c-12.8-2.2-17.8-15.7-12.7-26.7C1550.1,1043.3,1551.3,1044,1550.9,1044.8L1550.9,1044.8z"/>
		</g>
		<g>
			<path class="st126" d="M1435.6,839.2c-6.1-80.4-76.1-140.6-156.3-134.5c-80.2,6.1-140.3,76.2-134.2,156.6
				c6.1,80.4,167.6,283.6,167.6,283.6S1441.7,919.6,1435.6,839.2z M1294.9,909.4c-38.6,2.9-72.2-26-75.2-64.7
				c-2.9-38.7,26-72.4,64.5-75.3c38.6-2.9,72.2,26,75.2,64.7C1362.3,872.8,1333.4,906.5,1294.9,909.4z"/>
		</g>
		<g>
			<path class="st4" d="M1340.8,1038.1c-3.3-9.7-6.6-19.3-9.9-29c-0.9-2.7-2.2-5.8-5-6.4c-1.6-0.3-1.7,4.8-1.3,7.3
				c0.4,2.5,1.1,5,0.8,7.6c-0.1,0.7-0.4,1.6-1.1,1.8c-0.3,0.1-0.6,0.1-0.9,0c-1.9-0.5-3.5-1.6-4.9-2.9c-7-7-14.4-13.7-22.1-19.9
				c-0.9-0.8-1.9-1.4-3-2c-0.6-0.4-1.4-0.7-2.1-0.2c-0.5,0.3-0.8,0.9-0.8,1.6c0,1.2,0.8,2.2,1.6,3c3.1,3.6,13.2,15.6,12.4,16.1
				c-0.5,0.4-13.4-14.9-19.6-17.8c-0.7-0.3-1.5-0.2-2,0.4c-0.5,0.6-0.3,1.3,0,1.8c2.7,5.5,15.2,21.1,14.2,20.7
				c-6-2-11.1-13.7-17.7-15.9c-0.9-0.3-1.9-0.5-2.6,0.2c-2.8,2.8,15.7,22,14.9,22.1c-1.5,0.2-12.4-8.6-15.8-9.9
				c-0.8-0.3-1.6-0.1-2.2,0.5c-0.7,0.7-0.4,1.5,0,2.3c0.4,0.8,1,1.6,1.6,2.3c12.4,15.2,25.9,30,42.4,40.6c0.4,0.3,0.9,0.6,1.4,0.6
				c0.4,0,0.8-0.2,1.1-0.3c5.6-2.7,10.3-7,13.6-12.3c2.6-4.3,2.5-8.1,7-10.4L1340.8,1038.1z"/>
			<path class="st42" d="M1609.8,1081.6c28.6-3.6,30.2,28.4,26.2,48.1c-1.8,8.9-6.6,16.9-12.1,24.1c-8.2,10.7-18.5,20-30.6,25.8
				c-23.1,11.1-50.3,8.5-75.5,3.4c-80.3-16.3-155.7-55.8-214.7-112.6c13.8-14.8,27.6-29.5,41.3-44.3c5.7,12.8,48.5,61.3,148.6,86.6
				c40,10.1,85.7,9.7,96.5-5.1c6.5-8.9,9-22.3,19.5-25.7L1609.8,1081.6z"/>
			<g>
				<path class="st12" d="M1354.6,1040.8c-14.1,12-26.6,25.4-37.7,40.1c-0.5,0.7-1.7,0-1.2-0.8c11.1-14.9,23.8-28.4,37.9-40.4
					C1354.3,1039.2,1355.2,1040.2,1354.6,1040.8L1354.6,1040.8z"/>
			</g>
			<g>
				<path class="st12" d="M1360.2,1047.3c-13.5,12.2-25.9,25.5-37.3,39.8c-0.6,0.7-1.7-0.1-1.2-0.8c11.4-14.4,23.9-27.7,37.5-40.1
					C1360,1045.7,1360.9,1046.7,1360.2,1047.3L1360.2,1047.3z"/>
			</g>
		</g>
		<g>
			<path class="st12" d="M1978.1,1042.3c26.7-4.8,52.7-12.7,77.5-23.6c0.8-0.4,1.5,0.8,0.7,1.2c-25,11-51,18.9-77.9,23.8
				C1977.6,1043.8,1977.2,1042.5,1978.1,1042.3L1978.1,1042.3z"/>
		</g>
		<g>
			<path class="st12" d="M1877.4,1026.4c8.9,4.8,18.3,8.1,28.2,9.8c0.9,0.2,0.5,1.5-0.4,1.3c-10.1-1.8-19.6-5.1-28.5-10
				C1875.9,1027.2,1876.6,1026,1877.4,1026.4L1877.4,1026.4z"/>
		</g>
		<g>
			<path class="st12" d="M1849.4,1447.8c37.8-3.8,76.2-4.8,113.5-12.4c0.9-0.2,1.2,1.2,0.4,1.3c-37.4,7.7-76,8.7-113.9,12.5
				C1848.5,1449.3,1848.5,1447.9,1849.4,1447.8L1849.4,1447.8z"/>
		</g>
		<g>
			<path class="st12" d="M2126.3,1308.7c-1.9,17.9-11.6,35.4-18.6,51.8c-8.2,19.3-16.8,38.5-25.7,57.5c-0.4,0.8-1.6,0.1-1.2-0.7
				c8-17.1,15.7-34.4,23.2-51.7c3.9-9.1,7.8-18.2,11.6-27.4c3.9-9.6,8.2-19,9.3-29.4C2125,1307.8,2126.4,1307.8,2126.3,1308.7
				L2126.3,1308.7z"/>
		</g>
	</g>
</g>
</svg>
