<?xml version="1.0" encoding="utf-8"?>
<!-- Generator: $$$/GeneralStr/196=Adobe Illustrator 27.6.0, SVG Export Plug-In . SVG Version: 6.00 Build 0)  -->
<svg version="1.1" xmlns="http://www.w3.org/2000/svg" xmlns:xlink="http://www.w3.org/1999/xlink" x="0px" y="0px"
	 viewBox="0 0 2500 2000" style="enable-background:new 0 0 2500 2000;" xml:space="preserve">
<style type="text/css">
	.st0{opacity:0.8;fill:#BADBD8;}
	.st1{fill:#BADBD8;}
	.st2{opacity:0.6;fill:#FFFFFF;}
	.st3{fill:#F1F9FD;}
	.st4{fill:#F5C796;}
	.st5{fill:#2480B4;}
	.st6{fill:#663333;}
	.st7{fill:#653512;}
	.st8{fill:#F7981C;}
	.st9{fill:#006E61;}
	.st10{fill:#3F96D2;}
	.st11{fill:#12434F;}
	.st12{fill:#FFFFFF;}
	.st13{fill:#194E60;}
	.st14{fill:#2E67B0;}
	.st15{fill:#FFFCEA;}
	.st16{fill:#1A2042;}
	.st17{fill:#558FCB;}
	.st18{fill:#221E1F;}
	.st19{fill:#FCF8CD;}
	.st20{fill:#5FC1A4;}
	.st21{fill:#58A991;}
	.st22{fill:#404768;}
	.st23{fill:#02887D;}
	.st24{fill:#00A69C;}
	.st25{fill:none;stroke:#1A2042;stroke-width:0.8046;stroke-miterlimit:10;}
	.st26{fill:#FAC049;}
	.st27{fill:#FFD182;}
	.st28{fill:#121C3E;}
	.st29{fill:#FFCC00;}
	.st30{fill:#1D9AC5;}
	.st31{fill:#F59698;}
	.st32{fill:#25A9E0;}
	.st33{fill:#D4EBF5;}
	.st34{fill:#14253E;}
	.st35{fill:#1F3256;}
	.st36{fill:#162546;}
	.st37{fill:#116E96;}
	.st38{fill:#235E6D;}
	.st39{fill:#0E9282;}
	.st40{fill:#2C6C52;}
	.st41{fill:#3D876C;}
	.st42{fill:#E2A232;}
	.st43{fill:#4095D1;}
	.st44{fill:#368BBE;}
	.st45{fill:#4C9D81;}
	.st46{fill:none;stroke:#1A2042;stroke-width:0.7302;stroke-miterlimit:10;}
	.st47{fill:#0E353E;}
	.st48{fill:#164754;}
	.st49{fill:#CA9665;}
	.st50{fill:#986732;}
	.st51{fill:#98CBCB;}
	.st52{fill:#0F3A43;}
	.st53{opacity:0.51;}
	.st54{opacity:0.66;}
	.st55{fill:#D1EAF6;}
	.st56{fill:#4785B7;}
	.st57{fill:none;stroke:#1A2042;stroke-width:1.0618;stroke-miterlimit:10;}
	.st58{fill:#1174AA;}
	.st59{fill:#F4F5FA;}
	.st60{fill:#3A7C64;}
	.st61{fill:#D7AF28;}
	.st62{fill:#144551;}
	.st63{fill:#D1ECF2;stroke:#144551;stroke-width:0.782;stroke-miterlimit:10;}
	.st64{fill:#326667;stroke:#99CBCB;stroke-width:0.2172;stroke-miterlimit:10;}
	.st65{fill:url(#SVGID_1_);}
	.st66{fill:#339866;}
	.st67{fill:url(#SVGID_00000074427108697628838840000001692203433727502245_);}
	.st68{fill:#558FCC;}
	.st69{fill:#2D67B1;}
	.st70{fill:#164956;}
	.st71{fill:#2E606C;}
	.st72{fill:#366B7A;}
	.st73{fill:#3D7883;}
	.st74{fill:#37B999;}
	.st75{fill:#142547;}
	.st76{fill:#51A98E;}
	.st77{fill:#2B81A7;}
	.st78{fill:#368DBE;}
	.st79{fill:#8BC53F;}
	.st80{fill:#1E3356;}
	.st81{fill:#F16621;}
	.st82{fill:#CA1F26;}
	.st83{fill:none;stroke:#1A2042;stroke-width:0.7221;stroke-miterlimit:10;}
	.st84{opacity:0.8;}
	.st85{fill:#1C2F3B;}
	.st86{fill:#575756;}
	.st87{fill:#F1F2F2;}
	.st88{fill:#99CCFF;}
	.st89{fill:#ECE3D4;}
	.st90{fill:#C3DF95;}
	.st91{fill:#F8D3B6;}
	.st92{fill:#F6F6F6;}
	.st93{fill:#FFF597;}
	.st94{fill:#1A4D5E;}
	.st95{fill:#2E63A5;}
	.st96{fill:#FCF9E8;}
	.st97{fill:#1A2041;}
	.st98{fill:#5488BF;}
	.st99{fill:#221D1E;}
	.st100{fill:#F8F5CC;}
	.st101{fill:#121C3D;}
	.st102{fill:#F4C625;}
	.st103{fill:#2A92B9;}
	.st104{fill:#EA9294;}
	.st105{fill:#1B193A;}
	.st106{fill:#169D94;}
	.st107{fill:#309ED0;}
	.st108{fill:#2891B9;}
	.st109{fill:#442006;}
	.st110{fill:#0E8479;}
	.st111{fill:#D0E5EF;}
	.st112{fill:#15253E;}
	.st113{fill:#1D3254;}
	.st114{fill:#ED9429;}
	.st115{fill:#438DC4;}
	.st116{fill:#EBB88A;}
	.st117{fill:#F4C526;}
	.st118{fill:#121B3C;}
	.st119{fill:#0D162C;}
	.st120{fill:#721F0C;}
	.st121{fill:url(#SVGID_00000036234011186274631810000014059695199718800554_);}
	.st122{fill:url(#SVGID_00000148637748210863639620000000732492565788366723_);}
	.st123{fill:#CC3333;}
	.st124{fill:#184C59;}
	.st125{fill:#2D7DAA;}
	.st126{fill:#F45346;}
	.st127{fill:#D37580;}
	.st128{fill:#111C3D;}
	.st129{fill:#1F4E5E;}
	.st130{fill:#5FB99E;}
	.st131{fill:#164552;}
	.st132{fill:#E7E5DC;}
	.st133{fill:#333332;}
</style>
<g id="圖層_2">
	<path class="st0" d="M643.9,863.1c13.7-57.4,22.3-114.6,34.9-171.9c12.3-52.4,31.8-102.9,56.7-149.7
		c51.5-94.2,133-201.4,244.5-195.9c91.5,6.5,202.4,113.9,288.8,47.6c35.9-30.1,64.3-69.5,105.4-93.3
		c156.3-89.1,312.8-51.4,396.2,121.9c27,55.6,46.3,116.3,65.7,174.4c14.4,42.1,28.8,84.6,58.4,117c87.6,88.8,221.6,69.9,329.8,110.6
		c87.2,30.1,168.2,90.6,209.6,180c69.8,150,14.6,253.9-89,360.9c-32.2,38.1-54.9,83.7-67.6,132.8
		c-26.6,111.6-30.9,212.8-112.3,300.5c-58.6,65.6-140.3,88.6-222.6,71.7c-53.1-12.1-103.1-34-154.9-53.3
		c-79.4-31.2-163-40.9-245.6-29.4c-160.9,16.6-324.6,138.7-484.3,68.4c-66.7-27.6-119.1-93.8-178.2-134.7
		c-162.4-123.2-294.9-67.8-476.3-72.1c-47.2-0.1-99.4-2.4-141.4-28.7c-95.1-54.1-129.1-185.2-94.3-290.5
		c28.1-92.5,96.7-166.2,173.6-215.1C444,1042.2,611.7,1007.3,643.9,863.1"/>
	<path class="st1" d="M1956.2,603.9c-46.8-55.6-66.8-150.8,0.8-197.7c35-24.7,79-5.3,106.1,23.8c40.9,45.5,68.4,89.3,128,110.4
		c32.8,12.6,69.1,17.4,98,39.5c22.9,16.9,43.7,50.2,30.5,80.1c-21.4,36.4-68.6,39.5-105.1,44.1c-24.5,1.9-49,2.3-73.3,0.2
		C2070.8,697.5,2002.1,662.1,1956.2,603.9z"/>
	<path class="st2" d="M2132.1,1156.7c39.4,91.1-82.6,214.5-167.3,341.9c-83.3,127.6-130.8,258.9-228.8,256.1
		c-98.5-3.6-248.3-140.6-366.7-171.1s-205.3,45.3-328.8,82.4c-122.7,36.5-281.7,32.7-290.5-46.2c-9.4-79.8,131.7-236.1,104.4-388.5
		C827.1,1078.9,631,931.9,648.8,882.7c17.2-50.1,248.7-0.1,387.6-25.6c138.6-24.1,186.7-122.4,274.7-196.6
		c88.9-74.8,217.3-126.3,287.3-74.7c70.8,51,82.7,204.1,188.5,311.1S2093,1064.2,2132.1,1156.7z"/>
</g>
<g id="Layer_1">
	<path class="st1" d="M431.5,967.3c-65,0.3-122-74.8-85.1-139.7c17.5-33.2,46.6-56,73.9-79.6c33.4-28.1,67.2-61.5,108.5-75.1
		c57.2-17.9,61.2,62.5,56.8,104.7c-3.3,32.9-12.5,65.5-26.8,94.9C534.5,924,487.9,968.4,431.5,967.3z"/>
	<g class="st84">
		<ellipse class="st85" cx="1465.1" cy="1710.6" rx="842.7" ry="80.7"/>
	</g>
	<g>
		<path class="st64" d="M2098.1,1420h-500.4c-37.1,0-67.5,29-67.5,64.4l0,0c0,35.4,30.4,64.4,67.5,64.4h500.4V1420z"/>
		<g>
			<path class="st12" d="M2098.1,1431.2h-413.4c-30.7,0-55.8,23.9-55.8,53.2l0,0c0,29.3,25.1,53.2,55.8,53.2h413.4V1431.2z"/>
			<linearGradient id="SVGID_1_" gradientUnits="userSpaceOnUse" x1="1628.7179" y1="1484.4073" x2="2098.2473" y2="1484.4073">
				<stop  offset="0" style="stop-color:#FFFFFF"/>
				<stop  offset="1" style="stop-color:#000000"/>
			</linearGradient>
			<path class="st65" d="M2098.2,1537.7h-413.6c-14.9,0-28.9-5.6-39.5-15.7c-10.6-10.1-16.4-23.5-16.4-37.7
				c0-14.2,5.8-27.6,16.4-37.7c10.6-10.1,24.6-15.7,39.5-15.7h413.6V1537.7z M1684.7,1431.4c-30.7,0-55.6,23.8-55.6,53
				c0,29.2,25,53,55.6,53h413.3v-106.1H1684.7z"/>
		</g>
		<path class="st66" d="M2076.9,1043.4h-500.4c-37.1,0-67.5,29-67.5,64.4l0,0c0,35.4,30.4,64.4,67.5,64.4h500.4V1043.4z"/>
		<g>
			<path class="st12" d="M2076.9,1069.2h-453.2c-33.6,0-61.1,17.4-61.1,38.6v0c0,21.2,27.5,38.6,61.1,38.6h453.2V1069.2z"/>
			
				<linearGradient id="SVGID_00000070081855023354669110000004685048450545064618_" gradientUnits="userSpaceOnUse" x1="1562.3524" y1="1107.837" x2="2076.9885" y2="1107.837">
				<stop  offset="0" style="stop-color:#FFFFFF"/>
				<stop  offset="1" style="stop-color:#000000"/>
			</linearGradient>
			<path style="fill:url(#SVGID_00000070081855023354669110000004685048450545064618_);" d="M2077,1146.6h-453.4
				c-33.8,0-61.3-17.4-61.3-38.7c0-21.4,27.5-38.7,61.3-38.7H2077V1146.6z M1623.6,1069.4c-16.2,0-31.5,4-43.1,11.3
				c-11.5,7.3-17.9,16.9-17.9,27.2c0,10.2,6.4,19.9,17.9,27.2c11.6,7.3,26.9,11.3,43.1,11.3h453.1v-76.9H1623.6z"/>
		</g>
		<path class="st123" d="M1532.6,1548.8h609.3c45.2,0,82.2,35.3,82.2,78.4l0,0c0,43.1-37,78.4-82.2,78.4h-609.3V1548.8z"/>
		<path class="st12" d="M1532.6,1562.4h546.9c40.6,0,73.8,29.1,73.8,64.8l0,0c0,35.6-33.2,64.8-73.8,64.8h-546.9V1562.4z"/>
		<path class="st29" d="M1644.3,1172.2h472.4c35.1,0,63.7,27.3,63.7,60.8l0,0c0,33.4-28.7,60.8-63.7,60.8h-472.4V1172.2z"/>
		<path class="st12" d="M1644.3,1182.7h337.5c25,0,45.5,22.6,45.5,50.2l0,0c0,27.6-20.5,50.2-45.5,50.2h-337.5V1182.7z"/>
		<path class="st68" d="M2141.7,1420h-484.1c-32.9,0-59.6-26.7-59.6-59.6v-7.1c0-32.9,26.7-59.6,59.6-59.6h484.1
			c32.9,0,59.6,26.7,59.6,59.6v7.1C2201.3,1393.4,2174.6,1420,2141.7,1420z"/>
		<rect x="2040.9" y="1293.7" class="st69" width="27" height="126.3"/>
		<rect x="2082.1" y="1293.7" class="st69" width="27" height="126.3"/>
		<path class="st8" d="M2012.7,1045.8h-353.8c-24.1,0-43.6-19.5-43.6-43.6v-5.2c0-24.1,19.5-43.6,43.6-43.6h353.8
			c24.1,0,43.6,19.5,43.6,43.6v5.2C2056.3,1026.3,2036.8,1045.8,2012.7,1045.8z"/>
		<rect x="1939" y="953.5" class="st29" width="19.7" height="92.3"/>
		<rect x="1969.2" y="953.5" class="st29" width="19.7" height="92.3"/>
		<polygon class="st8" points="1759.5,1606.8 1716.5,1569.7 1673.5,1606.8 1673.5,1483 1759.5,1483 		"/>
		<polygon class="st69" points="1953.9,1194.7 1920.4,1171.6 1886.9,1194.7 1886.9,1117.8 1953.9,1117.8 		"/>
	</g>
	<g>
		<path class="st4" d="M1392.6,858.6c-18.9,3.4-37.8,7.5-56.4,12.3c-3.3,0.8-6.9,2-8.5,4.9c-1.9,3.2-0.5,7.5,2.2,10.1
			c2.7,2.6,6.4,3.7,10.1,4.7c17.8,4.6,36.6,5.1,54.6,1.7c1-0.2,2-0.4,2.8-1.1c1.2-1.1,1.3-2.9,1.2-4.6c-0.5-9.7-2.5-19.2-5.9-28.3
			L1392.6,858.6z"/>
		<path class="st4" d="M1938.5,994.6c0.2-0.5-0.8-0.8-1.1-0.3c-0.3,0.5-0.1,1.1,0.1,1.7c3.2,7.5,8.5,14,12.5,21.2
			c4,7.2,6.7,15.7,4.3,23.5c-0.6,2.1-1.7,4.1-3.5,5.3c-3.9,2.7-9.2,0.4-13.2-2.2c-12.5-8.4-22.4-20.5-28.1-34.5
			c10.7-5.6,21-11.8,30.9-18.6L1938.5,994.6z"/>
		<path class="st28" d="M1681.1,609c-6-2.8-9.5-9.9-8.9-16.5c0.5-6.6,4.6-12.7,10.1-16.5c2.3-1.6,5.2-2.9,7.9-2.3
			c4.3,0.9,7.9,6,11.9,4.3c2.7-1.1,3.3-4.6,4.7-7.2c1.8-3.4,5.6-5.7,9.5-5.6c3.9,0.1,7.6,2.4,9.3,5.9c1.5,2.9,1.9,6.9,4.8,8.3
			c2.4,1.1,5.3-0.2,7.3-2.1c2-1.8,3.5-4.2,5.7-5.6c3.6-2.4,8.7-1.8,12.1,0.8c3.4,2.7,5,7.3,4.6,11.5c-0.3,3.1-1.6,6.1-2.2,9.2
			c-0.6,3.1-0.4,6.7,1.9,8.9c2.9,2.9,7.8,2.2,11.7,0.9c3.9-1.4,8-3.3,12-2.2c3.8,1.1,6.5,4.8,7.2,8.7c0.8,3.9,0,7.9-1.1,11.8
			c-0.7,2.4-1.4,4.7-1.3,7.2c0.1,2.4,1.4,5,3.6,5.9c2.7,1.1,5.7-0.4,8.6-0.1c2.7,0.4,4.9,2.4,6.2,4.7c3,5.4,1.3,12.9-3.6,16.6
			c-4.5,3.3-11.6,4.2-13.5,9.5c-1.4,3.9,0.9,8.2,0.1,12.2c-1.1,5.1-6.6,7.8-11.5,9.8c-2.3,0.9-4.7,1.8-7.1,1.6
			c-4.5-0.5-7.6-4.7-11.8-6.5c-6.3-2.7-13.5,0.6-19.5,4c-6,3.4-12.9,7-19.4,4.7c-6.3-2.2-9.6-9.7-9-16.4c0.3-3.1,1.1-6.4-0.5-9
			c-1.7-2.6-5.2-3.1-8.3-3.3c-3.9-0.3-7.8-0.7-11.7-1c-5-0.4-11.3-1.8-12.4-6.7c-0.8-3.5,1.6-6.9,3.6-9.8c2-3,3.8-6.9,2-10
			c-2.6-4.6-10.5-3.2-13.4-7.6c-1.5-2.2-1-5.4,0.6-7.5c1.6-2.1,4.2-3.4,6.8-4c0.9-0.2,1.8-0.4,2.6-0.8c1.9-1.1,2.2-4.2,0.5-5.7
			L1681.1,609z"/>
		<path class="st4" d="M1704.3,631.9c0.4,6.5,0.8,12.9,1.1,19.4c-11.9,4.6-50.4,16.1-52.3,22.2c-2.5,7.7-1,18.3-0.8,23.8
			c20,1,42.7-1.9,62.8-0.9c19.3,1,38.7,1.9,57.7-1.4c1-5.4-1.3-17.7-4.6-22.5c-4.7-6.8-45.7-19.6-53.4-20.6c0-7-0.8-14.1-0.8-21
			c-2,0-7.5,0.1-9.6,0.1L1704.3,631.9z"/>
		<path class="st4" d="M1717.2,590.1c-2.2-2.3-5.7-3-8.8-2.5c-5.3,0.9-9.7,4.8-12.2,9.6c-2.5,4.7-3.4,10.1-3.9,15.5
			c-0.7,8-0.2,17,5.6,22.5c5.1,4.9,13.4,5.5,19.7,2.4c6.3-3.1,10.7-9.4,12.6-16.2c1.9-6.8,1.4-14-0.1-20.9
			c-0.9-4.1-2.4-8.5-6.1-10.6c-3.1-1.8-7-1.3-10.6-0.8L1717.2,590.1z"/>
		<path class="st4" d="M1693.5,614.7c-1-1.2-3-1.2-4.3-0.3c-1.3,0.8-2.1,2.3-2.4,3.9c-0.3,1.1-0.4,2.2,0,3.3c0.5,1.5,2,2.5,3.5,3
			c1.5,0.4,3.2,0.3,4.8,0.2c0-3.2,0-6.4,0-9.6L1693.5,614.7z"/>
		<path class="st4" d="M1727.8,616.5c0-0.9,1.1-1.5,2.1-1.4c2.7,0.1,6.1,2.5,5.7,5.1c-0.8,6.7-6.1,6.2-8.1,6.8
			c0.3-3.7,0.3-7.4,0-11.2L1727.8,616.5z"/>
		<g>
			<path class="st28" d="M1693.4,613.2c1.2,4.7,7.2,5.5,9.7,1.5c0.8-1.3-1.3-2.5-2.1-1.2c-1.5,2.3-4.7,1.7-5.3-0.9
				C1695.4,611,1693.1,611.6,1693.4,613.2L1693.4,613.2z"/>
		</g>
		<g>
			<path class="st28" d="M1710.2,613.4c0.9,2.5,3.2,4.2,6,3.8c1.9-0.3,5.2-2.3,3.4-4.5c-0.3-0.4-1-0.4-1.5-0.2c0,0-0.1,0.1-0.1,0.1
				c-1.3,0.8-0.1,2.9,1.2,2.1c0,0,0.1-0.1,0.1-0.1c-0.5-0.1-1-0.1-1.5-0.2c0-0.8-0.1-0.9-0.5-0.4c-0.3,0.2-0.6,0.4-0.9,0.6
				c-0.4,0.2-0.9,0.3-1.4,0.2c-1.2-0.1-2.2-1-2.6-2.1C1712,611.3,1709.7,611.9,1710.2,613.4L1710.2,613.4z"/>
		</g>
		<g>
			<path class="st28" d="M1705.6,613.5c-0.6,1.9-1.2,3.8-1.8,5.7c-0.5,1.6-1.3,3.3-1.3,5c0,1.9,1.7,3.6,3.6,2.8
				c1.4-0.6,0.8-2.9-0.6-2.3c-1,0.4,0.1-2.8,0-2.7c0.3-0.9,0.5-1.7,0.8-2.6c0.5-1.7,1.1-3.5,1.6-5.2
				C1708.4,612.7,1706,612.1,1705.6,613.5L1705.6,613.5z"/>
		</g>
		<g>
			<path class="st28" d="M1705.4,632.7c3.4,1.3,7.1-0.7,8.3-3.9c0.5-1.5-1.8-2.1-2.3-0.6c-0.8,2.1-3.3,3-5.3,2.2
				C1704.6,629.8,1704,632.2,1705.4,632.7L1705.4,632.7z"/>
		</g>
		<path class="st28" d="M1693.8,586.3c-2.1,3.8-2.2,8.8,0.2,12.3c2.5,3.6,7.7,5.1,11.5,2.9c1.2-0.7,2.2-1.7,3.6-1.9
			c2.5-0.3,4.2,2.3,5.3,4.5c1.1,2.2,2.9,4.8,5.4,4.4c1.7-0.3,2.9-2,4.6-2.4c2.3-0.6,4.4,1.3,5.8,3.2s3.1,4,5.4,4.1
			c2.1,0.1,4-1.6,4.7-3.6c0.7-2,0.5-4.2,0.1-6.2c-1.7-8.8-6.7-17.2-14.3-22.1c-7.6-4.9-17.8-5.9-25.7-1.7c-3.1,1.6-5.9,4.2-6.7,7.5
			L1693.8,586.3z"/>
		<path class="st124" d="M1618,910.6c3.1,17.2,6.1,34.4,9.2,51.6c0.4,2.3,1,5,3.4,6.3c2,1.1,4.6,0.9,7,0.8c53.8-2,105.9-0.9,159,0.1
			c1.9,0,4.2-4.7,5.5-5.8c1.1-0.9,1.3-2.3,1.5-3.5c2.6-19.6,1.5-39.5-3.1-58.9c-60.7,1-121.3,4.1-181.7,9.3L1618,910.6z"/>
		<path class="st10" d="M1699.7,652.3c0.7,4.6,5.5,7.8,10.1,7.5c5.1-0.3,9-3,9.7-7.1c4.7,0.4,67.5,21.5,69.5,23.9
			c6.9,9,18.4,228.9,19.2,241.7c-8.8,2.1-176.9,1.2-190.1,0c-6.7-173.4,10.7-239.2,10.7-239.2
			C1639.5,668.1,1688.2,655.7,1699.7,652.3L1699.7,652.3z"/>
		<path class="st10" d="M1709.6,1234.2c-1.2,8-2.3,16-3.5,24.1c-0.2,1.2-0.4,2.5-1.1,3.5c-0.8,1.2-2.2,1.8-3.5,2.4
			c-20.7,9.5-41.5,18.9-62.2,28.4c5.7-11.5,8.6-24.3,8.6-37.1c10.7-9.1,20.1-19.7,27.8-31.4c10.4,3.8,21.3,6.4,32.3,7.9
			L1709.6,1234.2z"/>
		<path class="st13" d="M1674.8,1203c25.1-88.8,56.4-176,93.6-260.5c3.3-7.6,7.7-14.6,13.5-20.4c9.4-9.4,17.7-14.6,33.2-14.8
			c15.6-0.1,31.4,11,42.1,22.2c9.2,9.7,11.4,24.5,8.8,37.6c-2.6,13.1-9.2,25-15.7,36.7c-44.7,79.8-89.4,159.5-134.1,239.3
			c-16.3-5.5-33.1-9.5-50.2-11.7c4.5-15.9,9.3-31.6,14.4-47.3L1674.8,1203z"/>
		<path class="st125" d="M1702.1,1234.2c1.2,8,2.3,16,3.5,24.1c0.2,1.2,0.4,2.5,1.1,3.5c0.8,1.2,2.2,1.8,3.5,2.4
			c20.7,9.5,41.5,18.9,62.2,28.4c-5.7-11.5-8.6-24.3-8.6-37.1c-10.7-9.1-20.1-19.7-27.8-31.4c-10.4,3.8-21.3,6.4-32.3,7.9
			L1702.1,1234.2z"/>
		<path class="st13" d="M1737.3,1200c-25.1-88.8-56.4-176-93.6-260.5c-3.3-7.6-7.6-14.7-13.5-20.4c-9.3-8.9-25.3-12.2-36.4-11.8
			c-15.6,0.7-28.3,8-39,19.3c-9.2,9.7-11.4,24.5-8.8,37.6c2.6,13.1,9.2,25,15.7,36.7c44.7,79.8,89.4,159.5,134.1,239.3
			c16.3-5.5,33.1-9.5,50.2-11.7c-4.5-15.9-9.3-31.6-14.4-47.3L1737.3,1200z"/>
		<path class="st125" d="M1628.8,679.1c-20.3,24.2-36.9,46.4-55.6,71.8c-61.3,83.1-175.9,102.6-194.2,106c5.1,15.5,7.2,32,6.1,48.3
			c23.5,9.3,160-13.9,227.1-104.8c2-2.7,4.5-5.1,5.5-8.2c0.9-2.7,0.8-5.7,0.7-8.6C1617.2,751.7,1630,710.9,1628.8,679.1
			L1628.8,679.1z"/>
		<path class="st125" d="M1786.5,676.6c8.3-1.6,25.4,11.8,33,20.3c11.3,12.7,19.5,27.9,26.7,43.3c8.3,17.7,15.5,36,21.6,54.6
			c10.9,33.4,55.3,167.6,79.8,192.9c-13.7,11.6-28.4,22-43.9,31.1c-33.9-33.5-102.8-233.4-104.6-238.2c-1.3-3.5-1.7-7.3-2.2-11
			C1793.5,738.6,1790,707.6,1786.5,676.6L1786.5,676.6z"/>
	</g>
	<g>
		<path class="st93" d="M2291.8,716.9c13.5,125.1,10.9,252.5-13.4,376.2c-51.9,265.4-214.9,538.2-445,685.5
			c-70.3,44.6-148.9,77.3-231.1,91.6c-196,34.6-396.1-29.3-564.8-127.2c-130.9-76.2-248-175.4-347.1-289.8
			c-82.1-95.9-156.2-202.7-193.9-324.4C453.9,986.7,485.2,862,629,799.6c47-21.1,96.4-34.5,145.9-46.8
			c73.1-17.9,147.3-33,219.6-52.6c86.9-23.4,171.9-53.1,250.9-96.1c29.3-16.1,56.7-35.4,82.2-57.1
			c76.2-64.3,130.4-149.1,189.4-228.6c45.8-61.8,98-121.7,165.3-161.1c67-40.1,145.7-57.2,223.2-58.7c25.8-0.6,51.6,0.3,77.2,2.4
			c15.9,2.4,31.4,7.2,45.9,13.9C2202.1,198.2,2274.2,539.6,2291.8,716.9L2291.8,716.9z M2288.7,717.2
			c-18.4-167.8-66.7-365.5-169.6-501.6c-33.9-44.3-84.2-86.7-138.4-92.4c-123.6-6.4-247.5,17.5-340.4,103.8
			c-92.7,84.4-149.1,200.8-234.6,292.4c-39.2,42.9-84.6,80.9-135.3,109.8c-83.6,46.8-175.4,78.1-267.6,102
			c-73.4,19.2-147.4,33.4-220.9,50.5C711.2,799.1,637.1,817.1,578,861c-83.3,62.6-87.9,168.8-61.8,262.1
			c58.1,203.5,233.6,403.3,400.8,528.6c192.1,142.9,439.1,241.3,680.5,193.9c78.6-15.6,153.1-48,220.4-91.2
			c201.2-130.1,361.3-363.3,432-590.7C2294.8,1019.8,2305.2,866.6,2288.7,717.2L2288.7,717.2z"/>
	</g>
	<g>
		<g>
			<path class="st115" d="M1065.3,1653.9c8.2,10.2,18.8,20,29.8,27.2c-22.9-3.4-46.2-4.8-69.4-4.1c1.3-9.9,3.4-19.6,6.1-29.2
				c11.9,1.2,16.7-1.3,28.6,0"/>
		</g>
		<g>
			<path class="st115" d="M872.2,1653c7.2,15.6,16.6,30.2,27.9,43.2c-4.2,0-8.2-1.2-12.2-2.3c-19.5-5.6-39.1-11.1-58.6-16.7
				c3.3-8,6.2-16.2,8.8-24.4c12.1-0.4,24.2-0.4,36.3,0.2"/>
		</g>
		<g>
			<path class="st8" d="M1127.4,1189.7c-9.9,155.9-30.7,311.1-62.2,464.1c-11.7-1.6-23.4-3.1-35.1-4.7c-6.4-129-6-245.8-16.8-374.5
				c-51.7,127.7-106.3,292.8-141.1,379.6c-15,0-17,2.7-37,0c32.6-150.9,53.1-305.6,74.5-458.4c70.4-12.1,142.4-14.5,213.5-7.2"/>
		</g>
		<path class="st109" d="M1030.5,827.9c8.3-6.6,9.1-20.3,5.7-30.6c-3.4-10.3-12.3-18.2-22.4-21.3c-10.1-3.1-21.2-1.8-30.8,2.4
			c-4.6,2-9,4.7-12.3,8.4c-6.8,7.6-10.9,20.3-11.6,30.7c-0.6,9.3,1.8,17.1,5.1,25.7c3.4,8.6,10.6,16.2,19.5,17.6
			c6.2,1,12.6-1.1,17.9-4.6c5.3-3.4,9.7-8.1,14.1-12.7C1020.6,838.3,1025.5,833.1,1030.5,827.9"/>
		<path class="st109" d="M964.8,833.4c-1.4-2.1-4.3-2.6-6.7-2.4c-5.6,0.5-11,3.3-14.6,7.8c-3.6,4.5-5.3,10.4-4.8,16.2
			c0.3,2.8,1.1,5.6,2.7,8c4.3,6.6,12.3,11.3,20,10.7c4.3-0.3,8.7,0.3,13.9-4.8c3.1-3,5.8-7.5,6.5-11.8c0.5-3-0.1-6.1-1.2-8.9
			c-3.2-8.4-10.5-15.1-19-17.2c-0.1,0-0.3-0.1-0.4-0.1"/>
		<g>
			<path class="st4" d="M985,806c-3-8.8,7.1-14.8,15.9-17c8.7-2.1,14.7-1.6,20.5,5.6c5.8,7.2,8.5,16.5,9.8,25.6
				c1.7,11.5,0.8,24.9-7.9,32.3c-10.5,8.9-27.9,3.6-35.6-8C979.8,832.9,981.5,819.6,985,806"/>
		</g>
		<path class="st4" d="M1007.1,851.2c1.7,5.7,3.6,17.7,5.3,23.4c0.5,1.9,8.8,7.2,10.2,8.1c13,8.3,18.1,23.1,24.9,37.9
			c-23.4,4.9-32-4.6-55.8-2.7c1-12.7,3.5-27.7,6.1-40.2c1.9-8.9,1.5-23.5,1.5-23.5c0.3-0.9,0.8-2,1.8-2c0.9,0.1,0.4,2.1-0.2,1.4"/>
		<path class="st109" d="M1028.8,797.1c-0.8,3.6-6.7,7.7-9.9,9.3c-3.3,1.6-6.8,2.6-10.3,3.4c-19.9,4.6-21.8,23.8-21.1,40.4
			c-5.8-6.1-19.6-28.1-14-43.1c4.2-11.2,11.3-19.3,22.3-23.4C1006.8,779.8,1026.2,779.8,1028.8,797.1"/>
		<path class="st4" d="M993,832c-1.3-2.8-5.1-3.8-7.6-2.3c-2.6,1.5-3.7,5-2.7,7.9c1.4,4.1,6.8,6.1,10.3,3.8"/>
		<g>
			<path class="st52" d="M1022.2,820.3c0.2,4.5,1.4,8.7,3.6,12.6c0.4,0.8,0,1.6-0.4,2.1c-1.1,1.3-2.4,1.9-4.1,2.1
				c-2.2,0.3-2.8-3.3-0.6-3.6c1.1-0.1,1.7-0.5,2.5-1.4c-0.1,0.7-0.3,1.4-0.4,2.1c-2.3-4.2-3.6-8.7-3.9-13.5
				C1018.7,818.5,1022,818,1022.2,820.3L1022.2,820.3z"/>
		</g>
		<g>
			<path class="st52" d="M1030.8,821.5c-0.7,3.6-4.8,5-7,1.8c-1.3-1.9,1.3-4.2,2.6-2.3c0.2,0.3,0.9,0.8,1,0
				C1027.8,818.8,1031.2,819.2,1030.8,821.5L1030.8,821.5z"/>
		</g>
		<g>
			<path class="st52" d="M1015.8,821c3.9,1,0.9,6-1.3,7.1c-3.2,1.5-6.5-0.3-8.3-3.3c-1.2-2,1.9-3.4,3.1-1.5c0.6,0.9,1.6,1.7,2.7,1.7
				c0.5,0,0.9-0.1,1.3-0.4c0.1-0.1,1.1-1,1.1-1.1c0.5,0.4,0.9,0.7,1.4,1.1c-0.1,0-0.1,0-0.2-0.1
				C1013.4,824.1,1013.7,820.5,1015.8,821L1015.8,821z"/>
		</g>
		<g>
			<path class="st52" d="M1023.6,844.5c-6.6,3.7-14.4,2.8-20-2.7c-1.6-1.6,0.3-4.5,2-2.9c4.8,4.7,11,5.5,16.6,2.3
				C1024.1,840.1,1025.5,843.4,1023.6,844.5L1023.6,844.5z"/>
		</g>
		<g>
			<path class="st127" d="M1041.7,885.5c8.7,2.4,17.5,3.9,26.4,5.5c33.9,6,42.6,11,76.9,8.1c16.3-1.4,58-3.9,74-7.3
				c21.3-4.5,33.1-11.6,54.4-16.1c5.8,12.5,20.4,27.8,25,40.8c-28.8,15.1-61.5,21.2-93.6,27c-8.5,1.5-16.9,3.1-25.4,4.6
				c-34.9,6.3-70.1,12.7-105.6,11.6c-10.7-24.6-21.4-49.2-32.1-73.9"/>
		</g>
		<g>
			<path class="st104" d="M907,1192.8l221.9-3.2c-4.8-52.5,7.9-179.9-5.1-231c-4.7-18.3-25.5-54.9-54-66c-8.4-3.3-32-10.4-35.6-9.5
				c0,0-20.3,20.5-20,18.9l-22.2-14.5c-27.5,2.1-51.9,30.6-61.7,56.3c-9.8,25.7-13.7,48.6-13.4,76.1
				C917.1,1051.4,906.6,1161.4,907,1192.8z"/>
		</g>
		<g>
			<g>
				<path class="st128" d="M991.7,888.2c3.9,2.8,7.9,5.5,11.8,8.3c2,1.4,4.1,2.9,6.1,4.3c1.3,0.9,3,2.7,4.9,2.2
					c0.8-0.2,1.4-0.9,2.1-1.5c0.9-0.8,1.7-1.6,2.6-2.4c1.8-1.7,3.6-3.4,5.5-5.1c3.5-3.3,7.1-6.6,10.6-9.9c0.8-0.8-0.4-2-1.2-1.2
					c-3.3,3.1-6.6,6.2-9.9,9.2c-1.6,1.5-3.2,3-4.7,4.4c-1.5,1.4-3,3.1-4.7,4.4c-1.1,0.9-2.2-0.2-3.1-0.9c-0.9-0.6-1.8-1.2-2.7-1.9
					c-1.8-1.2-3.5-2.5-5.3-3.7c-3.7-2.6-7.4-5.1-11-7.7C991.6,886.1,990.8,887.6,991.7,888.2L991.7,888.2z"/>
			</g>
		</g>
		<g>
			<g>
				<path class="st128" d="M979.7,890.6c10.9,8.7,22.6,16.5,34.5,23.7c0.3,0.2,0.8,0.1,1-0.1c9.6-9.8,19.4-19.4,29.5-28.7
					c0.8-0.8-0.4-2-1.2-1.2c-10.1,9.3-19.9,18.9-29.5,28.7c0.3,0,0.7-0.1,1-0.1c-11.8-7.1-23.4-14.8-34.2-23.4
					C980.1,888.7,978.9,889.9,979.7,890.6L979.7,890.6z"/>
			</g>
		</g>
		<g>
			<g>
				<path class="st129" d="M1362.6,1170.2c9.4,126.5,38.8,267,48,393.5c0.1,1.6,0.2,3.3-0.6,4.8c-1,1.8-3.2,2.6-5.3,3.3
					c-33.4,10.2-69,13.4-103.7,9.2c-13.2-50.2-15.4-102.5-17.4-154.4c-2.2-54.6-4.4-109.2-6.6-163.8c-5.6,38.1-3.2,82.6-4,121.1
					c-0.6,28.7,6.1,154.2-2,190c-0.5,2.3-1.2,4.8-2.8,6.6c-2.1,2.4-5.5,3.2-8.7,3.9c-32.8,6.6-66.6,8-99.8,3.9
					c-3.2-135.7,12-271,31.5-405.4c0.3-2.1-6.3-5.1-4.7-6.4c1.8-1.5,4.5-1.2,6.9-0.9c43.2,6,87.2,5.6,130.3-1.2
					c8.2-1.3,16.4-2.8,24.6-1.7C1356.6,1173.7,1359.1,1162.8,1362.6,1170.2"/>
			</g>
			<path class="st4" d="M1174.7,1235.2c4.9,8.7,9.7,17.4,14.6,26.1c1.3,2.4,2.7,5.4,1.4,7.8c-0.8,1.4-4.6-1.9-6.1-3.8
				c-1.6-1.9-2.9-4.1-5-5.5c-0.6-0.4-1.4-0.7-2-0.4c-0.3,0.2-0.4,0.4-0.6,0.7c-0.9,1.7-1.2,3.6-1.1,5.5c0.5,9.7,0.5,19.4,0,29
				c-0.1,1.2-0.3,2.3-0.5,3.4c-0.2,0.7-0.4,1.4-1.3,1.7c-0.6,0.1-1.2-0.1-1.6-0.4c-0.9-0.8-1.1-2-1.2-3.1
				c-0.6-4.6-2.7-19.7-3.6-19.5c-0.6,0.1,2.1,19.4,0.1,25.8c-0.2,0.7-0.9,1.2-1.6,1.2c-0.8,0-1.1-0.6-1.3-1.2
				c-2.3-5.5-5.4-24.7-5.8-23.8c-2.4,5.7,2.7,17,0,23.2c-0.4,0.9-0.9,1.7-1.8,1.7c-3.9,0.2-5.7-25.7-6.4-25.2
				c-1.2,1-1.8,14.6-3.2,17.9c-0.3,0.7-1,1.2-1.8,1.3c-0.9,0-1.4-0.7-1.6-1.5c-0.3-0.9-0.5-1.7-0.6-2.6c-3-18.9-4.8-38.3-1.8-57.2
				c0.1-0.5,0.2-1,0.5-1.4c0.3-0.3,0.6-0.5,1-0.6c5.6-2.2,11.9-2.9,17.8-1.8c4.8,0.9,9.9,2.9,14.5,1.1L1174.7,1235.2z"/>
			<g>
				<path class="st130" d="M1347.1,919.4c18.5,7.6,32.8,23,44.4,39.4c11.1,15.7,20.3,32.6,27.5,50.5c10.5,26.1,9.3,22.1,12,50.1
					c0.3,3.4-57.2,10.7-59,6.2c-5.5-13.7-7.5-19.4-15.5-31.9c-3.3-5.1-3-21.2-4.8-26.9c-1.4-4.8-1.4-9.9-1.3-14.9
					c0.4-23,0.8-46,1.2-68.9"/>
			</g>
			<g>
				<path class="st131" d="M1285.7,824.2c2.4-1.7,4.5-3.9,7.3-2.8c2.8,1,2.9-1.7,5.7-0.5c21.6,9.3,22.1,44.7,15.4,63.7
					c-20.4-2-40.8-4.1-61.2-6.1c-0.9-0.1-6.7-0.6-7.5-1c0,0,3.4-32.9,11.5-43.8c8.2-10.9,23.3-17.2,36-12.4"/>
			</g>
			<g>
				<path class="st131" d="M1304.3,824.4c2.6-2,1.1-4.9,0.6-8.2c-0.3-2.4-3.4-5.8-5.7-6.6c-22.9-8.4-24.5,11.2-23.7,13.2
					c5.1,0.2,10.3,0.5,15.4,0.7"/>
			</g>
			<g>
				<path class="st4" d="M1189.9,1591.2c2.2,15.1,4.3,30.3,6.5,45.4c1,6.9,3.3,16.9,5.7,23c3.5,9.1,8.5,12.7,15,18.5
					c15.8,14.1,34.6,24.6,54.1,22.6c1-0.1,2.2-0.3,3-1.1c2-2,1.5-6.1,0.2-8.9c-8.9-19.8-32.8-30.4-36.4-32.4
					c-5.6-3.1-3.1-54.8-3.9-69.8c-0.1-1.8-0.3-3.8-1.5-4.7c-0.7-0.5-1.5-0.5-2.3-0.4c-11.6,0.6-23.3,1.2-34.9,1.9"/>
			</g>
			<g>
				<path class="st123" d="M1235.7,1692.2c3.9-1.9,7.6-4.3,11-7c5.6-4.5,10.8-10.9,10.2-18.1c3.9,2.2,7.6,4.7,11,7.5
					c0.5,0.5,1.1,1,1.3,1.7c0.1,0.5,0,1-0.2,1.4c-2.8,9.3-9.7,17.4-18.6,21.5c-0.4,0.2-0.9,0.4-1.4,0.5c-0.5,0-1-0.1-1.5-0.2
					c-4.9-1.3-9.4-4-13-7.6"/>
			</g>
			<g>
				<path class="st123" d="M1206,1667.3c-2.2,2.1-2.3,5.7-1.1,8.5c1.2,2.8,3.5,4.9,5.9,6.9c9.7,8,20.9,14,32.4,19.2
					c7.4,3.4,15.3,6.5,23.5,6c4.6-0.3,9.6-2.1,11.2-6.4c1-2.7,0.4-5.7-0.6-8.4c-1.8-4.6-4.8-8.7-8.6-11.7c1,2.9,2.1,5.8,3.1,8.6
					c0.5,1.3,0.9,2.6,0.6,3.9c-0.7,2.5-3.9,3.2-6.5,3.2c-11.5,0.2-22.8-3.5-32.9-9c-10.1-5.5-19.1-12.7-27.9-20.1"/>
			</g>
			<g>
				<path class="st4" d="M1369.3,1584.2c-0.3,15.3-0.6,30.6-0.9,45.9c-0.1,7-1.2,17.1-2.9,23.6c-2.4,9.4-6.9,13.7-12.6,20.1
					c-14,15.9-31.4,28.6-51,28.9c-1.1,0-2.2,0-3.1-0.8c-2.2-1.7-2.2-5.9-1.3-8.8c6.5-20.7,28.9-34.1,32.2-36.6
					c5.2-3.8-3.5-54.8-4.5-69.7c-0.1-1.8-0.1-3.8,0.9-4.8c0.6-0.6,1.5-0.6,2.2-0.7c11.6-0.8,23.3-1.6,34.9-2.3"/>
			</g>
			<g>
				<path class="st4" d="M1291.3,832.8c6,0.2,10.8,5.1,13.4,10.4c6.6,13.5,1.9,31.1-9.7,40.6c-2.3,1.9-4.9,3.5-7.8,4.1
					c-2,0.4-4.1,0.3-6.1,0.1c-3.9-0.4-7.9-1.3-11-3.7c-4.5-3.7-5.9-9.9-6.7-15.7c-1.5-10.3-1.9-21.8,4.5-30c6-7.7,17.6-10.4,26.4-6"
					/>
			</g>
			<g>
				<path class="st4" d="M1287.6,882c0.6,4.9,1.1,9.7,1.7,14.6c0.1,1.3,0.3,2.6,1.1,3.6c0.7,0.8,1.7,1.2,2.7,1.7
					c17.1,8.6,53.4,16.2,54,17.4c1.1,2.1-53.4,15.9-67.7,14.1c-14.3-1.8-61.4,3-64.8-13.4c9.8-4.2,45.8-12.8,55.6-17
					c0.7-0.3,1.4-0.6,1.8-1.2c0.4-0.6,0.4-1.3,0.4-2c-0.1-7.3-0.2-14.7-0.3-22c0-0.8,1.3-1.8,1.2-0.9"/>
			</g>
			<g>
				<path class="st131" d="M1415.3,1546.1c3,8.5,8.2,23.4,8.8,32.4c-45.3,18.8-84.6,17.3-132.8,16.9c-4-11.9-1-24.6-1.7-37.1
					C1339,1561.5,1373.5,1557.6,1415.3,1546.1"/>
			</g>
			<g>
				<path class="st131" d="M1278.4,1562.1c-0.1,14-0.1,14-0.1,28c0,1.5-0.1,3.3-1.3,4.3c-0.7,0.5-1.6,0.7-2.4,0.9
					c-39.8,7.6-81.3,9.8-120.1-1.9c0.4-12.1,0.9-19.1,1.9-31.2c0.1-1,0.2-2,0.9-2.6c0.7-0.6,1.7-1.1,2.5-0.8
					C1202,1572.7,1264,1567.9,1278.4,1562.1"/>
			</g>
			<g>
				<g>
					<path class="st12" d="M1339.7,1186c-1.1,8.9-1.8,17.9-2.1,26.9c-0.3,9.5-0.3,19,0.2,28.5c0.4,8.9,1,18,3.9,26.5
						c2.6,7.5,7.1,14.1,12.8,19.7c5.6,5.5,12,10.1,18.5,14.5c0.8,0.5,1.6,1.1,2.4,1.6c1.1,0.7,2-1,1-1.7
						c-6.4-4.2-12.9-8.6-18.5-13.9c-5.6-5.1-10.5-11.2-13.4-18.3c-3.3-8.1-4.1-17-4.6-25.6c-0.5-9.4-0.6-18.8-0.4-28.3
						c0.2-8.9,0.8-17.8,1.8-26.6c0.1-1.1,0.2-2.1,0.4-3.2c0.1-0.5-0.5-1-1-1C1340.1,1185,1339.8,1185.5,1339.7,1186L1339.7,1186z"/>
				</g>
			</g>
			<g>
				<g>
					<path class="st12" d="M1207.2,1189c0.1,9.3,0.2,18.5,0,27.8c-0.2,9.3-0.7,18.5-1.7,27.7c-1,9.1-2.6,18.1-4.8,27
						c-2.3,8.8-5.3,17.4-9.3,25.6c-3.7,7.6-8.1,15.6-15,20.6c-0.9,0.6-1.7,1.2-2.6,1.7c-1.1,0.6-0.1,2.3,1,1.7
						c7.7-4.3,12.6-11.9,16.6-19.4c4.3-8.2,7.6-16.8,10.2-25.7c2.6-8.9,4.3-18.1,5.5-27.3c1.2-9.3,1.8-18.6,2.1-27.9
						c0.3-9.4,0.3-18.8,0.2-28.3c0-1.1,0-2.3-0.1-3.4C1209.1,1187.7,1207.2,1187.7,1207.2,1189L1207.2,1189z"/>
				</g>
			</g>
			<g>
				<g>
					<path class="st12" d="M1278.8,1191.8c-0.6,9.5-1.1,18.9-1.5,28.4c-0.4,9.4-0.7,18.9-0.9,28.3c-0.1,5.3-0.2,10.7-0.2,16
						c0,1.3,2,1.3,2,0c0.1-9.5,0.2-19,0.5-28.5c0.3-9.4,0.7-18.9,1.2-28.3c0.3-5.3,0.6-10.7,1-16
						C1280.9,1190.5,1278.9,1190.6,1278.8,1191.8L1278.8,1191.8z"/>
				</g>
			</g>
			<g>
				<g>
					<path class="st12" d="M1276.3,1264c-3.9,1.1-7.7-1.9-9.2-5.3c-1-2.1-1.4-4.4-1.5-6.7c-0.2-2.5-0.2-5-0.2-7.5
						c-0.1-10.8,0.1-21.5,0.6-32.2c0.3-6.1,0.6-12.1,1.1-18.2c0.1-1.3-1.9-1.3-2,0c-0.8,11.2-1.3,22.4-1.5,33.6
						c-0.1,5.6-0.1,11.2-0.1,16.8c0,5-0.2,10.3,1.9,15c1.9,4.3,6.7,7.8,11.6,6.4C1278,1265.5,1277.5,1263.6,1276.3,1264L1276.3,1264
						z"/>
				</g>
			</g>
			<g>
				<g>
					<path class="st12" d="M1369.2,1300.3c1.6,5.4,2.8,11,3.7,16.5c0.1,0.5,0.7,0.8,1.2,0.7c0.6-0.2,0.8-0.7,0.7-1.2
						c-0.9-5.6-2.1-11.1-3.7-16.5C1370.7,1298.6,1368.8,1299.1,1369.2,1300.3L1369.2,1300.3z"/>
				</g>
			</g>
			<g>
				<g>
					<path class="st12" d="M1373.7,1323.9c0.2,3.9,0.4,7.8,0.7,11.7c0.1,1.3,2,1.3,2,0c-0.2-3.9-0.4-7.8-0.7-11.7
						C1375.6,1322.6,1373.6,1322.6,1373.7,1323.9L1373.7,1323.9z"/>
				</g>
			</g>
			<g>
				<g>
					<path class="st12" d="M1375.2,1344.2c0.6,3.7,1.2,7.4,1.8,11.2c0.1,0.5,0.7,0.8,1.2,0.7c0.6-0.2,0.8-0.7,0.7-1.2
						c-0.6-3.7-1.2-7.4-1.8-11.2c-0.1-0.5-0.7-0.8-1.2-0.7C1375.3,1343.2,1375.1,1343.7,1375.2,1344.2L1375.2,1344.2z"/>
				</g>
			</g>
			<g>
				<g>
					<path class="st12" d="M1380,1364.5c1,3.9,1.5,7.9,1.7,11.9c0,1.3,2,1.3,2,0c-0.1-4.2-0.7-8.4-1.7-12.4
						C1381.6,1362.8,1379.7,1363.3,1380,1364.5L1380,1364.5z"/>
				</g>
			</g>
			<g>
				<g>
					<path class="st12" d="M1383.1,1387.7c0.4,3.9,0.8,7.8,1.2,11.7c0.1,0.5,0.4,1,1,1c0.5,0,1-0.5,1-1c-0.4-3.9-0.8-7.8-1.2-11.7
						c-0.1-0.5-0.4-1-1-1C1383.6,1386.7,1383.1,1387.1,1383.1,1387.7L1383.1,1387.7z"/>
				</g>
			</g>
			<g>
				<g>
					<path class="st12" d="M1385.5,1409.4c0.5,3.1,1,6.2,1.5,9.2c0.1,0.5,0.7,0.8,1.2,0.7c0.6-0.2,0.8-0.7,0.7-1.2
						c-0.5-3.1-1-6.2-1.5-9.2c-0.1-0.5-0.7-0.8-1.2-0.7C1385.6,1408.3,1385.4,1408.9,1385.5,1409.4L1385.5,1409.4z"/>
				</g>
			</g>
			<g>
				<g>
					<path class="st12" d="M1388.2,1431.6c0.2,3.6,0.4,7.2,0.6,10.8c0.1,1.3,2,1.3,2,0c-0.2-3.6-0.4-7.2-0.6-10.8
						C1390.1,1430.3,1388.1,1430.3,1388.2,1431.6L1388.2,1431.6z"/>
				</g>
			</g>
			<g>
				<g>
					<path class="st12" d="M1390.3,1452.3c0.8,5.5,1.6,11,2.4,16.6c0.1,0.5,0.7,0.8,1.2,0.7c0.6-0.2,0.8-0.7,0.7-1.2
						c-0.8-5.5-1.6-11-2.4-16.6c-0.1-0.5-0.7-0.8-1.2-0.7C1390.5,1451.3,1390.3,1451.8,1390.3,1452.3L1390.3,1452.3z"/>
				</g>
			</g>
			<g>
				<g>
					<path class="st12" d="M1394.5,1482.3c0.2,3.1,0.4,6.2,0.5,9.3c0.1,1.3,2,1.3,2,0c-0.2-3.1-0.4-6.2-0.5-9.3
						C1396.4,1481,1394.5,1481,1394.5,1482.3L1394.5,1482.3z"/>
				</g>
			</g>
			<g>
				<g>
					<path class="st12" d="M1396.2,1502.8c0,3.2,0.2,6.4,0.7,9.6c0.1,0.5,0.7,0.8,1.2,0.7c0.6-0.2,0.8-0.7,0.7-1.2
						c-0.5-3-0.7-6-0.7-9.1C1398.2,1501.5,1396.2,1501.5,1396.2,1502.8L1396.2,1502.8z"/>
				</g>
			</g>
			<g>
				<g>
					<path class="st12" d="M1399.4,1524c0.9,2.8,1.4,5.6,1.5,8.5c0,0.5,0.4,1,1,1c0.5,0,1-0.4,1-1c-0.1-3.1-0.6-6.1-1.6-9
						C1400.9,1522.2,1399,1522.8,1399.4,1524L1399.4,1524z"/>
				</g>
			</g>
			<g>
				<g>
					<path class="st12" d="M1401.9,1542c0.6,1.8,1.2,3.5,1.9,5.3c0.2,0.5,0.7,0.9,1.2,0.7c0.5-0.2,0.9-0.7,0.7-1.2
						c-0.6-1.8-1.2-3.5-1.9-5.3c-0.2-0.5-0.7-0.9-1.2-0.7C1402.1,1540.9,1401.7,1541.5,1401.9,1542L1401.9,1542z"/>
				</g>
			</g>
			<g>
				<g>
					<path class="st12" d="M1184.6,1311c-0.2,3.4-0.6,6.7-1.2,10.1c-0.1,0.5,0.1,1.1,0.7,1.2c0.5,0.1,1.1-0.2,1.2-0.7
						c0.6-3.5,1-7,1.2-10.6C1186.6,1309.7,1184.6,1309.7,1184.6,1311L1184.6,1311z"/>
				</g>
			</g>
			<g>
				<g>
					<path class="st12" d="M1182,1328.8c-0.2,3.3-0.4,6.6-0.6,9.8c-0.1,1.3,1.9,1.3,2,0c0.2-3.3,0.4-6.6,0.6-9.8
						C1184.1,1327.6,1182.1,1327.6,1182,1328.8L1182,1328.8z"/>
				</g>
			</g>
			<g>
				<g>
					<path class="st12" d="M1179.7,1346.9c-0.6,4.3-1.2,8.6-1.8,12.9c-0.1,0.5,0.1,1.1,0.7,1.2c0.5,0.1,1.1-0.2,1.2-0.7
						c0.6-4.3,1.2-8.6,1.8-12.9c0.1-0.5-0.1-1.1-0.7-1.2C1180.4,1346,1179.7,1346.3,1179.7,1346.9L1179.7,1346.9z"/>
				</g>
			</g>
			<g>
				<g>
					<path class="st12" d="M1175.1,1372.1c-0.9,3.8-1.4,7.7-1.7,11.7c-0.1,1.3,1.9,1.3,2,0c0.2-3.8,0.8-7.5,1.6-11.1
						C1177.3,1371.4,1175.4,1370.9,1175.1,1372.1L1175.1,1372.1z"/>
				</g>
			</g>
			<g>
				<g>
					<path class="st12" d="M1172.4,1395.1c-0.5,3.8-0.9,7.6-1.4,11.4c-0.1,0.5,0.5,1,1,1c0.6,0,0.9-0.5,1-1
						c0.5-3.8,0.9-7.6,1.4-11.4c0.1-0.5-0.5-1-1-1C1172.8,1394.1,1172.5,1394.6,1172.4,1395.1L1172.4,1395.1z"/>
				</g>
			</g>
			<g>
				<g>
					<path class="st12" d="M1170.7,1415.1c-0.7,3.8-1.3,7.6-2,11.4c-0.1,0.5,0.1,1.1,0.7,1.2c0.5,0.1,1.1-0.2,1.2-0.7
						c0.7-3.8,1.3-7.6,2-11.4c0.1-0.5-0.1-1.1-0.7-1.2C1171.4,1414.3,1170.8,1414.6,1170.7,1415.1L1170.7,1415.1z"/>
				</g>
			</g>
			<g>
				<g>
					<path class="st12" d="M1168.5,1435.6c-0.3,4.4-0.6,8.9-1,13.3c-0.1,1.3,1.9,1.3,2,0c0.3-4.4,0.6-8.9,1-13.3
						C1170.5,1434.4,1168.6,1434.4,1168.5,1435.6L1168.5,1435.6z"/>
				</g>
			</g>
			<g>
				<g>
					<path class="st12" d="M1167.4,1461.7c-0.2,4.3-0.4,8.5-0.7,12.8c-0.1,1.3,1.9,1.3,2,0c0.2-4.3,0.4-8.5,0.7-12.8
						C1169.5,1460.4,1167.5,1460.4,1167.4,1461.7L1167.4,1461.7z"/>
				</g>
			</g>
			<g>
				<g>
					<path class="st12" d="M1166.9,1484.3c-0.1,5.1-0.2,10.1-0.3,15.2c0,1.3,1.9,1.3,2,0c0.1-5.1,0.2-10.1,0.3-15.2
						C1168.9,1483,1166.9,1483,1166.9,1484.3L1166.9,1484.3z"/>
				</g>
			</g>
			<g>
				<g>
					<path class="st12" d="M1166.3,1511.8c-0.4,4.4-0.8,8.9-1.1,13.3c-0.1,1.3,1.9,1.3,2,0c0.4-4.4,0.8-8.9,1.1-13.3
						C1168.4,1510.6,1166.4,1510.6,1166.3,1511.8L1166.3,1511.8z"/>
				</g>
			</g>
			<g>
				<g>
					<path class="st12" d="M1165.9,1539.1c-0.9,3.8-1.9,7.6-2.8,11.4c-0.3,1.2,1.6,1.8,1.9,0.5c0.9-3.8,1.9-7.6,2.8-11.4
						C1168.1,1538.4,1166.2,1537.8,1165.9,1539.1L1165.9,1539.1z"/>
				</g>
			</g>
			<g>
				<g>
					<path class="st12" d="M1163.5,1556.7c-0.3,0.7-0.6,1.3-0.9,2c-0.1,0.1-0.1,0.2-0.1,0.4c0,0.1,0,0.3,0,0.4
						c0.1,0.2,0.2,0.5,0.5,0.6c0.2,0.1,0.5,0.2,0.8,0.1c0.2-0.1,0.5-0.2,0.6-0.5c0.3-0.7,0.6-1.3,0.9-2c0.1-0.1,0.1-0.2,0.1-0.4
						c0-0.1,0-0.3,0-0.4c-0.1-0.2-0.2-0.5-0.5-0.6c-0.2-0.1-0.5-0.2-0.8-0.1C1163.9,1556.3,1163.6,1556.4,1163.5,1556.7
						L1163.5,1556.7z"/>
				</g>
			</g>
			<g>
				<path class="st130" d="M1214.6,920c-12-0.6-39,12-46.6,33.6c-9.7,27.5-34.7,111.1-36.3,139.7c-2.7,49-2.4,111.1,9.1,148.6
					l37.8-2.6c-6-7.1,1.2-130,16.2-197.4c11.7,45.7,6.6,95.5-13.9,138c58.8,17.7,119.6,11.7,179.9,0.1c2.7-0.5,21-6.3,21-6.3
					c1.6-1.9-48.3-108.7-15-238.8c1.3-4.9-19.3-15.9-24.1-17.6c-3.2-1.1-23.7,10.5-62.3,12.2C1271.7,930,1229.3,932.8,1214.6,920"/>
			</g>
			<g>
				<path class="st123" d="M1336.1,1690.1c-4.1-1.5-8.1-3.3-11.8-5.6c-6.1-3.8-12.1-9.5-12.3-16.7c-3.6,2.6-7,5.6-10,8.8
					c-0.5,0.5-1,1.1-1,1.8c0,0.5,0.2,0.9,0.3,1.4c3.9,8.9,11.7,16.1,21,19.1c0.5,0.2,1,0.3,1.5,0.3c0.5,0,1-0.2,1.5-0.4
					c4.7-1.9,8.9-5.1,12-9.1"/>
			</g>
			<g>
				<path class="st123" d="M1362.6,1661.7c2.4,1.8,3,5.4,2.1,8.3c-0.9,2.9-2.9,5.3-5,7.5c-8.7,9.1-19.1,16.4-29.9,22.9
					c-7,4.2-14.4,8.3-22.6,8.8c-4.6,0.3-9.8-1-11.9-5c-1.3-2.6-1.1-5.7-0.4-8.5c1.2-4.8,3.7-9.2,7.1-12.7c-0.7,3-1.4,6-2.1,9
					c-0.3,1.3-0.6,2.7-0.1,4c1,2.4,4.3,2.7,6.8,2.4c11.4-1.2,22.2-6.3,31.6-12.9c9.4-6.6,17.5-14.9,25.3-23.3"/>
			</g>
			<g>
				<path class="st131" d="M1304.3,832.2c5.8,8.5,7.7,19.5,5,29.4c-0.1,0.6-0.3,1.1-0.8,1.5c-0.5,0.3-1.2,0.3-1.7,0.2
					c-16-2.3-31.8-5.3-47.6-8.8c-0.6-7.7,2-15.6,7-21.5c5-5.9,12.4-9.8,20.1-10.5c2.8-0.3,5.7-0.1,8.3,1c4.3,1.9,7,6.1,9.1,10.2"/>
			</g>
			<g>
				<g>
					<path d="M1301.1,866.4c0.3,0.9-0.8,1.6-1.5,1.8c-0.9,0.3-1.9,0.2-2.8,0c-1.9-0.4-3.5-1.6-4.4-3.4c-0.4-0.7-1.5-0.1-1.1,0.6
						c1.1,2.2,3.4,3.7,5.9,4.1c1.2,0.2,2.5,0.1,3.6-0.5c1.1-0.6,1.9-1.7,1.5-3C1302.1,865.3,1300.9,865.7,1301.1,866.4L1301.1,866.4
						z"/>
				</g>
			</g>
			<g>
				<g>
					<path d="M1280.1,862.7c-1.6,1.4-3.8,1.9-5.8,1.3c-1.9-0.6-3.4-2.1-4.1-4c-0.2-0.8-1.5-0.4-1.2,0.3c0.7,2.3,2.6,4.2,4.9,4.9
						c2.4,0.7,5.2,0,7-1.6C1281.6,863.1,1280.7,862.2,1280.1,862.7L1280.1,862.7z"/>
				</g>
			</g>
			<g>
				<g>
					<path d="M1286.8,865.8c-0.5,2.4-0.9,4.8-1.4,7.2c-0.2,1.1-0.4,2.2-0.6,3.3c-0.1,0.3-0.2,0.9-0.6,1c-0.2,0.1-0.5,0-0.5-0.2
						c0.1-0.8-1.2-0.8-1.3,0c-0.1,1,1.1,1.7,2,1.4c1.2-0.3,1.5-1.6,1.7-2.7c0.6-3.2,1.3-6.5,1.9-9.7
						C1288.1,865.3,1286.9,865,1286.8,865.8L1286.8,865.8z"/>
				</g>
			</g>
			<g>
				<g>
					<path d="M1282.9,881.8c-2.1,0.7-4.5-0.8-4.9-3c-0.1-0.3-0.5-0.5-0.8-0.4c-0.4,0.1-0.5,0.4-0.4,0.8c0.5,2.8,3.7,4.7,6.4,3.8
						c0.3-0.1,0.5-0.4,0.4-0.8C1283.6,882,1283.2,881.7,1282.9,881.8L1282.9,881.8z"/>
				</g>
			</g>
			<g>
				<path class="st4" d="M1263.2,860.4c-1.5-1.6-4.3-1.7-6-0.3c-1.7,1.4-2,4.2-0.6,6c0.8,1,1.9,1.6,3.1,2.1c1.5,0.6,3,1,4.6,1.3
					c-0.5-3-0.7-6.1-0.4-9.1"/>
			</g>
			<g>
				<path class="st4" d="M1304,868.8c1-0.6,2.4-0.2,3.4,0.4c0.5,0.3,0.9,0.6,1.2,0.9c1,1.1,1,2.9,0.3,4.2c-0.8,1.3-2.2,2.1-3.7,2.3
					c-1.5,0.2-3-0.2-4.3-0.8c-0.2-0.1-0.4-0.2-0.5-0.4c-0.1-0.3,0-0.5,0.2-0.8c1.1-2.1,2.4-4.2,3.7-6.3"/>
			</g>
			<g>
				<g>
					<path class="st12" d="M1260,867.4c2.6,0.1,4.6,2.5,5.3,4.8c0.9,2.8,0.6,6-1.4,8.2c-1.9,2.1-5,2.9-7.6,1.7
						c-1.2-0.5-2.2-1.5-2.9-2.6c-0.8-1.3-1-2.8-1.1-4.2c-0.1-2.9,0.9-6.9,4.4-7.1c0.8-0.1,0.8-1.3,0-1.3c-3.5,0.2-5.3,3.5-5.6,6.7
						c-0.3,3.4,0.5,7,3.4,9c2.8,2,6.7,1.7,9.3-0.4c2.7-2.2,3.6-5.8,3-9.1c-0.7-3.4-3.2-6.8-6.9-7
						C1259.1,866.1,1259.1,867.3,1260,867.4L1260,867.4z"/>
				</g>
			</g>
			<g>
				<g>
					<path class="st12" d="M1305.5,875c1.7,0.1,2.7,1.9,3.4,3.2c0.5,0.9,1,1.8,1.2,2.8c0.2,1-0.2,2.1-0.6,3
						c-0.4,0.8-0.8,1.7-1.4,2.5c-0.6,0.8-1.7,1-2.6,1.3c-1.8,0.6-3.6,0.5-5.2-0.5c-1.7-1.1-2.7-3.1-2.5-5.1c0-0.8-1.2-0.8-1.3,0
						c-0.1,2.2,0.8,4.4,2.5,5.7c1.7,1.4,4,1.8,6.1,1.3c1.1-0.3,2.3-0.7,3.2-1.3c1-0.7,1.5-1.8,2-2.8c0.6-1.1,1-2.2,1.1-3.4
						c0-1.2-0.4-2.4-1-3.4c-1-1.9-2.5-4.4-4.9-4.5C1304.7,873.7,1304.7,874.9,1305.5,875L1305.5,875z"/>
				</g>
			</g>
			<g>
				<g>
					<path class="st129" d="M1169.1,950.7c2.3-4.6,5.7-9.1,9.9-13.4c23,5.4,46.2,9.6,69.6,10.8c29.3,1.5,58.5-1.7,87.7-4.9
						c11-1.2,23.9-5.1,34.3-8.5c3.7,4.3,10.3,9.3,13.3,14.2c-11.1,4-27.4,9.3-39,11.6C1287,972.1,1216,973,1169.1,950.7z"/>
				</g>
				<g>
					<path class="st129" d="M1319.2,1008.6c-15.9-0.1-31.8-0.1-47.7-0.2c-22.6-0.1-45.3-0.2-67.9-2.5c-16.6-1.8-33.1-4.8-49.5-8.3
						c1.8-6.4,3.6-12.4,5.3-18.1c53,11.8,108.6,10.1,162.9,6.2c23.1-1.6,55.2-8,77.1-14.9c5.9,9,9.2,16,11.5,20.7
						C1385.5,997.9,1345.7,1008.7,1319.2,1008.6z"/>
				</g>
				<g>
					<path class="st129" d="M1196.3,1047.5c-0.4-1.6-2-3.4-2.3-5c-0.3,1.4-0.1,4.4-0.4,5.9c-16.7-2.6-33.7-7.3-50.2-11.1
						c1.5-6,3.1-12.1,4.8-18.2c18.3,4.3,37.6,4.9,56.5,5.5c36.3,1,72.7,6,109,3.1c6.7-0.5,30-1.3,41.7-3.7
						c0.1,0.8,1.7,27.3,0.1,27.2C1302.1,1049.6,1239.7,1057,1196.3,1047.5z"/>
				</g>
				<g>
					<path class="st129" d="M1187.3,1083.4c-0.6,5-1.1,10.2-1.6,15.3c-21.1,0.9-39.9-2.5-53.3-8.2c0.5-5.3,1.6-11.9,3.1-19.3
						c11.8,3.5,23.5,7.5,35.6,9.9C1176.5,1082.2,1181.9,1082.9,1187.3,1083.4z"/>
				</g>
				<g>
					<path class="st129" d="M1362.6,1102.6c-9.4,2-42.2,4.1-57.4,4c-17.8-0.1-37.2,1.1-55.1,0.5c-16.7-0.6-32.8-1.3-49.4-3
						c0.2-5.4,0.5-14.4,0.3-19.7c10.6,0.4,24.6,2,35.2,1.8c23.3-0.6,90.6,1.9,123.3-3.7C1359.9,1088.7,1363,1103.1,1362.6,1102.6z"
						/>
				</g>
			</g>
			<path class="st129" d="M1349.1,1025c0,0,54.9-8.7,70.8-13.3l7.4,21.6c0,0-46.1,15.9-61.6,14.9L1349.1,1025z"/>
			<path class="st129" d="M1130.6,1118.2c0,0,44,6.4,52.3,4.7l-1.5,17.6c0,0-30,0.9-51.2-3.3L1130.6,1118.2z"/>
			<path class="st129" d="M1197.7,1127.9c0,0,96.6,12.8,169.7-2.8l4,15.2c0,0-69.5,25-177.7,5.2L1197.7,1127.9z"/>
			<g>
				<path class="st12" d="M1365.3,1056.5c-36.8,17.3-73.9,22.8-113.4,32.4c-2.8,0.7-5.7,1.4-8.1,3.2c-3,2.3-4.7,5.9-5.9,9.5
					c-3.6,11.3-3,24,2.1,34.6c5.2,10.7,15,19.1,26.4,22.2c13.3,3.5,27.3-0.1,40.5-3.7c27.8-7.6,55.7-15.2,82.1-26.7
					c12.9-5.6,25.7-12.3,35-22.9c9.3-10.5,14.5-25.5,10.2-38.9c-3.6-11-13.4-19.6-24.7-22.4c-11.3-2.9-23.6-0.3-33.3,6.1
					C1372.7,1052.4,1369.4,1055.3,1365.3,1056.5"/>
			</g>
			<g>
				<path class="st132" d="M1252.2,1089.7c7.1,10.5,14.1,21.1,21.2,31.6c7.1,10.6,14.2,21.2,23.2,30.3c1,1,2.1,2,3.3,2.7
					c4.2,2.2,9.2,0,13.3-2.1c-22.7-18.2-38.2-40.6-53.9-65.1c-1.1,0.3-6.2,1.6-6.7,2.5"/>
			</g>
			<g>
				<path class="st132" d="M1298.3,1078.8c0.2,19.5-6.5,60.6-13.8,80.7c0.9-0.1,1.8-0.3,2.7-0.4c14.9-25.8,24.2-54.8,27.1-84.4
					c-5.6,1.4-11.1,2.7-16.7,4.1"/>
			</g>
			<g>
				<path class="st132" d="M1313.9,1080.4c3.4,5.8,5.5,11.7,7.8,18c2,5.4,5,13,6.5,18.6c2.8,10.6,6.3,19,11.4,28.8
					c-4.8,1.2-9,2.4-13.7,3.7C1319.6,1127.1,1315.3,1103.7,1313.9,1080.4"/>
			</g>
			<g>
				<path class="st132" d="M1338.7,1067.1c9.7,19.8,23.9,38.5,40.6,53c4.2,3.6,9.2,7.2,14.7,6.3c3.8-0.7,6.8-3.4,9.7-6.1
					c-24.8-12-42.1-32.2-54.5-56.8C1344.2,1065.8,1341.3,1066.6,1338.7,1067.1"/>
			</g>
			<g>
				<path class="st132" d="M1403.3,1043.6c-9.8,22.7-26.2,41.8-42.3,60.6c-4.5,5.2-8.9,10.4-13.6,15.4
					c-10.7,11.7-22.2,22.7-34.3,32.8c45.2-22.1,82.7-59.8,104.5-105c-6.5-3.1-9.9-4.4-15-4.4"/>
			</g>
			<g>
				<path class="st133" d="M1258.9,905.5c-6.6,12.7-10.6,26.8-11.8,41.1c-0.8,9-0.4,18,0.1,27c1.5,27.9,4.3,56,11.8,82.9
					c9,32.5,24.8,63.2,46.1,89.4c2.3,2.8,4.8,7.1,8.3,8.4c1.1,0.4,7.5,0.5,10.1-2.2c-4.8-4.8-30-40.4-38.1-56
					c-20.9-40.1-28.8-115.9-29-125c-0.4-23.6-0.7-48.2,9-69.7c-3.1,0.6-5.8,2.7-7.1,5.5"/>
			</g>
			<g>
				<g>
					<path class="st133" d="M1301,902.8c0.3,0,0.3-0.4,0-0.4C1300.7,902.4,1300.7,902.8,1301,902.8L1301,902.8z"/>
				</g>
			</g>
			<g>
				<g>
					<path class="st133" d="M1301,902.8c0.3,0,0.3-0.4,0-0.4C1300.7,902.4,1300.7,902.8,1301,902.8L1301,902.8z"/>
				</g>
			</g>
			<g>
				<g>
					<path class="st133" d="M1301,902.8c0.3,0,0.3-0.4,0-0.4C1300.7,902.4,1300.7,902.8,1301,902.8L1301,902.8z"/>
				</g>
			</g>
			<g>
				<path class="st133" d="M1301.8,903.2c5,3.7,6.2,10.6,7,16.9c6.4,50.7,12.9,101.8,9.7,152.8c3.7-0.3,7.2-1.6,10.2-3.7
					c0-20.9,0.3-42.6-0.7-63.9c-0.5-11.1-1.9-22.1-3.4-33.1c-2.3-16.6-4.8-33.1-7.5-49.5c-0.8-4.7-1.6-9.4-4.1-13.5
					c-2.4-4-6.9-7.2-11.6-6.8"/>
			</g>
		</g>
		<g>
			<path class="st127" d="M969.4,895.1c-44.4,12.7-61.5,45-72.7,83.5c-10.9,37.7,6.1,73.3,25.2,81.6c6.5,2.8,13.6,3.8,20.7,4.2
				c69.2,3.8,193.1-71.6,208.9-87.3c-3.3-9.4-11.7-31.2-15-40.6c-36.3,17.9-72.7,35.8-109.8,52.2c-20.4,9-41.2,17.6-63.1,21.6
				c-7.2,1.3-16.5,1.1-19.4-5.6c-2.2-5,0.7-10.6,3.8-15"/>
		</g>
		<g>
			<path class="st4" d="M1137.6,946.1c3.8-5.8,8.1-11.3,13-16.3c0.9-1,2.3-2,3.5-1.5c0.8,0.4,1.2,1.4,1.2,2.3
				c0.1,3.1-2.3,5.8-2.5,8.9c0,0.5,0,1,0.3,1.3c0.7,0.7,1.9,0.2,2.6-0.4c5.2-3.8,10.4-7.6,15.6-11.4c3.4-2.5,6.8-5,10.9-6.2
				c4-1.2,8.7-0.9,11.9,1.8c3.9,3.3,4.4,9.3,2.4,14c-2,4.7-6,8.1-10.1,11.1c-11.8,8.3-25.9,13.4-36.4,23.4
				c-4.9-8.8-9.5-17.8-13.8-26.9"/>
		</g>
		<g>
			<g>
				<path class="st128" d="M1127.6,942.9c0.8,3,2.1,5.8,3.6,8.5c1.6,2.9,3.2,5.9,4.8,8.8c3.1,6,5.9,12.1,8.4,18.3
					c0.7,1.7,3.5,1,2.8-0.8c-2.5-6.2-5.3-12.2-8.3-18.2c-1.5-2.9-3-5.8-4.6-8.7c-1.6-2.8-3.1-5.7-3.9-8.8
					C1129.9,940.4,1127.2,941.1,1127.6,942.9L1127.6,942.9z"/>
			</g>
		</g>
		<g>
			<g>
				<path class="st128" d="M1118.1,949.3c6.3,11.8,12.7,23.6,19,35.4c0.9,1.6,3.4,0.2,2.5-1.5c-6.3-11.8-12.7-23.6-19-35.4
					C1119.7,946.3,1117.2,947.7,1118.1,949.3L1118.1,949.3z"/>
			</g>
		</g>
		<g>
			<g>
				<path class="st128" d="M947.8,990.4c-3.9,3.2-5.1,8.7-3.9,13.5c0.6,2.4,1.8,4.6,3.6,6.3c2.4,2.2,5.5,3.2,8.7,3.5
					c7.5,0.7,15.1-2.4,22.1-4.8c7.5-2.5,15-5.2,22.5-8c29.4-11.1,58-24.2,86.4-37.8c16.4-7.8,32.8-15.7,49.2-23.6
					c-0.7-0.2-1.3-0.3-2-0.5c3,6.8,6,13.7,9,20.5c1.5,3.3,2.9,6.7,4.4,10c0.7,1.6,1.7,3.3,2.1,5c0.4,1.4-0.6,2.1-1.6,2.9
					c-3.6,2.7-7.5,5-11.3,7.2c-13.4,8-27.1,15.4-40.9,22.7c-16.1,8.5-32.4,16.8-48.8,24.7c-13.1,6.3-26.3,12.3-40.1,17.1
					c-25.6,8.9-53.6,17.4-80.7,9.7c-3.1-0.9-6.2-2-9.2-3.3c-1.7-0.8-3.1,1.7-1.5,2.5c26.1,11.7,55.3,6,81.4-2.5
					c8.5-2.8,17-5.7,25.2-9.1c6.9-2.9,13.8-6,20.6-9.3c16.7-7.9,33.3-16.3,49.6-24.9c14.5-7.6,29-15.4,43.2-23.8
					c4.3-2.5,8.6-5.1,12.7-8c1.2-0.8,2.5-1.7,3.4-2.9c2.1-2.9-0.4-6.5-1.6-9.2c-3.1-7-6.1-14-9.2-21c-1.5-3.3-2.9-6.7-4.4-10
					c-0.3-0.8-1.3-0.8-2-0.5c-27.6,13.3-55.1,26.7-83,39.4c-13.8,6.2-27.7,12.2-41.8,17.8c-7.1,2.8-14.2,5.5-21.4,8.1
					c-7,2.5-14,5-21.2,7c-6.1,1.8-15.6,3.5-19.6-3c-2.7-4.3-2.1-10.5,1.9-13.8C951.3,991.2,949.2,989.2,947.8,990.4L947.8,990.4z"/>
			</g>
		</g>
	</g>
</g>
</svg>
