<?xml version="1.0" encoding="utf-8"?>
<!-- Generator: $$$/GeneralStr/196=Adobe Illustrator 27.6.0, SVG Export Plug-In . SVG Version: 6.00 Build 0)  -->
<svg version="1.1" xmlns="http://www.w3.org/2000/svg" xmlns:xlink="http://www.w3.org/1999/xlink" x="0px" y="0px"
	 viewBox="0 0 2500 2000" style="enable-background:new 0 0 2500 2000;" xml:space="preserve">
<style type="text/css">
	.st0{opacity:0.8;fill:#BADBD8;}
	.st1{fill:#BADBD8;}
	.st2{opacity:0.6;fill:#FFFFFF;}
	.st3{fill:#F1F9FD;}
	.st4{fill:#F5C796;}
	.st5{fill:#2480B4;}
	.st6{fill:#663333;}
	.st7{fill:#653512;}
	.st8{fill:#F7981C;}
	.st9{fill:#006E61;}
	.st10{fill:#3F96D2;}
	.st11{fill:#12434F;}
	.st12{fill:#FFFFFF;}
	.st13{fill:#194E60;}
	.st14{fill:#2E67B0;}
	.st15{fill:#FFFCEA;}
	.st16{fill:#1A2042;}
	.st17{fill:#558FCB;}
	.st18{fill:#221E1F;}
	.st19{fill:#FCF8CD;}
	.st20{fill:#5FC1A4;}
	.st21{fill:#58A991;}
	.st22{fill:#404768;}
	.st23{fill:#02887D;}
	.st24{fill:#00A69C;}
	.st25{fill:none;stroke:#1A2042;stroke-width:0.8046;stroke-miterlimit:10;}
	.st26{fill:#FAC049;}
	.st27{fill:#FFD182;}
	.st28{fill:#121C3E;}
	.st29{fill:#FFCC00;}
	.st30{fill:#1D9AC5;}
	.st31{fill:#F59698;}
	.st32{fill:#25A9E0;}
	.st33{fill:#D4EBF5;}
	.st34{fill:#14253E;}
	.st35{fill:#1F3256;}
	.st36{fill:#162546;}
	.st37{fill:#116E96;}
	.st38{fill:#235E6D;}
	.st39{fill:#0E9282;}
	.st40{fill:#2C6C52;}
	.st41{fill:#3D876C;}
	.st42{fill:#E2A232;}
	.st43{fill:#4095D1;}
	.st44{fill:#368BBE;}
	.st45{fill:#4C9D81;}
	.st46{fill:none;stroke:#1A2042;stroke-width:0.7302;stroke-miterlimit:10;}
	.st47{fill:#0E353E;}
	.st48{fill:#164754;}
	.st49{fill:#CA9665;}
	.st50{fill:#986732;}
	.st51{fill:#98CBCB;}
	.st52{fill:#0F3A43;}
	.st53{opacity:0.51;}
	.st54{opacity:0.66;}
	.st55{fill:#D1EAF6;}
	.st56{fill:#4785B7;}
	.st57{fill:none;stroke:#1A2042;stroke-width:1.0618;stroke-miterlimit:10;}
	.st58{fill:#1174AA;}
	.st59{fill:#F4F5FA;}
	.st60{fill:#3A7C64;}
	.st61{fill:#D7AF28;}
	.st62{fill:#144551;}
	.st63{fill:#D1ECF2;stroke:#144551;stroke-width:0.782;stroke-miterlimit:10;}
	.st64{fill:#326667;stroke:#99CBCB;stroke-width:0.2172;stroke-miterlimit:10;}
	.st65{fill:url(#SVGID_1_);}
	.st66{fill:#339866;}
	.st67{fill:url(#SVGID_00000132799168270253093390000012716596551299820203_);}
	.st68{fill:#558FCC;}
	.st69{fill:#2D67B1;}
	.st70{fill:#164956;}
	.st71{fill:#2E606C;}
	.st72{fill:#366B7A;}
	.st73{fill:#3D7883;}
	.st74{fill:#37B999;}
	.st75{fill:#142547;}
	.st76{fill:#51A98E;}
	.st77{fill:#2B81A7;}
	.st78{fill:#368DBE;}
	.st79{fill:#8BC53F;}
	.st80{fill:#1E3356;}
	.st81{fill:#F16621;}
	.st82{fill:#CA1F26;}
	.st83{fill:none;stroke:#1A2042;stroke-width:0.7221;stroke-miterlimit:10;}
	.st84{opacity:0.8;}
	.st85{fill:#1C2F3B;}
	.st86{fill:#575756;}
	.st87{fill:#F1F2F2;}
	.st88{fill:#99CCFF;}
	.st89{fill:#ECE3D4;}
	.st90{fill:#C3DF95;}
	.st91{fill:#F8D3B6;}
	.st92{fill:#F6F6F6;}
	.st93{fill:#FFF597;}
	.st94{fill:#1A4D5E;}
	.st95{fill:#2E63A5;}
	.st96{fill:#FCF9E8;}
	.st97{fill:#1A2041;}
	.st98{fill:#5488BF;}
	.st99{fill:#221D1E;}
	.st100{fill:#F8F5CC;}
	.st101{fill:#121C3D;}
	.st102{fill:#F4C625;}
	.st103{fill:#2A92B9;}
	.st104{fill:#EA9294;}
	.st105{fill:#1B193A;}
	.st106{fill:#169D94;}
	.st107{fill:#309ED0;}
	.st108{fill:#2891B9;}
	.st109{fill:#442006;}
	.st110{fill:#0E8479;}
	.st111{fill:#D0E5EF;}
	.st112{fill:#15253E;}
	.st113{fill:#1D3254;}
	.st114{fill:#ED9429;}
	.st115{fill:#438DC4;}
	.st116{fill:#EBB88A;}
	.st117{fill:#F4C526;}
	.st118{fill:#121B3C;}
	.st119{fill:#0D162C;}
	.st120{fill:#721F0C;}
	.st121{fill:url(#SVGID_00000085237214695154927490000003509592417227410844_);}
	.st122{fill:url(#SVGID_00000057117360999938557980000009223549276518579842_);}
	.st123{fill:#CC3333;}
	.st124{fill:#184C59;}
	.st125{fill:#2D7DAA;}
	.st126{fill:#F45346;}
	.st127{fill:#D37580;}
	.st128{fill:#111C3D;}
	.st129{fill:#1F4E5E;}
	.st130{fill:#5FB99E;}
	.st131{fill:#164552;}
	.st132{fill:#E7E5DC;}
	.st133{fill:#333332;}
</style>
<g id="圖層_2">
	<path class="st0" d="M2410.7,1109.2c-115-119.2-243.2-200.8-258.6-419.8c-8.6-122.2,179-255.9-2.9-391.6
		c-229.9-171.4-361.7,52.8-583.1,1.8c-184.3-49-299-176.3-514.8-81.9c-154.9,64.5-261.1,200.2-285,339.3
		c-18.5,95.1,0.6,188.5-1.6,283c0.7,74.9-27.6,149.7-81.2,212.7c-61.8,74.4-142.9,136.5-201.7,213
		c-97.2,117.5-118.6,269.5-54.2,392.5c72,141,236.7,277.2,439.2,245.7c201.3-32.1,364.5-159.5,554.2-221.6
		c164-60.4,335-22.3,496.2,1.2c113.6,15.9,239.6,27.8,348.7-24.5C2457.6,1569.4,2525.8,1228.4,2410.7,1109.2z"/>
	<path class="st1" d="M2236.6,850.9c21.9,30.6,58.7,59.2,105.4,57.2c47.5-1.2,93.9-42.5,73.3-81.1c-13.6-29.5-45.3-50.2-55.9-81.1
		c-15-44.1,13.4-95.4-12.5-137c-30.4-51.9-82.9-22.4-107.5,20.6C2192.4,699.1,2190.7,786.5,2236.6,850.9z"/>
	<path class="st1" d="M688.9,918.2c-81.6,122.6-286.7,121.1-193.5-47.1C596.6,672.2,754.9,723.8,688.9,918.2z"/>
	<path class="st2" d="M904.6,1564c-98.2-47.2-90.6-193.5-115.7-325.1c-26.4-131.2-84.3-248.1-3.7-292.3
		c81.7-43.8,302-15.5,419.3-49.2c117.3-33.7,131.6-129.2,203.6-214.1c71.8-84,202.1-156.1,266.9-103.4
		c65.8,53.1,66.9,232.1,200.2,329.1s398.1,110.6,419.8,154.5c22.8,44.2-199.5,117.1-292.3,200.8c-93.6,82.6-60.3,176-76.7,271
		c-16.7,95.7-82,193.2-175.9,189c-94.1-3.4-215.6-108.2-378.6-135.6C1208.5,1561.5,1003.7,1612.3,904.6,1564z"/>
</g>
<g id="Layer_1">
	<g>
		<path class="st93" d="M1445.6,1917c-27.7-8.8-49.8-28.9-68.8-50c-19-21.3-35.5-44.5-52.1-67.6c-36.9-51.3-74-104.8-126.3-141.5
			c-11.4-7.9-23.6-14.9-36.3-20.4c-19-8.4-39.5-14.1-59.9-17.9c-98.4-18.2-198.6,1.6-297.8-7.8c-9.7-1.1-23.3-3.2-32.9-5.5
			c-0.9-0.2-1.8-0.4-2.7-0.7c0,0-2.7-0.7-2.7-0.7s-5.5-1.5-5.5-1.5c-7.1-2.2-14.6-5-21.5-7.8c0,0-5.3-2.6-5.3-2.6s-2.6-1.3-2.6-1.3
			c-0.9-0.4-1.8-0.8-2.6-1.4c-20.6-11.2-38.1-28-50.8-47.6c-1.9-3-4.3-6.8-5.9-9.9c-1-1.7-3.1-5.9-4.1-7.6
			c-15.3-31.1-22.6-65.3-26.7-99.3c-5.5-47-5.1-93.5-4-140.4c2.3-82.1,8.6-164.5,21.8-245.7c8.1-49.3,18.8-98.7,31.9-146.9
			C730,751.4,814.2,527.8,957.5,466.7c30.2-13.1,63.4-17.3,96-15.5c32.3,1.7,64.1,7.9,95.4,15.4c69,16.8,136.5,39.4,206.1,53
			c82.8,17.1,168.1,19,249.5-6.1c109-32.2,206.3-90.8,307.1-142.4c38.4-19.5,77.8-38.9,119.6-51.5c46-14,95.6-15.3,134.5,18.2
			c81.1,72.3,67.4,225.1,37.6,319.1c-27.7,89.7-78.9,169.3-122.3,251.3c-25.2,48.3-49.9,99.2-56.4,153.1c-2.3,19.5-1.8,39.1,2,58.3
			c6.7,32.9,21.1,63.1,38.5,92.8c35.6,61.1,83.3,115.1,118.8,177c10.9,19.6,21,41,25.1,63.8c11.5,59.7-33.4,103.1-78.4,133.5
			c-72,47.6-151.8,79.5-228.3,118.3c-25.4,12.6-50.4,25.8-75.1,39.6c-47.8,27-98.9,59-145.6,88.3
			C1619.7,1869.9,1519.2,1940,1445.6,1917L1445.6,1917z M1446.6,1914c72.7,22.4,171.6-48.5,231.7-86.1
			c46.9-30.7,95.4-63.8,143.3-92.8c24.4-14.8,49.1-29,74.1-42.7c62-34.2,126.1-65,186.4-102.1c33.7-21.5,69.5-45.1,90.3-79.6
			c13.3-22.4,12.6-46,3.2-70.1c-4.5-12.1-10.8-24.1-17.6-35.9c-51.1-85-127.2-158-158.5-255.9c-9.2-29.2-12.2-60.8-8.5-91.1
			c6.9-59,32.7-113.4,60-165.3c43.4-81.6,93.4-157.6,121.6-245.1c22.2-70.8,32.6-149.5,12.6-221.7c-14.8-51.6-49.2-91.4-106.9-86.4
			c-26.6,2.1-52.9,10.9-78.1,20.6c-26,10.2-51.5,22.2-76.7,34.5C1795.6,456,1668.1,532.1,1524,545.6
			c-86.3,7.2-171.8-11.9-254.3-35.1c-86.9-22.8-200.8-68.3-288.7-41.6c-142,45.4-217,247-255.5,378.5
			c-14.1,50.6-25.9,102.9-34.5,154.7c-18.8,111.2-25.3,224.3-25.7,337.1c1,73.1,2.9,180.5,69.5,225.3c42.6,27.9,106.1,28,156.1,29.2
			c53.2,0.7,107.3-0.5,160.4,5.1c34,3.6,68.2,10.1,100.1,22.8c10,4.1,20,8.8,29.4,14.2c20.3,11.8,38.7,26.7,55.3,43.2
			c35.5,35.2,63.6,77.1,92,117.9C1358.7,1839.4,1395.1,1897.1,1446.6,1914L1446.6,1914z"/>
	</g>
	<g class="st84">
		<ellipse class="st85" cx="1527.9" cy="1662.7" rx="848.3" ry="76.3"/>
	</g>
	<g>
		<path class="st94" d="M1429.2,1405.7c0.9,27.1,1.8,54.2,2.7,81.2c0.2,5.7,0.5,11.6,3.6,16.5c6.1,9.4,19.8,11.1,31.6,11.3
			c20.3,0.4,26-15.9,26.1-21.9c0.8-30.8,0.3-61.6-1.7-92.4c-21.2,1.7-42.5,2.6-63.7,2.6L1429.2,1405.7z"/>
		<g>
			<path class="st94" d="M1460.7,1471.5c0,0,7.9,182.3,2.2,185.8L1460.7,1471.5z"/>
			<g>
				<path class="st94" d="M1455.8,1471.5c2.3,52.9,4.6,105.9,4.2,158.9c0,5.8-0.1,11.7-0.5,17.5c-0.1,1.9-0.5,3.8-0.5,5.7
					c0,1-1.3,1.8,0.3,0.5c-4.7,3.8,2.1,10.2,6.8,6.4c4.6-3.7,3.2-15.5,3.3-20.4c0.4-14.6,0.2-29.3-0.1-43.9
					c-0.6-33.8-1.7-67.6-3-101.4c-0.3-7.8-0.6-15.6-0.9-23.4C1465.3,1465.7,1455.6,1465.6,1455.8,1471.5L1455.8,1471.5z"/>
			</g>
		</g>
		<path class="st94" d="M1448.7,1640c-16.2,16.9-37.6,26.8-57.5,39.8c7.3,2.9,15.5,1.5,23.3,0.6c9.2-1.1,18.5-1.4,27.7-1
			c4.9,0.2,9.9,0.6,14.7-0.2c4.9-0.8,9.7-3,12.2-7c1.2,3.3,4.8,5.5,8.5,6.1c3.7,0.7,7.5,0.1,11.2-0.5c1.8-0.3,3.9-0.8,4.6-2.4
			c0.5-1.1,0.2-2.3,0-3.5c-2.5-10.4-5.1-20.8-7.6-31.2C1473.5,1640.1,1461.1,1639.8,1448.7,1640L1448.7,1640z"/>
		<path class="st94" d="M1604,1404c-0.1,27.1-0.2,54.2-0.4,81.3c0,5.7-0.1,11.6-3.1,16.6c-5.8,9.6-19.5,11.6-31.2,12.1
			c-20.3,0.9-26.4-15.2-26.8-21.2c-1.7-30.8-2-61.6-0.9-92.4c21.2,1.2,42.5,1.5,63.8,1L1604,1404z"/>
		<g>
			<path class="st94" d="M1575.6,1470.4c0,0-3.9,174.2,3.2,185.8L1575.6,1470.4z"/>
			<g>
				<path class="st94" d="M1570.8,1470.4c-1.2,53.1-2.5,106.6,0,159.7c0.4,8.6-0.6,20.5,3.8,28.4c2.9,5.2,11.2,0.6,8.3-4.6
					c0.3,0.6-0.4-1.2-0.6-2.2c-0.3-1.5-0.5-3.1-0.7-4.7c-0.6-5.2-0.9-10.5-1.2-15.8c-0.7-14.9-1-29.8-1.1-44.7
					c-0.3-31.6,0.1-63.2,0.6-94.8c0.1-7.1,0.2-14.3,0.4-21.4C1580.6,1464.6,1570.9,1464.6,1570.8,1470.4L1570.8,1470.4z"/>
			</g>
		</g>
		<path class="st94" d="M1592.5,1638.7c16.7,16.5,38.4,25.8,58.7,38.3c-7.2,3.1-15.5,1.9-23.3,1.2c-9.2-0.8-18.5-0.9-27.7-0.3
			c-4.9,0.3-9.9,0.9-14.7,0.2c-4.9-0.7-9.8-2.8-12.4-6.7c-1.1,3.3-4.7,5.6-8.3,6.4s-7.5,0.3-11.2-0.2c-1.8-0.3-3.9-0.7-4.7-2.3
			c-0.5-1.1-0.3-2.3-0.1-3.5c2.2-10.4,4.5-20.9,6.7-31.3C1567.7,1639.3,1580.1,1638.7,1592.5,1638.7L1592.5,1638.7z"/>
		<path class="st4" d="M1493.8,1401.5c-22.3-0.8-48.5,0.7-70.5,4.1c-2.8,0.4-5.6,0.9-8.4,0.7L1493.8,1401.5z"/>
		<path class="st4" d="M1540.5,1395c22.3-0.8,44.7,0.5,66.6,3.9c2.8,0.4,5.6,0.9,8.4,0.7L1540.5,1395z"/>
		<path class="st4" d="M1617.3,674.8c-10.3-2.9-18.5-10.4-24-19.1c-5.5-8.7-8.6-18.4-11.5-28.1c-2.4-0.3-3.5,2.5-3.8,4.8
			c-2.1,16.4-0.8,33.2,3.8,49.2c0.6,2.3,1.4,4.5,2.9,6.4c2.3,2.9,5.9,4.4,9.5,5.9c2.9,1.2,5.8,2.3,8.7,3.5c0.5,0.2,1.1,0.4,1.6,0.4
			c1-0.1,1.7-1.1,2.1-1.9c4-7.1,8-14.2,12-21.4L1617.3,674.8z"/>
		<path class="st4" d="M1351.5,674.8c10.3-2.9,18.5-10.4,24-19.1c5.5-8.7,8.6-18.4,11.5-28.1c2.4-0.3,3.5,2.5,3.8,4.8
			c2.1,16.4,0.8,33.2-3.8,49.2c-0.6,2.3-1.4,4.5-2.9,6.4c-2.3,2.9-5.9,4.4-9.5,5.9c-2.9,1.2-5.8,2.3-8.7,3.5
			c-0.5,0.2-1.1,0.4-1.6,0.4c-1-0.1-1.7-1.1-2.1-1.9c-4-7.1-8-14.2-12-21.4L1351.5,674.8z"/>
		<path class="st95" d="M1374.7,1161.9c18.7,141.5,18.6,106.1,32.1,248.1c18.9,1.8,73.5,0.7,94.4-0.6
			c-7.5-119.7-4.8-194.1,1.6-196.2c8.9-2.9,15.4,74.6,29.7,195c15.2-1.8,69.3,2.4,84.7,2.3c15.6-94.2,7.8-209.4,10.6-261.9
			c-47.4-3.6-91.1-6.9-137.8,1.7c-12.9,2.4-25.5,5.6-38.4,7.7c-25.3,4-51.5,3.3-76.5-2.2L1374.7,1161.9z"/>
		<path class="st4" d="M1481.5,800.7c0.4,6.3,1.5,30.4-2.9,33.6c-2.7,2-6.3,2.3-9.6,2.8c-12.4,1.8-24.3,6.9-33.9,14.5
			c14.1,4.3,29.4,3.7,44.2,3c19.8-0.9,39.6-1.8,59.5-2.7c-3.4-5.6-10.9-7.5-17.5-9.1c-7.8-1.9-15.5-4.2-23.1-6.9
			c-2.3-0.8-0.3-29.3,0.1-38.8L1481.5,800.7z"/>
		<path class="st96" d="M1632.2,1182.3c-1.2-50.2-16.4-285.5-58.3-322.5c-20.1-17.7-39.2-19.6-66.3-24.4
			c-4.1,6.7-12.2,11.1-20.5,11.1c-8.3,0-16.4-4.3-20.5-11c-14.1-2.9-47,12.5-61.1,28.4c-14.1,15.9-18.8,29.1-25.5,48.8
			c-16.4,48.2-6.9,243.6-5.1,272.5c0,0,96.5,6.2,126.5,5.9C1531.3,1190.8,1632.2,1182.3,1632.2,1182.3z"/>
		<path class="st4" d="M1500.1,770.2c-0.2-3.9-3.8-7.2-7.9-8c-4.1-0.8-8.4,0.7-11.6,3.2c-8.3,6.6-8.6,18.3-8.2,28.5
			c0.2,5.1,0.7,10.8,4.5,14.5c5.7,5.4,16.3,3,21.3-3c5-6,5.9-14.1,5.9-21.7c0-5.3-0.4-11.1-4-15.2L1500.1,770.2z"/>
		<path class="st4" d="M1475.1,791.4c-1.1-1.3-3.5-1.1-4.8,0.1c-1.3,1.2-1.6,3.1-1.5,4.8c0,0.8,0.2,1.7,0.6,2.4c1.2,2,4.3,2.2,6.8,2
			c0.5,0,1.1-0.1,1.4-0.4c0.4-0.5,0.3-1.2,0.1-1.7c-0.8-2.6-1.7-5.2-2.5-7.9L1475.1,791.4z"/>
		<path class="st4" d="M1499.8,792.4c0.9-2.4,4.8-2.6,6.8-0.9c2.5,2,2.9,5.8,1,8.2c-2,2.4-6,3.1-8.7,1.4c0.2-3.3,0.5-6.6,0.7-9.9
			L1499.8,792.4z"/>
		<path class="st97" d="M1499.5,786.4c1.3,5.3,1.3,11,0,16.3c0.9,0.1,1.8,0.1,2.7,0.2c0.9-6.6,2.9-13,5.9-19
			c2.7-5.3,6.2-10.5,6.2-16.3c0-4.5-2.2-8.9-5.3-12.4c-8.6-9.9-24.7-13.3-37.1-7.9c-3.8,1.7-7.6,4.2-11.8,4
			c-2.1-0.1-4.2-0.9-6.3-0.9c-3.4-0.1-7,1.8-7.9,4.9c-0.9,3.1,1.6,6.8,5.1,6.8c1.7,0,3.2-0.8,4.9-1.1c1.6-0.3,3.7,0,4.4,1.4
			c0.7,1.4-0.3,2.9-1.6,3.9c-1.2,0.9-2.8,1.6-3.8,2.8c-1,1.2-1.1,3.2,0.3,3.9c0.7,0.3,1.5,0.3,2.2,0.2c5.8-0.5,11.6-1,17.5-1.6
			c6.9-0.6,15-0.9,19.7,3.9C1497.4,778.3,1498.7,782.6,1499.5,786.4L1499.5,786.4z"/>
		<path class="st97" d="M1468.8,772.1c2.4,7.7,4.7,17.9,3.6,28.3c0.5,0-0.1,0,1,0.3c0.1-6.7,1.3-13.1,1.3-19.7
			c0-3.3,0.1-6.7,1.7-9.6L1468.8,772.1z"/>
		<g>
			<path class="st97" d="M1474.1,788.5c0.1,1.8,1.5,3.5,3.6,3.7c2,0.2,3.8-1.2,4.3-2.9c0.3-1.1-1.6-1.6-1.8-0.5
				c-0.6,2.2-3.9,2.1-4.1-0.2C1475.9,787.4,1474,787.4,1474.1,788.5L1474.1,788.5z"/>
		</g>
		<g>
			<path class="st97" d="M1488.2,789.1c0.6,1.7,1.8,3.5,3.9,3.5c2.1,0.1,3.3-1.6,4.2-3.2c0.5-1-1.1-1.9-1.6-0.9
				c-0.5,0.8-1,1.9-2,2.2c-1.4,0.3-2.2-1.1-2.5-2.2C1489.7,787.5,1487.8,788,1488.2,789.1L1488.2,789.1z"/>
		</g>
		<g>
			<path class="st97" d="M1482.3,790.2c-0.2,3.7-0.2,7-1.9,10.5c-0.3,0.5-0.1,1.1,0.6,1.3c0.7,0.2,1.3,0.3,2.1,0.3
				c1.2,0,1.2-1.7,0-1.8c-0.5,0-1.1-0.1-1.5-0.2c0.2,0.4,0.4,0.9,0.6,1.3c1.9-3.8,2-7.3,2.2-11.4
				C1484.3,789.1,1482.4,789.1,1482.3,790.2L1482.3,790.2z"/>
		</g>
		<g>
			<path class="st97" d="M1483.8,806.5c3.7,0.1,7-1.7,8.9-4.6c-0.6-0.1-1.2-0.1-1.7-0.2c0.1,0.9,0,1.8-0.3,2.7
				c-0.4,1.1,1.4,1.6,1.8,0.5c0.4-1.2,0.5-2.3,0.3-3.6c-0.1-0.8-1.4-0.8-1.7-0.2c-1.6,2.4-4.3,3.8-7.3,3.7
				C1482.6,804.7,1482.6,806.5,1483.8,806.5L1483.8,806.5z"/>
		</g>
		<path class="st98" d="M1459.9,834.2c-32.2,2.9-59,26.3-72.9,53.7c-13.9,27.3-17,58.2-18.9,88.4c-4.6,73.3-3.1,146.9,4.3,220
			c26,7.8,35,7.8,62.6,5.4c-2-58,29.1-200.2,28.2-219.6c-1.6-33.1-5.1-131.8-2.5-145.4L1459.9,834.2z"/>
		<g>
			<path class="st98" d="M1461.3,831.8c-10.5,1.6-24.1,3.2-34.1,6.7c4.8,17.1,10.4,34.1,16.8,50.7c-5.3,0.5-10.5,1.7-15.5,3.6
				c13.3,29.1,24.9,58.9,34.6,89.3c3.1-48,5.8-87.6-1.1-135.3C1461.6,843.6,1461.3,835.2,1461.3,831.8L1461.3,831.8z"/>
			<g>
				<path class="st99" d="M1461.1,830.9c-11.5,1.7-23.1,3.1-34.1,6.7c-0.5,0.2-0.8,0.6-0.7,1.1c3.2,11.4,6.7,22.7,10.7,34
					c0.9,2.6,6.8,13.6,4.5,15.9c-0.5,0.5-3.2,0.5-4.2,0.7c-3.1,0.6-6,1.6-8.9,2.6c-0.6,0.2-0.8,0.7-0.6,1.3
					c13.2,29.1,24.7,58.8,34.5,89c0.3,1,1.8,0.8,1.9-0.2c1.7-26.4,3.5-52.8,3.2-79.2c-0.3-23.8-4.8-47.4-5.1-71.1
					c0-1.1-1.9-1.1-1.9,0c0.2,23.7,4.8,47.3,5.1,71.1c0.3,26.4-1.5,52.8-3.2,79.2c0.6-0.1,1.2-0.2,1.9-0.2
					c-5.7-17.6-11.9-35-18.7-52.3c-3.2-8.1-6.6-16.2-10.1-24.3c-1-2.4-4.5-7.4-4.5-10.1c0-4.3,10.1-4.7,13.3-5.1
					c0.6-0.1,1.2-0.5,0.9-1.1c-5.3-13.9-10.2-27.9-14.4-42.1c-1.4-4.6-2.9-6.6,1.7-9c2.2-1.1,5.6-1.4,7.9-1.8
					c7.1-1.4,14.2-2.3,21.4-3.4C1462.8,832.5,1462.3,830.7,1461.1,830.9L1461.1,830.9z"/>
			</g>
		</g>
		<path class="st98" d="M1517.9,828.7c32.2,2.9,59,26.3,72.9,53.7c13.9,27.3,18.8,57.3,24.5,87.1c12.6,65.2,29.9,147.8,22.5,220.8
			c-26,7.8-54.4,9.1-82,6.7c2-58-42.1-200.9-41.1-220.3c1.6-33.1,5.1-131.8,2.5-145.4L1517.9,828.7z"/>
		<g>
			<path class="st98" d="M1518.2,827.4c10.5,1.6,22.4,4.2,32.4,7.8c-4.8,17.1-10.4,34.1-16.8,50.7c5.3,0.5,10.5,1.7,15.5,3.6
				c-13.3,29.1-24.9,58.9-34.6,89.3c-3.1-48-6.7-91.7,0.2-139.4C1515.2,836.2,1516.4,829.7,1518.2,827.4L1518.2,827.4z"/>
			<g>
				<path class="st99" d="M1517.9,828.2c7,1.1,14,2.5,20.9,4.3c3,0.8,7.9,1.2,9.4,3.9c1.4,2.7-1,7.1-1.9,9.9
					c-4,13.3-8.6,26.3-13.5,39.3c-0.2,0.6,0.4,1.1,0.9,1.1c3.5,0.4,11.6,0.7,13,3.9c1.2,2.8-2.5,7.4-3.6,9.9
					c-3.7,8.5-7.3,17.1-10.8,25.7c-6.9,17.2-13.1,34.7-18.7,52.3c0.6,0.1,1.2,0.2,1.9,0.2c-1.6-25.7-3.6-51.5-3.7-77.3
					c-0.1-12.5,0.3-25.1,1.2-37.5c0.9-11.1,0.2-26,6-36.1c0.6-1-1.1-1.9-1.6-0.9c-4.5,7.9-4.5,19.1-5.4,27.8
					c-1.4,13.5-2,27.1-2.1,40.7c-0.1,27.8,2,55.5,3.7,83.3c0.1,1,1.6,1.2,1.9,0.2c9.7-30.3,21.2-60,34.5-89c0.3-0.6,0.1-1.1-0.6-1.3
					c-1.8-0.7-12.2-2.3-13.1-3.4c-2.4-3.1,3.2-12.4,4.5-15.9c3.9-11.2,7.5-22.5,10.7-34c0.1-0.5-0.2-0.9-0.7-1.1
					c-10.5-3.6-21.3-6-32.4-7.8C1517.2,826.3,1516.7,828,1517.9,828.2L1517.9,828.2z"/>
			</g>
		</g>
		<path class="st95" d="M1485.3,863c-4.5,16-15.2,71-15.2,74.4c0,2.7,12.1,72.9,21.4,109.9c7.3-34.1,17.4-104.4,17.3-107.7
			c-0.2-4.5-13.3-61.9-18.3-76.8L1485.3,863z"/>
		<path class="st95" d="M1485.4,843.2c-1.9,3.4-3.6,6.9-5.1,10.5c-0.3,0.7-0.6,1.5-0.4,2.2c0.1,0.4,0.4,0.8,0.6,1.2
			c1.6,2.2,3.3,4.2,5.2,6.2c1.2-0.3,2.4-0.2,3.6,0.1c0.2,0.1,0.5,0.1,0.7,0.1c0.2-0.1,0.4-0.2,0.5-0.4c1.5-1.8,2.9-3.5,4.4-5.3
			c0.2-0.2,0.3-0.4,0.3-0.6c0-0.2,0-0.4-0.1-0.5c-1.4-4.3-2.8-8.6-4.1-13c-2.4-0.1-4.8-0.1-7.2-0.2L1485.4,843.2z"/>
		<g>
			<path class="st100" d="M1476.4,832.4c-3.3,0.5-8.5,1.1-11.8,1.9c1.1,9.5,7.2,18.3,16.1,23c1.7-4.7,3.5-9.4,5.2-14.1
				C1481.2,842.1,1476.4,835.5,1476.4,832.4L1476.4,832.4z"/>
			<g>
				<path class="st99" d="M1476.1,831.5c-3.9,0.6-7.9,1.1-11.8,1.9c-0.4,0.1-0.8,0.5-0.7,0.9c1.4,10,7.3,18.5,16.5,23.8
					c0.6,0.3,1.2,0,1.4-0.5c1.7-4.7,3.5-9.4,5.2-14.1c0.2-0.5-0.2-1-0.7-1.1c-4.2-1.2-8.4-5.7-8.8-9.9c-0.1-1.1-2-1.1-1.9,0
					c0.4,3.7,3.1,7.2,6.1,9.5c2.1,1.6,3.2,1,2.5,3.6c-1,3.9-2.8,7.7-4.2,11.5c0.5-0.2,0.9-0.4,1.4-0.5c-6.3-3.5-11.2-8.8-13.8-15.2
					c-0.5-1.2-1-2.4-1.2-3.6c-0.4-2.2-0.4-2.4,1.4-3.1c2.6-1,6.3-0.9,9-1.3C1477.8,833.1,1477.3,831.3,1476.1,831.5L1476.1,831.5z"
					/>
			</g>
		</g>
		<g>
			<path class="st100" d="M1489.2,842.9c1.4,4.8,2.8,9.6,4.2,14.4c5.7-0.7,11.1-3.3,14.9-7.3c3.9-4,6.1-9.2,6.4-14.6
				c-2.7-0.7-10-0.6-12.7-1.3C1500,839,1495.5,841.4,1489.2,842.9L1489.2,842.9z"/>
			<g>
				<path class="st99" d="M1488.3,843.1c1.4,4.8,2.8,9.6,4.2,14.4c0.1,0.5,0.7,0.7,1.2,0.6c12.4-1.9,21.1-11.1,22-22.8
					c0-0.4-0.3-0.8-0.7-0.9c-4.2-0.9-8.5-0.4-12.7-1.3c-0.4-0.1-0.9,0-1.1,0.4c-2.2,5-6.8,7-12.1,8.3c-1.2,0.3-0.7,2,0.5,1.7
					c4.3-1.1,8.6-2.6,11.4-6c1.4-1.7,0.9-2.1,2.9-2.4c1.8-0.3,7.2-0.1,8.8,0.6c1.4-0.2,1.7,0.5,0.8,2.1c-0.1,0.7-0.3,1.4-0.5,2.1
					c-0.5,1.8-1.3,3.5-2.3,5.2c-2,3.3-4.8,6-8.3,8c-1.7,1-3.5,1.7-5.5,2.3c-2.2,0.6-2.5,0.6-3.4-1.3c-1.7-3.5-2.3-8-3.4-11.7
					C1489.8,841.5,1487.9,842,1488.3,843.1L1488.3,843.1z"/>
			</g>
		</g>
		<path class="st98" d="M1426.4,845.8c-15.6,5.1-42.3,23-56.1,31.2c-50.3,30-106.7-65.7-54.9-115c36.5-34.8,50-41.8,63.7-44.2
			c0,0-23.8-43.3-28.9-54C1229.4,697.8,1206,795.6,1206,831.8c0,41.9,29.5,156.3,177.1,136.1
			C1392.1,919.5,1405.7,890.9,1426.4,845.8L1426.4,845.8z"/>
		<path class="st98" d="M1550.5,836.5c15.6,5.1,41,24.1,54.7,32.3c50.3,30,131.5-41.5,68.9-106.8c-23.5-24.5-37.6-25.9-79-46.5
			c9.5-17.9,12.3-46.6,22.1-59.5c149.5,42.8,158.1,130,158.1,181.6c0,41.9-35.2,142.3-182.8,122.1c-9-48.4-20.3-77.2-41.1-122.3
			c-0.4-0.9-0.7-2,0-2.6c0.8-0.6,1.9,1.1,0.9,1.1L1550.5,836.5z"/>
		<g>
			<path class="st99" d="M1378.2,1110.3c0,21.8-0.3,43.7,1.1,65.5c0,0.4,0.3,0.8,0.7,0.9c13.3,3.3,26.6,4.1,40.2,2.5
				c0.5-0.1,0.9-0.4,1-0.9c0.2-22.8,0.9-45.5,2-68.2c0-0.5-0.5-0.9-1-0.9c-8.4,0.7-16.9,0.8-25.4,0.8c-4.8,0-12.8,1.3-17.4-0.5
				c-1.1-0.4-1.6,1.3-0.5,1.7c2.5,1,6.5,0.5,9.2,0.5c6.9,0.1,13.8,0.1,20.6-0.1c2.9-0.1,7.3-1.1,10.1-0.4c3,0.8,2.2,1.4,2.1,5.1
				c0,2.1-0.2,4.1-0.3,6.2c-0.5,10.9-0.8,21.7-1.1,32.6c-0.1,5.2-0.2,10.3-0.3,15.5c-0.1,7.1-2.9,7.5-10,7.7
				c-5.7,0.1-11.3-0.2-16.9-1c-6.8-0.9-11.3-1.1-11.7-8.4c-0.9-19.5-0.7-39.1-0.7-58.6C1380.1,1109.2,1378.2,1109.2,1378.2,1110.3
				L1378.2,1110.3z"/>
		</g>
		<g>
			<path class="st99" d="M1564.7,1108.7c1.6,18.5,3.5,37,5.9,55.5c0.4,3.2-0.3,9.8,2.6,12.3c3.4,2.8,15.2,0.3,19.3,0.2
				c4.3-0.1,8.6-0.3,12.9-0.4c2.6-0.1,8.3,0.8,10.8-0.6c3.5-2,2-7,2-10.6c-0.1-19.5-1.4-39-3.5-58.4c0-0.4-0.4-0.9-1-0.9
				c-15.9,1.3-31.9,1.8-47.8,1.4c-1.2,0-1.2,1.8,0,1.8c9,0.2,18.1,0.1,27.1-0.2c4.3-0.2,8.5-0.4,12.8-0.7c6.1-0.4,7.3,0.7,7.8,6.4
				c0.9,8.9,1.6,17.9,2,26.8c0.2,4.2,0.4,8.4,0.5,12.6c0.1,4.2,1.3,10.2,0.2,14.2c-1.7,6.4-6.6,6.1-12.5,6.2
				c-4.3,0.1-8.6,0.3-12.9,0.4c-3.7,0.1-9.3,1.3-12.9,0.4c-5.7-1.4-5.4-9.4-6-14.2c-2.2-17.4-4-34.9-5.5-52.4
				C1566.6,1107.5,1564.6,1107.5,1564.7,1108.7L1564.7,1108.7z"/>
		</g>
		<g>
			<path class="st99" d="M1441.7,1003.8c4.1,0.2,8.2,0.8,12.2,1.9c1.2,0.3,1.7-1.4,0.5-1.7c-4.2-1.1-8.4-1.7-12.7-1.9
				C1440.4,1001.9,1440.5,1003.7,1441.7,1003.8L1441.7,1003.8z"/>
		</g>
		<g>
			<path class="st99" d="M1435.2,1039.6c3.8,0.8,7.6,1.7,11.4,2.5c1.2,0.3,1.7-1.5,0.5-1.7c-3.8-0.8-7.6-1.7-11.4-2.5
				C1434.6,1037.6,1434,1039.4,1435.2,1039.6L1435.2,1039.6z"/>
		</g>
		<g>
			<path class="st99" d="M1430.1,1083.9c3.3,1,6.6,1.7,9.9,2.3c1.2,0.2,1.7-1.5,0.5-1.7c-3.4-0.6-6.7-1.4-9.9-2.3
				C1429.4,1081.8,1428.9,1083.5,1430.1,1083.9L1430.1,1083.9z"/>
		</g>
		<g>
			<path class="st99" d="M1533.8,991.7c-5.1,0.2-7.2,5-6.7,9.3c0.6,5.1,6.6,7,11.4,5.6c4.4-1.2,6.9-5.8,5.5-9.9
				c-1.4-4.2-6.5-6.1-10.8-4.8c-1.2,0.3-0.7,2.1,0.5,1.7c6.9-2,12.3,6.7,5.9,10.6c-3,1.8-9.1,1.5-10.4-2.1c-1.2-3.2,0.3-8.4,4.5-8.6
				C1535.1,993.4,1535.1,991.6,1533.8,991.7L1533.8,991.7z"/>
		</g>
		<g>
			<path class="st99" d="M1533.1,1001c0,0,0.1-0.1,0.1-0.1c0.9-0.8-0.5-2.1-1.3-1.3c0,0-0.1,0.1-0.1,0.1
				C1530.9,1000.6,1532.2,1001.8,1533.1,1001L1533.1,1001z"/>
		</g>
		<g>
			<path class="st99" d="M1538.1,998.2c0,0-0.1,0-0.1,0c-1.2,0-1.2,1.8,0,1.8c0,0,0.1,0,0.1,0
				C1539.4,1000,1539.4,998.2,1538.1,998.2L1538.1,998.2z"/>
		</g>
		<g>
			<g>
				<path class="st99" d="M1543.3,1030.7c-5.1,0.2-7.2,5-6.7,9.3c0.6,5.1,6.6,7,11.4,5.6c4.4-1.2,6.9-5.8,5.5-9.9
					c-1.4-4.2-6.5-6.1-10.8-4.8c-1.2,0.3-0.7,2.1,0.5,1.7c6.9-2,12.3,6.7,5.9,10.6c-3,1.8-9.1,1.5-10.4-2.1
					c-1.2-3.2,0.3-8.4,4.5-8.6C1544.6,1032.4,1544.6,1030.7,1543.3,1030.7L1543.3,1030.7z"/>
			</g>
			<g>
				<path class="st99" d="M1542.6,1040.1c0,0,0.1-0.1,0.1-0.1c0.9-0.8-0.5-2.1-1.3-1.3c0,0-0.1,0.1-0.1,0.1
					C1540.4,1039.6,1541.7,1040.9,1542.6,1040.1L1542.6,1040.1z"/>
			</g>
			<g>
				<path class="st99" d="M1547.6,1037.2c0,0-0.1,0-0.1,0c-1.2,0-1.2,1.8,0,1.8c0,0,0.1,0,0.1,0
					C1548.9,1039,1548.9,1037.2,1547.6,1037.2L1547.6,1037.2z"/>
			</g>
		</g>
		<g>
			<path class="st99" d="M1551.1,1069.8c-5.1,0.2-7.2,5-6.7,9.3c0.6,5.1,6.6,7,11.4,5.6c4.4-1.2,6.9-5.8,5.5-9.9
				c-1.4-4.2-6.5-6.1-10.8-4.8c-1.2,0.3-0.7,2.1,0.5,1.7c6.9-2,12.3,6.7,5.9,10.6c-3,1.8-9.1,1.5-10.4-2.1c-1.2-3.2,0.3-8.4,4.5-8.6
				C1552.3,1071.5,1552.3,1069.7,1551.1,1069.8L1551.1,1069.8z"/>
		</g>
		<g>
			<path class="st99" d="M1550.4,1079.1c0,0,0.1-0.1,0.1-0.1c0.9-0.8-0.5-2.1-1.3-1.3c0,0-0.1,0.1-0.1,0.1
				C1548.2,1078.7,1549.5,1080,1550.4,1079.1L1550.4,1079.1z"/>
		</g>
		<g>
			<path class="st99" d="M1555.4,1076.3c0,0-0.1,0-0.1,0c-1.2,0-1.2,1.8,0,1.8c0,0,0.1,0,0.1,0
				C1556.6,1078.1,1556.6,1076.3,1555.4,1076.3L1555.4,1076.3z"/>
		</g>
	</g>
	<g>
		<path class="st4" d="M1860.2,952c33.6-3.4,68.6-25.7,80-57.5c1.7-4.7,3.6-6.2,7.9-8.8c4.6-2.7,10.4-1.3,15.3,0.7
			c5.7,2.2,11.4,5.3,14.8,10.4c6.3,9.5,2.6,22.3-2.5,32.5c-19.9,40-58.4,75-102.1,84.7C1865.5,999.6,1859.5,971.5,1860.2,952
			L1860.2,952z"/>
		<path class="st101" d="M1780.2,886.7c6-2.8,9.4-9.8,8.9-16.5c-0.5-6.6-4.6-12.6-10.1-16.4c-2.3-1.6-5.2-2.9-7.9-2.3
			c-4.2,0.9-7.8,5.9-11.8,4.3c-2.7-1.1-3.3-4.6-4.7-7.2c-1.8-3.4-5.6-5.6-9.5-5.6c-3.9,0.1-7.6,2.4-9.3,5.9
			c-1.5,2.9-1.9,6.9-4.8,8.3c-2.4,1.1-5.3-0.2-7.2-2.1c-1.9-1.8-3.4-4.1-5.7-5.6c-3.6-2.4-8.7-1.8-12.1,0.8c-3.4,2.7-5,7.2-4.6,11.5
			c0.3,3.1,1.6,6.1,2.2,9.2c0.6,3.1,0.4,6.7-1.9,8.9c-2.9,2.9-7.8,2.2-11.7,0.9c-3.9-1.4-8-3.3-11.9-2.2c-3.8,1.1-6.5,4.8-7.2,8.7
			c-0.8,3.9,0,7.9,1.1,11.8c0.7,2.4,1.4,4.7,1.3,7.2c-0.1,2.4-1.4,5-3.6,5.9c-2.7,1.1-5.7-0.4-8.6-0.1c-2.7,0.4-4.9,2.4-6.2,4.7
			c-3,5.4-1.3,12.9,3.6,16.6c4.5,3.3,11.5,4.2,13.4,9.4c1.4,3.8-0.9,8.1-0.1,12.1c1.1,5.1,6.6,7.8,11.4,9.7c2.3,0.9,4.7,1.8,7.1,1.6
			c4.5-0.5,7.6-4.7,11.7-6.5c6.3-2.7,13.4,0.6,19.4,4c6,3.4,12.9,7,19.4,4.7c6.3-2.2,9.6-9.7,9-16.3c-0.3-3-1.1-6.4,0.5-9
			c1.7-2.6,5.2-3.1,8.3-3.3c3.9-0.3,7.8-0.6,11.7-1c5-0.4,11.2-1.8,12.4-6.7c0.8-3.5-1.6-6.8-3.6-9.8c-2-3-3.8-6.9-2-10
			c2.6-4.6,10.5-3.2,13.4-7.6c1.5-2.2,1-5.3-0.6-7.5c-1.6-2.1-4.1-3.4-6.7-4c-0.9-0.2-1.8-0.4-2.6-0.8c-1.9-1.1-2.2-4.2-0.5-5.7
			L1780.2,886.7z"/>
		<path class="st4" d="M1707.3,1028.3c-32.7-4.4-68.2,12.9-87,40c-18.8,27.2-28.3,56.7-31.6,81.7c-2.3,17.1,0.5,36.9,9.9,56.2
			c-2.6,9.8-22,6-36.5,8.5c-17.8-56.7-17.3-123.4,11-175.7c37.5-69.5,103.5-104.1,162.9-107.4c3.1,29.7-27.2,67.2-24.1,96.9
			L1707.3,1028.3z"/>
		<path class="st102" d="M1720.9,1631.3c-9.9,11.6-36.3,21.1-49.8,28.3c31,3.5,91.7,4.7,111.7,0c-5.2-7.2-13.5-17.6-16.5-26
			c-0.3-0.7-0.5-1.5-1.2-2c-0.7-0.5-1.6-0.5-2.4-0.4C1748,1631.9,1735.7,1630.6,1720.9,1631.3L1720.9,1631.3z"/>
		<path class="st102" d="M1861.3,1617.3c-5.4,13.8-16.6,25.3-30.3,31c-4.2,1.7-9.2,3.6-10.5,7.9c17.4,1.8,35,2.1,52.5,1
			c2.4-0.2,4.8-0.3,6.9-1.3c2.7-1.2,4.8-3.4,6.9-5.5c8.9-9.1,18.9-17.2,29.8-23.9c1.1-0.7,2.2-1.4,2.8-2.5c1.1-2.2-0.5-4.8-2.1-6.8
			c-3.3-4.2-6.7-8.5-10-12.7c-15.4,2.8-30.6,6.3-45.6,10.6L1861.3,1617.3z"/>
		<path class="st103" d="M1683.1,1169.2c1.1,133.9-2.6,325-12,457.4c-0.3,4.9,92.2,9.4,108.7,4.9c-7.5-131.1-9.5-255.9-17-387
			c23.8,101.5,64.7,378,64.7,378c42.5,10.9,109.4-20,110-21.9c0.4-1.2-96.4-408.2-97.8-443.3c-31.6,1-73.7,4.8-105.2,5.9
			C1717.3,1163.8,1699.8,1164.4,1683.1,1169.2L1683.1,1169.2z"/>
		<path class="st4" d="M1596.3,1203.8c7.3,7.9,14.7,15.8,22,23.7c2,2.2,4.2,5,3.5,7.9c-0.5,1.6-5.3-0.8-7.4-2.5
			c-2.1-1.6-4.1-3.6-6.6-4.5c-0.7-0.3-1.7-0.4-2.2,0.1c-0.2,0.2-0.4,0.5-0.4,0.9c-0.5,2-0.3,4.1,0.3,6c3,10,5.6,20.2,7.5,30.6
			c0.2,1.2,0.3,2.5,0.3,3.8c0,0.8-0.1,1.6-0.9,2.1c-0.6,0.3-1.3,0.3-1.8,0c-1.1-0.6-1.6-1.8-2-3c-1.8-4.7-7.9-20-8.8-19.6
			c-0.6,0.3,7.2,19.9,6.8,27.2c0,0.8-0.6,1.5-1.3,1.7c-0.8,0.2-1.3-0.4-1.7-0.9c-3.8-5.2-12-24.6-12.2-23.6
			c-1.1,6.6,7.2,17.2,5.9,24.4c-0.2,1-0.5,2-1.5,2.3c-4,1.2-12.6-25.6-13.2-24.9c-1,1.3,1.9,15.8,1.3,19.7c-0.1,0.8-0.7,1.6-1.5,1.8
			c-1,0.3-1.6-0.4-2.1-1.1c-0.5-0.8-1-1.7-1.4-2.6c-8-19.2-14.9-39.1-16.6-59.8c0-0.5-0.1-1.1,0.2-1.6c0.2-0.4,0.5-0.6,0.9-0.9
			c5.3-3.8,11.7-6.1,18.2-6.5c5.3-0.3,8.8,1.7,13.2-1.3L1596.3,1203.8z"/>
		<path class="st4" d="M1744.2,867.9c2.2-2.3,5.6-3,8.8-2.5c5.3,0.9,9.6,4.8,12.2,9.5c2.5,4.7,3.4,10.1,3.9,15.4
			c0.7,8,0.2,17-5.6,22.5c-5.1,4.8-13.4,5.5-19.7,2.4c-6.3-3.1-10.7-9.4-12.5-16.2c-1.8-6.8-1.4-14,0.1-20.9
			c0.9-4.1,2.4-8.5,6.1-10.5c3.1-1.8,7-1.3,10.5-0.8L1744.2,867.9z"/>
		<path class="st4" d="M1759.1,915.2c2.4,10.4,3,22.5,2.7,33.2c-5.3,0.5-10.8,0.1-16-1.1c-0.3-11.7-0.6-23.4-0.9-35.2
			c4.5,2.9,9.5,3,14.8,2.4L1759.1,915.2z"/>
		<path class="st104" d="M1742.9,930.7c-1.8,4.7,4.2,13.8,14.9,10.2c4.8-1.6,7.9-6,10.1-10.5c17.9,1.8,35.5,6.7,51.7,14.5
			c5.8,2.8,11.5,6.3,15.3,11.5c11,14.9-6.9,79.7-9.1,107.8c-1.7,21.1,19.2,108.3,20.2,109.9c0,0-46.5,11.8-98.9,11.8
			c-32.9,0-69.6-4.1-69.6-4.1c-1.2-1.3-13.4-101.9-13.3-128.9c0.1-33.7,4.9-85.2,17.6-99.6C1697.4,935.8,1731,929,1742.9,930.7
			L1742.9,930.7z"/>
		<path class="st4" d="M1767.8,892.4c1-1.2,3-1.2,4.3-0.3c1.3,0.8,2.1,2.3,2.4,3.8c0.3,1.1,0.4,2.2,0,3.3c-0.5,1.5-2,2.5-3.5,3
			c-1.5,0.4-3.2,0.3-4.8,0.2c0-3.2,0-6.4,0-9.6L1767.8,892.4z"/>
		<path class="st4" d="M1733.6,894.2c0-0.9-1.1-1.5-2.1-1.4c-2.7,0.1-6,2.5-5.7,5.1c0.8,6.7,6.1,6.2,8,6.8c-0.3-3.7-0.3-7.4,0-11.1
			L1733.6,894.2z"/>
		<g>
			<path class="st105" d="M1767.9,890.9c-1.2,4.7-7.2,5.5-9.7,1.5c-0.8-1.3,1.3-2.5,2.1-1.2c1.5,2.3,4.7,1.7,5.3-0.9
				C1765.9,888.7,1768.3,889.4,1767.9,890.9L1767.9,890.9z"/>
		</g>
		<g>
			<path class="st105" d="M1751.2,891.1c-0.9,2.5-3.2,4.2-5.9,3.8c-1.9-0.3-5.2-2.3-3.4-4.4c0.3-0.4,1-0.4,1.5-0.2
				c0,0,0.1,0.1,0.1,0.1c1.3,0.8,0.1,2.9-1.2,2.1c0,0-0.1-0.1-0.1-0.1c0.5-0.1,1-0.1,1.5-0.2c0-0.8,0.1-0.9,0.4-0.4
				c0.3,0.2,0.6,0.4,0.9,0.6c0.4,0.2,0.9,0.3,1.4,0.2c1.2-0.1,2.2-1,2.6-2.1C1749.4,889,1751.7,889.6,1751.2,891.1L1751.2,891.1z"/>
		</g>
		<g>
			<path class="st105" d="M1755.8,891.2c0.6,1.9,1.2,3.8,1.8,5.7c0.5,1.6,1.3,3.3,1.3,5c0,1.9-1.7,3.6-3.6,2.8
				c-1.4-0.6-0.8-2.9,0.6-2.3c1,0.4-0.1-2.8,0-2.7c-0.3-0.9-0.5-1.7-0.8-2.6c-0.5-1.7-1.1-3.5-1.6-5.2
				C1753,890.4,1755.3,889.8,1755.8,891.2L1755.8,891.2z"/>
		</g>
		<g>
			<path class="st105" d="M1755.9,910.4c-3.3,1.3-7-0.7-8.3-3.9c-0.5-1.5,1.8-2.1,2.3-0.6c0.8,2.1,3.3,3,5.3,2.2
				C1756.7,907.5,1757.4,909.8,1755.9,910.4L1755.9,910.4z"/>
		</g>
		<g>
			<path class="st12" d="M1734.8,931.3c-0.5,2.9-0.3,5.7,0.8,8.4c0.6,1.4,2.9,0.8,2.3-0.6c-0.9-2.3-1.2-4.7-0.8-7.1
				C1737.4,930.5,1735.1,929.8,1734.8,931.3L1734.8,931.3z"/>
		</g>
		<g>
			<path class="st12" d="M1736.5,943.2c1.8,2.9,4.2,5.2,7.2,6.9c1.4,0.8,2.6-1.3,1.2-2.1c-2.6-1.5-4.7-3.5-6.3-6
				C1737.7,940.6,1735.7,941.8,1736.5,943.2L1736.5,943.2z"/>
		</g>
		<g>
			<path class="st12" d="M1748.5,951.7c2.9,0.1,5.8,0.1,8.7-0.2c1.5-0.2,1.5-2.6,0-2.4c-2.9,0.3-5.8,0.4-8.7,0.2
				C1746.9,949.2,1746.9,951.6,1748.5,951.7L1748.5,951.7z"/>
		</g>
		<g>
			<path class="st12" d="M1763.6,950.5c2.2-1.2,4.2-2.7,5.9-4.5c1.1-1.1-0.6-2.8-1.7-1.7c-1.6,1.6-3.4,3-5.5,4.1
				C1761,949.2,1762.2,951.2,1763.6,950.5L1763.6,950.5z"/>
		</g>
		<g>
			<path class="st12" d="M1773.3,943.6c1.4-3.1,2.8-6.2,4.1-9.3c0.6-1.4-1.5-2.6-2.1-1.2c-1.4,3.1-2.8,6.2-4.1,9.3
				C1770.6,943.8,1772.6,945,1773.3,943.6L1773.3,943.6z"/>
		</g>
		<g>
			<path class="st12" d="M1749.2,950.7c-6,17.5-7.4,36.4-8.6,54.7c-1.4,21.6-1.9,43.3-1.7,64.9c0.2,19.9,0.9,39.9,2.7,59.7
				c1.1,11.9,2,24.5,5.7,35.9c0.5,1.5,2.8,0.8,2.3-0.6c-3.9-11.8-4.7-24.8-5.8-37.1c-1.7-19.3-2.3-38.6-2.5-57.9
				c-0.2-21,0.3-42.1,1.6-63.1c1.2-18.7,2.5-38.1,8.6-55.9C1752.1,949.9,1749.7,949.2,1749.2,950.7L1749.2,950.7z"/>
		</g>
		<g>
			<path class="st12" d="M1690.3,1010.2c-1.4,10.9-2.4,31.8,14.4,30c5.1-0.6,9.4-3.8,11.6-8.4c1.4-3,1.8-6.3,2.1-9.6
				c0.4-3.7,1.3-8.4,0.5-12c-0.1-0.4-0.5-0.8-0.8-0.8c-3.5-0.5-7.1,0.6-10.7,0.8c-5.1,0.2-10.1-0.1-15.1-0.8
				c-1.5-0.2-2.2,2.1-0.6,2.3c6.3,0.9,12.5,1.2,18.8,0.7c4.2-0.4,5.6-1.2,6,3.6c0.3,3.4-0.4,8.2-1.2,11.5c-2.2,8.4-11.8,14-19.1,7.6
				c-6.1-5.4-4.3-17.5-3.4-24.8C1692.9,1008.6,1690.5,1008.7,1690.3,1010.2L1690.3,1010.2z"/>
		</g>
		<g>
			<path class="st12" d="M1691.6,1018.2c1.1,0.2,2.2,0.3,3.4,0.5c0.6,0.1,1.3-0.2,1.5-0.8c0.2-0.6-0.2-1.4-0.8-1.5
				c-1.1-0.2-2.2-0.3-3.4-0.5c-0.6-0.1-1.3,0.2-1.5,0.8C1690.6,1017.2,1691,1018.1,1691.6,1018.2L1691.6,1018.2z"/>
		</g>
		<g>
			<path class="st12" d="M1699.2,1018.3c1.7,0,3.4,0,5.1-0.1c1.5,0,1.6-2.4,0-2.4c-1.7,0-3.4,0-5.1,0.1
				C1697.6,1015.9,1697.6,1018.3,1699.2,1018.3L1699.2,1018.3z"/>
		</g>
		<g>
			<path class="st12" d="M1708.6,1018.3c2.7-0.1,5.5-0.2,8.2-0.3c1.5-0.1,1.6-2.5,0-2.4c-2.7,0.1-5.5,0.2-8.2,0.3
				C1707,1015.9,1707,1018.3,1708.6,1018.3L1708.6,1018.3z"/>
		</g>
		<g>
			<path class="st12" d="M1771.9,1006.5c-1.2,8-1.9,19.5,3.6,26.3c5,6.1,13.3,3.7,18.5-0.7c2.9-2.4,4.6-5.4,5.2-9.2
				c0.7-4.2,1.6-10.6,0.2-14.8c-0.9-2.9-3-2.4-5.9-2.4c-6.9-0.1-13.7,0.1-20.6,0.5c-1.5,0.1-1.6,2.5,0,2.4
				c6.3-0.3,13.3-1.3,19.5-0.5c5.2,0.7,5,3.5,4.9,8.1c-0.1,3.2-0.1,6.8-1.5,9.7c-3.4,7-14.9,12-19.6,3.6c-3.6-6.4-3.1-15.5-2-22.4
				C1774.5,1005.6,1772.1,1005,1771.9,1006.5L1771.9,1006.5z"/>
		</g>
		<g>
			<path class="st12" d="M1773.3,1015.2c1.6,0.2,3.2,0.4,4.8,0.5c1.5,0.2,1.5-2.2,0-2.4c-1.6-0.2-3.2-0.4-4.8-0.5
				C1771.8,1012.7,1771.8,1015.1,1773.3,1015.2L1773.3,1015.2z"/>
		</g>
		<g>
			<path class="st12" d="M1783.2,1016.9c1.7,0,3.4,0,5.1,0c1.5,0,1.6-2.4,0-2.4c-1.7,0-3.4,0-5.1,0
				C1781.6,1014.5,1781.6,1016.9,1783.2,1016.9L1783.2,1016.9z"/>
		</g>
		<g>
			<path class="st12" d="M1791.9,1016.6c1.6,0,3.2,0,4.8,0c1.5,0,1.6-2.4,0-2.4c-1.6,0-3.2,0-4.8,0
				C1790.3,1014.2,1790.3,1016.6,1791.9,1016.6L1791.9,1016.6z"/>
		</g>
		<g>
			<path class="st12" d="M1679.9,1167.9c2.3,1.3,4.7,2,7.3,2.1c1.5,0.1,1.5-2.3,0-2.4c-2.2-0.1-4.2-0.7-6.1-1.8
				C1679.7,1165,1678.5,1167.1,1679.9,1167.9L1679.9,1167.9z"/>
		</g>
		<g>
			<path class="st12" d="M1692.7,1170.2c3.1,0,6.3,0,9.4-0.1c1.5,0,1.6-2.4,0-2.4c-3.1,0-6.3,0-9.4,0.1
				C1691.2,1167.8,1691.2,1170.2,1692.7,1170.2L1692.7,1170.2z"/>
		</g>
		<g>
			<path class="st12" d="M1707.2,1170.9c3.1,0.2,6.3,0.4,9.4,0.4c1.5,0,1.6-2.4,0-2.4c-3.1,0-6.3-0.1-9.4-0.4
				C1705.6,1168.3,1705.6,1170.7,1707.2,1170.9L1707.2,1170.9z"/>
		</g>
		<g>
			<path class="st12" d="M1722.3,1171.9c3.2,0.6,6.6,0.8,9.9,0.6c1.5-0.1,1.5-2.5,0-2.4c-3,0.2-6.2,0-9.2-0.5
				C1721.4,1169.3,1720.8,1171.6,1722.3,1171.9L1722.3,1171.9z"/>
		</g>
		<g>
			<path class="st12" d="M1741.1,1171.3c4-0.1,8-0.2,12-0.4c1.5,0,1.6-2.5,0-2.4c-4,0.1-8,0.2-12,0.4
				C1739.6,1168.9,1739.6,1171.3,1741.1,1171.3L1741.1,1171.3z"/>
		</g>
		<g>
			<path class="st12" d="M1758.7,1171c2.6,0.3,5.2,0.1,7.8-0.4c1.5-0.3,0.9-2.7-0.6-2.3c-2.4,0.5-4.7,0.6-7.1,0.3
				C1757.2,1168.4,1757.2,1170.8,1758.7,1171L1758.7,1171z"/>
		</g>
		<g>
			<path class="st12" d="M1771.7,1169c2.7,0.6,5.5,0.7,8.2,0.4c1.5-0.2,1.5-2.6,0-2.4c-2.6,0.3-5.1,0.2-7.6-0.3
				C1770.8,1166.4,1770.1,1168.7,1771.7,1169L1771.7,1169z"/>
		</g>
		<g>
			<path class="st12" d="M1787.3,1168.7c2.3-0.1,4.7-0.2,7-0.3c1.5-0.1,1.6-2.5,0-2.4c-2.3,0.1-4.7,0.2-7,0.3
				C1785.8,1166.4,1785.8,1168.8,1787.3,1168.7L1787.3,1168.7z"/>
		</g>
		<g>
			<path class="st12" d="M1800.8,1167.6c2.8-0.2,5.5-0.5,8.2-1.2c1.5-0.3,0.9-2.7-0.6-2.3c-2.5,0.6-5,0.9-7.6,1.1
				C1799.3,1165.2,1799.3,1167.7,1800.8,1167.6L1800.8,1167.6z"/>
		</g>
		<g>
			<path class="st12" d="M1815,1165.9c2.2,0.2,4.4-0.3,6.4-1.3c1.4-0.7,0.2-2.8-1.2-2.1c-1.6,0.8-3.3,1.1-5.2,1
				C1813.5,1163.3,1813.5,1165.8,1815,1165.9L1815,1165.9z"/>
		</g>
		<g>
			<path class="st12" d="M1828,1162.4c2.5-1.1,5.1-2.1,7.6-3.2c1.4-0.6,0.8-2.9-0.6-2.3c-2.5,1-5.1,2.1-7.6,3.2
				C1825.9,1160.7,1826.5,1163,1828,1162.4L1828,1162.4z"/>
		</g>
		<path class="st101" d="M1767.5,864.1c2.1,3.8,2.2,8.8-0.2,12.3c-2.5,3.5-7.7,5.1-11.4,2.9c-1.2-0.7-2.2-1.7-3.5-1.8
			c-2.5-0.3-4.2,2.3-5.3,4.5c-1.1,2.2-2.9,4.8-5.4,4.3c-1.7-0.3-2.9-2-4.5-2.4c-2.3-0.6-4.4,1.3-5.8,3.2c-1.4,1.8-3.1,4-5.4,4.1
			c-2.1,0.1-4-1.6-4.7-3.5c-0.7-2-0.5-4.2-0.1-6.2c1.7-8.8,6.7-17.1,14.3-22c7.6-4.9,17.7-5.8,25.7-1.7c3.1,1.6,5.9,4.2,6.7,7.5
			L1767.5,864.1z"/>
		<path class="st104" d="M1721.9,932.8c-11.5-0.6-36.4,3.4-61,16.6c-16,8.6-32.1,18.5-45.5,30.8c-5.2,4.8-10.8,12-14.8,14.9
			c11.4,19.2,25.7,39.4,39.9,56.5c9.8-6.9,20.6-12.4,32-16c-0.6-20.6,5.4-41.4,16.9-58.6c10-15,24.1-27.3,32.1-43.5L1721.9,932.8z"
			/>
		<path class="st104" d="M1795.1,935.5c25.7,0,63.2,9.3,74.4,13.5c1.4,19.4,1.7,49.3,7.8,67.8c-19.6,8.8-40,11.8-53.2,28.8
			C1827.5,1012.5,1800.7,968.3,1795.1,935.5L1795.1,935.5z"/>
		<path class="st101" d="M1937.7,897.3c0.4-12.9,10.5-26,22.8-29.9c7.5-2.3,16.7-1.4,22,4.5c3.8,4.2,7.5,11,8.2,16.7
			c1.5,12.4-1.9,25.8-11.1,34.3C1964.5,916.2,1950.4,907.6,1937.7,897.3L1937.7,897.3z"/>
		<g>
			<path class="st101" d="M1974.2,885.3c7.8-19.4,12.9-39.9,16.6-60.5c3.5-19.5,6-39.4,5.7-59.3c-0.1-5-7.9-5-7.8,0
				c0.6,39.3-7.3,81.3-22,117.7C1964.7,887.9,1972.3,889.9,1974.2,885.3L1974.2,885.3z"/>
		</g>
		<g>
			<path class="st101" d="M1975.2,736.5c0.2,12.9,4.2,33.4,21.7,31.4c12.3-1.4,18.2-13.5,21.9-23.8c1.7-4.8-5.9-6.8-7.5-2.1
				c-2.4,6.6-5.6,15-12.9,17.5c-13.5,4.5-15.2-14.6-15.3-23C1982.9,731.4,1975.1,731.4,1975.2,736.5L1975.2,736.5z"/>
		</g>
	</g>
	<g>
		<g>
			<path class="st4" d="M856.2,1255.5c6.1,10,12.3,20,18.4,30c1.7,2.8,3.5,6.2,2.1,9.2c-0.8,1.7-5.4-2-7.3-4.2
				c-1.9-2.2-3.6-4.7-6.1-6.2c-0.7-0.4-1.7-0.8-2.4-0.3c-0.3,0.2-0.5,0.5-0.6,0.8c-0.9,2.1-1.1,4.3-0.9,6.6
				c1.2,11.4,1.8,22.9,1.8,34.4c0,1.4-0.2,2.8-0.4,4.1c-0.1,0.8-0.4,1.7-1.4,2c-0.7,0.2-1.4,0-1.9-0.4c-1.1-0.9-1.3-2.3-1.6-3.6
				c-0.9-5.5-4.3-23.1-5.4-22.8c-0.7,0.2,3.6,22.9,1.7,30.6c-0.2,0.8-0.9,1.5-1.7,1.5c-0.9,0-1.3-0.7-1.6-1.4
				c-2.9-6.4-7.7-29-8.1-27.8c-2.5,6.9,4.1,19.9,1.4,27.5c-0.4,1.1-0.9,2-2,2.2c-4.4,0.5-8.1-30.1-8.9-29.5
				c-1.3,1.2-1.2,17.4-2.5,21.5c-0.3,0.9-1.1,1.5-2,1.6c-1.1,0.1-1.6-0.8-2-1.6c-0.4-1-0.7-2-0.9-3.1c-4.6-22.2-7.9-45.1-5.6-67.7
				c0.1-0.6,0.1-1.2,0.5-1.6c0.3-0.4,0.7-0.6,1.1-0.8c6.3-3,13.5-4.2,20.4-3.2c5.6,0.7,8.9,3.6,14.1,1.3L856.2,1255.5z"/>
			<path class="st4" d="M883.1,1169.3c17.1,141.1,28.8,282.8,35.2,424.9c14.4,0.6,28.9,1.2,43.3,1.8c1.7-132.8,5.7-266.6,12-399.3
				c4.9,1.2,4.9,1.2,28.4,0.3c15.1,57.7,22.2,225.2,26.2,292.7c0.2,4.1,39.1,0.5,52.8,0.4c-6.8-122.6-3.2-139.3,1.5-262
				c0.8-22.5,4.5-54.5,1.2-76.7c-34.2-9.3-72.6-3-107.8,0.4c-18.2,1.7-36.3,5.2-54.3,8.6c-12.3,2.4-24.7,4.7-37,7.1L883.1,1169.3z"
				/>
			<path class="st106" d="M883,1179.3c1,12.9-0.4,20.8,0,33.7c1.8,57.4-0.1,148.5,5.7,216.7c27.7-0.5,71,2.2,96.3-1.3
				c-0.6-59.5-1.1-119-1.7-178.4c-0.1-8.9-0.2,9.4,1.3,0.7c13.5,63.9,16.7,109.3,27.1,177.2c28,1.5,56.2-0.6,83.7-6.2
				c0.9-50-8.2-124.6-7.5-187.1c0.3-24.5,2.7-49.2-2-73.2c-0.4-1.8-0.9-3.8-2.4-4.8c-1-0.7-2.4-0.8-3.6-0.8c-44-2.1-88-4.2-132-4
				c-16.6,0-33.2,0.4-49.5,3.2c-4.5,0.8-9.1,1.8-12.7,4.5c-6.4,5-7.8,15.6-2.7,22.1L883,1179.3z"/>
			<path class="st4" d="M983.5,762.1c-6.6-2-13.7,2.4-17.2,8.4c-3.5,6-4.3,13.3-4.9,20.3c-0.5,5.8-1,11.7-0.1,17.5
				c1,5.8,3.6,11.4,8.3,14.8c6,4.4,14.1,4.1,21.2,2.2c2.3-0.6,4.7-1.5,6.5-3.2c1.4-1.3,2.2-3.1,3-4.8c3.6-8.5,4.9-17.8,5.3-27
				c0.2-5.3,0.2-10.8-1.8-15.8c-3.5-8.7-13.3-14.2-22.4-12.5L983.5,762.1z"/>
			<path class="st4" d="M963.8,800.6c-3.1-1.7-7.4-0.5-9.2,2.6c-1.8,3.1-0.8,7.6,2.2,9.5c3,2,7.4,1.1,9.4-1.9L963.8,800.6z"/>
			<path class="st4" d="M1002.4,802.9c2.3-2.6,7.1-1.8,8.7,1.3c1.7,3.1,0.2,7.3-2.8,9.1c-3,1.7-7,1.1-9.6-1.2L1002.4,802.9z"/>
			<path class="st4" d="M970.7,821.3c0.8,7.3,0.3,17-0.1,24.4c-11.6,0.6-17.5,3.9-25.7,12.4c28.4,22.4,46.9,1.2,70.3,1.7
				c-9.8-6.3-13.3-10.4-24.4-13.6c0.1-8.5,0.7-17.7,0.6-26.2L970.7,821.3z"/>
			<path class="st107" d="M952.3,849.8c4.5,10.6,13,15.9,24.3,15.9c11.3-0.1,22.2-7.6,26.5-18.2c20.5,4.8,40.5,11.7,59.7,20.5
				c5.8,2.7,11.8,5.7,15.6,10.9c4.3,5.7,5.4,13.1,6.4,20.2c12.1,90.9,6.6,228.5,3.7,320.2c-42.4,8.5-74.7,10-117.9,7.4
				c-28.6-1.7-56.9-10.9-87.5-13.6c-3.9-82.8-19.7-171.6-14.2-254.2c1-14.2,1-60.4,7.8-72.8C888.6,864.3,928.1,853.3,952.3,849.8
				L952.3,849.8z"/>
			<path class="st108" d="M875.3,886.9c-18.3,33.6-33.2,61.9-43.4,98.9c-23.3,84.8-30.7,191.1-24.9,279.4c13,1.5,44.7-1,57.6-3.4
				c0.7-74.5-8.8-154.7,18.1-223.9c2.5-6.3-3-111.7-7.2-150.9L875.3,886.9z"/>
			<path class="st108" d="M937.6,849.9c-0.9,6.3,2.3,14.1,6.1,19.2c9.9,13.1,26.4,15.7,42.3,12.8c15.9-2.9,33.1-13.6,33.3-30.2
				c-4.6-0.8-11.9-2.5-16.2-4.3c-5,8.5-12.7,20.2-34.7,17c-6.8-1-14.1-9.2-15.2-16.1C949.4,848.7,941.3,848.6,937.6,849.9
				L937.6,849.9z"/>
			<path class="st108" d="M875.4,1205.1c0,6.7-0.2,16.1,1.1,22.6c23.1,4.6,46.7,6.1,70.2,7.5c49,2.9,99,5.6,146.2-8.2
				c0.1-6.8,0.3-13.6,0.4-20.4c-43,13.4-88.8,12.5-133.7,9.9C931.3,1214.7,902.9,1212.3,875.4,1205.1L875.4,1205.1z"/>
			<g>
				<path class="st109" d="M966.3,797.1c1.2,4.6,7.5,4.6,8.6-0.1c0.2-0.7-0.9-1-1.1-0.3c-0.8,3.5-5.4,3.7-6.4,0.1
					C967.2,796.1,966.1,796.4,966.3,797.1L966.3,797.1z"/>
			</g>
			<g>
				<path class="st109" d="M987.3,797.1c1.1,4.8,7.4,5.6,9.5,1.1c0.2-0.4,0-0.8-0.5-0.9c-0.2,0-0.4,0-0.5-0.1
					c-0.7-0.1-0.7,1.1,0,1.2c0.2,0,0.4,0,0.5,0.1c-0.2-0.3-0.3-0.6-0.5-0.9c-1.7,3.6-6.5,3.1-7.4-0.8
					C988.3,796.1,987.2,796.4,987.3,797.1L987.3,797.1z"/>
			</g>
			<g>
				<path class="st109" d="M979.6,798.4c0.1,4,0,8.1,0.4,12.2c0.2,2.1,1.2,1.8,3.2,1.8c0.7,0,0.7-1.2,0-1.2c-0.2,0-0.4,0-0.5,0
					c-0.7,0-0.7,1.2,0,1.2c0.2,0,0.4,0,0.5,0c0.7,0,0.7-1.2,0-1.2c-0.7,0-1.4,0-2-0.1c0-0.7,0-1.4-0.1-2.1c0-1.1-0.1-2.1-0.1-3.2
					c-0.1-2.5-0.1-4.9-0.2-7.4C980.7,797.6,979.6,797.6,979.6,798.4L979.6,798.4z"/>
			</g>
			<path class="st110" d="M880.7,1406.9c1.5,9.3,1.6,23.6,3.1,32.9c7.9,0.1,80.6,3,105.3-1.3c0.7-10.3-1.3-20.5-2.1-30.9
				C951.6,1407.3,916.2,1407.1,880.7,1406.9L880.7,1406.9z"/>
			<path class="st110" d="M1002.5,1405.7c2.3,11.1,2.4,22.1,5.7,32.9c30.8,2.7,62.5,0.5,93.2-3c0.9-0.1,2-0.3,2.4-1.1
				c0.3-0.5,0.2-1.2,0.2-1.7c-0.8-9.7-1.6-19.4-2.4-29.1c-0.1-0.8-0.2-1.6-0.8-2.1c-0.4-0.3-1-0.3-1.5-0.3c-24.5,0.6-48,3-72.5,3.6
				C1018.9,1405.1,1010.4,1406.9,1002.5,1405.7L1002.5,1405.7z"/>
			<g>
				<path class="st111" d="M964.2,1582.7c-0.7,7.2-1.5,14.3-2.4,21.5c-0.1,0.6-0.2,1.2-0.6,1.6c-0.3,0.3-0.8,0.4-1.3,0.5
					c-5.4,1-10.8,1.9-16.3,2c-3,0-6-0.2-9-0.5c-7.5-0.6-12.4,1.1-19.9,0.5c0.3-8.7-0.3-18.2,0.7-26.9
					C931.3,1580.7,948.9,1582.4,964.2,1582.7L964.2,1582.7z"/>
				<g>
					<path class="st12" d="M959.3,1598.9c0.8-5.5,1-10.9,0.4-16.4c-0.1-1-1.7-1-1.6,0c0.6,5.4,0.5,10.7-0.3,16
						C957.6,1599.4,959.1,1599.9,959.3,1598.9L959.3,1598.9z"/>
				</g>
				<g>
					<path class="st12" d="M953.1,1581.9c0.2,5.8-0.5,11.5-2.1,17.1c-0.3,1,1.2,1.4,1.5,0.4c1.7-5.8,2.4-11.6,2.1-17.6
						C954.6,1580.8,953,1580.8,953.1,1581.9L953.1,1581.9z"/>
				</g>
				<g>
					<path class="st12" d="M948.3,1598.6c-0.2-5.2-0.5-10.4-0.7-15.6c0-1-1.6-1-1.6,0c0.2,5.2,0.5,10.4,0.7,15.6
						C946.8,1599.6,948.4,1599.6,948.3,1598.6L948.3,1598.6z"/>
				</g>
				<g>
					<path class="st12" d="M942.9,1583.3c-0.7,5-1.3,10-2,15c-0.1,1,1.4,1,1.6,0c0.7-5,1.3-10,2-15
						C944.6,1582.3,943,1582.3,942.9,1583.3L942.9,1583.3z"/>
				</g>
				<g>
					<path class="st12" d="M939.1,1598.6c-0.1-5.3-0.2-10.6-0.4-15.9c0-1-1.6-1-1.6,0c0.1,5.3,0.2,10.6,0.4,15.9
						C937.6,1599.6,939.2,1599.6,939.1,1598.6L939.1,1598.6z"/>
				</g>
				<g>
					<path class="st12" d="M931.9,1582.4c-0.4,5.2-0.8,10.4-1.2,15.6c-0.1,1,1.5,1,1.6,0c0.4-5.2,0.8-10.4,1.2-15.6
						C933.5,1581.4,932,1581.4,931.9,1582.4L931.9,1582.4z"/>
				</g>
				<g>
					<path class="st12" d="M928.5,1599.5c-0.3-5.8-0.6-11.6-0.8-17.3c0-1-1.6-1-1.6,0c0.3,5.8,0.6,11.6,0.8,17.3
						C927,1600.5,928.5,1600.5,928.5,1599.5L928.5,1599.5z"/>
				</g>
				<g>
					<path class="st12" d="M921.6,1582.2c-0.6,5.2-1.3,10.4-1.9,15.6c-0.1,1,1.4,1,1.6,0c0.6-5.2,1.3-10.4,1.9-15.6
						C923.3,1581.1,921.8,1581.1,921.6,1582.2L921.6,1582.2z"/>
				</g>
				<g>
					<path class="st112" d="M963.3,1664.8c1.3,5.3,1.1,11-0.7,16.2c-0.9-1.8-2.7-3.2-4.7-3.2c-2,0.1-3.8,1.9-3.7,3.9
						c-2.4-0.5-3.4-4.6-5.8-4.1c-0.6,0.1-1.2,0.6-1.7,1c-1.6,1.4-3.2,2.8-4.8,4.3c-0.7-1.5-1.7-2.9-2.9-4.1
						c-1.1,1.8-2.6,3.2-4.4,4.3c-0.4,0.3-0.9,0.5-1.4,0.5c-1.7-0.1-2-3-3.6-3.6c-2.2-0.9-3.7,3.1-6,3.2c-2.3,0.2-3.7-3.4-6-3.2
						c-2.3,0.2-3,3.7-5.3,4.2c-0.9-1.2-1.8-2.5-3.1-3.3c-1.3-0.7-3.1-0.8-4.2,0.3c-0.7,0.7-1.1,1.9-2,2.4c-1.5,0.9-3.2-0.8-4.3-2.2
						c-1.1-1.4-2.9-3-4.3-1.9c-1.1,0.8-1.1,2.9-2.4,3.4c-1.7,0.7-2.7-2.2-4.3-3c-2.9-1.5-5.5,3.7-8.8,3.4c-1.6-0.2-2.7-1.6-4.1-2.4
						c-1.4-0.8-3.7-0.4-3.8,1.2c-1.9-3.3-7.2-3.7-9.5-0.6c-1.5-4.4-1.7-9.3-0.5-13.9c11.2-1.2,22.5-1.4,33.7-0.6
						c4,0.3,8.1,0.7,12.1,0.8c15.2,0.4,30.3-3.3,45.5-2.9c3.6,0.1,7.2,0.4,10.8,0.2L963.3,1664.8z"/>
					<path class="st113" d="M964.4,1599.2c0.6,6.8-3.5,22.5-2.5,41.4c0.1,2.7,5,14.8,2.3,26.6c-1.2,5.1-8.6,5.4-14,5.3
						c-26.8-0.5-63,2.7-89.7,0c-4-7.2,1.6-20.1,8.2-25.1c6.3-4.8,26.9-6.7,34.9-6.6c5.9,0.1,10.5-32.8,8.5-42.9
						c17.6,1.5,35.2,2,52.9,1.5L964.4,1599.2z"/>
					<g>
						<path class="st12" d="M880.1,1643.8c4,7.4,3.2,19.8,1.6,27.8c-0.2,1,1.3,1.4,1.5,0.4c1.7-8.6,2.6-21.1-1.8-29.1
							C881,1642.1,879.6,1642.9,880.1,1643.8L880.1,1643.8z"/>
					</g>
					<g>
						<path class="st12" d="M923.2,1600.6c-0.8,6.8-1.7,13.5-2.7,20.3c-0.7,5.1-0.9,11.2-2.5,16c-3.8,11.4-25.1,9.3-34.9,10.2
							c-1,0.1-1,1.7,0,1.6c7.7-0.7,15.4-1.1,23.1-2.1c3.8-0.5,9.6-1,12.1-4.6c2.9-4.4,2.6-12.7,3.3-17.8c1.2-7.9,2.2-15.7,3.1-23.6
							C924.9,1599.6,923.3,1599.6,923.2,1600.6L923.2,1600.6z"/>
					</g>
					<g>
						<path class="st12" d="M921.3,1608.4c-2.3,1.9-4.8,3.5-7.5,4.7c-0.9,0.4-0.1,1.8,0.8,1.4c2.8-1.3,5.4-3,7.8-5
							C923.2,1608.9,922.1,1607.8,921.3,1608.4L921.3,1608.4z"/>
					</g>
					<g>
						<path class="st12" d="M912.7,1608.7c2,4.4,4.5,8.5,7.5,12.2c0.6,0.8,1.8-0.3,1.1-1.1c-3-3.6-5.4-7.6-7.3-11.9
							C913.6,1607,912.2,1607.8,912.7,1608.7L912.7,1608.7z"/>
					</g>
					<g>
						<path class="st12" d="M919.9,1619.7c-2.8,2.4-5.9,4.1-9.4,5.2c-1,0.3-0.6,1.9,0.4,1.6c3.7-1.2,7.1-3.1,10.1-5.6
							C921.7,1620.2,920.6,1619,919.9,1619.7L919.9,1619.7z"/>
					</g>
					<g>
						<path class="st12" d="M910.7,1621.6c1.7,4.4,4.3,8.2,7.8,11.4c0.7,0.7,1.9-0.4,1.1-1.1c-3.2-3-5.7-6.6-7.3-10.7
							C911.8,1620.2,910.3,1620.6,910.7,1621.6L910.7,1621.6z"/>
					</g>
					<g>
						<path class="st12" d="M917.6,1631.8c-2.8,2.3-6.1,3.4-9.7,3.1c-1-0.1-1,1.5,0,1.6c4,0.3,7.7-1,10.8-3.6
							C919.5,1632.3,918.4,1631.2,917.6,1631.8L917.6,1631.8z"/>
					</g>
					<g>
						<path class="st12" d="M908,1634.5c1.1,1.9,2.2,3.8,3.3,5.6c0.7,1.1,1.2,2.6,2.7,2.7c1,0,1-1.6,0-1.6c-0.7,0-2-3.1-2.4-3.7
							c-0.8-1.3-1.5-2.6-2.3-3.8C908.9,1632.8,907.5,1633.6,908,1634.5L908,1634.5z"/>
					</g>
					<g>
						<path class="st12" d="M912.9,1642.8c-3.8,0.5-7.4-0.1-10.7-2c-0.9-0.5-1.7,0.9-0.8,1.4c3.6,2,7.5,2.8,11.5,2.2
							C913.9,1644.2,913.9,1642.6,912.9,1642.8L912.9,1642.8z"/>
					</g>
					<g>
						<path class="st12" d="M902.7,1640.7c-0.6,1.8-1.7,3.3-3.1,4.5c-0.8,0.7,0.3,1.8,1.1,1.1c1.6-1.4,2.8-3.2,3.5-5.3
							C904.6,1640.2,903.1,1639.7,902.7,1640.7L902.7,1640.7z"/>
					</g>
					<g>
						<path class="st12" d="M899.4,1645.5c-2.5-1.1-4.9-2.2-7.4-3.3c-0.9-0.4-1.7,1-0.8,1.4c2.5,1.1,4.9,2.2,7.4,3.3
							C899.5,1647.3,900.3,1645.9,899.4,1645.5L899.4,1645.5z"/>
					</g>
					<g>
						<path class="st12" d="M893.9,1641.6c-0.6,2.1-1.6,4.1-2.8,6c-0.6,0.9,0.8,1.7,1.4,0.8c1.3-2,2.3-4.1,3-6.4
							C895.7,1641,894.2,1640.6,893.9,1641.6L893.9,1641.6z"/>
					</g>
					<g>
						<path class="st12" d="M963,1611.3c-13.4,0.3-26.8,0-40.2-0.9c-1-0.1-1,1.5,0,1.6c13.4,0.9,26.8,1.2,40.2,0.9
							C964.1,1612.9,964.1,1611.3,963,1611.3L963,1611.3z"/>
					</g>
					<g>
						<path class="st12" d="M963.1,1663.1c-13.3,2.5-26.7,3.7-40.2,3.4c-5.9-0.1-11.8-0.7-17.7-0.3c-7.3,0.5-14.1,1.9-21.4-0.2
							c-1-0.3-1.4,1.3-0.4,1.6c6.5,1.8,12.5,1.1,19.1,0.5c6.9-0.6,13.6-0.2,20.5,0c13.6,0.3,27.2-0.9,40.6-3.5
							C964.5,1664.5,964.1,1663,963.1,1663.1L963.1,1663.1z"/>
					</g>
				</g>
			</g>
			<g>
				<path class="st12" d="M883,1415.3c3.7,0.4,7.3,1,10.8,2c1,0.3,1.4-1.3,0.4-1.6c-3.7-1-7.4-1.7-11.2-2.1
					C881.9,1413.6,882,1415.2,883,1415.3L883,1415.3z"/>
			</g>
			<g>
				<path class="st12" d="M899.6,1416.5c4.1,0,8.1,0,12.2,0c1,0,1-1.6,0-1.6c-4.1,0-8.1,0-12.2,0
					C898.6,1414.9,898.6,1416.5,899.6,1416.5L899.6,1416.5z"/>
			</g>
			<g>
				<path class="st12" d="M918.4,1416.5c4.1-0.4,8.1-0.8,12.2-1.2c1-0.1,1-1.7,0-1.6c-4.1,0.4-8.1,0.8-12.2,1.2
					C917.4,1415,917.4,1416.6,918.4,1416.5L918.4,1416.5z"/>
			</g>
			<g>
				<path class="st12" d="M938.9,1416.2c3.5,0.4,7,0.5,10.6,0.3c1-0.1,1-1.7,0-1.6c-3.5,0.2-7,0.2-10.6-0.3
					C937.9,1414.5,937.9,1416.1,938.9,1416.2L938.9,1416.2z"/>
			</g>
			<g>
				<path class="st12" d="M957.2,1416.4c3.9,0.4,7.8,0.7,11.6,1.1c1,0.1,1-1.5,0-1.6c-3.9-0.4-7.8-0.7-11.6-1.1
					C956.2,1414.7,956.2,1416.3,957.2,1416.4L957.2,1416.4z"/>
			</g>
			<g>
				<path class="st12" d="M978.3,1417.7c3.6,0.2,7.2,0,10.7-0.7c1-0.2,0.6-1.7-0.4-1.6c-3.4,0.6-6.8,0.8-10.3,0.6
					C977.3,1416,977.3,1417.6,978.3,1417.7L978.3,1417.7z"/>
			</g>
			<g>
				<path class="st12" d="M1004.3,1415.4c3.3,0,6.5,0.2,9.8,0.7c1,0.1,1.4-1.4,0.4-1.6c-3.4-0.5-6.8-0.7-10.2-0.7
					C1003.3,1413.8,1003.3,1415.4,1004.3,1415.4L1004.3,1415.4z"/>
			</g>
			<g>
				<path class="st12" d="M1022.2,1414.6c4.1-0.6,8.2-1.3,12.2-1.9c1-0.2,0.6-1.7-0.4-1.6c-4.1,0.6-8.2,1.3-12.2,1.9
					C1020.8,1413.2,1021.2,1414.8,1022.2,1414.6L1022.2,1414.6z"/>
			</g>
			<g>
				<path class="st12" d="M1041.4,1412.2c3.8,0.4,7.6,0.1,11.3-0.8c1-0.2,0.6-1.8-0.4-1.6c-3.6,0.9-7.2,1.2-10.9,0.8
					C1040.4,1410.5,1040.4,1412.1,1041.4,1412.2L1041.4,1412.2z"/>
			</g>
			<g>
				<path class="st12" d="M1060.8,1412c3.3-0.2,6.6-0.5,10-0.7c1-0.1,1-1.7,0-1.6c-3.3,0.2-6.6,0.5-10,0.7
					C1059.8,1410.4,1059.8,1412.1,1060.8,1412L1060.8,1412z"/>
			</g>
			<g>
				<path class="st12" d="M1077.5,1411.4c4.2,0,8.3-0.4,12.4-1.2c1-0.2,0.6-1.7-0.4-1.6c-4,0.7-8,1.1-12,1.1
					C1076.4,1409.8,1076.4,1411.5,1077.5,1411.4L1077.5,1411.4z"/>
			</g>
			<g>
				<path class="st12" d="M1096.3,1411c2-0.2,4.1-0.5,6.1-0.7c1-0.1,1-1.7,0-1.6c-2,0.2-4.1,0.5-6.1,0.7
					C1095.3,1409.5,1095.3,1411.1,1096.3,1411L1096.3,1411z"/>
			</g>
			<g>
				<path class="st12" d="M888.8,1231.1c0.6,4.9,0.9,9.9,0.7,14.8c0,1,1.5,1,1.6,0c0.2-5-0.1-9.9-0.7-14.8
					C890.2,1230.1,888.7,1230,888.8,1231.1L888.8,1231.1z"/>
			</g>
			<g>
				<path class="st12" d="M890,1253.9c-0.3,3.9-0.1,7.7,0.5,11.6c0.1,1,1.7,0.6,1.5-0.4c-0.5-3.7-0.7-7.4-0.4-11.2
					C891.6,1252.8,890,1252.8,890,1253.9L890,1253.9z"/>
			</g>
			<g>
				<path class="st12" d="M891,1274.3c0,4.4,0,8.7,0,13.1c0,1,1.6,1,1.6,0c0-4.4,0-8.7,0-13.1C892.6,1273.3,891,1273.3,891,1274.3
					L891,1274.3z"/>
			</g>
			<g>
				<path class="st12" d="M891.6,1295.3c0,5.1,0,10.2,0,15.3c0,1,1.6,1,1.6,0c0-5.1,0-10.2,0-15.3
					C893.1,1294.3,891.6,1294.3,891.6,1295.3L891.6,1295.3z"/>
			</g>
			<g>
				<path class="st12" d="M891.6,1319.2c0,4.4,0,8.7,0,13.1c0,1,1.6,1,1.6,0c0-4.4,0-8.7,0-13.1
					C893.1,1318.1,891.6,1318.1,891.6,1319.2L891.6,1319.2z"/>
			</g>
			<g>
				<path class="st12" d="M891.6,1340.2c0,4.5,0,9.1,0,13.6c0,1,1.6,1,1.6,0c0-4.5,0-9.1,0-13.6
					C893.1,1339.2,891.6,1339.2,891.6,1340.2L891.6,1340.2z"/>
			</g>
			<g>
				<path class="st12" d="M892.1,1365.2c0,4.2,0,8.3,0,12.5c0,1,1.6,1,1.6,0c0-4.2,0-8.3,0-12.5
					C893.7,1364.1,892.1,1364.1,892.1,1365.2L892.1,1365.2z"/>
			</g>
			<g>
				<path class="st12" d="M893.2,1390.2c0.2,5.3,0.1,10.6-0.2,15.9c-0.1,1,1.5,1,1.6,0c0.3-5.3,0.4-10.6,0.2-15.9
					C894.7,1389.1,893.2,1389.1,893.2,1390.2L893.2,1390.2z"/>
			</g>
			<g>
				<path class="st12" d="M1079.4,1231.1c0,4,0,8,0,11.9c0,1,1.6,1,1.6,0c0-4,0-8,0-11.9C1081,1230.1,1079.4,1230.1,1079.4,1231.1
					L1079.4,1231.1z"/>
			</g>
			<g>
				<path class="st12" d="M1079.4,1251.6c0,5.1,0,10.2,0,15.3c0,1,1.6,1,1.6,0c0-5.1,0-10.2,0-15.3
					C1081,1250.6,1079.4,1250.6,1079.4,1251.6L1079.4,1251.6z"/>
			</g>
			<g>
				<path class="st12" d="M1079.5,1276.6c0.2,4.4,0.4,8.7,0.7,13.1c0.1,1,1.6,1,1.6,0c-0.2-4.4-0.4-8.7-0.7-13.1
					C1081,1275.5,1079.5,1275.5,1079.5,1276.6L1079.5,1276.6z"/>
			</g>
			<g>
				<path class="st12" d="M1081.1,1300.4c0,5.1,0,10.2,0,15.3c0,1,1.6,1,1.6,0c0-5.1,0-10.2,0-15.3
					C1082.7,1299.4,1081.1,1299.4,1081.1,1300.4L1081.1,1300.4z"/>
			</g>
			<g>
				<path class="st12" d="M1082.3,1327.1c0.5,5.1,0.7,10.2,0.4,15.3c0,1,1.5,1,1.6,0c0.2-5.1,0.1-10.2-0.4-15.3
					C1083.8,1326.1,1082.2,1326.1,1082.3,1327.1L1082.3,1327.1z"/>
			</g>
			<g>
				<path class="st12" d="M1083.5,1356.7c0.3,3.6,0.5,7.2,0.8,10.8c0.1,1,1.6,1,1.6,0c-0.3-3.6-0.5-7.2-0.8-10.8
					C1085,1355.6,1083.4,1355.6,1083.5,1356.7L1083.5,1356.7z"/>
			</g>
			<g>
				<path class="st12" d="M1085.4,1379.4c0.5,7.4,1,14.7,1.5,22.1c0.1,1,1.6,1,1.6,0c-0.5-7.4-1-14.7-1.5-22.1
					C1086.9,1378.4,1085.3,1378.4,1085.4,1379.4L1085.4,1379.4z"/>
			</g>
			<path class="st108" d="M1074.4,874.7c14.1,4,69.9,25.7,83.8,54.1c38.5,78.8-1.2,80.9-76.7,54.7
				C1075.2,981.3,1074.4,874.7,1074.4,874.7z"/>
			<path class="st112" d="M1026,1471.1c-0.5,4.6-1.9,31.7,0.3,36.2c4.7,9.4,18.5,21.2,24.4,26.5c1.6,1.5,3.5,3,5.6,2.9
				c2.2-0.1,3.9-1.8,5.4-3.3c4-4.2,7.8-8.5,11.5-12.9c3.2-3.9,6.4-7.9,7.9-12.8c1.3-4.3,2.1-7.6,1.9-12.1c-0.5-10-0.4-18.9-2.3-28.7
				c-16.7,1.2-35.6,0-52.3,1.2c-0.9,0.1-1.9,0.2-2.6,0.8C1025.3,1469.4,1025.2,1470.7,1026,1471.1L1026,1471.1z"/>
			<g>
				<path class="st112" d="M1050.8,1531.9c7.8,24.8-13.4,46.4-12.8,71.1c0.5,19,4.3,38.6,14.3,54.8c6.2,10,13.5,17.7,25.1,20.3
					c9.9,2.3,21.2,3.5,29.7-3.6c7.7-6.4,8.4-16.5,8.3-26c0-2.3-3.5-2.3-3.4,0c0,13.8-3.8,26.8-19.4,27.8c-8.5,0.6-19.9-1.6-26.6-7.3
					c-7.8-6.7-13.4-16.3-17.1-25.9c-6.7-17.1-10.7-39.5-5.2-57.3c5.5-18,16.5-35.3,10.4-54.8
					C1053.4,1528.8,1050.1,1529.7,1050.8,1531.9L1050.8,1531.9z"/>
			</g>
			<g>
				<path class="st112" d="M1049.5,1647.7c8.5,14.4,24.7,23.6,41,23.3c2.3,0,4.7-0.3,6.7-1.3c1.9-0.9,3.4-2.4,4.8-4
					c4.9-5.5,8.5-12.1,10.4-19.2c1.2,0.3,1.5,1.9,1.6,3.2c0.2,8.8-1.4,18.5-8.1,24c-3.2,2.6-7.2,3.9-11.2,4.5
					c-8.9,1.5-18.3,0.1-26.2-4.4c-7.9-4.5-14.1-12.1-16.7-21c-0.7-2.3-1.2-4.8-3.1-6.2L1049.5,1647.7z"/>
				<g>
					<path class="st112" d="M1048,1648.6c8,12.9,21,21.8,35.8,23.8c6.5,0.9,13,0.9,18-3.8c6-5.6,9.9-13.6,12.3-21.5
						c-0.8,0.4-1.7,0.7-2.5,1.1c2.1,1.5,0.5,8.3,0.2,10.3c-0.7,4.6-2.2,9.3-5.5,12.6c-6.8,7-19.4,7.1-28.2,4.8
						c-8.3-2.2-15.5-7.3-20.4-14.5c-3.3-4.9-3.6-11.7-7.7-15.9c-1.6-1.6-4,0.9-2.4,2.5c3.8,3.8,4.6,11.5,7.8,16.1
						c2.4,3.4,5.3,6.4,8.5,8.8c8.3,6.2,18.8,8.6,28.9,7.4c9.4-1.1,17.3-5.4,20.8-14.8c1.9-5.1,5-16.8-0.2-20.5c-1-0.7-2.2,0-2.5,1.1
						c-2,6.6-5.1,13.4-10,18.4c-5.8,5.9-13.5,5.3-21,3.6c-12.1-2.9-22.3-10.6-28.9-21.3C1049.8,1644.9,1046.8,1646.7,1048,1648.6
						L1048,1648.6z"/>
				</g>
			</g>
			<path class="st109" d="M962.3,818c-1.2-13-2.3-28-3.5-41c-0.5-5.8-1.1-11.8-0.3-17.6c0.8-5.8,2.9-11.6,7.1-15.7
				c3.8-3.6,8.8-5.5,13.6-7.3c5.7-2,11.3-3.9,17.1-5.7c-3.4,2.5-6.2,5.8-8.2,9.5c13.8-4.4,28.6-4.5,43-4.6
				c-7.6,1.3-14.8,5.1-20.2,10.8c9.1-0.8,18.4,1.5,26,6.5c-6.6,0-13.2,1.4-19.3,4c-1.2,0.5-2.4,1.1-3.2,2.2c-0.6,0.8-0.8,1.8-1,2.7
				c-4.8,19.4-7.9,39.2-9.4,59.1c-1.3-0.1-2.7-0.3-4-0.4c1.9-13,2.5-26.2,1.6-39.3c-7.8,3.2-16,5.5-24.3,6.8
				c2.7-3.1,5.4-6.3,8.1-9.4c-6,2.1-12,4.2-18,6.3c-0.6,0.2-1.1,0.4-1.5,0.9c-0.4,0.5-1.7,3-1.7,3.6c0.4,10.3,0.5,17.7,0.9,28.1
				C964,817.5,963.3,818,962.3,818L962.3,818z"/>
			<g>
				<path class="st109" d="M968.6,790.1c-10.4-2-11.1,15.7-1,17c4.7,0.6,9-2.6,9.5-7.4c0.6-5.5-3.7-8.9-8.6-9.8
					c-0.7-0.1-1,1-0.3,1.1c4,0.7,7.8,3.1,7.8,7.7c0,4.1-3.2,7.3-7.2,7.3c-9.7,0.1-9.7-16.6-0.6-14.8
					C969,791.4,969.3,790.3,968.6,790.1L968.6,790.1z"/>
			</g>
			<g>
				<path class="st109" d="M992.9,790.1c-10.4-2-11.1,15.7-1,17c4.7,0.6,9-2.6,9.5-7.4c0.6-5.5-3.7-8.9-8.6-9.8
					c-0.7-0.1-1,1-0.3,1.1c4,0.7,7.8,3.1,7.8,7.7c0,4.1-3.2,7.3-7.2,7.3c-9.7,0.1-9.7-16.6-0.6-14.8
					C993.3,791.4,993.6,790.3,992.9,790.1L992.9,790.1z"/>
			</g>
			<g>
				<path class="st109" d="M976.8,797.9c2.4-1.8,5.2-2.7,7.6-0.3c0.5,0.5,1.3-0.3,0.8-0.8c-2.7-2.7-6.1-2-8.9,0.1
					C975.6,797.4,976.2,798.4,976.8,797.9L976.8,797.9z"/>
			</g>
			<g>
				<path class="st109" d="M1001.9,800.2c0.7-0.5,1.3-1,2.1-1.4c0.4-0.2,0.8-0.4,1.2-0.5c0.5-0.1,2.1-0.2,1.7,0.8
					c0.3,0,0.6-0.1,0.9-0.1c-0.1-0.1-0.2-0.2-0.3-0.4c-0.5-0.5-1.3,0.3-0.8,0.8c0.1,0.1,0.2,0.2,0.3,0.4c0.2,0.2,0.7,0.2,0.9-0.1
					c0.5-1.3-0.3-2.5-1.6-2.7c-1.8-0.2-3.8,1.3-5.2,2.3C1000.5,799.8,1001.3,800.6,1001.9,800.2L1001.9,800.2z"/>
			</g>
			<g>
				<path class="st109" d="M960.9,799c-0.9-0.7-1.8-1.2-2.8-1.6c-0.7-0.3-1.5-0.6-2.2-0.3c-1.2,0.5-1.1,2.5,0.4,2.4
					c0.7-0.1,0.7-1.2,0-1.2c0.7-0.1,0.5-0.2,1.1,0c0.4,0.2,0.8,0.3,1.2,0.5c0.6,0.3,1.2,0.7,1.8,1.2
					C960.9,800.4,961.5,799.4,960.9,799L960.9,799z"/>
			</g>
			<g>
				<path class="st109" d="M981.9,817c2.4,0,4.6-0.8,6.7-1.9c1.7-0.9,3.6-1.7,4.4-3.6c-0.4-0.1-0.7-0.1-1.1-0.2
					c-0.2,1.9-0.9,3.5-2.1,4.9c-0.5,0.6,0.3,1.4,0.8,0.8c1.4-1.7,2.2-3.5,2.4-5.7c0.1-0.7-0.9-0.7-1.1-0.2c-0.6,1.5-2.9,2.4-4.2,3.1
					c-1.9,0.9-3.7,1.6-5.8,1.6C981.1,815.9,981.1,817.1,981.9,817L981.9,817z"/>
			</g>
		</g>
		<g>
			<path class="st114" d="M1138.1,796.6c-0.5-5.7,0.9-11.5,3.9-16.3c1.5-2.4,3.5-4.6,5.6-6.5c7.6-6.9,18.1-10.6,28.1-9.2
				c10,1.5,19.3,8.5,22.7,18.3c3.3,9.6,1,20.5,4.1,30.2c0.8,2.5,2.1,5.1,4.5,6.1c3.7,1.7,8.2-1,12.1,0.3c5.2,1.7,6,8.7,5.7,14.3
				c-0.4,5.5-0.3,12.4,4.6,15c4.5,2.4,10.2-0.8,14.8,1.3c3.5,1.6,5.2,5.7,5.4,9.6c0.2,3.9-0.7,7.8-0.8,11.7c-0.1,1.9,0.1,4,1.3,5.5
				c3.2,4.1,10.4,0.5,14.7,3.6c3.9,2.8,2.8,8.8,1.4,13.4c-1.4,4.6-2.3,10.7,1.6,13.4c2.4,1.6,5.9,1.2,7.8,3.3c2,2.2,1.2,5.8-0.3,8.4
				c-4.6,7.9-13.9,11.7-22.9,12.6c-9,0.9-17.9-0.7-26.9-0.8c-22.6-0.4-45.8,7.9-67.2,0.7c-4.4-1.5-8.8-3.8-11.4-7.7
				c-2.9-4.2-3.4-9.8-3.2-14.9c0.2-7.9,1.5-15.8,4-23.3c2-6.2,4.5-13.6,0.6-18.7c-1.8-2.3-4.6-3.5-6.7-5.6
				c-3.1-3.1-4.2-8.1-2.7-12.2c1.4-3.7,4.6-6.8,4.6-10.8c0-8.2-13.5-11.5-13-19.7c0.2-3.7,3.3-6.4,5.2-9.5c2.6-4.1,3.3-9.3,2-14"/>
		</g>
		<g>
			<path class="st4" d="M1138.3,1553.5c1.4,30.9-0.1,61.9-4.7,92.4c-0.3,1.8-0.6,3.7-1.6,5.2c-1,1.5-2.5,2.4-4,3.3
				c-7.5,4.6-15,9.1-22.5,13.7c22.1,2.1,44.4,2.6,66.5,1.8c-6.8-11.3-5.9-25.6-4.9-38.8c2.1-26.6,4.2-53.2,6.4-79.8
				c0.1-1.2,0.1-2.7-1-3.2c-0.4-0.2-0.9-0.2-1.4-0.2c-12.2-0.1-24.4,1.4-36.2,4.6"/>
		</g>
		<g>
			<path class="st115" d="M1117.4,1660.4c-12.8,9.7-33.5,5.8-43.2,18.8c35.3,3.7,70.8,4.9,106.2,3.7c-3.9-8.1-7.8-16.2-11.7-24.3
				c-11.6,3.6-23.8,5.1-36,4.7c-4.9-0.2-10.6-1.1-13.2-5.4"/>
		</g>
		<g>
			<path class="st4" d="M1276.1,1535.7c5,17.3,9,35,11.9,52.8c2.9,17.6,4.8,35.3,5.7,53.1c-9,6.2-17.3,13.5-24.8,21.6
				c4.6,4.7,12.2,3.3,18.4,1.5c13.3-3.7,26.5-7.3,39.8-11c1.2-0.3,2.5-0.7,3.3-1.6c1.4-1.6,1.1-4,0.7-6.1
				c-7.4-39.8-13.1-79.8-17.3-120.1c-12.4,2.2-24.8,5.1-37,8.6"/>
		</g>
		<g>
			<path class="st116" d="M1159.9,831.3c-0.7,8.3-0.4,16.7,1,24.9c0.1,0.6,0.2,1.1,0.6,1.6c0.5,0.5,1.2,0.6,1.9,0.7
				c4.5,0.4,9-0.3,13.2-2c-2.3-10.9-2.4-22.4,0-33.3c-5.6,3.5-11.1,7.4-16.2,11.7"/>
		</g>
		<g>
			<path class="st116" d="M1144.3,861.3c0.3,4.5,0.2,12.1,3.9,14.5c3.7,2.4,7.8,7.5,12.1,8.3c5,0.9,13.5-6.4,18.4-7.8
				c9.2-2.7,15.9-12.3,15.5-22c-15.6-7.6-35.3-5.3-48.8,5.7"/>
		</g>
		<g>
			<path class="st4" d="M1176.6,781.1c-4.9-7.6-16.8-9-23.3-2.7c-4.1,4-5.7,10-6.6,15.7c-0.9,5.3-1.3,10.6-1.4,16
				c-0.1,4.8,0.2,9.6,1.8,14.1c1.6,4.5,4.6,8.6,8.8,10.5c7.8,3.6,17.3-1.2,21.8-8.6c4.5-7.4,5.2-16.5,5.2-25.3c0-4-0.1-8.1-1.3-11.9
				c-1.2-3.8-3.5-7.4-7-9.2"/>
		</g>
		<g>
			<path class="st4" d="M1182.1,810.8c1-3.1,5.6-3.8,7.8-1.5c2.2,2.3,1.7,6.6-0.7,8.7c-2.4,2.1-6.2,2.1-8.9,0.5"/>
		</g>
		<g>
			<path class="st117" d="M1119.7,1240.1c-2.6,109.2-9.4,204.5-13.8,306c34,9.7,70.4,10.3,104.7,1.7c3.5-101.8-1.5-203.7-6.5-305.5
				c12.5,98.3,25.7,201.6,38.3,299.9c0.7,5.7,88,2.9,119.8-18.2c-39.1-104.2-55.3-202.7-72.3-313c-34.2-4.1-77-5.7-110.6,2
				c-22.4,5.1-26.2,7-47,17.1"/>
		</g>
		<g>
			<path class="st118" d="M1147.9,856.1c6.2,7.3,12.3,14.6,18.5,21.9c6.8-7.2,13.7-14.4,20.5-21.6c1.7-1.8,3.5-3.6,5.8-4.3
				c3.5-1,6.7,2.1,10.2,2.5c38.8,5.1,63.7,35.2,69.7,44.6c5.9,9.3,7.2,20.7,7.9,31.8c5.4,84.9,5.6,196.1,23.3,293.5
				c-12.7,11.2-121.7,33.7-175.7,26c-10.6-1.5-10.9-0.9-20.9-4.7c-15.5-93.9-6.8-201.4-12.4-300.4c-1.2-20.6-1.5-43,10.2-59.8
				c9.5-13.6,25.1-20.9,40-27.6"/>
		</g>
		<g>
			<path class="st119" d="M1214,903.4c4.4,15,8,30.4,8.3,46.1c0.3,15.7-2.9,31.7-11.1,44.9c-12.1,19.5-33.4,30.7-54.4,38.9
				c-17.5,6.9-35.6,12.3-53.9,16.3c-0.8,0.2-5,0-5.8,0.1c-3.4,0.4,85.4-15.3,113.3-85.9c3.2-8.2,4.8-46.9,4.3-57.4
				c0-0.5-0.1-1.2-0.6-1.3c-0.5-0.1-0.6,1-0.1,0.8"/>
		</g>
		<g>
			<path class="st119" d="M1281.1,979.4c-4,15.4-10,30.4-19.3,43.2c-7.7,10.5-17.5,19.3-27.2,27.9c-6.7,6-32.5,21.5-38.4,23.6
				c-30.8,10.8-66.7,20.3-98.8,25.4c-0.1,3.2,18.7,5.4,41.3,2.1c29.7-4.3,47.1-6.2,73.8-20.1c4.7-2.4,22.5-12,26.9-14.8
				c29.1-18.8,45-48.4,42.8-83.6c-0.1-1.3-0.8-3.1-2-2.8"/>
		</g>
		<g>
			<path class="st4" d="M1034.4,1065c-13.2,2.4-27,1.4-39.7-3c-2.7-0.9-5.9-1.9-8.1-0.1c-2.2,1.8-2,5.4-0.3,7.7
				c1.7,2.3,4.4,3.5,6.9,4.5c4.4,1.8,8.9,3.4,13.5,4.8c-12.3,0.2-24.6,2.7-36.1,7.3c-3.6,1.4-7.5,3.5-8.8,7.3
				c-1.6,4.8,2.2,9.9,6.8,11.6c4.6,1.7,9.7,0.9,14.5,0c17.8-3.2,35.7-6.3,53.5-9.5c0.4-10-0.7-20-3.2-29.7"/>
		</g>
		<g>
			<path class="st118" d="M1235.4,866.2c27.1-6.2,50.3,46.8,49.9,80.3c-0.7,63.6-35,94.8-41.6,99.7
				c-64.9,48.3-149.6,56.2-229.7,60.3c-1-17.4-2.5-34.9-4.5-52.2c25.6,6.9,53.8-1.1,80.2-3.3c29.5-2.5,149.9-34.8,132.5-108.8
				c-17.9-76.3,7.2-77.3,13.6-75.6"/>
		</g>
		<g>
			<path class="st115" d="M1278.1,1650.9c-10.7,14.2-34.1,17.1-41,34.6c36.3-2.7,72.4-8.3,107.8-16.8c-5.7-8.9-7.5-17.8-13.2-26.7
				c-10.9,6.6-26.8,10.9-39.1,12.8C1287.5,1655.5,1281.7,1655.5,1278.1,1650.9"/>
		</g>
		<g>
			<path class="st114" d="M1150.1,775.9c-1.9,2.3-3.8,4.7-4.8,7.5c-1.1,2.8-1.2,6.1,0.1,8.8c1.9,3.9,6.3,5.7,10.4,6.8
				c10.8,3,22.1,4,33.3,2.8c0.4,0,0.8-0.1,1-0.4c0.2-0.2,0.3-0.6,0.3-0.9c0.5-4.2-1-8.4-3.4-11.9c-2.4-3.4-5.6-6.1-8.9-8.7
				c-1.5-1.2-3.1-2.4-4.8-3.3c-7.2-4.2-16.2-4.7-23.8-1.5"/>
		</g>
		<g>
			<g>
				<path class="st120" d="M1146.5,807.4c0.8,1.6,2.4,2.6,4.2,2.6c1.7,0,3.4-1.1,4.1-2.7c0.1-0.3,0.1-0.6-0.2-0.8
					c-0.2-0.1-0.7-0.1-0.8,0.2c-0.6,1.2-1.8,2.2-3.1,2.2c-1.4,0-2.6-0.8-3.2-2.1C1147.2,806.2,1146.2,806.7,1146.5,807.4
					L1146.5,807.4z"/>
			</g>
		</g>
		<g>
			<g>
				<path class="st120" d="M1164.1,807.5c0.7,1.8,2.3,3,4.2,3.2c1.9,0.2,3.8-1,4.6-2.6c0.3-0.6-0.6-1.2-1-0.6
					c-0.7,1.3-2.1,2.1-3.6,2c-1.4-0.1-2.7-1.1-3.2-2.4c-0.1-0.3-0.4-0.5-0.7-0.4C1164.3,806.9,1164,807.2,1164.1,807.5L1164.1,807.5
					z"/>
			</g>
		</g>
		<g>
			<g>
				<path class="st120" d="M1156.4,808.9c0.2,4,0,7.9-0.6,11.8c0,0.3,0,0.5,0.3,0.6c0.7,0.4,1.4,0.5,2.1,0.4
					c0.7-0.1,0.4-1.2-0.3-1.1c-0.5,0.1-0.9,0-1.3-0.3c0.1,0.2,0.2,0.4,0.3,0.6c0.6-4,0.8-8.1,0.6-12.1
					C1157.5,808.2,1156.3,808.2,1156.4,808.9L1156.4,808.9z"/>
			</g>
		</g>
		<g>
			<g>
				<path class="st120" d="M1156.2,828.1c0.5,1,1.5,1.6,2.6,1.7c1.1,0.1,2.2-0.5,2.8-1.4c0.2-0.3,0-0.6-0.2-0.8
					c-0.3-0.2-0.6-0.1-0.8,0.2c-0.4,0.6-1.1,0.9-1.8,0.9c-0.3,0-0.6-0.2-0.9-0.4c-0.3-0.2-0.5-0.5-0.7-0.8c-0.1-0.3-0.5-0.4-0.8-0.2
					C1156.2,827.4,1156.1,827.8,1156.2,828.1L1156.2,828.1z"/>
			</g>
		</g>
		<g>
			<g>
				<path class="st12" d="M1184,816.7c-0.6,3.6-0.9,7.3-0.8,11c0,0.7,1.1,0.7,1.1,0c-0.1-3.6,0.2-7.2,0.8-10.7
					C1185.2,816.2,1184.1,815.9,1184,816.7L1184,816.7z"/>
			</g>
		</g>
		<g>
			<g>
				<path class="st12" d="M1184.2,827.3c-0.4-0.5-1.1-0.6-1.8-0.5c-0.7,0.2-1.2,0.7-1.5,1.3c-0.3,0.6-0.4,1.3-0.5,2
					c-0.1,0.7-0.1,1.3,0.2,1.9c0.7,1.3,2.6,1.5,3.9,0.9c1.3-0.6,2.1-1.9,1.9-3.3c-0.2-1.5-1.8-2.6-3.3-2.2c-0.7,0.2-0.4,1.3,0.3,1.1
					c0.4-0.1,0.7,0,1.1,0.2c0.3,0.2,0.6,0.5,0.7,0.9c0.3,0.8-0.1,1.8-0.8,2.2c-0.4,0.3-0.8,0.4-1.3,0.4c-0.4,0-1-0.1-1.3-0.4
					c-0.3-0.3-0.3-0.7-0.3-1.1c0-0.5,0.1-1,0.2-1.5c0.1-0.5,0.4-0.9,0.8-1.2c0.1-0.1,0.3-0.1,0.5-0.1c0.2,0,0,0,0.1,0
					c0,0,0.2,0.1,0.1,0c0,0,0.1,0,0.1,0.1c0,0,0,0,0,0c0,0,0.1,0.1,0.1,0.1c0.2,0.2,0.6,0.2,0.8,0
					C1184.5,827.9,1184.4,827.6,1184.2,827.3L1184.2,827.3z"/>
			</g>
		</g>
		<g>
			<g>
				<path class="st12" d="M1155,853.2c0.1,3,1.6,5.9,4.1,7.7c3,2.2,7.1,1.9,10.6,1.4c3.5-0.4,6.9-1.6,9.4-4.2
					c2.3-2.4,3.6-5.4,3.9-8.7c0.1-1.2-1.7-1.2-1.8,0c-0.3,2.8-1.5,5.4-3.4,7.4c-2.2,2.2-5.1,3.3-8.1,3.7c-2.8,0.4-6.4,0.7-9-0.7
					c-2.4-1.3-3.8-3.9-3.9-6.6C1156.8,852,1155,852,1155,853.2L1155,853.2z"/>
			</g>
		</g>
		<g>
			<g>
				<path class="st12" d="M1154,853c-2,3.1,0.2,6.9,1.8,9.5c1.9,2.9,4.4,5.7,7.8,6.7c6.9,2.1,14.5-3.2,17.6-9.2
					c0.9-1.6,1.5-3.4,1.7-5.2c0.2-1.5,0.7-4.1-0.6-5.2c-0.9-0.8-2.2,0.5-1.3,1.3c0.6,0.5,0.3,2.2,0.2,2.8c-0.1,0.9-0.3,1.8-0.5,2.7
					c-0.5,1.6-1.2,3.2-2.2,4.6c-2,2.9-4.9,5.1-8.2,6.2c-2.1,0.7-4.5,0.9-6.6,0.2c-1.7-0.6-3.2-1.8-4.4-3.2c-1.2-1.4-2.2-3-3.1-4.6
					c-0.9-1.7-1.8-3.9-0.7-5.7C1156.2,852.9,1154.6,852,1154,853L1154,853z"/>
			</g>
		</g>
		<g>
			<path class="st4" d="M1287.1,962.7c-9.5,13.1-12.9,30.6-9,46.4c1.2,4.9,5,10.6,9.6,8.9c2-0.7,3.3-2.7,4.4-4.6
				c5.5-9.9,8.5-21.2,8.7-32.5c0.1-4.7-0.4-9.6-2.8-13.6c-2.4-4-7.3-6.8-11.7-5.4"/>
		</g>
	</g>
	<g>
		<path class="st4" d="M1894.8,1238.9c-5.5,9.9-11,19.8-16.5,29.7c-1.5,2.8-3.1,6.1-1.6,8.9c0.9,1.6,5.2-2.2,7-4.4
			c1.8-2.2,3.3-4.7,5.6-6.3c0.7-0.5,1.6-0.8,2.3-0.4c0.3,0.2,0.5,0.5,0.7,0.8c1,1.9,1.3,4.1,1.2,6.2c-0.6,11-0.6,22,0,33
			c0.1,1.3,0.3,2.6,0.6,3.9c0.2,0.8,0.5,1.6,1.4,1.9c0.7,0.2,1.4-0.1,1.9-0.5c1-0.9,1.2-2.3,1.3-3.5c0.6-5.3,3.1-22.4,4.1-22.2
			c0.7,0.2-2.4,22.1-0.1,29.4c0.2,0.8,1,1.4,1.8,1.4c0.9,0,1.2-0.7,1.5-1.4c2.6-6.3,6.1-28.1,6.6-27.1c2.8,6.5-3,19.3,0,26.4
			c0.4,1,1,1.9,2.1,2c4.4,0.3,6.4-29.3,7.2-28.7c1.3,1.1,2.1,16.6,3.6,20.4c0.3,0.8,1.1,1.4,2,1.4c1.1,0,1.6-0.8,1.9-1.7
			c0.3-1,0.6-2,0.7-3c3.4-21.5,5.5-43.6,2-65.1c-0.1-0.6-0.2-1.1-0.6-1.5c-0.3-0.3-0.7-0.5-1.1-0.7c-6.4-2.6-13.5-3.3-20.2-2
			c-5.5,1-11.2,3.3-16.5,1.3L1894.8,1238.9z"/>
		<path class="st42" d="M1987,911.2c-24.3-17.1-48.9,1.4-59.8,17.3c-10.9,15.9-22.7,48-27.9,66.5c-13.5,48.2-11.3,99.6-10.3,149.6
			c0.7,33.1,4.5,66.6-2.8,98.9c17.3,2.9,36.1-0.9,53.5,0.5c0-47.4-6.2-87.7,7-132.4c6.4-21.7,15.2-42.6,21.7-64.3
			c13.5-44.9,17.1-92.7,10.6-139.1L1987,911.2z"/>
		
			<rect x="1888.8" y="1258.8" transform="matrix(0.9984 5.580474e-02 -5.580474e-02 0.9984 73.4803 -105.5778)" class="st6" width="76.8" height="8.3"/>
		<g>
			<g>
				<path class="st7" d="M1887.7,1045.5c0,38.7,0,77.4,0,116c0,26.2,0,52.4,0,78.6c0,8.3,0,16.7,0,25c0,3.1-0.7,7.1,0.5,10
					c1.3,3.2,4.2,6.4,6,9.3c4.1,6.3,8.2,12.6,12.3,18.9c5.9,9,11.7,18,17.6,27c1.5,2.3,4.5,2.2,6,0c11.9-17.4,23.8-34.8,35.7-52.3
					c2.2-3.2,2.4-5,2.4-8.8c-0.1-7-0.2-14-0.2-21c-0.6-52.7-1.2-105.3-1.7-158c-0.2-15.1-0.3-30.2-0.5-45.3c0-1.9-1.6-3.5-3.5-3.5
					c-23.7,0.2-47.4,0.3-71.2,0.5c-4.5,0-4.5,7,0,6.9c23.7-0.2,47.4-0.3,71.2-0.5c-1.2-1.2-2.3-2.3-3.5-3.5
					c0.4,38.5,0.9,77,1.3,115.6c0.3,26.1,0.6,52.3,0.9,78.4c0.1,8.5,0.2,17,0.3,25.5c0,2.2-0.1,4.5,0.1,6.7c0.2,2.5-0.6,1.9,0.4,0.6
					c-12.9,18.1-25,36.7-37.6,55c2,0,4,0,6,0c-11.4-17.5-22.8-35-34.2-52.5c-0.6-0.9-1.1-1.7-1.7-2.6c0.2,0.4,0.3,2.4,0.4,1.1
					c0.1-1.5,0-3.1,0-4.6c0-7.4,0-14.8,0-22.2c0-52.2,0-104.3,0-156.5c0-14.7,0-29.4,0-44
					C1894.6,1041.1,1887.7,1041.1,1887.7,1045.5z"/>
			</g>
			<g>
				<path class="st7" d="M1931.5,1636c-0.1-34.7-0.2-69.5-0.3-104.2c-0.2-55.1-0.3-110.1-0.5-165.2c0-12.7-0.1-25.3-0.1-38
					c0-4.5-6.9-4.5-6.9,0c0.1,34.7,0.2,69.5,0.3,104.2c0.2,55.1,0.3,110.1,0.5,165.2c0,12.7,0.1,25.3,0.1,38
					C1924.6,1640.4,1931.5,1640.5,1931.5,1636L1931.5,1636z"/>
			</g>
			<path class="st6" d="M1955,1049.2h-55.7c-6.6,0-12-5.4-12-12l0,0c0-6.6,5.4-12,12-12h55.7c6.6,0,12,5.4,12,12l0,0
				C1967,1043.8,1961.6,1049.2,1955,1049.2z"/>
			<rect x="1917.1" y="1636" class="st6" width="21.9" height="21.9"/>
		</g>
		<path class="st8" d="M1994.4,1632.4c-10.4,12.2-38.1,22.1-52.2,29.7c32.5,3.7,96.3,4.9,117.3,0c-5.5-7.6-14.2-18.5-17.3-27.3
			c-0.3-0.8-0.6-1.6-1.2-2.1c-0.7-0.5-1.7-0.5-2.5-0.4C2022.8,1633,2010,1631.6,1994.4,1632.4L1994.4,1632.4z"/>
		<path class="st8" d="M2141.8,1617.7c-5.6,14.5-17.4,26.6-31.8,32.6c-4.4,1.8-9.6,3.7-11,8.3c18.3,1.9,36.7,2.2,55.1,1
			c2.5-0.2,5-0.4,7.3-1.3c2.8-1.2,5-3.6,7.2-5.8c9.3-9.6,19.9-18,31.3-25.1c1.1-0.7,2.3-1.4,2.9-2.6c1.2-2.4-0.5-5.1-2.2-7.1
			c-3.5-4.4-7-8.9-10.5-13.3c-16.1,2.9-32.1,6.6-47.9,11.1L2141.8,1617.7z"/>
		<path class="st9" d="M1954.8,1147.2c1.2,140.6,12,327.8,20,483.4c0.3,5.2,64.3,6.8,81.7,2c-7.9-137.7-9.9-268.7-17.8-406.4
			c25,106.6,76.5,362,86,385.4c1.2,3,2.7,6.2,5.7,7.6c2.6,1.2,48.2-8.5,68.1-12.8c2-0.4,4.4-1.2,5.1-3.1c0.4-1.2,0-2.6-0.4-3.8
			c-18-56.5-82.3-427.9-83.7-464.7c-33.1,1.1-77.4,5.1-110.5,6.2C1990.7,1141.5,1972.2,1142.1,1954.8,1147.2L1954.8,1147.2z"/>
		<path class="st4" d="M2038.4,822.4c-2.5-2.6-6.4-3.4-9.9-2.8c-5.9,1-10.9,5.4-13.7,10.8c-2.8,5.3-3.8,11.4-4.4,17.4
			c-0.8,9-0.2,19.1,6.3,25.3c5.7,5.5,15.1,6.2,22.2,2.7c7.1-3.5,12-10.6,14.1-18.2c2.1-7.6,1.6-15.8-0.1-23.5
			c-1-4.6-2.8-9.6-6.9-11.9c-3.5-2-7.9-1.5-11.9-0.9L2038.4,822.4z"/>
		<path class="st4" d="M2021.6,875.7c-2.7,11.7-3.4,25.4-3.1,37.4c6,0.5,12.1,0.1,18-1.3c0.4-13.2,0.7-26.4,1.1-39.6
			c-5,3.3-10.7,3.3-16.7,2.7L2021.6,875.7z"/>
		<path class="st26" d="M2017.5,896.8c-1.8,4.9,4.4,14.4,15.7,10.7c5-1.7,8.3-6.3,10.7-11c18.8,1.9,37.2,7,54.2,15.2
			c6.1,2.9,12.1,6.6,16.1,12.1c11.6,15.6-7.2,83.7-9.5,113.2c-1.7,22.1,35.3,161.3,36.3,163l-194.4,13.5
			c-1.3-1.3-11.7-160.1-11.6-188.5c0.1-35.4,5.2-89.5,18.5-104.5C1969.7,902.1,2005,895,2017.5,896.8L2017.5,896.8z"/>
		<path class="st4" d="M2011.8,850c-1.2-1.3-3.3-1.3-4.8-0.4c-1.5,1-2.3,2.6-2.7,4.3c-0.3,1.2-0.4,2.5,0,3.7c0.6,1.7,2.2,2.9,4,3.3
			c1.7,0.5,3.6,0.4,5.4,0.2c0-3.6,0-7.2,0-10.8L2011.8,850z"/>
		<path class="st4" d="M2050.4,852c0-1.1,1.3-1.7,2.3-1.6c3,0.2,6.8,2.8,6.5,5.8c-0.9,7.6-6.8,6.9-9.1,7.6c0.3-4.2,0.3-8.4,0-12.5
			L2050.4,852z"/>
		<path class="st109" d="M2054,850.3c-0.5,5.7-2.4,10.7-4.5,16c-0.8-0.1-1.7-0.3-2.5-0.4c1.2-4.8,1.8-9.8,1.9-14.8
			c0-4.4-1.2-9.8-5.5-10.9c-6-1.5-11.8,7.1-17.2,4.3c-0.9-0.4-1.6-1.1-2.4-1.6c-3.3-1.8-7.2,0.4-10.4,2.3c-3.2,1.9-7.7,3.4-10.4,0.8
			c-0.8-0.8-1.3-1.9-1.8-3c-1.4-3.5-2.1-8.2,0.9-10.4c1.6-1.2,3.9-1.2,5.6-2.3c3.1-2.1,2.6-6.7,3.8-10.2c1.6-4.5,6.6-7.4,11.3-6.6
			c2.9,0.5,5.7,2.2,8.5,1.4c1.7-0.5,3-1.9,4.6-2.9c4.9-3.1,12.4-0.2,14,5.3c0.4,1.5,0.5,3.1,1.3,4.4c2.6,4.5,11.3,3.8,12.1,8.9
			c0.6,3.6-3.7,7.5-1.5,10.5c0.9,1.2,2.5,2.1,2.1,3.5C2062.5,851,2056.2,851.7,2054,850.3L2054,850.3z"/>
		<g>
			<path d="M2011.7,848.3c1.3,5.3,8.1,6.2,10.9,1.7c0.9-1.5-1.4-2.8-2.3-1.4c-1.6,2.6-5.3,1.9-6-1
				C2013.9,845.8,2011.3,846.6,2011.7,848.3L2011.7,848.3z"/>
		</g>
		<g>
			<path d="M2030.6,848.5c1,2.8,3.6,4.7,6.7,4.3c2.1-0.3,5.9-2.6,3.8-5c-0.4-0.5-1.2-0.5-1.6-0.2c-0.1,0-0.1,0.1-0.2,0.1
				c-1.5,0.9-0.1,3.2,1.4,2.3c0.1,0,0.1-0.1,0.2-0.1c-0.5-0.1-1.1-0.1-1.6-0.2c0-0.9-0.1-1-0.5-0.4c-0.3,0.3-0.7,0.5-1,0.6
				c-0.5,0.2-1,0.3-1.5,0.2c-1.4-0.1-2.5-1.1-2.9-2.4C2032.6,846.1,2030,846.9,2030.6,848.5L2030.6,848.5z"/>
		</g>
		<g>
			<path d="M2025.4,848.7c-0.7,2.1-1.3,4.3-2,6.4c-0.5,1.7-1.5,3.8-1.5,5.6c0,2.1,1.9,4.1,4,3.2c1.6-0.7,0.9-3.3-0.7-2.6
				c-1.2,0.5,0.1-3.1,0-3c0.3-1,0.6-2,0.9-2.9c0.6-2,1.2-3.9,1.8-5.9C2028.5,847.7,2025.9,847,2025.4,848.7L2025.4,848.7z"/>
		</g>
		<g>
			<path d="M2025.2,870.2c3.8,1.4,7.9-0.8,9.3-4.4c0.6-1.6-2-2.3-2.6-0.7c-0.9,2.4-3.7,3.4-6,2.5
				C2024.3,867,2023.6,869.6,2025.2,870.2L2025.2,870.2z"/>
		</g>
		<g>
			<g>
				<path class="st7" d="M2114.4,1042.9c5.6,38.3,11.2,76.5,16.9,114.8c3.8,25.9,7.6,51.8,11.4,77.7c1.2,8.3,2.4,16.5,3.6,24.8
					c0.5,3.2,0.4,7,2.1,9.7c1.9,3,5,5.6,7.3,8.3c5,5.6,10,11.3,14.9,16.9c7.1,8.1,14.2,16.1,21.4,24.2c1.4,1.6,4.5,1.2,5.4-0.7
					c9.3-19.1,18.6-38.1,27.9-57.2c1.7-3.5,1.7-5.6,1.1-9.4c-1.1-6.8-2.2-13.7-3.2-20.5c-8.2-52-16.5-104-24.7-155.9
					c-2.4-15.1-4.8-30.2-7.2-45.3c-0.3-2-2.6-2.7-4.3-2.4c-23.4,3.6-46.9,7.2-70.3,10.8c-4.4,0.7-2.5,7.3,1.8,6.7
					c23.4-3.6,46.9-7.2,70.3-10.8c-1.4-0.8-2.8-1.6-4.3-2.4c6,38.1,12,76.1,18.1,114.2c4.1,25.8,8.2,51.6,12.3,77.4
					c1.3,8.4,2.7,16.8,4,25.2c0.3,2.2,0.5,4.5,1,6.6c0.9,4-0.3-0.4,0.6-0.3c-0.7-0.1-5,10.3-5.4,11.1c-3.2,6.7-6.5,13.3-9.7,20
					c-4.7,9.6-9.4,19.2-14,28.8c1.8-0.2,3.6-0.5,5.4-0.7c-13.8-15.6-27.7-31.3-41.5-46.9c-0.7-0.7-1.5-1.5-2-2.3
					c0.6,0.8,0.7,2.1,0.7,0.9c0-1.5-0.5-3.1-0.7-4.6c-1.1-7.3-2.2-14.6-3.2-22c-7.6-51.6-15.2-103.2-22.8-154.8
					c-2.1-14.5-4.3-29-6.4-43.6C2120.4,1036.7,2113.7,1038.6,2114.4,1042.9z"/>
			</g>
			<g>
				<path class="st7" d="M2243.4,1619.9c-5.1-34.4-10.3-68.7-15.4-103.1c-8.2-54.5-16.3-108.9-24.5-163.4
					c-1.9-12.5-3.8-25.1-5.6-37.6c-0.7-4.4-7.3-2.5-6.7,1.8c5.1,34.4,10.3,68.7,15.4,103.1c8.2,54.5,16.3,108.9,24.5,163.4
					c1.9,12.5,3.8,25.1,5.6,37.6C2237.4,1626.1,2244,1624.3,2243.4,1619.9L2243.4,1619.9z"/>
			</g>
			<path class="st6" d="M2181.4,1036.4l-55.1,8.1c-6.5,1-12.7-3.6-13.6-10.1l0,0c-1-6.5,3.6-12.7,10.1-13.6l55.1-8.1
				c6.5-1,12.7,3.6,13.6,10.1l0,0C2192.5,1029.3,2188,1035.4,2181.4,1036.4z"/>
			
				<rect x="2230.7" y="1620.7" transform="matrix(0.9894 -0.1454 0.1454 0.9894 -213.4372 343.307)" class="st6" width="21.9" height="21.9"/>
		</g>
		
			<rect x="2149" y="1254.7" transform="matrix(0.9894 -0.1454 0.1454 0.9894 -159.798 331.4589)" class="st6" width="76.8" height="8.3"/>
		<path class="st4" d="M2170.3,1229.7c-3.6,10.8-7.1,21.5-10.7,32.3c-1,3-1.9,6.6,0.1,9c1.2,1.4,4.7-3.1,6-5.6
			c1.3-2.5,2.4-5.2,4.4-7.2c0.6-0.6,1.4-1.1,2.2-0.8c0.3,0.1,0.6,0.4,0.8,0.6c1.3,1.7,2.1,3.8,2.4,5.9c1.5,10.9,3.5,21.8,6.2,32.4
			c0.3,1.3,0.8,2.5,1.3,3.7c0.3,0.7,0.8,1.5,1.8,1.6c0.7,0,1.3-0.3,1.7-0.9c0.8-1.1,0.7-2.4,0.7-3.7c-0.4-5.3-1.2-22.6-0.2-22.5
			c0.7,0,1.8,22.1,5.4,28.9c0.4,0.7,1.2,1.2,2,1c0.9-0.2,1.1-0.9,1.2-1.6c1.3-6.6,0.7-28.8,1.4-27.8c3.9,5.8,0.7,19.5,5,25.9
			c0.6,0.9,1.3,1.7,2.4,1.5c4.4-0.6,0.8-30,1.7-29.5c1.5,0.8,5.1,15.9,7.4,19.4c0.5,0.7,1.4,1.2,2.2,1c1.1-0.2,1.4-1.1,1.5-2
			c0.2-1,0.2-2.1,0.1-3.1c-0.8-21.8-2.8-43.8-10.3-64.3c-0.2-0.5-0.4-1.1-0.8-1.4c-0.4-0.3-0.8-0.4-1.2-0.5
			c-6.7-1.3-13.8-0.7-20.2,1.8c-5.2,2-10.4,5.3-15.9,4.3L2170.3,1229.7z"/>
		<path class="st42" d="M2079,905.8c38.7-29.3,77.6,34.4,86.6,64.7c5.2,17.4,22,64.5,28.9,95.3c13.4,59.7,11.5,103.1,19.2,163.8
			c-16.9,1.9-33.9,3.9-50.8,5.8c-1.5,0.2-3.2,0.3-4.4-0.6c-1.3-0.9-1.6-2.6-1.9-4.2c-10.7-59.7-13.7-76.4-24.4-136.1
			C2128,1071.6,2055.8,928.5,2079,905.8L2079,905.8z"/>
	</g>
</g>
</svg>
