<?xml version="1.0" encoding="utf-8"?>
<!-- Generator: $$$/GeneralStr/196=Adobe Illustrator 27.6.0, SVG Export Plug-In . SVG Version: 6.00 Build 0)  -->
<svg version="1.1" xmlns="http://www.w3.org/2000/svg" xmlns:xlink="http://www.w3.org/1999/xlink" x="0px" y="0px"
	 viewBox="0 0 2500 2000" style="enable-background:new 0 0 2500 2000;" xml:space="preserve">
<style type="text/css">
	.st0{opacity:0.8;fill:#BADBD8;}
	.st1{fill:#BADBD8;}
	.st2{opacity:0.6;fill:#FFFFFF;}
	.st3{fill:#F1F9FD;}
	.st4{fill:#F5C796;}
	.st5{fill:#2480B4;}
	.st6{fill:#663333;}
	.st7{fill:#653512;}
	.st8{fill:#F7981C;}
	.st9{fill:#006E61;}
	.st10{fill:#3F96D2;}
	.st11{fill:#12434F;}
	.st12{fill:#FFFFFF;}
	.st13{fill:#194E60;}
	.st14{fill:#2E67B0;}
	.st15{fill:#FFFCEA;}
	.st16{fill:#1A2042;}
	.st17{fill:#558FCB;}
	.st18{fill:#221E1F;}
	.st19{fill:#FCF8CD;}
	.st20{fill:#5FC1A4;}
	.st21{fill:#58A991;}
	.st22{fill:#404768;}
	.st23{fill:#02887D;}
	.st24{fill:#00A69C;}
	.st25{fill:none;stroke:#1A2042;stroke-width:0.8046;stroke-miterlimit:10;}
	.st26{fill:#FAC049;}
	.st27{fill:#FFD182;}
	.st28{fill:#121C3E;}
	.st29{fill:#FFCC00;}
	.st30{fill:#1D9AC5;}
	.st31{fill:#F59698;}
	.st32{fill:#25A9E0;}
	.st33{fill:#D4EBF5;}
	.st34{fill:#14253E;}
	.st35{fill:#1F3256;}
	.st36{fill:#162546;}
	.st37{fill:#116E96;}
	.st38{fill:#235E6D;}
	.st39{fill:#0E9282;}
	.st40{fill:#2C6C52;}
	.st41{fill:#3D876C;}
	.st42{fill:#E2A232;}
	.st43{fill:#4095D1;}
	.st44{fill:#368BBE;}
	.st45{fill:#4C9D81;}
	.st46{fill:none;stroke:#1A2042;stroke-width:0.7302;stroke-miterlimit:10;}
	.st47{fill:#0E353E;}
	.st48{fill:#164754;}
	.st49{fill:#CA9665;}
	.st50{fill:#986732;}
	.st51{fill:#98CBCB;}
	.st52{fill:#0F3A43;}
	.st53{opacity:0.51;}
	.st54{opacity:0.66;}
	.st55{fill:#D1EAF6;}
	.st56{fill:#4785B7;}
	.st57{fill:none;stroke:#1A2042;stroke-width:1.0618;stroke-miterlimit:10;}
	.st58{fill:#1174AA;}
	.st59{fill:#F4F5FA;}
	.st60{fill:#3A7C64;}
	.st61{fill:#D7AF28;}
	.st62{fill:#144551;}
	.st63{fill:#D1ECF2;stroke:#144551;stroke-width:0.782;stroke-miterlimit:10;}
	.st64{fill:#326667;stroke:#99CBCB;stroke-width:0.2172;stroke-miterlimit:10;}
	.st65{fill:url(#SVGID_1_);}
	.st66{fill:#339866;}
	.st67{fill:url(#SVGID_00000134940147495803795880000003314744414753592205_);}
	.st68{fill:#558FCC;}
	.st69{fill:#2D67B1;}
	.st70{fill:#164956;}
	.st71{fill:#2E606C;}
	.st72{fill:#366B7A;}
	.st73{fill:#3D7883;}
	.st74{fill:#37B999;}
	.st75{fill:#142547;}
	.st76{fill:#51A98E;}
	.st77{fill:#2B81A7;}
	.st78{fill:#368DBE;}
	.st79{fill:#8BC53F;}
	.st80{fill:#1E3356;}
	.st81{fill:#F16621;}
	.st82{fill:#CA1F26;}
	.st83{fill:none;stroke:#1A2042;stroke-width:0.7221;stroke-miterlimit:10;}
	.st84{opacity:0.8;}
	.st85{fill:#1C2F3B;}
	.st86{fill:#575756;}
	.st87{fill:#F1F2F2;}
	.st88{fill:#99CCFF;}
	.st89{fill:#ECE3D4;}
	.st90{fill:#C3DF95;}
	.st91{fill:#F8D3B6;}
	.st92{fill:#F6F6F6;}
	.st93{fill:#FFF597;}
	.st94{fill:#1A4D5E;}
	.st95{fill:#2E63A5;}
	.st96{fill:#FCF9E8;}
	.st97{fill:#1A2041;}
	.st98{fill:#5488BF;}
	.st99{fill:#221D1E;}
	.st100{fill:#F8F5CC;}
	.st101{fill:#121C3D;}
	.st102{fill:#F4C625;}
	.st103{fill:#2A92B9;}
	.st104{fill:#EA9294;}
	.st105{fill:#1B193A;}
	.st106{fill:#169D94;}
	.st107{fill:#309ED0;}
	.st108{fill:#2891B9;}
	.st109{fill:#442006;}
	.st110{fill:#0E8479;}
	.st111{fill:#D0E5EF;}
	.st112{fill:#15253E;}
	.st113{fill:#1D3254;}
	.st114{fill:#ED9429;}
	.st115{fill:#438DC4;}
	.st116{fill:#EBB88A;}
	.st117{fill:#F4C526;}
	.st118{fill:#121B3C;}
	.st119{fill:#0D162C;}
	.st120{fill:#721F0C;}
	.st121{fill:url(#SVGID_00000132810718277320350660000016928619536824208793_);}
	.st122{fill:url(#SVGID_00000056405817628269781100000011664598271056574084_);}
	.st123{fill:#CC3333;}
	.st124{fill:#184C59;}
	.st125{fill:#2D7DAA;}
	.st126{fill:#F45346;}
	.st127{fill:#D37580;}
	.st128{fill:#111C3D;}
	.st129{fill:#1F4E5E;}
	.st130{fill:#5FB99E;}
	.st131{fill:#164552;}
	.st132{fill:#E7E5DC;}
	.st133{fill:#333332;}
</style>
<g id="圖層_2">
	<path class="st0" d="M469.7,723.1c9.3,135.4-29.2,190.9-93.9,299.9c-99.2,161.4-330.5,449.6,18.5,568.1
		c127.4,28.1,255.4,27.5,379.7,59c134.7,24.9,116.7,227.5,355.4,268.9c181.3,28,273.7-116.5,374.6-213.7
		c117.1-120.1,250.4-80.9,419.2-69.4c209.1,17.6,446.3-16.8,491.1-215.5c62.2-276-59.9-727.2-363-655.7
		c-372.8,88-309.3-161.5-469.4-161.5c-358.3,0-333.8-190.3-535.8-290.1c-210.6-92.7-442-27.3-535.4,131.9
		C452.1,538.9,469.7,723.1,469.7,723.1z"/>
	<path class="st1" d="M1759,1725.6c55.9-10.9,158.2,35.1,123.2,97.1c-45.7,44.8-117.3,63.1-180.6,84.1
		c-87.7,35-199-72.2-108.2-129.7C1639.7,1746.3,1699.9,1732,1759,1725.6z"/>
	<path class="st1" d="M1867.8,690.7c-79.6-11.8-204.4-88.2-167-169.4c60.8-61.1,167.9,35.5,239.5,63.6
		c40.9,27.2,111.1,41.2,130,87.4C2082.4,730,1907.5,694.4,1867.8,690.7z"/>
	<path class="st2" d="M745.8,1666c-147.6-27.6-83.5-240.4-195.5-276.2c-159.6-28.2-252.1-236.7-109.5-393.8s276.2,86.3,422.6,39.7
		s198-135,266.6-220.3c68.5-84.6,219.7-167,324.3-129.7c106.1,37.5,166.9,195.6,378.3,262.1s358.5,30.5,402.2,66.1
		c45.3,35.8-16,142.3-112.9,229.6c-98.4,86.4-22.5,164.3-13.1,250.5c9.4,87-46.1,182.6-173.5,192.3
		c-127.6,10.5-325.6-64.7-553.8-65.5C1153.2,1620.1,894.9,1694.5,745.8,1666z"/>
</g>
<g id="Layer_1">
	<g>
		<path class="st93" d="M735.2,1753c-41.6,18.1-65.4-11.3-81.3-47.3c-14.2-32.2-23.2-66.2-32.8-99.9
			c-22.1-79.7-43.9-160.5-84.7-232.9c-21.1-37.8-46.8-73.4-74-107.1C383,1166.5,283.3,1081.7,223.1,968
			c-24.8-48.1-40.6-101.2-44.3-155.3c-7.6-104.9,30.5-216.2,119-278.1c33.8-23.8,73.7-38.8,114.2-46.2
			c176-32.9,428.9,47.1,591.6,118.1c49.7,20.8,99.3,44.8,152.9,52.7c2.6,0.3,7.1,0.8,9.5,1.1c4.9,0.4,10.9,0.8,15.9,0.7
			c3.5,0.1,9.1-0.1,12.7-0.3c1.7,0,4.6-0.3,6.3-0.5c51.6-4.8,98-32.3,138.2-63.7c23.8-18.6,47-39.3,69.2-59.7
			c128.8-117.9,298.3-309.2,462.2-364.9c0,0,6.3-2.1,6.3-2.1s3.2-1.1,3.2-1.1c1.1-0.4,2.1-0.7,3.2-1c0,0,12.9-3.6,12.9-3.6
			c4.3-1.3,8.7-2.1,13.1-3.1c10.4-2.4,16.7-3.1,26.4-4.7c6.4-0.8,13.7-1.4,20.1-2c0,0,6.7-0.3,6.7-0.3s6.7-0.3,6.7-0.3
			s3.4-0.1,3.4-0.1c1.1-0.1,2.2,0,3.4,0c0,0,13.5,0.2,13.5,0.2s1.7,0,1.7,0c8.2,0.6,17.1,1,25.2,2.2c0,0,6.7,0.8,6.7,0.8
			s3.3,0.4,3.3,0.4s3.3,0.6,3.3,0.6c37.7,6.1,74.3,19.2,107.8,37.4c9.1,4.9,20.3,11.7,28.8,17.4c0,0,2.8,1.8,2.8,1.8
			s1.4,0.9,1.4,0.9s1.4,1,1.4,1s5.5,3.9,5.5,3.9c25.5,18.1,48.9,40,69.5,63.5c0.7,0.8,1.5,1.7,2.2,2.5c0,0,2.1,2.6,2.1,2.6
			s4.3,5.2,4.3,5.2c4,4.7,8.7,10.9,12.4,15.9c7.8,10.2,15.8,22.6,22.6,33.5c1.6,2.9,5.1,8.8,6.8,11.7c1.1,2,2.3,3.9,3.3,5.9
			c0,0,6.3,11.9,6.3,11.9c1.1,2,2,4,3,6c0,0,2.9,6.1,2.9,6.1c2.7,5.6,5.8,12.7,8.2,18.5c13,30.9,22.5,63.8,28.8,96.6
			c16,82.9,15.1,167.9,11.7,251.7c-7.5,139.7-16.6,278.6-7.7,418.2c2.2,52.6,4.6,105.7,3.2,158.5c-2.6,71.7-10.2,153.4-60.9,208.8
			c-97.3,108.1-349.5,39.1-469.8-2.4c-75.2-26.1-148.4-57.8-218.1-96.4c-54-29.5-105.5-64.5-155.9-99.4
			c-97.8-66.7-167.1-111.1-274.5-30.9c-41.8,31.1-78.6,68.4-114.5,106.2c-72,76.4-138,158.2-209,235.5
			c-23.8,25.7-48.1,51.1-75.1,73.6C765.7,1735.2,751.5,1745.9,735.2,1753L735.2,1753z M733.9,1750c23.8-10.7,43.7-28.4,62.8-46
			c31.8-30,60.8-62.8,89.3-95.8c80.2-92.3,154.7-191.2,242.9-276.3c126.1-120.2,200.7-102.6,336.9-12.7
			c51.3,33.3,102,66.1,156.1,94.3c68.9,36.2,141,66.4,214.8,91.2c106.1,35.1,267.3,76.7,375.3,45.2c39.1-11.6,67.7-37.5,84.5-74.9
			c13.6-29.8,19.9-63.4,23.3-96.2c9.7-103.6-1.2-208.5-1.7-312.7c-2.3-144.5,18.3-288.3,16.7-432.5c-0.7-45-4-90.4-12.5-134.6
			c-9.2-47.9-25.3-95-49.4-137.5c0,0-3.1-5.6-3.1-5.6s-3.3-5.4-3.3-5.4c-2-3.3-4.6-7.7-6.7-10.8c-2.7-3.9-7.9-12.2-10.8-15.8
			c-3.5-4.8-7.7-10.7-11.5-15.3c-8.9-11.5-19.3-23.2-29.4-33.6c-3.3-3.3-8.1-7.9-11.4-11.2c0,0-2.4-2.1-2.4-2.1s-9.5-8.5-9.5-8.5
			c-8.4-7.2-17.4-14.1-26.3-20.7c-4.9-3.2-9.6-6.7-14.5-9.9c-4.4-2.5-12.1-7.7-16.4-9.9c-18-10.2-36.9-19-56.5-25.8
			c0,0-1.5-0.5-1.5-0.5s-6.1-1.9-6.1-1.9c-8.1-2.7-16.3-4.7-24.6-6.8c-2.9-0.5-13.1-2.7-15.6-3.2c-4.4-0.6-11.3-1.7-15.8-2.3
			c-5.4-0.5-12-1.1-17.5-1.6c-3.6-0.2-14-0.5-17.5-0.6c-4.5,0.1-11.4,0.2-16,0.4c-6.1,0.5-13.1,0.9-19.1,1.6c-5.5,0.9-14,1.7-19,2.8
			c-6.3,1.3-12.7,2.2-18.8,3.9c-3.4,1-12.6,3-15.5,4c-4.3,1.4-11,3.4-15.3,4.8c-2,0.7-4,1.5-6.1,2.2c0,0-12.1,4.5-12.1,4.5
			c-15.6,6.4-32,13.9-46.8,22c-18.7,9.9-37.9,21.7-55.6,33.6c-123.2,83.4-225,193.4-333.4,294.3c-63.8,58.2-135.2,125.5-226.3,129.4
			c-49.4,2-97.1-15-142.4-32.4c-48.9-19.1-96.9-39.6-146.7-56.1c-74-25.1-149.6-46-226.5-60.2c-37.9-7-77-12.4-115.5-15
			c-40.4-2.8-81.3-2.5-121.4,3.2c0,0-6.3,1-6.3,1s-6.3,1-6.3,1c-13.6,2.6-18.4,3.7-30.7,6.9c-31.9,8.9-62.4,23.1-88.3,43.8
			c-66.2,52-98.4,137.6-99.3,220.2c-0.9,50.7,9.1,101.4,28.8,148.2c33.2,80.2,90.8,146.4,146.4,212.2
			c45.4,53.3,91.8,106.7,130.3,165.5c13.1,19.9,25.9,41.5,36.7,62.7c37.3,72.4,57.1,152,77.8,230.2c9.1,33.6,17.9,67.7,31.7,99.7
			c3.5,7.9,7.4,15.7,12.1,23C684.7,1751.9,705.5,1762.5,733.9,1750L733.9,1750z"/>
	</g>
	<g class="st84">
		<ellipse class="st85" cx="1407.7" cy="1649" rx="897.1" ry="80.7"/>
	</g>
	<g>
		<g>
			<g>
				<path class="st20" d="M2137,1445.8c12.4-3.9,24.4-9.1,35.7-15.4c4.8-2.7,10-6.2,10.9-11.6c1.8-10.2-11.9-15.4-18.9-23.2
					c-10.2-11.3-5.5-29.6,4.2-41.3c9.7-11.7,23.4-19.7,33.3-31.2c4.8-5.5,8.7-12.3,8.5-19.5c-0.5-22-35.3-29.4-39.7-51
					c-3.3-16.7,13-29.9,23.6-43.3c7.5-9.4,12.7-20.6,15.1-32.3c0.7-3.5,1.1-7.2-0.4-10.4c-4.9-9.9-20.7-4.6-30.8-9.4
					c-7.5-3.6-10.8-12.8-10-20.9c0.8-8.2,4.7-15.7,8.1-23.1c6.7-14.8,11.8-31.3,7.9-47c-3.9-15.7-19.4-29.6-35.7-26.8
					c-10.9,1.9-19.5,10.5-24.9,20c-5.4,9.5-8.4,20.1-13.2,29.9c-2.4,5-6,10.2-11.5,11.2c-8,1.5-14.2-6.3-18.9-12.8
					c-5.7-7.8-12.2-15-19.4-21.5c-4.9-4.4-10.3-8.5-16.8-9.7c-13.9-2.6-27,10-29.4,23.7c-2.4,13.6,3.1,27.4,9.4,39.7
					c6.3,12.4,13.7,24.7,15.6,38.4c0.5,3.8,0.6,7.8-1.2,11.2c-1.8,3.4-5.1,5.7-8.4,7.4c-9.4,5-20.2,7.1-30,11.6
					c-9.7,4.5-18.9,12.5-19.8,23c-1.3,16,16,26.4,29.2,36.1c12.6,9.2,23.2,21,30.2,34.7c1.3,2.5,2.5,5.3,1.8,8
					c-1,3.8-5.1,5.8-8.8,7.2c-8.2,2.9-16.8,4.8-24.5,8.8c-7.7,4-14.7,10.6-16.1,19c-2.6,15.4,13.3,27.2,27.2,35
					c15,8.5,30,16.9,45.2,25.2c9.4,5.1,20.3,14.5,15.7,23.9c-3,6.2-11.1,7.9-17.6,10.6c-6.5,2.7-12.8,10.3-8.6,15.9
					c1.3,1.7,3.4,2.7,5.4,3.6c24.4,10.8,52.3,13.6,78.5,7.9L2137,1445.8z"/>
			</g>
		</g>
		<g>
			<g>
				<g>
					<path class="st59" d="M2110.8,1455.1c-15.4-26.1-71.4-3.5-85.1-30.6c-4.5-8.9-2.7-20.2-8.7-28.1c-14.4-18.9-54.3,1.1-65.9-19.6
						c-6.1-10.8,1.5-24.9-3-36.4c-5.6-14-24.7-16.1-37.4-24.6c-20-13.4-19.8-47.3,0.5-60.4c3.7-2.4,7.9-4.2,11-7.3
						c8.8-8.9,4.9-23.7-0.4-35c-5.3-11.3-11.6-24.4-5.7-35.4c7-13.2,27.3-13.6,40-5.5c12.7,8.1,20.4,21.7,29.8,33.3
						c4,4.9,9.3,10,15.8,9.8c9.2-0.2,14.5-10.2,22.4-14.7c13-7.4,30.3,2.4,36.8,15.6c6.6,13.2,5.9,28.6,7.2,43.2
						c1.2,14.6,5.5,30.6,18,38.7c11.4,7.4,28.4,7.4,35.4,18.8c6.6,10.8-0.2,24.4-6.2,35.6c-6,11.2-10.8,26.3-1.6,35.2
						c2.6,2.5,5.9,4.1,8.7,6.4c8.3,7.2,8.8,20.3,4,30.1C2121.5,1434.1,2119.4,1448.1,2110.8,1455.1L2110.8,1455.1z"/>
				</g>
			</g>
			<g>
				<g>
					<g>
						<path class="st13" d="M2110.3,1455.4c-6.4-10.5-19.5-12.8-30.9-13.9c-12.1-1.1-24.7-0.6-36.5-3.8c-4.8-1.3-9.5-3.4-13.1-6.8
							c-4.9-4.6-6.7-10.8-7.8-17.2c-1.4-7.9-2.7-16.4-10-21.2c-5.3-3.5-12-4.3-18.2-4.6c-11.5-0.5-25,1.9-35.6-3.6
							c-5.5-2.8-8.9-7.9-9.9-13.9c-1.3-8.5,1.7-17.1,0.3-25.7c-2.7-16.3-22.4-19.5-34.8-26.3c-11.5-6.3-18-17.8-18.6-30.6
							c-0.6-12.4,4.4-25.3,15-32.6c3.9-2.6,8.4-4.4,11.7-7.9c3.2-3.3,4.6-7.7,4.7-12.2c0.3-9.2-3.7-17.6-7.4-25.7
							c-3.5-7.7-7.2-16.2-6.1-24.8c0.8-6.7,4.8-12.5,10.9-15.5c12.7-6.4,28-1.6,38.1,7.1c6.5,5.7,11.7,12.6,16.8,19.5
							c5,6.8,11,17.1,20.1,18.8c9,1.7,14.9-7.2,21-12c5.3-4.2,11.6-5.9,18.3-4.6c7.2,1.4,13.8,5.8,18.5,11.3
							c5.5,6.5,8.1,14.7,9.4,22.9c2.9,17.6,0.3,36.5,8.9,52.9c4.1,7.8,10.6,13.1,18.9,16.4c6.7,2.6,13.9,4.2,20.1,7.9
							c6.1,3.7,10.1,9.5,10.5,16.6c0.4,8.9-4,17.5-8.1,25.2c-4,7.5-7.8,15.6-7.6,24.2c0.1,4.3,1.6,8.5,4.7,11.7
							c3.2,3.2,7.6,5,10.7,8.4c4.8,5.3,6.2,12.8,5.2,19.7c-0.5,3.6-1.7,6.9-3.2,10.1c-1.7,3.8-3,7.8-4.5,11.7
							c-2.4,6.7-5.1,13.7-10.7,18.5c-0.6,0.5-1.4-0.3-0.8-0.8c6.4-5.4,8.9-13.7,11.6-21.2c2.6-7.4,6.8-14.4,6.8-22.5
							c0-4.1-0.9-8.2-3-11.8c-2.5-4.2-6.4-6.3-10.2-9.2c-5.8-4.2-8.1-10.6-7.6-17.5c0.6-7.5,3.7-14.6,7.2-21.2
							c4.3-8.1,9.3-17.4,8.2-26.8c-2-17.6-23.7-18-36.1-25c-13.6-7.7-18.2-23.7-19.7-38.1c-1.9-17.7,0.4-39.3-13.2-53.2
							c-5.5-5.6-13.3-9.9-21.4-9.6c-8.6,0.3-13.7,6.4-19.6,11.6c-4.8,4.2-10.6,7.2-17.1,4.7c-7.5-3-12.3-10.6-16.9-16.7
							c-9.8-13.2-20.6-28.6-38.6-30.6c-7.1-0.8-14.9,0.6-20.4,5.4c-7.2,6.5-7,16.5-4.4,25c4.4,14.1,17.2,30.2,10.1,45.5
							c-3.5,7.5-11.5,9.6-17.5,14.6c-5.2,4.4-8.8,10.4-10.6,16.9c-3.6,12.8-0.8,27.9,9.2,37.3c10.3,9.8,26.4,10.7,36.6,20.6
							c5.1,5,6.8,11.5,6.5,18.4c-0.3,8.5-3,18,1.7,25.8c6.6,10.8,22.1,9.7,33.2,9.6c10.8,0,24.2-0.3,31.8,8.6c5,6,5.3,14,6.9,21.2
							c1.4,6.5,4.3,12.3,10.1,16.1c9.7,6.3,22.7,6.4,33.8,7c11.1,0.6,23.3,0.8,33.4,5.9c4.3,2.2,7.8,5.3,10.2,9.3
							C2111.7,1455.4,2110.7,1456,2110.3,1455.4L2110.3,1455.4z"/>
					</g>
				</g>
			</g>
		</g>
		<g>
			<g>
				<path class="st9" d="M2089.1,1492.6c-28.6,6.6-65.1,4.9-93.4-2.8c-11.3-3.1-22.5-7.4-30.9-15.4c-13-12.4-17-31.7-14.7-49.4
					c0.9-6.6,2.9-13.7,8.5-17.5c3.3-2.3,7.4-3.1,11.4-3.5c19.9-2,39.9,5.3,56.4,16.3C2042.9,1431.5,2087.7,1480.1,2089.1,1492.6
					L2089.1,1492.6z"/>
			</g>
		</g>
		<g>
			<g>
				<g>
					<path class="st13" d="M2046.1,1474.1c-1.9-9.1-6.6-17.3-13.5-23.7c-0.5-0.5,0.3-1.3,0.8-0.8c7.1,6.5,11.8,14.9,13.8,24.2
						C2047.4,1474.5,2046.3,1474.8,2046.1,1474.1L2046.1,1474.1z"/>
				</g>
			</g>
		</g>
		<g>
			<g>
				<g>
					<path class="st13" d="M2133.4,1528.4c5.2-51.3,7.8-102.9,8-154.4c0.1-52.1-2.2-104.2-7.5-156.1c-2.9-28.8-6.8-57.5-11.8-86.1
						c-0.1-0.7,1-1,1.1-0.3c8.8,50.7,14.2,101.9,17,153.2c2.9,52.4,3,105,0.6,157.4c-1.3,28.8-3.4,57.6-6.3,86.3
						C2134.4,1529.1,2133.3,1529.1,2133.4,1528.4L2133.4,1528.4z"/>
				</g>
			</g>
		</g>
		<g>
			<g>
				<g>
					<path class="st13" d="M2143.5,1530.5c-13.6-38.5-31.1-75.7-51.8-111.2c-20.8-35.8-44.8-69.9-71.8-101.6
						c-14.8-17.4-30.4-34-47-49.8c-0.5-0.5,0.3-1.3,0.8-0.8c29.9,28.4,56.8,59.6,80.8,92.9c24.4,33.8,45.9,69.7,63.9,107.2
						c9.8,20.5,18.6,41.5,26.1,62.9C2144.9,1530.9,2143.8,1531.2,2143.5,1530.5L2143.5,1530.5z"/>
				</g>
			</g>
		</g>
		<g>
			<g>
				<g>
					<path class="st13" d="M2060.9,1369.9c0.1-12.7-0.5-25.4-1.7-38.1c-0.7-6.6-1.5-13.1-2.5-19.6c-0.5-3.1-1-6.2-1.6-9.3
						c-0.3-1.5-0.5-2.9-0.8-4.3c-0.2-0.9-0.4-1.8-0.6-2.7c0-0.2-1-3-1.1-2.6c-0.2,0.7-1.4,0.4-1.1-0.3c0.4-1.1,1.3-1,2.2-0.3
						c1.7,1.4,1.7,5.2,2.1,7.2c1.4,7.5,2.7,15,3.6,22.6c2,15.7,2.9,31.6,2.8,47.5C2062,1370.6,2060.9,1370.6,2060.9,1369.9
						L2060.9,1369.9z"/>
				</g>
			</g>
		</g>
		<g>
			<g>
				<g>
					<path class="st13" d="M2022.2,1321c-21.9-2.7-42.6-11.2-59.9-24.5c-0.6-0.4,0.2-1.2,0.8-0.8c17.1,13.1,37.6,21.5,59.1,24.2
						C2022.9,1319.9,2022.9,1321.1,2022.2,1321L2022.2,1321z"/>
				</g>
			</g>
		</g>
		<g>
			<g>
				<g>
					<path class="st13" d="M2138.1,1528.5c-14.7-12.1-30.8-22.5-47.4-31.9c-17.6-9.9-36-18.6-55.2-25.2c-9.5-3.3-19.3-6-29.3-7.7
						c-0.7-0.1-0.4-1.2,0.3-1.1c18.6,3.2,36.5,9.7,53.6,17.3c18.9,8.4,37.1,18.4,54.3,29.8c8.5,5.6,16.7,11.5,24.6,18
						C2139.5,1528.1,2138.6,1528.9,2138.1,1528.5L2138.1,1528.5z"/>
				</g>
			</g>
		</g>
		<g>
			<g>
				<g>
					<path class="st13" d="M2060.2,1480.9c-8.6,2.6-17.3,4.1-26.3,4.5c-0.7,0-0.7-1.1,0-1.1c8.9-0.4,17.5-1.9,26-4.5
						C2060.6,1479.6,2060.9,1480.6,2060.2,1480.9L2060.2,1480.9z"/>
				</g>
			</g>
		</g>
		<g>
			<g>
				<g>
					<path class="st59" d="M2158.4,1473.5c27.1-11,55.8-33.3,74.1-55.7c7.3-8.9,13.8-18.9,15.9-30.1c3.2-17.5-5.2-35.5-17.6-48.4
						c-4.7-4.9-10.5-9.4-17.3-9.4c-4,0-7.8,1.7-11.3,3.7c-17.4,9.8-29.2,27.1-36,45.5C2159.4,1397.5,2152.1,1462.6,2158.4,1473.5
						L2158.4,1473.5z"/>
				</g>
			</g>
			<g>
				<g>
					<g>
						<path class="st13" d="M2158.3,1473c26.9-11,51.3-29.7,70.3-51.3c9.4-10.7,18.5-23.1,19.8-37.6c1.3-13.7-4.3-27.3-12.6-38.2
							c-4.4-5.7-10-12.2-17.1-14.6c-7.5-2.6-14.7,1.4-20.8,5.5c-11.2,7.5-19.7,18.4-25.8,30.1c-8.6,16.6-11.1,35.1-13.3,53.4
							c-1.2,10.6-2.1,21.2-2.3,31.9c-0.1,4.2,0,8.4,0.4,12.5c0.3,2.8,0.6,5.9,1.9,8.4c0.4,0.6-0.6,1.2-1,0.6
							c-2.8-5.1-2.5-12.4-2.5-18c-0.1-10.2,0.7-20.4,1.8-30.5c2-18.7,4.1-38.3,12.3-55.6c5.8-12.1,14-23.4,24.9-31.7
							c5.2-3.9,11.4-8.1,18.1-8.6c6.9-0.5,12.8,3.7,17.4,8.2c9.9,9.7,17.5,22.7,19.3,36.4c1.9,14.1-3.5,27.1-11.8,38.4
							c-9.9,13.5-22.3,25.4-35.5,35.8c-13.2,10.4-27.7,19.5-43.4,25.9C2157.9,1474.4,2157.6,1473.3,2158.3,1473L2158.3,1473z"/>
					</g>
				</g>
			</g>
		</g>
		<g>
			<g>
				<g>
					<path class="st13" d="M2181.2,1434.4c-4-8.7-5.1-18.2-3.3-27.6c0.1-0.7,1.2-0.4,1.1,0.3c-1.8,9.1-0.7,18.3,3.2,26.8
						C2182.5,1434.5,2181.5,1435.1,2181.2,1434.4L2181.2,1434.4z"/>
				</g>
			</g>
		</g>
		<g>
			<g>
				<g>
					<path class="st13" d="M2139,1530.3c4.7-18.1,11.5-35.7,19.3-52.7c8.5-18.4,18.3-36.3,30.2-52.8c5.8-8.1,12.1-15.9,19.2-23
						c0.5-0.5,1.3,0.3,0.8,0.8c-13.3,13.3-24,29-33.4,45.1c-10.1,17.4-18.8,35.7-25.9,54.5c-3.5,9.3-6.6,18.7-9.1,28.3
						C2139.9,1531.3,2138.8,1531,2139,1530.3L2139,1530.3z"/>
				</g>
			</g>
		</g>
		<g>
			<g>
				<g>
					<path class="st13" d="M2174.5,1446.4c8.4-2.7,16.3-6.5,23.8-11.2c0.6-0.4,1.2,0.6,0.6,1c-7.5,4.8-15.5,8.6-24,11.4
						C2174.1,1447.7,2173.8,1446.6,2174.5,1446.4L2174.5,1446.4z"/>
				</g>
			</g>
		</g>
		<g>
			<g>
				<path class="st123" d="M2068.1,1549.7c7.1,36.2,4.8,79.7,11.8,118.3c37.8,2.2,86.1-1.2,123.9,1c1.4-41.8,7.3-79,8.2-122.1
					c-47.4,8.3-96.8-15-143.5-3.8L2068.1,1549.7z"/>
			</g>
		</g>
		<g>
			<g>
				<path class="st123" d="M2045,1534.9c2.1,6.9,4.1,19.4,6.2,26.3c61.2,2.6,122.4,5.1,183.7,7.7c-1.7-11.3-2.4-22.7-1.9-34
					C2171.1,1537.3,2106.8,1532.5,2045,1534.9L2045,1534.9z"/>
			</g>
		</g>
	</g>
	<g>
		<g>
			<g>
				<path class="st78" d="M775.2,860.5c-43-10.6-52.4,39.1-41.8,80.2c9.6,37.2,34.8,74.6,59,103.1c24.2,28.4,46.1,54.8,76,76.3
					c6.2,4.5,13,9.1,20.5,8.4c6.3-0.5,11.7-4.7,16.8-8.8c50.8-40.6,98-86.3,141-136.2c-12.7-17.3-25.3-34.6-38-51.8
					c-17.9,17.6-35.8,35.1-53.7,52.7c-15.2,14.9-30.5,32.2-50.4,37.6c-24.1,6.6-32.5-7.1-41.2-23.3
					C853.2,979.8,818.2,871.1,775.2,860.5z"/>
			</g>
			<g>
				<path class="st10" d="M785.9,1611.2c14.6,9,29.3,18,43.9,27c3.6,2.2,7.7,5.6,6.6,9.7c-28.6,2.4-57.6,1.1-85.9-3.8
					c-0.8-0.1-1.7-0.3-2.3-0.9c-0.7-0.7-0.9-1.8-1-2.7c-1.2-10.5-1.7-21-1.5-31.6c12.8,0.1,25.6,0.2,38.5,0.4c1.3,0,2.7,0.1,3.5,1.1
					c0.7,1-0.4,3-1.5,2.3L785.9,1611.2z"/>
			</g>
			<g>
				<path class="st58" d="M733,1606.6c21.7,11.8,42.3,25.4,61.7,40.7c-2.3,4-7.8,4.4-12.4,4.3c-30.7-0.5-61.4-1-92.1-1.5
					c-1.9,0-3.9-0.1-5.3-1.3c-2-1.6-2.1-4.6-2-7.2c0.2-8,0.4-15.9,0.6-23.9c0.1-3.3,0.3-7,2.6-9.3c2-2,4.9-2.5,7.6-2.8
					c12.4-1.5,24.9-1.8,37.4-0.7L733,1606.6z"/>
			</g>
			<path class="st4" d="M748.8,850.6c-2.1-0.9-5.2-2.5-7.4-3.4c-0.8-4.2-0.3-20.4-0.3-20.4s11-3.7,14.2-15.7
				c1.6-5.9,2.5-11.9,2.8-17.9c0.3-5,0.3-10-0.9-14.9c-2.4-9.3-10-17-19.1-20c-9.1-3-19.5-1.5-27.6,3.7c-2.1,1.4-4.2,3-5.6,5.1
				c-2,2.9-2.7,6.4-3.2,9.8c-1.6,10.9-1.3,22.1,1.2,32.8c0.8,3.6,6.8,14.2,14.6,15.8c-1.7,6.2-4.9,20.7-5.8,21.6
				c-0.5,0.5-8.3,3.4-9.8,4.2c1.7,7.5,7.4,12.4,12.5,15.1c5.5,3,14.5,4.1,20.2,1.4C740.4,865.1,745.6,856,748.8,850.6L748.8,850.6z"
				/>
			<path class="st4" d="M756.1,803.4c2.5-0.5,6.3,2,7.5,4.2c1.2,2.2,0.8,5.2-0.9,7c-1.2,1.3-3,2-4.7,2.2c-1.8,0.2-3.5-0.1-5.2-0.6
				c1.9-4.1,0.8-8.3,2-12.7L756.1,803.4z"/>
			<path class="st4" d="M702.9,805.2c-8.3-1.4-9,6.7-7.8,9.4c0.8,1.9,2.7,3.2,4.7,3.4c2,0.3,5.5-0.8,7.5-1.3
				c-1.3-3.7-3.8-6.8-4.6-10.6L702.9,805.2z"/>
			<path class="st28" d="M758.2,801.9l-3.7,17c-0.1,0.2-0.3,0.4-0.5,0.3c-1.9-0.5-2-0.8-2-0.8c1.5-9.9,3.3-23.8,1.3-33.6
				c-0.4-2.1-3.3-5.5-5.5-5.7l-0.1,9.7c-9-3-15.2-13.9-24.7-13.2c-1.3,1.5,0,3.7,1,5.4c1,1.7,1.2,4.6-0.7,4.9
				c-0.7,0.1-1.3-0.2-2-0.5c-4.1-2-8.3-4.1-12.4-6.1c-2.6,13.8-2.8,28-0.4,41.8l-3.1,0.3c-0.3-10.7-4.7-20.8-6.9-31.2
				c-2.2-10.5-1.6-22.7,6-30.1c6.6-6.4,16.7-7.5,25.8-6.6c11.1,1.1,23,5.4,28.4,15.3C764.2,778.6,761.3,790.9,758.2,801.9
				L758.2,801.9z"/>
			<path class="st23" d="M761.5,778.3c1.6-8,0.4-16.3-2-24c-0.8-2.7-6.2-17.8-36.3-15.2c-3.6,0.3-7.2-0.1-10.6,1.1
				c-6.3,2.2-10.8,8.1-13.1,14.4c-2.2,6.3-2.5,13.1-2.8,19.8c10.1-5.1,21.6-6.9,32.9-5.9c11.2,0.9,22.2,4.6,32.2,9.8L761.5,778.3z"
				/>
			<path class="st39" d="M760.5,775.6c2.4,2.1,4.8,4.2,7.2,6.3c0.5,0.4,1,1,1,1.6c-0.1,1.1-1.5,1.4-2.6,1.4
				c-15.3-0.2-30.6-0.6-45.9-1.4c-1.1-0.1-2.2-0.1-3.2-0.6c-1.4-0.7-14.2-6-17.8-9.8c2.6-1.3,6.8-3.7,9.7-4.3
				c10.2-1.9,20.7-3.8,30.9-1.9c4.7,0.9,9.2,2.5,13.6,4.2C756.7,772.3,757.3,774.4,760.5,775.6L760.5,775.6z"/>
			<path class="st28" d="M736.5,798.2c0.2,4.7,4.1,8.3,8.8,8.1c4.7-0.2,8.3-4.1,8.1-8.8c-0.2-4.7-4.1-8.3-8.8-8.1
				C739.9,789.5,736.3,793.5,736.5,798.2z"/>
			<path class="st28" d="M709.1,798.2c0.2,4.7,4.1,8.3,8.8,8.1c4.7-0.2,8.3-4.1,8.1-8.8c-0.2-4.7-4.1-8.3-8.8-8.1
				C712.6,789.6,708.9,793.5,709.1,798.2z"/>
			<g>
				<path class="st28" d="M737.1,799.6c-3.7-1-7.3-0.8-10.9,0.6c-1.5,0.6-2.2-1.8-0.8-2.3c3.9-1.5,8.1-1.7,12.2-0.7
					C739.2,797.6,738.6,800,737.1,799.6L737.1,799.6z"/>
			</g>
			<g>
				<path class="st28" d="M709.1,800.5c-1.7-0.9-3.4-1.6-5.3-2c-0.9-0.2-1.8-0.3-2.8-0.3c-1.3,0-1.9,0.6-3,0.9
					c1.5-0.4,2.3,1.9,0.8,2.3c-3.8,1-3.4-3.9-0.6-5.2c3.7-1.7,8.9,0.2,12.1,2.1C711.6,799.1,710.5,801.2,709.1,800.5L709.1,800.5z"
					/>
			</g>
			<g>
				<path class="st28" d="M752.4,797.6c2.7-2.2,6.7-4.2,10.2-3.1c3.2,1,2,4.3-0.4,5.4c-0.4,0.2-0.9,0-1.2-0.3
					c-0.4-0.4-0.5-0.7-0.6-1.3c-0.1-1.6,2.3-1.7,2.4-0.1c-0.1-0.1-0.1-0.3-0.2-0.4c-0.4-0.1-0.8-0.2-1.2-0.3
					c1.8-0.8-0.6-0.9-1.1-0.9c-0.9,0-1.8,0.2-2.6,0.5c-1.5,0.5-2.8,1.4-4.1,2.5C752.5,800.6,751.2,798.6,752.4,797.6L752.4,797.6z"
					/>
			</g>
			<g>
				<path class="st28" d="M735.7,802.1c-0.4,2.2-0.5,4.5-0.4,6.7c0.1,1.9,1,4.4,0.6,6.2c-0.6,2.6-3.8,2.2-5.8,1.9
					c-1.9-0.3-1.2-3.2,0.7-2.9c1.7,0.3,2.1,0.6,1.9-1c-0.1-1.4-0.4-2.7-0.4-4.1c-0.1-2.5,0.1-5,0.5-7.5
					C733.1,799.5,736,800.2,735.7,802.1L735.7,802.1z"/>
			</g>
			<g>
				<path class="st28" d="M729.9,824.5c-4.2-0.9-7.8-3.5-9.9-7.3c0.9-0.3,1.8-0.6,2.7-0.9c-0.1,1.2-0.1,2.4,0,3.6
					c0.1,1.9-2.9,2-3,0.1c-0.1-1.2-0.1-2.4,0-3.6c0.1-1.3,1.9-2.3,2.7-0.9c1.8,3.1,4.6,5.2,8.1,6C732.5,822,731.8,824.9,729.9,824.5
					L729.9,824.5z"/>
			</g>
			<g>
				<path class="st23" d="M733.7,739.6c0.6-0.9,0.3-2.4-0.9-2.4c-1.6,0-2.1,1.8-1.6,3.1c0.3,0.6,0.2,1.3-0.4,1.7
					c-0.5,0.3-1.4,0.2-1.7-0.4c-0.7-1.4-0.9-3.1-0.1-4.5c0.7-1.3,2.1-2.2,3.6-2.3c3-0.1,4.9,3.5,3.2,6
					C734.9,742,732.8,740.9,733.7,739.6L733.7,739.6z"/>
			</g>
			<g>
				<path class="st61" d="M824.2,1134.3c31.6,46.6,55.9,87.1,86.7,138.3c2.6,4.3,6.6,15.1,7.6,20c1,5.1-0.8,10.4-2.7,15.3
					c-35.9,94.8-73.8,188.8-113.7,282c-2.5,5.9-5.5,12.3-11.2,15.3c-3.8,2-8.3,2.1-12.6,2.2c-15.2,0.4-30.4,0.7-45.5,1.1
					c-11.1-90.1,9.4-183.7,57-260.7c3.9-6.3,8.1-12.9,8.5-20.4c0.3-6.3-2.3-12.3-4.8-18.1c-21.6-49.4-43.8-113.7-65.3-163.1
					c33.9-5.4,68.1,1,100.5-10.4L824.2,1134.3z"/>
			</g>
			<g>
				<path class="st26" d="M626.9,1144.6c16.7,154.9,33.4,309.8,50.1,464.8c0.3,2.5,0.7,5.3,2.7,6.8c1.8,1.4,4.2,1.3,6.5,1.1
					c20.2-1.5,40.5-3,60.7-4.5c34.9-151.8,34.9-310.5,38.4-466.4c-57.9-10.6-98.1-8.4-156.2,0.4L626.9,1144.6z"/>
			</g>
			<g>
				<path class="st58" d="M619.5,1169.7l222.5-9.3c0.7-51.4-7-184.9-18.9-238.1c-9.1-40.9-52.5-73.1-79.5-76.9
					c0,0-12.6,24.5-8.9,23.2L706.5,847c-26.5,3.1-67.6,36.3-76.1,61.2c-8.4,24.8-11.2,46.7-9.8,72.8
					C622.3,1010.7,617.8,1139.8,619.5,1169.7z"/>
			</g>
			<g>
				<path class="st10" d="M677.8,885.1c-44.6-3.8-46.7,43-29.9,79.3c15.2,32.8,46,63.5,74.5,86.3c28.5,22.7,54.4,43.8,87.5,59.4
					c6.9,3.2,14.4,6.5,21.8,4.9c6.2-1.4,11-5.9,15.5-10.4c44.8-44.3,75.4-74,111-125.7c-15.3-14.1-37.3-26.5-52.5-40.6
					c-15.3,18.6-13.9,16.9-29.3,35.5c-13,15.8-25.8,33.7-44.9,41.4c-23.2,9.4-33.6-2-44.8-15.7C773.7,983.6,722.5,888.9,677.8,885.1
					z"/>
			</g>
			<g>
				<path class="st4" d="M1042.3,980c14.8-15.8,22.1-38.2,19.2-59.5c-0.3-2.2-1.8-5.1-3.9-4.4c-1.2,0.4-1.7,1.7-2,2.9
					c-1.7,5.6-4.9,14.2-6.6,19.9c1.7-5.6,3-14.7,4.4-20.3c1.5-5.6,1.1-14.4-2.4-19c-8.8-1.9-7.3,16.5-10.9,23.5
					c-0.4,0.9-1.1,1.8-2.1,1.9c-1.5,0.2-2.4-1.7-2.7-3.2c-1.4-6.5-2.9-13.1-4.3-19.6c-4.7,4.2-5.5,11-7.5,16.9
					c-0.9,2.7-3.6,5.8-6.1,4.3c-0.9-0.5-1.4-1.6-1.8-2.5c-1.2-2.7-2.3-5.5-3.5-8.2c-1.6,7.4-3.1,14.9-4.7,22.3
					c-1.7,8-3.2,17,1.5,23.8c1.6,2.3,3.8,4.2,6,5.9c7.9,6.3,16.4,11.9,25.3,16.8L1042.3,980z"/>
			</g>
			<g>
				
					<rect x="949.2" y="896.3" transform="matrix(-1 -1.224647e-16 1.224647e-16 -1 1996.001 1863.5791)" class="st52" width="97.6" height="71"/>
			</g>
		</g>
		<g>
			<path class="st4" d="M916.3,948.8c0.1-0.6,0.9-3.2,1-3.8c1.3-11.5,3.9-22.9,7.7-33.8c0.4-1.2,0.9-2.5,2.1-3.1
				c2.3-1.3,5,1.3,5.9,3.7c0.9,2.5-1.2,11.6,1.1,12.8c7.8-9.3,9.5-30.9,19.9-37.4c6.2,2.9-2,19.6-4.9,28.1c0,0,2.8-4.5,4.2-6.9
				c4.1-7.5,10.5-23.6,15.7-20.4c4.9,10.6-6.8,23.2-8.5,32.2c3.4-5.1,6.8-10.2,10.3-15.3c0.9-1.3,2-2.7,3.5-2.8
				c3.1-0.2,3.8,4.3,3.2,7.3c-1.7,8.3-4.7,16.2-8.6,23.9c0,0,0-0.1,0.1-0.1l-0.2,0.4c2.6-4,9.2-12.3,11.9-10.5
				c2.4,3.9,1.5,6.2-0.8,10.2c-8.1,14.3-16.8,29.6-26.4,43.1C953.4,976.6,915.9,952.8,916.3,948.8z"/>
		</g>
	</g>
	<g>
		<path class="st16" d="M1086.7,1609.6l-113.7-44.9c-3.1-1.2-4.6-4.7-3.4-7.8l2.1-5.3c1.2-3.1,4.7-4.6,7.8-3.4l113.7,44.9
			c3.1,1.2,4.6,4.7,3.4,7.8l-2.1,5.3C1093.3,1609.3,1089.8,1610.8,1086.7,1609.6z"/>
		<g>
			<g>
				<path class="st22" d="M1197.1,1517.6c-19.8,8.5-32.7,29-30.5,50.6c2.1,21.7,18.6,39.3,39.9,43.1c20.4,3.7,40.8-6.2,51.2-23.7
					c5.6-9.4,7.5-21,6.2-31.8c-1.3-11-7-19.8-15-27.2C1235.1,1515.8,1214.9,1510.9,1197.1,1517.6c-7.1,2.7-2.3,13.5,4.8,10.8
					c10.2-3.9,22.4-2.2,31.6,3.3c15.6,9.3,22.2,25.3,17.1,42.8c-4.4,15.2-19.2,25.5-34.8,25.8c-16.9,0.4-31.9-10.8-36.4-27.2
					c-5.1-18.5,5.1-37.3,22.4-44.8C1208.9,1525.4,1204.1,1514.6,1197.1,1517.6L1197.1,1517.6z"/>
			</g>
			<path class="st22" d="M1219.8,1563.9c-0.3,2.6-2.6,4.4-5.1,4.1c-2.6-0.3-4.4-2.6-4.1-5.1c0.3-2.6,2.6-4.4,5.1-4.1
				C1218.2,1559.1,1220.1,1561.4,1219.8,1563.9z"/>
		</g>
		<path class="st4" d="M1175.2,916.8c-0.9-10.2-1.8-20.4-2.7-30.5c-0.2-2.8-0.8-6.1-3.3-7.4c-1.5-0.7-2.8,4.2-3,6.8
			c-0.2,2.5-0.1,5.2-1,7.5c-0.3,0.7-0.8,1.4-1.5,1.5c-0.3,0-0.6-0.1-0.9-0.2c-1.7-0.9-3.1-2.4-4.1-4c-5.1-8.5-10.7-16.7-16.7-24.7
			c-0.7-1-1.6-1.8-2.4-2.6c-0.5-0.5-1.2-1-2-0.7c-0.6,0.2-1,0.7-1.1,1.3c-0.3,1.2,0.3,2.3,0.8,3.3c2.2,4.3,9,18.3,8.2,18.6
			c-0.6,0.2-9.4-17.7-14.8-22c-0.6-0.5-1.4-0.5-2-0.1c-0.6,0.5-0.6,1.2-0.4,1.8c1.3,6,9.7,24.1,8.8,23.5
			c-5.3-3.4-7.5-15.9-13.4-19.7c-0.8-0.5-1.7-0.9-2.6-0.4c-3.4,2,10,25.1,9.1,25c-1.5-0.1-9.9-11.4-13-13.4
			c-0.7-0.4-1.6-0.5-2.2-0.1c-0.8,0.5-0.8,1.4-0.6,2.2c0.2,0.9,0.6,1.8,1,2.6c8.4,17.8,18,35.3,31.4,49.6c0.3,0.4,0.7,0.7,1.2,0.9
			c0.4,0.1,0.8,0,1.2-0.1c6-1.3,11.7-4.4,16.1-8.7c3.6-3.5,4.4-7.3,9.3-8.4L1175.2,916.8z"/>
		<path class="st40" d="M1830.1,873.7c0,1.7-5.4,3-12.2,3c-6.7,0-12.2-1.4-12.2-3c0-1.7,5.4-3,12.2-3
			C1824.6,870.7,1830.1,872,1830.1,873.7z"/>
		<path class="st4" d="M1818.6,916.2c-0.3-10.5,13.3-19,2.8-18.6c-10.5,0.4-28.1,2.4-36.4,8.8c-11.4,8.8-18.9,38.9-21.5,49.1
			c-9.1,34.9-14.8,72.8-38.1,101.5c-13.3,16.4-100.1,45.5-147,51.6c8.1,17.2,7.6,25.2,11.5,43.8c27-5.7,149.6-21,172.9-43
			c25.7-24.2,32.3-68.5,42.3-102.4c5.1-17.3,10.3-34.8,12.4-52.7c1.6-13.2,1.5-26.5-0.3-39.7L1818.6,916.2z"/>
		<path class="st41" d="M1805.6,904.3c-8.2-8.5-22.2-6-31.3,1.6c-9.1,7.6-13.6,19.2-17.4,30.5c-8.9,26.6-15.3,54-19.2,81.7
			c20.2,6.9,40.4,13.9,60.6,20.8c1.2,0.4,2.5,0.9,3.8,0.8c3.5-0.2,5.6-3.8,7-7c14.1-31.7,17.7-67.9,10.1-101.7
			c-3.1-13.7-10-29-23.7-31.9L1805.6,904.3z"/>
		<path class="st4" d="M1582,1106.5c-9.4-0.9-21.8-1.4-31.3-2.2c-1.9,4.7-5.8,12.2-6.8,19.1c12.5-0.7,26.5-9.8,37.4-16.1
			L1582,1106.5z"/>
		<path class="st4" d="M1598.8,1141.4c-3,1.3-6.1,9.4-9,11c-5.7,3.2-11.9,10-24.3,15.9c-9.4-7.8-18.8-15.7-28.2-23.5
			c-0.8-0.7-1.7-1.5-1.8-2.6c0-0.6,0.3-1.3,0.5-1.8c3.5-7.3,7.1-14.6,10.6-22c0.6-1.3,1.3-2.7,2.5-3.5c0.9-0.6,2-0.8,3.1-1
			c7.3-1.3,18.7-4,25.9-5.3c7.2,11.4,10.2,24.1,17.5,35.5c0.3,0.5,0.6,1.2,0.2,1.7c-0.4,0.5-1.2-0.5-0.6-0.6L1598.8,1141.4z"/>
		<path class="st42" d="M1400.2,1031.2c-23,6.6-46.8,12.3-70.6,9.9c-37-3.7-69.6-26.3-96.4-52.1c-28-27-36.1-45.7-54.3-81.1
			c-8,9.2-32.6,30.8-39.1,32c-2.2,0.4,69.6,171.7,197.7,186c3.7,0.4,7.6,2.4,10.5,0.1c16.1-12.8,28.5-30.2,35.4-49.5
			c5.3-14.8,7.7-31.1,16.4-44.2c0.2-0.2,0.3-0.5,0.3-0.8L1400.2,1031.2z"/>
		<path class="st109" d="M1463.3,940.8c-15.9-6.7-40.4,18.1-40.1,37.5c0.1,5.2,1.3,10.6,4.9,14.4c5.3,5.4,14.5,6.3,18.5,12.7
			c6.8,10.6-5.8,27.8,3.5,36.3c6.6,6,18.5,1.3,25.2,7.1c3.1,2.7,4.3,7,6.6,10.4c4.7,7.2,15,10,22.8,6.4
			c10.1-4.7,15.8-18.4,26.9-18.7c11-0.3,19.2,13.6,30.1,11.9c3.1-0.5,5.9-2.2,8.3-4.2c6-5.2,10.1-12.9,10-20.8
			c-0.1-7.9-4.7-15.9-12-19.1c-6.4-2.8-15.5-3.1-17.7-9.7c-2.9-8.7,10.3-15.9,9.1-25c-0.7-5.6-6.7-9-12.3-9.4
			c-5.6-0.4-11.1,1.4-16.7,1.9c-5.6,0.5-12-0.6-15.2-5.1c-1.7-2.4-2.3-5.3-3.1-8.1c-3.8-12-15.6-22-28-20.3
			C1477,939.9,1469.5,944.3,1463.3,940.8L1463.3,940.8z"/>
		<g>
			<g>
				<g>
					<g>
						<path class="st22" d="M1372.2,1362.5c-54.9,22.8-91.5,80.1-86.8,139.6c2.3,29.2,14.2,58,33.2,80.2
							c20,23.4,47.7,38.7,77.9,44.4c31.7,6,62.2-0.2,91.1-13.7c24.2-11.4,42.7-31.5,56.1-54.4c15.8-27.1,20.7-61.8,15.9-92.7
							c-4.7-30.8-22.4-55.3-45.5-75.6c-35.2-30.8-85.1-44.3-130.6-31.5C1379.7,1359.8,1375.9,1361.1,1372.2,1362.5
							c-7.7,3-2.5,14.8,5.3,11.8c35.2-13.8,77.4-7.9,109.1,11.8c22.8,14.1,45.5,36,55.1,61.6c10.1,26.9,8.1,58.5-0.5,85.5
							c-4.2,13-11.6,24.7-20,35.4c-6,7.7-12.6,15.4-20.2,21.5c-10.9,8.7-24.5,14.4-37.5,19.1c-13.5,4.9-28,7.3-42.4,7.1
							c-28.2-0.4-55.9-9.8-77.8-27.7c-21-17.2-35.8-42-42-68.4c-14.1-60.1,19.4-122.3,76.2-145.9
							C1385.2,1371.1,1379.9,1359.3,1372.2,1362.5L1372.2,1362.5z"/>
					</g>
				</g>
				<g>
					<g>
						<path class="st22" d="M1381.5,1383.9c-45.4,18.9-75.9,66.3-71.6,115.7c4.5,51.3,42.8,94.1,93.9,102.5
							c26.2,4.3,51.4-1.2,75-12.9c19.2-9.5,33.8-26.3,44.4-44.6c12.7-22.1,16.4-50.7,12.6-75.7c-3.9-25.1-18.3-45.1-37.2-61.6
							C1467.1,1379.8,1421.1,1368.5,1381.5,1383.9c-1.7,0.6-0.5,3.2,1.1,2.5c31.5-12.3,68.9-7.1,97.3,10.5
							c19.8,12.3,39.5,31.4,48.1,53.5c9.3,24.2,7.7,52.6-0.1,76.9c-6,18.7-19.9,37.6-35.2,50c-9.2,7.4-20.6,12.3-31.5,16.5
							c-12.3,4.7-25.4,7.1-38.6,7.1c-50.9,0-94.9-34.8-107.1-84.1c-13.2-53.5,16.5-109.3,67.1-130.3
							C1384.3,1385.8,1383.2,1383.3,1381.5,1383.9L1381.5,1383.9z"/>
					</g>
				</g>
				<g>
					<path class="st22" d="M1437,1493.4c-0.8,7.8-7.9,13.4-15.7,12.6c-7.8-0.8-13.4-7.9-12.6-15.7s7.9-13.4,15.7-12.6
						C1432.2,1478.6,1437.8,1485.6,1437,1493.4z"/>
				</g>
				<g>
					
						<rect x="1422.4" y="1359.9" transform="matrix(0.1118 -0.9937 0.9937 0.1118 -218.0825 2738.7268)" class="st22" width="1.2" height="262.9"/>
				</g>
				<g>
					
						<rect x="1422.3" y="1360.4" transform="matrix(0.8033 -0.5956 0.5956 0.8033 -608.6084 1140.7986)" class="st22" width="1.2" height="262.9"/>
				</g>
				<g>
					
						<rect x="1291" y="1494.4" transform="matrix(0.8035 -0.5953 0.5953 0.8035 -610.4213 1140.5212)" class="st22" width="262.9" height="1.2"/>
				</g>
				<g>
					
						<rect x="1291.6" y="1490" transform="matrix(9.344654e-02 -0.9956 0.9956 9.344654e-02 -193.974 2768.0886)" class="st22" width="262.9" height="1.2"/>
				</g>
			</g>
			<g>
				<g>
					<path class="st22" d="M1432.5,1491.3c4.7-42.9,9.3-85.8,14-128.8c7.4-67.8,14.8-135.6,22.1-203.4c1.7-15.4,3.4-30.9,5-46.3
						c-1.1,0.9-2.2,1.7-3.2,2.6c26.8,2.9,53.7,5.8,80.5,8.8c3.8,0.4,4.4-5.4,0.6-5.9c-26.8-2.9-53.7-5.8-80.5-8.8
						c-1.6-0.2-3.1,1-3.2,2.6c-4.7,42.9-9.3,85.8-14,128.8c-7.4,67.8-14.8,135.6-22.1,203.4c-1.7,15.4-3.4,30.9-5,46.3
						C1426.3,1494.4,1432.1,1495.1,1432.5,1491.3L1432.5,1491.3z"/>
				</g>
				<path class="st22" d="M1616.9,1149.7l-94.1-10.2c-7.7-0.8-13.4-7.9-12.5-15.6l0.8-7c0.8-7.7,7.9-13.4,15.6-12.5l94.1,10.2
					c7.7,0.8,13.4,7.9,12.5,15.6l-0.8,7C1631.7,1144.9,1624.7,1150.5,1616.9,1149.7z"/>
				<path class="st22" d="M1420.6,1391.7l-219.1-23.8c-11.9-1.3-20.5-12-19.2-23.8l2.5-23.2c1.3-11.9,12-20.5,23.8-19.2l219.1,23.8
					c11.9,1.3,20.5,12,19.2,23.8l-2.5,23.2C1443.2,1384.4,1432.5,1393,1420.6,1391.7z"/>
				<g>
					<path class="st22" d="M1443,1349.9c-24.6-2.7-49.2-5.4-73.8-8c-39.3-4.3-78.5-8.5-117.8-12.8c-9.1-1-18.2-2-27.3-3
						c0.9,1.1,1.7,2.1,2.6,3.2c1.9-17.1,3.7-34.2,5.6-51.3c-1.1,0.9-2.1,1.7-3.2,2.6c24.6,2.7,49.2,5.4,73.8,8
						c39.3,4.3,78.5,8.5,117.8,12.8c9.1,1,18.2,2,27.3,3c-0.9-1.1-1.7-2.1-2.6-3.2c-1.9,17.1-3.7,34.2-5.6,51.3
						c-0.4,3.7,5.4,4.4,5.8,0.6c1.9-17.1,3.7-34.2,5.6-51.3c0.2-1.6-1-3.1-2.6-3.2c-24.6-2.7-49.2-5.4-73.8-8
						c-39.3-4.3-78.5-8.5-117.8-12.8c-9.1-1-18.2-2-27.3-3c-1.6-0.2-3.1,1-3.2,2.6c-1.9,17.1-3.7,34.2-5.6,51.3
						c-0.2,1.6,1,3.1,2.6,3.2c24.6,2.7,49.2,5.4,73.8,8c39.3,4.3,78.5,8.5,117.8,12.8c9.1,1,18.2,2,27.3,3
						C1446.2,1356.1,1446.8,1350.3,1443,1349.9z"/>
				</g>
				<path class="st22" d="M1374.4,1293.4l-124.2-13.5c-4.7-0.5-8.2-4.8-7.7-9.5l0,0c0.5-4.7,4.8-8.2,9.5-7.7l124.2,13.5
					c4.7,0.5,8.2,4.8,7.7,9.5l0,0C1383.4,1290.5,1379.2,1294,1374.4,1293.4z"/>
			</g>
		</g>
		<path class="st4" d="M1481.2,1333.9c0.4,28.1-1.7,61.5-23.8,77.6c-21.5,15.7-49.6,6-73.1-3.5c-48.5-19.6-98.1-36.1-148.7-49.3
			c-7.3-1.9-18.7-9.7-22.5-3.1c-78,138.2-112.1,153.3-116.1,206.9c-19.3-2-41.5-16-40.4-19.5c19.7-60.6,30.4-132.4,68.6-206.4
			c18.1-34.9,34.8-62,67-75.5c20.6-8.6,29.8-5.9,51.3-3.5c36.5,4.1,120.7,37.5,156.8,44c46.7,8.4,48.3-7.5,79.7,29.6L1481.2,1333.9z
			"/>
		<path class="st123" d="M1121.7,1521.5c-9.5,25.4-21.4,49.9-35.5,73c-15.2-5.6-30.3-11.3-45.5-16.9c-16.8-6.3-43.2-15.5-61.5-25.4
			c17.9-6.7,68-5.4,68.8-6.3c0.6-0.7,10.2-33.1,14.8-48.4c6.8,1.2,42.7,8.6,58.7,22.4L1121.7,1521.5z"/>
		<path class="st4" d="M1493.9,1324.1c5.3,27.6,9,60.8-9.9,80.6c-18.5,19.3-47.8,14.6-72.6,9.3c-51.1-10.9-89.7-31.1-141.7-35.3
			c-7.6-0.6-37.9-1.2-40.8,5.9c-18.4,45.4-50.6,139.5-67.3,197.2c-10.2-5.8-37.7-8.1-36.7-11.7c18.6-72.5,7.8-246.8,62.9-276.2
			c19.7-10.5,41.2-16.1,62.8-17.5c36.7-2.3,69.6,10.7,106.3,10.8c47.5,0.1,98.2,3.6,135.6,34.7L1493.9,1324.1z"/>
		<path class="st4" d="M1461.4,1050.4c-21.7-1.1-39.4,2.4-59.1-12.2c3.4-5,25.3-14.9,28.9-19.4c3.6-4.6,6.1-15.2,6.9-16.7
			c-3.4-0.8-6.9-3.1-6.4-10.4c0.7-9.9,5.5-19.1,10.1-27.9c1.2-2.2,2.4-4.4,4.3-6c3.8-3,9.5-2.7,13.1,0.4c3.6,3.1,6.4,8.7,5.4,13.5
			l0,0c-0.9,5.9-1.8,11.8-4.1,17.2c0.5,0.6,0.9,1.3,1.3,2.1c0.8,1.6,1.5,3.5,1,5.2c-0.6,1.9-2.6,3.1-4.6,3.3c-1.7,0.1-5-0.7-5-0.7
			c-5.1,7.1-7.6,19.8-8.3,23.6C1444.3,1025.9,1452.2,1044.3,1461.4,1050.4z"/>
		<path class="st123" d="M1182.5,1546.6c-4.9,26.6-12.4,52.8-22.2,78c-15.9-2.9-31.9-5.8-47.8-8.8c-17.6-3.2-45.2-7.7-65-14.3
			c16.4-9.7,66-17.1,66.7-18.2c0.5-0.8,4.3-34.4,6.1-50.2c6.9,0,43.5,1.1,61.7,11.8L1182.5,1546.6z"/>
		<path class="st104" d="M1323.2,1254.4c-31.5-8.1-63.5-16.3-96-15.9c-32.5,0.5-66.3,10.6-88.6,34.3c-19.3,20.4-28.3,48.5-46.4,69.9
			c22.9,28.9,52.3,59.7,128.9,79.8c7-23.6,29.4-42.5,53.8-44.8c24.5-2.3,48.8,4.6,72.8,10c33.3,7.5,67.3,12.1,101.4,13.7
			c12.8,0.6,26.8,0.5,37.1-7.1c16.9-12.4,16.1-37.5,13.5-58.4c-0.6-4.5-1.2-9.3-3.8-13c-2.9-4.1-7.8-6.2-12.4-8.2
			c-40.6-17.2-81.1-34.4-121.7-51.6c-15.1-6.4-30.8-12.9-47.2-12.1L1323.2,1254.4z"/>
		<g>
			<path class="st22" d="M1235.7,1362.7c-6.3,58.3-12.7,116.5-19,174.8c-0.9,8.1-1.8,16.3-2.7,24.4c-0.2,1.8,2.5,2.1,2.7,0.3
				c6.3-58.3,12.7-116.5,19-174.8c0.9-8.1,1.8-16.3,2.7-24.4C1238.6,1361.3,1235.9,1361,1235.7,1362.7L1235.7,1362.7z"/>
		</g>
		<polygon class="st16" points="1543.9,1202.6 1494,1157.8 1478.1,1304.1 1526.1,1335.2 		"/>
		<g>
			<g>
				<path class="st16" d="M1460.1,1418.6c-49.9,20.8-82.9,73.5-78.2,127.5c4.9,57,48.1,103.8,104.6,112.7c28.7,4.5,56.5-2,82.1-14.9
					c21.2-10.6,37.3-29.7,48.8-50.2c14.7-26.2,18.2-61.5,11.3-90.5c-6.5-27.2-26.3-50.1-48.5-66.4
					C1546.2,1411.8,1500,1403,1460.1,1418.6c-7.7,3-11.1-9.5-3.4-12.5c39-15.2,85.6-8.6,120.7,13.2c24.7,15.3,48.6,38.9,59.3,66.3
					c12,30.6,10.3,68.2-0.9,98.8c-8.3,22.7-25.4,46.2-44.9,60.8c-24.7,18.5-58.3,28.6-89,27.7c-62.8-1.9-116.2-46.1-130-107.3
					c-15-66.4,22.5-133.7,84.7-159.6C1464.4,1402.9,1467.7,1415.4,1460.1,1418.6L1460.1,1418.6z"/>
			</g>
			<g>
				<path class="st16" d="M1466,1430.5c-44.4,18.6-74.3,65.1-69.8,113.5c4.7,50.9,43.4,92.7,94.2,99.8c25.4,3.6,49.9-2.3,72.5-14
					c18.3-9.5,32.7-26.7,42.5-44.6c12.9-23.5,15.8-54.8,9.3-80.6c-6.1-24.3-24.1-44.4-43.9-58.8
					C1541.2,1424.3,1500.5,1417.1,1466,1430.5c-1.7,0.6-2.4-2-0.7-2.7c32.3-12.6,70.4-7.3,99.6,10.7c20.1,12.4,39.9,31.6,48.8,53.8
					c10.2,25.4,8.8,56.5-0.3,82.1c-16.1,45.1-62.5,74.2-109.7,73.2c-51.4-1.1-95.3-36.8-107.4-86.7c-13.3-54.9,17.4-111.5,69-133.1
					C1466.9,1427.1,1467.6,1429.8,1466,1430.5L1466,1430.5z"/>
			</g>
			<path class="st16" d="M1520.5,1537.3c-0.8,7.8-7.9,13.4-15.7,12.6c-7.8-0.8-13.4-7.9-12.6-15.7c0.8-7.8,7.9-13.4,15.7-12.6
				C1515.7,1522.5,1521.4,1529.5,1520.5,1537.3z"/>
			<path class="st46" d="M1375.9,1520.6l261.3,29.4L1375.9,1520.6z"/>
			<path class="st46" d="M1428.1,1430.2l156.6,211.2L1428.1,1430.2z"/>
			<path class="st46" d="M1400.4,1617.1l211.3-156.4L1400.4,1617.1z"/>
			<path class="st46" d="M1518.9,1403.6l-24.6,261.8L1518.9,1403.6z"/>
		</g>
		<g>
			<g>
				<path class="st16" d="M1244.9,1567.6c-20.7,9.1-30.8,32.9-19.6,53.4c10.6,19.3,37,24.6,54.7,11.7c18-13.1,19.7-40.1,4-55.3
					c-10.8-10.4-26.3-14.5-40.5-9.2c-7.1,2.7-10.2-8.7-3.1-11.4c14.2-5.3,31.1-2.9,43.6,5.5c19.5,13,27.7,35.1,19.6,57.5
					c-6.8,18.9-25.4,31.3-45.2,31.8c-21.9,0.5-41.4-13.9-47.7-34.8c-7.1-23.9,5.5-49.4,28.1-59.4
					C1245.8,1554.4,1251.9,1564.6,1244.9,1567.6L1244.9,1567.6z"/>
			</g>
			<path class="st16" d="M1262.2,1603.4c-0.3,2.6-2.6,4.4-5.1,4.1c-2.6-0.3-4.4-2.6-4.1-5.1c0.3-2.6,2.6-4.4,5.1-4.1
				C1260.7,1598.6,1262.5,1600.9,1262.2,1603.4z"/>
		</g>
		<g>
			<path class="st16" d="M1503.4,1535.8c4.6-42.6,9.3-85.2,13.9-127.7c7.4-67.9,14.8-135.9,22.2-203.8c1.7-15.7,3.4-31.4,5.1-47
				c0.2-1.4,1.2-3.1,2.9-2.9c26.8,2.9,53.7,5.8,80.5,8.8c3.7,0.4,3.8,6.3,0,5.9c-26.8-2.9-53.7-5.8-80.5-8.8c1-1,2-2,2.9-2.9
				c-4.6,42.6-9.3,85.2-13.9,127.7c-7.4,67.9-14.8,135.9-22.2,203.8c-1.7,15.7-3.4,31.4-5.1,47
				C1508.9,1539.5,1503,1539.6,1503.4,1535.8L1503.4,1535.8z"/>
		</g>
		<path class="st16" d="M1693.7,1194.5l-94.1-10.2c-7.7-0.8-13.4-7.9-12.5-15.6l0.8-7c0.8-7.7,7.9-13.4,15.6-12.5l94.1,10.2
			c7.7,0.8,13.4,7.9,12.5,15.6l-0.8,7C1708.5,1189.7,1701.5,1195.3,1693.7,1194.5z"/>
		<path class="st16" d="M1500.8,1436.9l-250.5-27.3c-10-1.1-17.3-10.1-16.2-20.1l3.2-29.9c1.1-10,10.1-17.3,20.1-16.2l250.5,27.3
			c10,1.1,17.3,10.1,16.2,20.1l-3.2,29.9C1519.8,1430.8,1510.8,1438,1500.8,1436.9z"/>
		<g>
			<path class="st16" d="M1519.5,1400.6c-63.9-7-127.9-13.9-191.8-20.9c-9-1-18-2-27-2.9c-1.4-0.2-3.1-1.2-2.9-2.9
				c1.9-17.1,3.7-34.2,5.6-51.3c0.2-1.4,1.2-3.1,2.9-2.9c63.9,7,127.9,13.9,191.8,20.9c9,1,18,2,27,2.9c1.4,0.2,3.1,1.2,2.9,2.9
				c-1.9,17.1-3.7,34.2-5.6,51.3c-0.4,3.7-6.3,3.7-5.8,0c1.9-17.1,3.7-34.2,5.6-51.3c1,1,1.9,1.9,2.9,2.9
				c-63.9-7-127.9-13.9-191.8-20.9c-9-1-18-2-27-2.9c1-1,1.9-1.9,2.9-2.9c-1.9,17.1-3.7,34.2-5.6,51.3c-1-1-1.9-1.9-2.9-2.9
				c63.9,7,127.9,13.9,191.8,20.9c9,1,18,2,27,2.9C1523.2,1395.1,1523.3,1401,1519.5,1400.6z"/>
		</g>
		<g>
			<path class="st16" d="M1280.8,1402.4c-6.3,58.2-12.7,116.5-19,174.7c-0.9,8.2-1.8,16.4-2.7,24.5c-0.2,1.7-2.9,1.8-2.8,0
				c6.3-58.2,12.7-116.5,19-174.7c0.9-8.2,1.8-16.4,2.7-24.5C1278.3,1400.6,1281,1400.6,1280.8,1402.4L1280.8,1402.4z"/>
		</g>
		<path class="st16" d="M1170.5,1643.7l-119.5-25.4c-3.2-0.7-5.3-3.9-4.6-7.1l1.2-5.5c0.7-3.2,3.9-5.3,7.1-4.6l119.5,25.4
			c3.2,0.7,5.3,3.9,4.6,7.1l-1.2,5.5C1176.9,1642.3,1173.7,1644.4,1170.5,1643.7z"/>
		<g>
			<path class="st16" d="M1168.1,1632.4c18.4-71.2,36.9-142.3,55.3-213.5c2.6-10.1,5.2-20.1,7.8-30.2c1-3.7,6.6-2.1,5.7,1.6
				c-18.4,71.2-36.9,142.3-55.3,213.5c-2.6,10.1-5.2,20.1-7.8,30.2C1172.8,1637.7,1167.1,1636.1,1168.1,1632.4L1168.1,1632.4z"/>
		</g>
		<path class="st109" d="M1443.4,956.7c-3.4,4-0.5,10.5,3.9,13.5c4.4,2.9,9.9,3.8,14.4,6.5c4.6,2.6,8.3,8.5,5.7,13.1
			c5.5-4.6,8.4-12.2,7.3-19.3c-1.1-7.1-6.1-13.5-12.7-16.3c-5.8-2.4-13.4-1.7-17.2,3.4c-0.3,0.4-0.6,0.8-1,0.7
			c-0.4-0.1-0.1-1,0.2-0.6L1443.4,956.7z"/>
		<path class="st26" d="M1503.9,1335.2c0,0-52.7-10.6-122.3-33.6c-69-22.7-70.2-50.3-70.2-50.3c4.5-46.5,17-118.8,32.4-165.8
			c11.8-36.1,52.2-61.2,75.6-62.1c0,0-1,2.1-1.5,5c-1.4,8.1,8.8,12.4,18,10.2c9.2-2.2,15.1-10.4,15.1-10.4
			c22.4,5.3,54.4,39.1,59.1,62.4c4.8,23.2,2,56.7-1.6,80.2C1490.4,1290,1508.3,1308.4,1503.9,1335.2z"/>
		<path class="st16" d="M1451.2,1338.3l-124.2-13.5c-4.7-0.5-8.2-4.8-7.7-9.5l0,0c0.5-4.7,4.8-8.2,9.5-7.7l124.2,13.5
			c4.7,0.5,8.2,4.8,7.7,9.5l0,0C1460.2,1335.3,1455.9,1338.8,1451.2,1338.3z"/>
		<path class="st16" d="M1844.5,825.7c1.2,13.4,1.3,27-1.5,40.2c-8.6,2.8-23.1,2.1-32.1,0.8C1809.2,830.8,1830.9,834.9,1844.5,825.7
			L1844.5,825.7z"/>
		<path class="st4" d="M1865.9,1088.8c31.5,64,60.5,167.8,100.3,211c15.1,16.4,75.1-6.3,102.8-18.1c40.1-17,56.2-22.9,91-49.5
			c11.7,34,16.7,24.5,19.4,38.1c0.7,3.5-160.5,140.5-224,124.4c-33.5-8.5-56.3-45.6-71.3-77.5c-18.6-39.5-37.1-78.9-55.7-118.4
			c-2.1-4.4-4.2-9.1-4.1-14c0.1-4.8,2.3-9.3,4.5-13.5C1841,1147.3,1853.8,1112.7,1865.9,1088.8L1865.9,1088.8z"/>
		<path class="st47" d="M1819.5,1247.7c7.6,29.3,14.9,48.3,33.2,72.1c31.4,40.9,84.2,85.8,110.8,84.9c6.9-40.3,36.6-99.2,37.5-114.7
			c-79,6-119.7-209.3-124.3-208.4c-18.6,3.5-49,9.5-67.6,12.9c-2.7,0.5-5.6,1.1-7.6,3c-2.6,2.6-3,6.7-3,10.4
			C1797.5,1155.5,1799.4,1204.7,1819.5,1247.7L1819.5,1247.7z"/>
		<g>
			<path class="st4" d="M1839,823.6c1.6-7.3-7.1-11.2-14.3-12.1c-7.2-0.9-11.9,0.1-15.9,6.3c-4,6.2-5.3,13.9-5.5,21.3
				c-0.3,9.4,1.7,20,9.4,25.1c9.3,6.2,22.7,0.4,27.9-9.6C1845.6,844.6,1843.1,834.1,1839,823.6L1839,823.6z"/>
		</g>
		<path class="st4" d="M1816.6,862.3c-0.8,4.7-1.2,14.5-2,19.2c-0.3,1.5-0.5,3.1-1.3,4.4c-0.7,1.2-4,5.5-4.5,6.8
			c-3.1,8.5-4.9,9.1-9,21.5c19.3,1.8,16.1,0.6,35.5-0.1c-2-10-5.4-21.8-8.7-31.5c-2.4-6.9-3.4-18.6-3.4-18.6
			c-0.3-0.7-0.9-1.6-1.6-1.4c-0.8,0.1-0.1,1.7,0.3,1.1L1816.6,862.3z"/>
		<path class="st4" d="M1839.9,844.4c1.5-1.9,4.6-2.1,6.4-0.4c1.8,1.6,2.1,4.6,0.8,6.7c-1.8,3-6.4,3.5-8.8,1.1L1839.9,844.4z"/>
		<path class="st45" d="M1808.6,886.1c0.4,5.4,5,7,10.3,6.8c4.5-0.2,9.7-3.4,7.9-11.3c33.6,43.8,48.5,208.2,47.4,210
			c-1,1.6-94,7.4-96.5,6.7C1769.8,1095.8,1748.9,951.2,1808.6,886.1L1808.6,886.1z"/>
		<path class="st4" d="M1779.4,1098.8c-22.1,49.9-67.8,172-69.1,230.1c-1,42.9,127.1,277.9,134.7,295c4.3,9.6,32,3.4,50.9,3.6
			c-32.5-87-60.7-174-93.2-260.9c-8.4-22.5-17-46.2-13.5-70.1c2.4-16.6,57.6-128.3,74.2-170.5c4.3-11,8.6-23.1,5.5-34.6
			c-0.5-1.9-1.3-3.8-2.8-5c-2.2-1.8-5.3-1.5-8.1-1.2c-24.9,2.9-49.8,5.8-74.7,8.7L1779.4,1098.8z"/>
		<path class="st48" d="M1773.1,1094c-21.9,67.6-68.7,126.7-76.8,197.5c-7,61.7,19.1,151.7,20.8,153.2c0,0,88.9-9.2,117-14.4
			c-25.9-55.6-43.4-122.8-8.9-178.4c14.8-23.8,60.9-51.7,69.8-84.2c9-33.1-7.1-59.7-20.5-91.2
			C1842.3,1082.8,1805.7,1091.3,1773.1,1094L1773.1,1094z"/>
		<path class="st44" d="M1834.3,1611.3c3.7,12.1,6.4,24.5-7,26.6c-10.5,1.6-15.8,0.5-25.9,4c-10.1,3.5-19.7,14.5-17.7,25.2
			c43-0.1,84.3,0,126.1,1.2c5.1-18.6,0.1-30.3-10-46.6c-0.6-0.9-4.2-10.8-5.2-11.3C1893.6,1609.9,1846.6,1614.7,1834.3,1611.3
			L1834.3,1611.3z"/>
		<path class="st44" d="M2160.4,1293.9c7.6-8.4,15.9-16.3,23.6-6.4c6.1,7.8,7.6,12.5,14.8,19c7.3,6.6,20.1,9.3,27.4,2.8
			c-19.6-34.6-38.3-67.9-56.3-102.2c-16.6,4.3-23.3,13.7-31.2,29.2c-0.4,0.9-6.4,8.3-6.3,9.3
			C2132.4,1246.8,2157.4,1282.4,2160.4,1293.9L2160.4,1293.9z"/>
		<path class="st4" d="M1701.7,1147.8c-10.7-3.4-24.9-7.2-35.5-10.6c-3.4,4.9-9.8,12.6-12.8,20.3c14.6,2.4,33.1-4.5,47.4-9
			L1701.7,1147.8z"/>
		<path class="st4" d="M1712.2,1192.4c-3.8,0.7-9.4,9.3-13.2,10.4c-7.4,2.3-16.4,8.5-32.1,12.1c-8.8-11.5-17.7-23-26.5-34.4
			c-0.8-1-1.6-2.2-1.4-3.4c0.1-0.8,0.6-1.4,1.1-2c6-7.5,11.9-15.1,17.9-22.6c1.1-1.4,2.2-2.8,3.8-3.4c1.2-0.5,2.5-0.4,3.8-0.4
			c8.7,0.4,22.6,0.2,31.3,0.5c5.4,15,5.6,30.5,11,45.5c0.2,0.7,0.4,1.5-0.1,2c-0.6,0.4-1.2-0.9-0.5-0.9L1712.2,1192.4z"/>
		<path class="st4" d="M1817.5,965.4c-7.4-13.4-14.5-45.5-4.3-57.4c10.2-11.9,20.1-12.4,34.7-7.7c18.9,6.1,31.3,28.4,39.9,41.3
			c20.4,30.7,29.8,75.6,41.7,110.7c3.7,10.8,7.3,22.5,3.8,33.4c-2.1,6.8-6.8,12.4-11.6,17.6c-27.2,29.3-62.5,49.8-99.3,64.2
			c-36.9,14.4-76.4,20.4-115,28.6c-5.5-19-4.8-27.6-10.4-46.6c28.2-9.6,54.9-20.1,83.1-29.8c23-7.8,55.3-24.4,71.3-43.1
			c6.6-7.7-2.1-40.2-4.6-48C1839.6,1005.2,1828.5,985.1,1817.5,965.4L1817.5,965.4z"/>
		<g>
			<path class="st13" d="M1832.7,844.8c-1.9,3.5-10.6,4.5-10.4-0.8c0-1.2,1.9-1.2,1.9,0c-0.1,3.2,5.9,1.7,6.9-0.1
				C1831.6,842.8,1833.2,843.7,1832.7,844.8L1832.7,844.8z"/>
		</g>
		<g>
			<path class="st13" d="M1813,843.7c-2.2,3.4-7,3.3-9-0.2c-0.6-1.1,1-2,1.6-0.9c1.3,2.3,4.3,2.5,5.7,0.2
				C1812,841.8,1813.6,842.7,1813,843.7L1813,843.7z"/>
		</g>
		<g>
			<path class="st13" d="M1818,844.6c-1,3.3-1.7,6.7-2.2,10.1c-0.2-0.4-0.4-0.8-0.7-1.2c1.3,0.3,2.5,0.4,3.8,0.3
				c1.2-0.1,1.2,1.8,0,1.9c-1.5,0.1-2.8,0-4.3-0.3c-0.5-0.1-0.7-0.7-0.7-1.2c0.5-3.4,1.2-6.8,2.2-10.1
				C1816.5,843,1818.3,843.5,1818,844.6L1818,844.6z"/>
		</g>
		<g>
			<path class="st13" d="M1829.6,857.2c-1.8,3.9-6,5.9-10.2,5.1c-1.2-0.2-0.7-2,0.5-1.8c3.4,0.7,6.6-1.1,8-4.2
				C1828.5,855.1,1830.1,856.1,1829.6,857.2L1829.6,857.2z"/>
		</g>
		<path class="st41" d="M1816.9,900.7c-9.8,7.9-13.4,21.5-12.2,34.1c1.2,12.5,6.5,24.2,11.6,35.7c9.9,21.7,19.7,43.5,29.6,65.2
			c26.4-6.3,52.2-14.8,77.2-25.3c-5.5-15.5-11.1-30.9-16.6-46.4c-7.3-20.4-15.1-41.7-30.9-56.5
			C1859.8,892.7,1833.9,887.3,1816.9,900.7L1816.9,900.7z"/>
		<path class="st16" d="M1839,840.8c0.6,6.3,0.2,12.7-1.3,18.8c1,0.2,2.1,0.5,3.1,0.7c2.2-8.6,4.5-17.3,6.7-25.9
			c1.5-5.8,3-11.7,2.5-17.6c-0.5-5.9-3.3-12.1-8.5-14.9c-2.2-1.2-4.8-1.7-7.2-1c-1.9,0.6-3.5,1.8-5.3,2.5c-1.7,0.6-3.5,0.7-5.2,0.2
			c-3.4-0.9-6.4-3.8-9.8-3c-2.7,0.6-4.4,3.4-7,4.5c-2.8,1.1-5.9,0.1-8.7-0.9c-2.8-1-6.1-1.7-8.6-0.2c-1.8,1.1-2.7,3.1-3.8,4.9
			c-1.1,1.8-2.8,3.5-4.9,3.4c-1.1-0.1-2.2-0.6-3.3-0.7c-1.8-0.1-3.5,1.3-4.1,3c-0.6,1.7-0.4,3.6,0.3,5.4c1.7,4.4,6.5,7.8,11.2,6.8
			c1.9-0.4,3.6-1.5,5.3-2.4c1.7-0.9,3.7-1.6,5.6-1.1c1.9,0.4,3.6,2.3,3.1,4.2c-0.3,1-1.1,2-0.7,2.9c0.2,0.5,0.8,0.9,1.3,1
			c2.7,0.7,5.6-1.5,8.1-0.4c2,0.8,3,3.4,5.1,4.1c2.2,0.8,4.4-0.8,6.3-2.1c2-1.5,4.4-2.8,6.9-2.6c3.3,0.3,6.5,3.4,9.6,2
			c1.2-0.6,2.3-1.8,3.6-1.5c0.6,3.4,0.5,6.9-0.2,10.3L1839,840.8z"/>
		<path class="st41" d="M1805.8,873.6c1.6,4.9,2.2,10.1,1.8,15.2c0,0.5-0.1,1.1,0.2,1.6c0.2,0.3,0.4,0.5,0.7,0.8
			c2.9,2.3,7,3.2,10.8,2.8c3.8-0.4,7.4-1.9,10.7-3.8c0.1-5.9,0.2-11.8,0-17.7c-9,4.2-19.2,3.4-23.8,1.7L1805.8,873.6z"/>
		<path class="st4" d="M1221.7,1166.3c-8-6.3-16-12.7-24-19c-2.2-1.8-5-3.6-7.7-2.7c-1.5,0.6,1.2,4.9,2.9,6.8
			c1.7,1.9,3.7,3.6,4.8,5.9c0.3,0.7,0.5,1.5,0,2.1c-0.2,0.2-0.5,0.4-0.8,0.5c-1.8,0.6-3.8,0.6-5.7,0.2c-9.7-2.1-19.5-3.7-29.4-4.8
			c-1.2-0.1-2.4-0.1-3.6,0c-0.7,0.1-1.5,0.2-1.9,1c-0.2,0.6-0.1,1.2,0.2,1.7c0.7,1,1.8,1.4,3,1.7c4.6,1.3,19.5,6,19.1,6.8
			c-0.2,0.6-19.3-5.3-26.1-4.4c-0.7,0.1-1.4,0.7-1.5,1.4c-0.1,0.8,0.5,1.2,1,1.5c5.2,3.2,24.2,9.5,23.2,9.8
			c-6.1,1.5-16.7-5.5-23.5-3.8c-1,0.2-1.8,0.6-2.1,1.6c-0.9,3.9,25.1,10,24.5,10.6c-1.2,1-15.1-0.6-18.7,0.3
			c-0.8,0.2-1.4,0.8-1.6,1.6c-0.2,1,0.5,1.5,1.2,1.9c0.8,0.4,1.7,0.8,2.6,1.1c18.7,6.1,38,11.2,57.6,11.2c0.5,0,1,0,1.5-0.3
			c0.3-0.2,0.6-0.6,0.8-0.9c3.2-5.3,4.9-11.5,4.7-17.7c-0.1-5-2.3-8.2,0.3-12.5L1221.7,1166.3z"/>
		<path class="st42" d="M1471.4,1057.1c22.1-18.5,40.8,7.5,48.1,26.3c3.3,8.5,3.7,17.8,2.9,26.8c-1.1,13.4-4.7,26.8-11.8,38.2
			c-13.4,21.8-37.7,34.4-61.6,43.7c-76.3,29.8-161.1,37.4-241.5,21.6c3.6-19.9,7.2-39.8,10.8-59.6c11.7,7.6,74,25.2,171.8-7.7
			c39.1-13.1,77.3-38.2,78.4-56.6c0.7-11-4.6-23.6,2.5-32.1L1471.4,1057.1z"/>
		<g>
			<path class="st13" d="M1440.7,978.7c-0.7,1.7-1.6,3.4-2.5,5c-0.4,0.7-1.3,1.6-1.5,2.3c-0.5,0.4-0.5,0.7,0,1
				c0.5,0.2,0.9,0.4,1.4,0.4c1.2,0.2,0.7,2-0.5,1.8c-1.6-0.3-4-1.3-3.1-3.3c0.6-1.3,1.7-2.5,2.4-3.8c0.8-1.4,1.5-2.9,2.2-4.4
				C1439.6,976.7,1441.2,977.6,1440.7,978.7L1440.7,978.7z"/>
		</g>
		<g>
			<path class="st13" d="M1442.9,979.7c1.4-0.8,3.1-1.1,4.6-0.4c1.4,0.7,2.3,2.1,2.1,3.6c-0.1,0.8-1,1.3-1.6,0.7
				c-0.1-0.1-0.2-0.2-0.3-0.3c-0.9-0.9,0.5-2.2,1.3-1.3c0.1,0.1,0.2,0.2,0.3,0.3c-0.5,0.2-1.1,0.4-1.6,0.7c0.2-2.3-2.4-2.5-4-1.6
				C1442.8,981.9,1441.9,980.3,1442.9,979.7L1442.9,979.7z"/>
		</g>
		<g>
			<path class="st13" d="M1436.6,978.2c-0.3-0.7-1-1.1-1.7-0.9c-1.2,0.3-1.7-1.5-0.5-1.8c1.5-0.4,3.2,0.3,3.8,1.8
				C1438.7,978.4,1437.1,979.3,1436.6,978.2L1436.6,978.2z"/>
		</g>
		<g>
			<path class="st13" d="M1436.1,992.8c2.4,1.8,5.2,1.7,8,1.1c1.2-0.3,1.7,1.5,0.5,1.8c-3.3,0.8-6.7,0.9-9.5-1.2
				C1434.2,993.7,1435.1,992,1436.1,992.8L1436.1,992.8z"/>
		</g>
		<g>
			<path class="st13" d="M1457.3,994.1c1.1-0.1,2.1,0.1,3.1,0.6c1.1,0.5,0.1,2.1-0.9,1.6c-0.7-0.3-1.4-0.4-2.2-0.3
				C1456.1,996.1,1456.1,994.2,1457.3,994.1L1457.3,994.1z"/>
		</g>
		<g>
			<path class="st13" d="M1457.8,994.7c0.5,0.6,0.8,1.1,1,1.8c0.4,1.1-1.4,1.6-1.8,0.5c-0.1-0.4-0.3-0.7-0.5-1
				C1455.7,995.1,1457.1,993.8,1457.8,994.7L1457.8,994.7z"/>
		</g>
		<g>
			<path class="st12" d="M1234.7,1161.1c-5.3,17.7-8.6,35.7-9.9,54.2c-0.1,0.9-1.5,0.9-1.4,0c1.3-18.5,4.6-36.7,10-54.5
				C1233.6,1159.9,1235,1160.2,1234.7,1161.1L1234.7,1161.1z"/>
		</g>
		<g>
			<path class="st12" d="M1243,1163.5c-4.7,17.6-8,35.5-9.8,53.6c-0.1,0.9-1.5,0.9-1.4,0c1.8-18.3,5.1-36.3,9.8-54
				C1241.9,1162.2,1243.2,1162.6,1243,1163.5L1243,1163.5z"/>
		</g>
		<g>
			<path class="st12" d="M1147.6,958c13.5-10.1,27-20.2,40.6-30.3c0.7-0.5,1.4,0.7,0.7,1.2c-13.5,10.1-27,20.2-40.6,30.3
				C1147.6,959.8,1146.9,958.6,1147.6,958L1147.6,958z"/>
		</g>
		<g>
			<path class="st12" d="M1150.7,966c14.3-9.3,29.1-18,41.7-29.6c0.7-0.6,1.6,0.4,1,1c-12.7,11.7-27.6,20.5-41.9,29.9
				C1150.6,967.7,1149.9,966.5,1150.7,966L1150.7,966z"/>
		</g>
		<g>
			<path class="st12" d="M1100,1335.2c17,17.5,34.8,34.5,55.5,47.7c21.2,13.5,45.1,22.2,68.2,31.7c0.8,0.3,0.5,1.7-0.4,1.3
				c-23.3-9.5-47.3-18.2-68.6-31.8c-20.8-13.2-38.6-30.3-55.7-47.9C1098.4,1335.6,1099.4,1334.6,1100,1335.2L1100,1335.2z"/>
		</g>
		<g>
			<path class="st12" d="M1105,1328.2c16.9,20.1,36.9,37.4,59.4,51c11.4,6.9,23.3,12.8,35.7,17.7c5.6,2.2,11.3,4.2,17.1,6
				c3.8,1.2,7.7,1.4,9.8,5c0.5,0.8-0.7,1.5-1.2,0.7c-2.8-4.7-15.1-6.3-20-8c-5.3-1.9-10.6-4.1-15.7-6.4c-11-4.9-21.6-10.7-31.8-17.2
				c-20.4-13.1-38.6-29.3-54.2-47.8C1103.5,1328.5,1104.4,1327.5,1105,1328.2L1105,1328.2z"/>
		</g>
		<g>
			<path class="st12" d="M1413.8,1025.4c-7.2,15.5,6.7,27.8,21.4,23.8c9.8-2.6,17.8-9.2,23.1-17.7c0.5-0.8,1.7-0.1,1.2,0.7
				c-6.8,10.9-20.6,21.6-34.3,19.2c-12.8-2.2-17.8-15.7-12.7-26.7C1412.9,1023.9,1414.1,1024.6,1413.8,1025.4L1413.8,1025.4z"/>
		</g>
		<g>
			<path class="st12" d="M1841,1023c26.7-4.8,52.7-12.7,77.5-23.6c0.8-0.4,1.5,0.8,0.7,1.2c-25,11-51,18.9-77.9,23.8
				C1840.5,1024.5,1840.1,1023.1,1841,1023L1841,1023z"/>
		</g>
		<g>
			<path class="st12" d="M1740.3,1007c8.9,4.8,18.3,8.1,28.2,9.8c0.9,0.2,0.5,1.5-0.4,1.3c-10.1-1.8-19.6-5.1-28.5-10
				C1738.8,1007.8,1739.5,1006.6,1740.3,1007L1740.3,1007z"/>
		</g>
		<g>
			<path class="st12" d="M1712.2,1428.4c37.8-3.8,76.2-4.8,113.5-12.4c0.9-0.2,1.2,1.2,0.4,1.3c-37.4,7.7-76,8.7-113.9,12.5
				C1711.3,1429.9,1711.3,1428.5,1712.2,1428.4L1712.2,1428.4z"/>
		</g>
		<g>
			<path class="st12" d="M1989.2,1289.4c-1.9,17.9-11.6,35.4-18.6,51.8c-8.2,19.3-16.8,38.5-25.7,57.5c-0.4,0.8-1.6,0.1-1.2-0.7
				c8-17.1,15.7-34.4,23.2-51.7c3.9-9.1,7.8-18.2,11.6-27.4c3.9-9.6,8.2-19,9.3-29.4C1987.9,1288.5,1989.3,1288.5,1989.2,1289.4
				L1989.2,1289.4z"/>
		</g>
	</g>
</g>
</svg>
