<?xml version="1.0" encoding="utf-8"?>
<!-- Generator: $$$/GeneralStr/196=Adobe Illustrator 27.6.0, SVG Export Plug-In . SVG Version: 6.00 Build 0)  -->
<svg version="1.1" xmlns="http://www.w3.org/2000/svg" xmlns:xlink="http://www.w3.org/1999/xlink" x="0px" y="0px"
	 viewBox="0 0 640 640" style="enable-background:new 0 0 640 640;" xml:space="preserve">
<style type="text/css">
	.st0{opacity:0.8;}
	.st1{fill:#E4EBF1;}
	.st2{opacity:0.7;}
	.st3{fill:#FFFFFF;}
	.st4{fill:#DDDDDD;}
	.st5{fill:#C6C6C6;stroke:#FFFFFF;stroke-width:4;stroke-miterlimit:10;}
	.st6{clip-path:url(#SVGID_00000050620821223849949300000009473085786363280814_);}
	.st7{clip-path:url(#SVGID_00000020385634318721514830000014135542668402811028_);}
	.st8{clip-path:url(#SVGID_00000107560665493592214620000016743031780114416055_);}
	.st9{clip-path:url(#SVGID_00000060752930734247461180000009410923813302909107_);}
	.st10{clip-path:url(#SVGID_00000162349321287005618080000009155740057294940836_);}
	.st11{clip-path:url(#SVGID_00000087414509776808177320000007729163778610436007_);}
	.st12{clip-path:url(#SVGID_00000061461939303877764070000017659819733121603728_);fill:none;stroke:#FFFFFF;stroke-miterlimit:10;}
	.st13{fill:#727272;}
	.st14{fill:#EF5C60;}
	.st15{fill:#FEC92C;}
	.st16{fill:#C6C6C6;}
	.st17{fill:none;stroke:#FFFFFF;stroke-width:5;stroke-linecap:round;stroke-linejoin:round;stroke-miterlimit:10;}
	.st18{fill:none;stroke:#FEC92C;stroke-width:8;stroke-linecap:round;stroke-linejoin:round;}
	.st19{fill:none;stroke:#FEC92C;stroke-width:8;stroke-linecap:round;stroke-linejoin:round;stroke-dasharray:0,19.584;}
	.st20{fill:none;stroke:#FEC92C;stroke-width:8;stroke-linecap:round;stroke-linejoin:round;stroke-dasharray:0,14.8603;}
	.st21{fill:none;stroke:#FEC92C;stroke-width:8;stroke-linecap:round;stroke-linejoin:round;stroke-dasharray:0,14.6977;}
	.st22{fill:none;stroke:#FEC92C;stroke-width:8;stroke-linecap:round;stroke-linejoin:round;stroke-dasharray:0,15.0712;}
	.st23{fill:none;stroke:#FEC92C;stroke-width:8;stroke-linecap:round;stroke-linejoin:round;stroke-dasharray:0,18.1126;}
	.st24{fill:none;stroke:#FEC92C;stroke-width:8;stroke-linecap:round;stroke-linejoin:round;stroke-dasharray:0,18.9303;}
	.st25{fill:none;stroke:#727272;stroke-width:8;stroke-linecap:round;stroke-linejoin:round;}
	.st26{fill:none;stroke:#727272;stroke-width:8;stroke-linecap:round;stroke-linejoin:round;stroke-dasharray:0,19.584;}
	.st27{fill:none;stroke:#727272;stroke-width:8;stroke-linecap:round;stroke-linejoin:round;stroke-dasharray:0,14.8603;}
	.st28{fill:none;stroke:#727272;stroke-width:8;stroke-linecap:round;stroke-linejoin:round;stroke-dasharray:0,14.6977;}
	.st29{fill:none;stroke:#727272;stroke-width:8;stroke-linecap:round;stroke-linejoin:round;stroke-dasharray:0,15.0712;}
	.st30{fill:none;stroke:#727272;stroke-width:8;stroke-linecap:round;stroke-linejoin:round;stroke-dasharray:0,18.1126;}
	.st31{fill:none;stroke:#727272;stroke-width:8;stroke-linecap:round;stroke-linejoin:round;stroke-dasharray:0,18.9303;}
	.st32{fill:none;stroke:#727272;stroke-width:3;stroke-linejoin:round;stroke-miterlimit:10;}
	.st33{clip-path:url(#SVGID_00000134928503914051394560000015130932991305485700_);}
	.st34{clip-path:url(#SVGID_00000014622159263998201440000004388721633949921465_);}
	.st35{fill:none;stroke:#FFFFFF;stroke-width:4;stroke-linecap:round;stroke-linejoin:round;stroke-miterlimit:10;}
	.st36{fill:#FFFFFF;stroke:#C6C6C6;stroke-miterlimit:10;}
	.st37{fill:#DDDDDD;stroke:#727272;stroke-miterlimit:10;}
	.st38{fill:#727272;stroke:#FFFFFF;stroke-width:3;stroke-miterlimit:10;}
</style>
<g id="liquid">
	<g class="st0">
		
			<image style="overflow:visible;opacity:0.12;" width="285" height="381" xlink:href="81AE19882123AF23.png"  transform="matrix(1 0 0 1 309.4159 105.6961)">
		</image>
		<g>
			<path class="st1" d="M547.1,353.5c72.6,50,33.5,106.7-46.6,118.9c-71.4,10.9-168.8-17.5-179.9-71.3
				c-18.5-90.1,153.2-141.7,95.8-215.4c-54-69.4,42-100.9,60.4-44.7C490.3,181.6,363,226.5,547.1,353.5z"/>
		</g>
	</g>
	<g class="st0">
		
			<image style="overflow:visible;opacity:0.12;" width="102" height="103" xlink:href="81AE19882123AF21.png"  transform="matrix(1 0 0 1 350.4159 502.6961)">
		</image>
		<g>
			<path class="st1" d="M377.8,516.3c19.1-13.1,45.2-8.2,58.3,10.9c13.1,19.1,8.2,45.2-10.9,58.3c-19.1,13.1-45.2,8.2-58.3-10.9
				C353.8,555.4,358.7,529.3,377.8,516.3z"/>
		</g>
	</g>
	<g class="st0">
		
			<image style="overflow:visible;opacity:0.12;" width="49" height="50" xlink:href="81AE19882123AF27.png"  transform="matrix(1 0 0 1 304.4159 346.6961)">
		</image>
		<g>
			<circle class="st1" cx="329" cy="368.7" r="15.1"/>
		</g>
	</g>
	<g class="st0">
		
			<image style="overflow:visible;opacity:0.1;" width="352" height="502" xlink:href="81AE19882123AF20.png"  transform="matrix(1 0 0 1 46.4159 69.6961)">
		</image>
		<g>
			<path class="st1" d="M340.6,94.3c53,29.9,67.7,101.3,14.5,136.7c-95.7,63.7-89.1,156-56.9,231.1c29.3,68.4,20.4,107.5-48.9,96.7
				c-105.1-16.5-210.5-122.3-191.1-276C77.3,131.7,237.3,36,340.6,94.3z"/>
		</g>
	</g>
	<g class="st2">
		
			<image style="overflow:visible;opacity:0.12;" width="404" height="404" xlink:href="81AE19882123AF2E.png"  transform="matrix(1 0 0 1 123.4159 122.6961)">
		</image>
		<g>
			<circle class="st3" cx="325.2" cy="321.9" r="192.4"/>
		</g>
	</g>
</g>
<g id="objs">
	<path class="st5" d="M467.7,421.6H172.2c-10.4,0-19-8.5-19-19V200.9c0-10.4,8.5-19,19-19h295.5c10.4,0,19,8.5,19,19v201.7
		C486.7,413,478.1,421.6,467.7,421.6z"/>
	<path class="st3" d="M454.4,403H185.5c-8.7,0-15.8-7.1-15.8-15.8V235.3c0-8.7,7.1-15.8,15.8-15.8h268.9c8.7,0,15.8,7.1,15.8,15.8
		v151.9C470.1,395.9,463,403,454.4,403z"/>
	<path class="st4" d="M457.7,273.5H312.6c-1.4,0-2.5-1.1-2.5-2.5v-4.5c0-1.4,1.1-2.5,2.5-2.5h145.1c1.4,0,2.5,1.1,2.5,2.5v4.5
		C460.3,272.4,459.1,273.5,457.7,273.5z"/>
	<path class="st4" d="M457.7,292.9H312.6c-1.4,0-2.5-1.1-2.5-2.5v-4.5c0-1.4,1.1-2.5,2.5-2.5h145.1c1.4,0,2.5,1.1,2.5,2.5v4.5
		C460.3,291.7,459.1,292.9,457.7,292.9z"/>
	<path class="st4" d="M457.7,312.2H312.6c-1.4,0-2.5-1.1-2.5-2.5v-4.5c0-1.4,1.1-2.5,2.5-2.5h145.1c1.4,0,2.5,1.1,2.5,2.5v4.5
		C460.3,311.1,459.1,312.2,457.7,312.2z"/>
	<path class="st4" d="M457.7,331.5H312.6c-1.4,0-2.5-1.1-2.5-2.5v-4.5c0-1.4,1.1-2.5,2.5-2.5h145.1c1.4,0,2.5,1.1,2.5,2.5v4.5
		C460.3,330.4,459.1,331.5,457.7,331.5z"/>
	<path class="st4" d="M457.7,350.9H312.6c-1.4,0-2.5-1.1-2.5-2.5v-4.5c0-1.4,1.1-2.5,2.5-2.5h145.1c1.4,0,2.5,1.1,2.5,2.5v4.5
		C460.3,349.7,459.1,350.9,457.7,350.9z"/>
	<path class="st4" d="M336.7,370.2H191.6c-1.4,0-2.5-1.1-2.5-2.5v-4.5c0-1.4,1.1-2.5,2.5-2.5h145.1c1.4,0,2.5,1.1,2.5,2.5v4.5
		C339.2,369.1,338.1,370.2,336.7,370.2z"/>
	<path class="st4" d="M336.7,389.6H191.6c-1.4,0-2.5-1.1-2.5-2.5v-4.5c0-1.4,1.1-2.5,2.5-2.5h145.1c1.4,0,2.5,1.1,2.5,2.5v4.5
		C339.2,388.4,338.1,389.6,336.7,389.6z"/>
	<path class="st4" d="M287.9,344.7h-93.2c-3.9,0-7.1-3.2-7.1-7.1v-63.1c0-3.9,3.2-7.1,7.1-7.1h93.2c3.9,0,7.1,3.2,7.1,7.1v63.1
		C295,341.5,291.8,344.7,287.9,344.7z"/>
	<g>
		<circle class="st13" cx="405.4" cy="259.8" r="63.1"/>
		<circle class="st3" cx="405.4" cy="259.8" r="49.4"/>
		
			<rect x="436.5" y="302" transform="matrix(0.8255 -0.5644 0.5644 0.8255 -100.701 305.3334)" class="st13" width="14.1" height="27.2"/>
		<path class="st14" d="M506.9,400.1l-7.6,5.2c-4,2.8-9.6,1.7-12.3-2.3l-49.6-72.5c-2.8-4-1.7-9.6,2.3-12.3l7.6-5.2
			c4-2.8,9.6-1.7,12.3,2.3l49.6,72.5C512,391.8,510.9,397.3,506.9,400.1z"/>
	</g>
	<polygon class="st15" points="433,254 413,254 413,233.9 401.3,233.9 401.3,254 381.3,254 381.3,265.6 401.3,265.6 401.3,285.6 
		413,285.6 413,265.6 433,265.6 	"/>
</g>
</svg>
