<?xml version="1.0" encoding="utf-8"?>
<!-- Generator: $$$/GeneralStr/196=Adobe Illustrator 27.6.0, SVG Export Plug-In . SVG Version: 6.00 Build 0)  -->
<svg version="1.1" xmlns="http://www.w3.org/2000/svg" xmlns:xlink="http://www.w3.org/1999/xlink" x="0px" y="0px"
	 viewBox="0 0 640 640" style="enable-background:new 0 0 640 640;" xml:space="preserve">
<style type="text/css">
	.st0{opacity:0.8;}
	.st1{fill:#E4EBF1;}
	.st2{opacity:0.7;}
	.st3{fill:#FFFFFF;}
	.st4{fill:#DDDDDD;}
	.st5{fill:#C6C6C6;stroke:#FFFFFF;stroke-width:4;stroke-miterlimit:10;}
	.st6{clip-path:url(#SVGID_00000045590219563754017930000007131866415445684354_);}
	.st7{clip-path:url(#SVGID_00000108302156901369230550000004951268641763982764_);}
	.st8{clip-path:url(#SVGID_00000083805195314620549610000016804728411007441817_);}
	.st9{clip-path:url(#SVGID_00000072278672611715528500000015722644555230487173_);}
	.st10{clip-path:url(#SVGID_00000002351519032235486590000002930982877676911258_);}
	.st11{clip-path:url(#SVGID_00000122708800743503123410000005822200115604104596_);}
	.st12{clip-path:url(#SVGID_00000122721994354660664270000007246841990605468095_);fill:none;stroke:#FFFFFF;stroke-miterlimit:10;}
	.st13{fill:#727272;}
	.st14{fill:#EF5C60;}
	.st15{fill:#FEC92C;}
	.st16{fill:#C6C6C6;}
	.st17{fill:none;stroke:#FFFFFF;stroke-width:5;stroke-linecap:round;stroke-linejoin:round;stroke-miterlimit:10;}
	.st18{fill:none;stroke:#FEC92C;stroke-width:8;stroke-linecap:round;stroke-linejoin:round;}
	.st19{fill:none;stroke:#FEC92C;stroke-width:8;stroke-linecap:round;stroke-linejoin:round;stroke-dasharray:0,19.584;}
	.st20{fill:none;stroke:#FEC92C;stroke-width:8;stroke-linecap:round;stroke-linejoin:round;stroke-dasharray:0,14.8603;}
	.st21{fill:none;stroke:#FEC92C;stroke-width:8;stroke-linecap:round;stroke-linejoin:round;stroke-dasharray:0,14.6977;}
	.st22{fill:none;stroke:#FEC92C;stroke-width:8;stroke-linecap:round;stroke-linejoin:round;stroke-dasharray:0,15.0712;}
	.st23{fill:none;stroke:#FEC92C;stroke-width:8;stroke-linecap:round;stroke-linejoin:round;stroke-dasharray:0,18.1126;}
	.st24{fill:none;stroke:#FEC92C;stroke-width:8;stroke-linecap:round;stroke-linejoin:round;stroke-dasharray:0,18.9303;}
	.st25{fill:none;stroke:#727272;stroke-width:8;stroke-linecap:round;stroke-linejoin:round;}
	.st26{fill:none;stroke:#727272;stroke-width:8;stroke-linecap:round;stroke-linejoin:round;stroke-dasharray:0,19.584;}
	.st27{fill:none;stroke:#727272;stroke-width:8;stroke-linecap:round;stroke-linejoin:round;stroke-dasharray:0,14.8603;}
	.st28{fill:none;stroke:#727272;stroke-width:8;stroke-linecap:round;stroke-linejoin:round;stroke-dasharray:0,14.6977;}
	.st29{fill:none;stroke:#727272;stroke-width:8;stroke-linecap:round;stroke-linejoin:round;stroke-dasharray:0,15.0712;}
	.st30{fill:none;stroke:#727272;stroke-width:8;stroke-linecap:round;stroke-linejoin:round;stroke-dasharray:0,18.1126;}
	.st31{fill:none;stroke:#727272;stroke-width:8;stroke-linecap:round;stroke-linejoin:round;stroke-dasharray:0,18.9303;}
	.st32{fill:none;stroke:#727272;stroke-width:3;stroke-linejoin:round;stroke-miterlimit:10;}
	.st33{clip-path:url(#SVGID_00000159444614786846016070000017147079138000672414_);}
	.st34{clip-path:url(#SVGID_00000004510274051535216680000013654170454505400738_);}
	.st35{fill:none;stroke:#FFFFFF;stroke-width:4;stroke-linecap:round;stroke-linejoin:round;stroke-miterlimit:10;}
	.st36{fill:#FFFFFF;stroke:#C6C6C6;stroke-miterlimit:10;}
	.st37{fill:#DDDDDD;stroke:#727272;stroke-miterlimit:10;}
	.st38{fill:#727272;stroke:#FFFFFF;stroke-width:3;stroke-miterlimit:10;}
</style>
<g id="liquid">
	<g class="st0">
		
			<image style="overflow:visible;opacity:0.12;" width="124" height="125" xlink:href="81B68494DB32036A.png"  transform="matrix(1 0 0 1 140.7504 136.6961)">
		</image>
		<g>
			<circle class="st1" cx="202.5" cy="196.2" r="52.7"/>
		</g>
	</g>
	<g class="st0">
		
			<image style="overflow:visible;opacity:0.12;" width="531" height="474" xlink:href="81B68494DB32036E.png"  transform="matrix(1 0 0 1 53.7504 92.6961)">
		</image>
		<g>
			<path class="st1" d="M311.5,531.9c30.2,64.6,229.2-27,137.9-95.5c-79.8-60-60-99.7,24.3-79.1c87.1,21.3,150.8-91.8,48-195.3
				c-117.3-118-228-54-241.4,72.5c-10.7,100.8-93.4,35.8-143.6,13.7C93.5,229.1,29,285.4,83.9,326.7c20.8,15.6,75,24.8,72.4,70.6
				c-2.4,42.1-37.6,86.9-4.8,103.1C205.1,527,251.2,402.7,311.5,531.9z"/>
		</g>
	</g>
	<g class="st0">
		
			<image style="overflow:visible;opacity:0.1;" width="121" height="153" xlink:href="81B68494DB320369.png"  transform="matrix(1 0 0 1 444.7504 340.6961)">
		</image>
		<g>
			<path class="st1" d="M496.5,409.9c3.7,10.3-21.6,15.1-12.4,41.2c9.2,26.1,50.3,42.6,67.5,21.9c9.9-11.9,4.4-32.2-10.1-39.2
				c-10.9-5.3-28.4-2.8-36.6-25.8c-5.8-16.3,4.7-25.9-0.4-41.5c-4.5-13.9-25.6-24-41.8-14.2c-11.9,7.2-12.8,24.4,1.3,35.8
				C473.8,395.8,492.4,398.4,496.5,409.9z"/>
		</g>
	</g>
	<g class="st2">
		
			<image style="overflow:visible;opacity:0.12;" width="404" height="404" xlink:href="81B68494DB32036B.png"  transform="matrix(1 0 0 1 126.7504 122.6961)">
		</image>
		<g>
			<circle class="st3" cx="328.4" cy="321.9" r="192.4"/>
		</g>
	</g>
</g>
<g id="objs">
	<path class="st14" d="M268.8,273.7c-2.7,1.6-4.5,3.8-5.8,6.4c-2.7-4.2-4.7-9.2-5.2-11.7c-2.7-12.4,2.3-25,13.9-30.5
		c2.4-1.1,0.9-4.9-1.5-3.8c-16,7.4-20.1,25.1-14.8,40.9c1,3.1,3.3,6.6,6.1,9.5c-1.5,6.9,0.2,15.1,2.3,21.3c0.8,2.5,4.7,1,3.8-1.5
		c-1.8-5.3-2.7-11-2.4-16.5c0,0,0-0.1,0-0.1c5.4,3.8,11.8,4.7,16.2-2.3C287,276.4,277.4,268.4,268.8,273.7z M276.6,285
		c-3.7,3.6-7.4,2.1-10.6-1.2c1.3-4.1,4.2-7.1,8.9-7.8C280.7,275.1,278.9,282.8,276.6,285z"/>
	<path class="st14" d="M416.8,353c3.5-7.8,6.2-16.2,7.3-24.7c10-2.6,15.1-20.5,16.2-28.2c1-7.3,0.6-16.9-2.5-24.8
		c11.1-6,12.2-20,9.5-31.1c-3.1-12.6-12.3-28.4-24.5-34.2c-2.4-1.1-4.5,2.4-2.1,3.6c15.3,7.3,27.1,31.6,23,47.9
		c-1.2,4.7-4.1,8.2-7.7,9.9c-1.9-3.5-4.4-6.5-7.7-8.5c-4.2-2.7-15.9-5.1-11.9,4c2.8,6.3,10.4,11.3,17.3,10c4.2,10,3.4,22.3,0.3,32.3
		c-1.7,5.5-5.1,10.6-9.7,14c-0.8-5.7-5.1-18.4-10.7-11.5c-4.2,5.2,0,15.8,6.4,16.8c0,0,0,0,0.1,0c-0.4,2.4-0.9,4.8-1.5,7.2
		c-1.3,5.2-3.1,10.4-5.2,15.3C412.2,353.4,415.8,355.5,416.8,353z M423,269.1c-1-0.9-5.1-5.7-1.5-4.9c4.5,1,7.7,4.5,10,8.3
		C428.7,272.6,425.7,271.5,423,269.1z M416.3,317.3c-0.4-5.8,3.8,2.4,4,4.8c0.1,0.8,0.1,1.5,0.1,2.3
		C417.9,323.7,416.5,320.3,416.3,317.3z"/>
	<path class="st15" d="M254,339.5c-4.3-7.4-9.4-14.6-15.6-20.4c3.8-9.6-7.6-24.3-13.2-29.7c-5.3-5.1-13.3-10.4-21.5-12.7
		c1.7-12.5-8.9-21.6-19.5-26c-12-4.9-30.2-6.8-42.1-0.4c-2.3,1.3-0.7,5,1.7,3.8c14.9-8.1,41.5-3.2,52.2,9.8c3.1,3.7,4.2,8.2,3.4,12
		c-3.9-0.5-7.8-0.3-11.4,1.1c-4.6,1.8-13.5,9.8-3.8,11.9c6.7,1.4,15.2-1.7,18.3-8.1c10.5,2.5,20,10.4,26.3,18.9
		c3.4,4.6,5.5,10.3,5.5,16.1c-5.1-2.8-17.9-6.7-15.6,1.9c1.7,6.5,12.7,9.3,17.4,4.8c0,0,0,0,0,0c1.8,1.7,3.4,3.6,4.9,5.4
		c3.4,4.1,6.6,8.6,9.2,13.2C251.6,343.5,255.4,341.8,254,339.5z M189.9,285c-1.3,0.3-7.6,0.7-4.8-1.7c3.4-3.1,8.2-3.6,12.6-3.2
		C196.1,282.5,193.5,284.3,189.9,285z M224.8,318.9c-5-3.1,4.2-1.7,6.2-0.4c0.6,0.4,1.3,0.8,1.9,1.3
		C231,321.4,227.4,320.5,224.8,318.9z"/>
	<g>
		<path class="st15" d="M368.6,366.2c-3.2-3.9-6.1-8.1-8.6-12.4c-2.3-3.9-4.1-8-5.4-12.4c-0.8-2.9-0.9-6.1,0.2-9
			c0.4-1.1,1.8-4,2.7-1.7c2.8,7.6-3.4,13-10.6,10.1c-7.8-3.2-8.2-13.9-7.5-20.8c0.7-7.3,3.4-14.8,7.8-20.6c1.9-2.5,4.5-4.8,7.7-5.4
			c5.1-0.9,11.5,4.6,10.8,9.7c-1.3,8.1-10.1,0-11.9-2.8c-3.1-5-4.3-11.3-4.8-17.1c-1-11.6,3.3-25.6,15.1-29.8
			c2.5-0.9,1.2-4.8-1.3-3.9c-14.1,5-18.5,20.3-17.9,33.9c0.3,8.2,5.9,30.7,18.5,27c10.7-3.1,6.1-14.6-0.6-19.1
			c-8.6-5.7-16.6,1.2-21.1,8.4c-5.8,9.3-8,22-5.5,32.7c1.8,7.8,11.4,16.7,19.9,12.3c5.9-3.1,8-12.7,4.2-18.2
			c-1.4-2.1-3.8-2.1-5.8-0.9c-4.1,2.5-4.7,8.6-4.4,12.8c0.8,10.6,8.5,21.6,15.1,29.5C366.8,370.5,370.3,368.3,368.6,366.2
			L368.6,366.2z"/>
	</g>
	<polygon class="st15" points="425.8,376.5 452,369.4 446.3,355.9 427.7,364.9 	"/>
	<polygon class="st14" points="414.4,158 394.7,176.8 406.2,185.9 418.3,169.2 	"/>
	<polygon class="st14" points="154.4,197 165,222 177.5,214.5 166.2,197.3 	"/>
	<polygon class="st15" points="152.3,275.9 127.1,265.6 123.5,279.8 143.7,284 	"/>
	<polygon class="st14" points="324.5,274.8 304.8,293.5 316.3,302.7 328.4,286 	"/>
	<polygon class="st15" points="225.7,218.4 210.8,195.6 199.8,205.3 214,220.2 	"/>
	<polygon class="st14" points="478.2,273.2 458.5,291.9 470,301 482.1,284.3 	"/>
	<polygon class="st15" points="352,228.9 365.7,205.4 352.1,199.9 345.2,219.3 	"/>
	<polygon class="st14" points="498.4,216.9 512.1,193.3 498.5,187.8 491.6,207.2 	"/>
	<path class="st15" d="M169.2,284c0,0-0.1,18.7-16.9,18.7c16.8,0,16.9,18.7,16.9,18.7s0.1-18.7,16.9-18.7
		C169.3,302.7,169.2,284,169.2,284z"/>
	<path class="st15" d="M272.4,200.7c0,0-0.2,28.2-25.5,28.2c25.3,0,25.5,28.2,25.5,28.2s0.2-28.2,25.5-28.2
		C272.6,228.9,272.4,200.7,272.4,200.7z"/>
	<path class="st15" d="M420.4,179.6c0,0-0.2,28.2-25.5,28.2c25.3,0,25.5,28.2,25.5,28.2s0.2-28.2,25.5-28.2
		C420.6,207.9,420.4,179.6,420.4,179.6z"/>
	<g>
		<g>
			<path class="st16" d="M313.6,474.4c20.8-5.9,103.8-66.3,103.8-66.3c-9.1-26.7-29.9-39.4-29.9-39.4s-19-15.2-47.3-14.5
				C340.2,354.1,311.9,452.9,313.6,474.4z"/>
		</g>
		<g>
			<defs>
				<path id="SVGID_00000101091660326924997720000013824619948530236831_" d="M313.6,474.4c20.8-5.9,103.8-66.3,103.8-66.3
					c-9.1-26.7-29.9-39.4-29.9-39.4s-19-15.2-47.3-14.5C340.2,354.1,311.9,452.9,313.6,474.4z"/>
			</defs>
			<clipPath id="SVGID_00000052799239384500225050000011394254332504709264_">
				<use xlink:href="#SVGID_00000101091660326924997720000013824619948530236831_"  style="overflow:visible;"/>
			</clipPath>
			<g style="clip-path:url(#SVGID_00000052799239384500225050000011394254332504709264_);">
				
					<rect x="400.3" y="283.5" transform="matrix(0.9776 -0.2106 0.2106 0.9776 -70.6887 93.5255)" class="st4" width="6.8" height="190.2"/>
				
					<rect x="386.2" y="291.9" transform="matrix(0.9776 -0.2106 0.2106 0.9776 -72.7904 90.7402)" class="st4" width="6.8" height="190.2"/>
				
					<rect x="372" y="300.4" transform="matrix(0.9776 -0.2106 0.2106 0.9776 -74.8898 87.9512)" class="st4" width="6.8" height="190.2"/>
				
					<rect x="357.9" y="308.9" transform="matrix(0.9776 -0.2107 0.2107 0.9776 -76.9973 85.1739)" class="st4" width="6.8" height="190.2"/>
				
					<rect x="343.8" y="317.4" transform="matrix(0.9776 -0.2106 0.2106 0.9776 -79.0936 82.3811)" class="st4" width="6.8" height="190.2"/>
				
					<rect x="329.7" y="325.8" transform="matrix(0.9776 -0.2106 0.2106 0.9776 -81.1994 79.6011)" class="st4" width="6.8" height="190.2"/>
				
					<rect x="315.5" y="334.3" transform="matrix(0.9776 -0.2106 0.2106 0.9776 -83.2992 76.8134)" class="st4" width="6.8" height="190.2"/>
				
					<rect x="301.4" y="342.8" transform="matrix(0.9776 -0.2106 0.2106 0.9776 -85.3992 74.026)" class="st4" width="6.8" height="190.2"/>
			</g>
		</g>
		
			<rect x="294.4" y="472.4" transform="matrix(0.5314 -0.8471 0.8471 0.5314 -259.9234 488.4842)" class="st13" width="34.5" height="13.5"/>
	</g>
	<g>
		<path class="st16" d="M323.2,442.7c2-21.5-24.7-120.7-24.7-120.7c-28.2-1.1-47.5,13.8-47.5,13.8s-21,12.3-30.5,38.9
			C220.5,374.7,302.5,436.5,323.2,442.7z"/>
		<g>
			<g>
				<defs>
					<path id="SVGID_00000052079306037056328500000004794478996068480147_" d="M323.2,442.7c2-21.5-24.7-120.7-24.7-120.7
						c-28.2-1.1-47.5,13.8-47.5,13.8s-21,12.3-30.5,38.9C220.5,374.7,302.5,436.5,323.2,442.7z"/>
				</defs>
				<clipPath id="SVGID_00000043419137248917808920000005049400456900107435_">
					<use xlink:href="#SVGID_00000052079306037056328500000004794478996068480147_"  style="overflow:visible;"/>
				</clipPath>
				<g style="clip-path:url(#SVGID_00000043419137248917808920000005049400456900107435_);">
					<g>
						<path class="st13" d="M322.9,321.4c-12.7,1.8-25.1,7-36.5,12.5c-30.1,14.6-55.7,37.2-76.4,63.3c-3,3.8,2.7,8.8,5.8,4.9
							c19.9-25,43.9-46.2,72.5-60.7c10.7-5.4,23.6-10.8,35.2-12.4C328.2,328.3,327.7,320.7,322.9,321.4L322.9,321.4z"/>
					</g>
					<g>
						<path class="st13" d="M341.3,351.7c-12.7,1.8-25.1,7-36.5,12.5c-30.1,14.6-55.7,37.2-76.4,63.3c-3,3.8,2.7,8.8,5.8,4.9
							c19.9-25,43.9-46.2,72.5-60.7c10.7-5.4,23.6-10.8,35.2-12.4C346.6,358.6,346.1,351.1,341.3,351.7L341.3,351.7z"/>
					</g>
					<g>
						<path class="st13" d="M364.7,380.2c-12.7,1.8-25.1,7-36.5,12.5C298,407.4,272.5,430,251.8,456c-3,3.8,2.7,8.8,5.8,4.9
							c19.9-25,43.9-46.2,72.5-60.7c10.7-5.4,23.6-10.8,35.2-12.4C370,387.1,369.5,379.6,364.7,380.2L364.7,380.2z"/>
					</g>
					<g>
						<path class="st13" d="M328.4,337.9c-12.7,1.8-25.1,7-36.5,12.5c-30.1,14.6-55.7,37.2-76.4,63.3c-3,3.8,2.7,8.8,5.8,4.9
							c19.9-25,43.9-46.2,72.5-60.7c10.7-5.4,23.6-10.8,35.2-12.4C333.7,344.8,333.2,337.2,328.4,337.9L328.4,337.9z"/>
					</g>
					<g>
						<path class="st13" d="M347.2,368.1c-12.7,1.8-25.1,7-36.5,12.5c-30.1,14.6-55.7,37.2-76.4,63.3c-3,3.8,2.7,8.8,5.8,4.9
							c19.9-25,43.9-46.2,72.5-60.7c10.7-5.4,23.6-10.8,35.2-12.4C352.5,375,352,367.4,347.2,368.1L347.2,368.1z"/>
					</g>
				</g>
			</g>
		</g>
		
			<rect x="318" y="429.9" transform="matrix(0.849 -0.5285 0.5285 0.849 -187.2412 239.1738)" class="st13" width="13.5" height="34.5"/>
	</g>
	<g>
		
			<rect x="318" y="429.9" transform="matrix(0.849 -0.5285 0.5285 0.849 -187.2412 239.1738)" class="st13" width="13.5" height="34.5"/>
	</g>
	<path class="st35" d="M417.3,408.1c-9.1-26.7-29.9-39.4-29.9-39.4s-19-15.2-47.3-14.5c0,0-21.3,74.1-25.9,107.9l-17.7,28.1
		l11.5,7.2l18-28.7C356.8,452.2,417.3,408.1,417.3,408.1z"/>
	<g>
		
			<rect x="318" y="429.9" transform="matrix(0.849 -0.5285 0.5285 0.849 -187.2412 239.1738)" class="st13" width="13.5" height="34.5"/>
	</g>
	<path class="st35" d="M339.6,458.2l-17-27.4c-3.9-33.6-24.1-108.8-24.1-108.8c-28.2-1.1-47.5,13.8-47.5,13.8s-21,12.3-30.5,38.9
		c0,0,59.4,44.7,89.8,61.9l17.9,28.7L339.6,458.2z"/>
	<polygon class="st14" points="172.3,351.6 196.5,364 201.3,350.2 181.6,344.2 	"/>
	<polygon class="st15" points="308.5,192 297.3,167.3 284.9,175.1 296.7,192 	"/>
</g>
</svg>
