<?xml version="1.0" encoding="utf-8"?>
<!-- Generator: $$$/GeneralStr/196=Adobe Illustrator 27.6.0, SVG Export Plug-In . SVG Version: 6.00 Build 0)  -->
<svg version="1.1" xmlns="http://www.w3.org/2000/svg" xmlns:xlink="http://www.w3.org/1999/xlink" x="0px" y="0px"
	 viewBox="0 0 640 640" style="enable-background:new 0 0 640 640;" xml:space="preserve">
<style type="text/css">
	.st0{opacity:0.8;}
	.st1{fill:#E4EBF1;}
	.st2{opacity:0.7;}
	.st3{fill:#FFFFFF;}
	.st4{fill:#DDDDDD;}
	.st5{fill:#C6C6C6;stroke:#FFFFFF;stroke-width:4;stroke-miterlimit:10;}
	.st6{clip-path:url(#SVGID_00000061441451460635169000000011915476722547209405_);}
	.st7{clip-path:url(#SVGID_00000142886598443592508430000013469400441375586182_);}
	.st8{clip-path:url(#SVGID_00000028300868118471572670000004623805067376968326_);}
	.st9{clip-path:url(#SVGID_00000023981847466656292400000013463876275869167784_);}
	.st10{clip-path:url(#SVGID_00000062898904244527558780000014865543918047445691_);}
	.st11{clip-path:url(#SVGID_00000127743032376149561270000003258749589242824618_);}
	.st12{clip-path:url(#SVGID_00000057131350746862368430000007889015077139442615_);fill:none;stroke:#FFFFFF;stroke-miterlimit:10;}
	.st13{fill:#727272;}
	.st14{fill:#EF5C60;}
	.st15{fill:#FEC92C;}
	.st16{fill:#C6C6C6;}
	.st17{fill:none;stroke:#FFFFFF;stroke-width:5;stroke-linecap:round;stroke-linejoin:round;stroke-miterlimit:10;}
	.st18{fill:none;stroke:#FEC92C;stroke-width:8;stroke-linecap:round;stroke-linejoin:round;}
	.st19{fill:none;stroke:#FEC92C;stroke-width:8;stroke-linecap:round;stroke-linejoin:round;stroke-dasharray:0,19.584;}
	.st20{fill:none;stroke:#FEC92C;stroke-width:8;stroke-linecap:round;stroke-linejoin:round;stroke-dasharray:0,14.8603;}
	.st21{fill:none;stroke:#FEC92C;stroke-width:8;stroke-linecap:round;stroke-linejoin:round;stroke-dasharray:0,14.6977;}
	.st22{fill:none;stroke:#FEC92C;stroke-width:8;stroke-linecap:round;stroke-linejoin:round;stroke-dasharray:0,15.0712;}
	.st23{fill:none;stroke:#FEC92C;stroke-width:8;stroke-linecap:round;stroke-linejoin:round;stroke-dasharray:0,18.1126;}
	.st24{fill:none;stroke:#FEC92C;stroke-width:8;stroke-linecap:round;stroke-linejoin:round;stroke-dasharray:0,18.9303;}
	.st25{fill:none;stroke:#727272;stroke-width:8;stroke-linecap:round;stroke-linejoin:round;}
	.st26{fill:none;stroke:#727272;stroke-width:8;stroke-linecap:round;stroke-linejoin:round;stroke-dasharray:0,19.584;}
	.st27{fill:none;stroke:#727272;stroke-width:8;stroke-linecap:round;stroke-linejoin:round;stroke-dasharray:0,14.8603;}
	.st28{fill:none;stroke:#727272;stroke-width:8;stroke-linecap:round;stroke-linejoin:round;stroke-dasharray:0,14.6977;}
	.st29{fill:none;stroke:#727272;stroke-width:8;stroke-linecap:round;stroke-linejoin:round;stroke-dasharray:0,15.0712;}
	.st30{fill:none;stroke:#727272;stroke-width:8;stroke-linecap:round;stroke-linejoin:round;stroke-dasharray:0,18.1126;}
	.st31{fill:none;stroke:#727272;stroke-width:8;stroke-linecap:round;stroke-linejoin:round;stroke-dasharray:0,18.9303;}
	.st32{fill:none;stroke:#727272;stroke-width:3;stroke-linejoin:round;stroke-miterlimit:10;}
	.st33{clip-path:url(#SVGID_00000040559360356942062950000009857012635010494646_);}
	.st34{clip-path:url(#SVGID_00000018920230933012516820000002721885466659486593_);}
	.st35{fill:none;stroke:#FFFFFF;stroke-width:4;stroke-linecap:round;stroke-linejoin:round;stroke-miterlimit:10;}
	.st36{fill:#FFFFFF;stroke:#C6C6C6;stroke-miterlimit:10;}
	.st37{fill:#DDDDDD;stroke:#727272;stroke-miterlimit:10;}
	.st38{fill:#727272;stroke:#FFFFFF;stroke-width:3;stroke-miterlimit:10;}
</style>
<g id="liquid">
	<g class="st0">
		
			<image style="overflow:visible;opacity:0.12;" width="35" height="35" xlink:href="8194D861F2F8B246.png"  transform="matrix(1 0 0 1 336.5797 225.1101)">
		</image>
		<g>
			<circle class="st1" cx="354.2" cy="239.7" r="8.1"/>
		</g>
	</g>
	<g class="st0">
		
			<image style="overflow:visible;opacity:0.12;" width="103" height="103" xlink:href="8194D861F2F8B24A.png"  transform="matrix(1 0 0 1 392.5797 108.1101)">
		</image>
		<g>
			<path class="st1" d="M485.6,156.4c0,23.2-18.8,41.9-41.9,41.9c-23.2,0-41.9-18.8-41.9-41.9s18.8-41.9,41.9-41.9
				C466.9,114.5,485.6,133.2,485.6,156.4z"/>
		</g>
	</g>
	<g class="st0">
		
			<image style="overflow:visible;opacity:0.12;" width="307" height="304" xlink:href="8194D861F2F8B24D.png"  transform="matrix(1 0 0 1 58.5797 122.1101)">
		</image>
		<g>
			<path class="st1" d="M112.2,213.6c-52-1.8-59.5-59.4-12.5-81.3c46.6-21.7,45,56.7,101.9,40.6c48.2-13.7,126.4-55.9,148.4,21.6
				c24,84.5-20.3,168.7-104.7,181.1c-101.9,14.9-102,43.2-139.4,37.2c-34.1-5.5-48-54.5-21.7-83c20.7-22.4,56.8-41.2,66.3-65.6
				C162.7,232.7,137.9,214.5,112.2,213.6z"/>
		</g>
	</g>
	<g class="st0">
		
			<image style="overflow:visible;opacity:0.12;" width="438" height="345" xlink:href="8194D861F2F8B24E.png"  transform="matrix(1 0 0 1 158.5797 219.1101)">
		</image>
		<g>
			<path class="st1" d="M587.1,379.8c-0.6,54.6-50.8,97.2-102.1,71c-92.1-47.1-162.5-1.7-208,56.4c-41.4,52.8-76.4,62.9-97.9,3.9
				c-32.7-89.5,5.3-218.2,135.5-270.1C442.8,189.9,588.3,273.5,587.1,379.8z"/>
		</g>
	</g>
	<g class="st2">
		
			<image style="overflow:visible;opacity:0.12;" width="403" height="404" xlink:href="8194D861F2F8B24C.png"  transform="matrix(1 0 0 1 119.5797 126.1101)">
		</image>
		<g>
			<circle class="st3" cx="321.1" cy="325.5" r="192.4"/>
		</g>
	</g>
</g>
<g id="objs">
	<polygon class="st16" points="401.8,387.3 474.6,414.9 438.2,230.6 383,211.9 	"/>
	<polygon class="st4" points="329,402.8 401.8,387.3 383,211.9 329,225.1 	"/>
	<polygon class="st16" points="255,387.3 329,402.8 329,225.1 267.2,205.2 	"/>
	<polygon class="st4" points="177.8,414.9 255,387.3 267.2,205.2 212,229.5 	"/>
	<polygon class="st17" points="438.2,230.6 383,211.9 329,225.1 267.2,205.2 212,229.5 177.8,414.9 255,387.3 329,402.8 
		401.8,387.3 474.6,414.9 	"/>
	<g>
		<g>
			<line class="st18" x1="230.2" y1="332.3" x2="230.2" y2="332.3"/>
			<line class="st19" x1="245.3" y1="319.8" x2="252.8" y2="313.6"/>
			<line class="st18" x1="260.4" y1="307.3" x2="260.4" y2="307.3"/>
			<line class="st20" x1="271.3" y1="317.3" x2="320.7" y2="362.4"/>
			<line class="st18" x1="326.2" y1="367.4" x2="326.2" y2="367.4"/>
			<line class="st21" x1="340.6" y1="364.3" x2="390.8" y2="353.3"/>
			<line class="st18" x1="398" y1="351.7" x2="398" y2="351.7"/>
			<line class="st22" x1="405.7" y1="338.8" x2="425" y2="306.4"/>
			<line class="st18" x1="428.8" y1="299.9" x2="428.8" y2="299.9"/>
			<line class="st23" x1="416" y1="287.1" x2="396.7" y2="268"/>
			<line class="st18" x1="390.3" y1="261.6" x2="390.3" y2="261.6"/>
			<line class="st24" x1="374.3" y1="271.7" x2="366.3" y2="276.7"/>
			<line class="st18" x1="358.3" y1="281.7" x2="358.3" y2="281.7"/>
		</g>
	</g>
	<g>
		<path class="st14" d="M395.5,217.8c0-21.3-18-38.5-39.6-37.1c-18.9,1.2-34.1,16.7-34.8,35.6c-0.5,12.6,5.2,23.8,14.4,30.9
			c3.5,2.7,6.5,5.9,8.7,9.7l14.2,24.8l13.1-23.1c2.5-4.5,5.8-8.5,9.9-11.7C389.9,240.2,395.5,229.6,395.5,217.8z"/>
		<path class="st3" d="M358.3,234L358.3,234c-8.4,0-15.3-6.9-15.3-15.3v0c0-8.4,6.9-15.3,15.3-15.3h0c8.4,0,15.3,6.9,15.3,15.3v0
			C373.6,227.1,366.7,234,358.3,234z"/>
	</g>
</g>
</svg>
