<?xml version="1.0" encoding="utf-8"?>
<!-- Generator: $$$/GeneralStr/196=Adobe Illustrator 27.6.0, SVG Export Plug-In . SVG Version: 6.00 Build 0)  -->
<svg version="1.1" xmlns="http://www.w3.org/2000/svg" xmlns:xlink="http://www.w3.org/1999/xlink" x="0px" y="0px"
	 viewBox="0 0 640 640" style="enable-background:new 0 0 640 640;" xml:space="preserve">
<style type="text/css">
	.st0{opacity:0.8;}
	.st1{fill:#E4EBF1;}
	.st2{opacity:0.7;}
	.st3{fill:#FFFFFF;}
	.st4{fill:#DDDDDD;}
	.st5{fill:#C6C6C6;stroke:#FFFFFF;stroke-width:4;stroke-miterlimit:10;}
	.st6{clip-path:url(#SVGID_00000002376517152921548600000002488947218858316437_);}
	.st7{clip-path:url(#SVGID_00000048483623292355623030000011416558471379961998_);}
	.st8{clip-path:url(#SVGID_00000060753084523138789420000012187717872344981142_);}
	.st9{clip-path:url(#SVGID_00000010275672430095667530000017214625593802151088_);}
	.st10{clip-path:url(#SVGID_00000034078711596538534480000016923129628515308712_);}
	.st11{clip-path:url(#SVGID_00000053523885562125396690000017550261179944026810_);}
	.st12{clip-path:url(#SVGID_00000122714427401909316440000004703442018828260481_);fill:none;stroke:#FFFFFF;stroke-miterlimit:10;}
	.st13{fill:#727272;}
	.st14{fill:#EF5C60;}
	.st15{fill:#FEC92C;}
	.st16{fill:#C6C6C6;}
	.st17{fill:none;stroke:#FFFFFF;stroke-width:5;stroke-linecap:round;stroke-linejoin:round;stroke-miterlimit:10;}
	.st18{fill:none;stroke:#FEC92C;stroke-width:8;stroke-linecap:round;stroke-linejoin:round;}
	.st19{fill:none;stroke:#FEC92C;stroke-width:8;stroke-linecap:round;stroke-linejoin:round;stroke-dasharray:0,19.584;}
	.st20{fill:none;stroke:#FEC92C;stroke-width:8;stroke-linecap:round;stroke-linejoin:round;stroke-dasharray:0,14.8603;}
	.st21{fill:none;stroke:#FEC92C;stroke-width:8;stroke-linecap:round;stroke-linejoin:round;stroke-dasharray:0,14.6977;}
	.st22{fill:none;stroke:#FEC92C;stroke-width:8;stroke-linecap:round;stroke-linejoin:round;stroke-dasharray:0,15.0712;}
	.st23{fill:none;stroke:#FEC92C;stroke-width:8;stroke-linecap:round;stroke-linejoin:round;stroke-dasharray:0,18.1126;}
	.st24{fill:none;stroke:#FEC92C;stroke-width:8;stroke-linecap:round;stroke-linejoin:round;stroke-dasharray:0,18.9303;}
	.st25{fill:none;stroke:#727272;stroke-width:8;stroke-linecap:round;stroke-linejoin:round;}
	.st26{fill:none;stroke:#727272;stroke-width:8;stroke-linecap:round;stroke-linejoin:round;stroke-dasharray:0,19.584;}
	.st27{fill:none;stroke:#727272;stroke-width:8;stroke-linecap:round;stroke-linejoin:round;stroke-dasharray:0,14.8603;}
	.st28{fill:none;stroke:#727272;stroke-width:8;stroke-linecap:round;stroke-linejoin:round;stroke-dasharray:0,14.6977;}
	.st29{fill:none;stroke:#727272;stroke-width:8;stroke-linecap:round;stroke-linejoin:round;stroke-dasharray:0,15.0712;}
	.st30{fill:none;stroke:#727272;stroke-width:8;stroke-linecap:round;stroke-linejoin:round;stroke-dasharray:0,18.1126;}
	.st31{fill:none;stroke:#727272;stroke-width:8;stroke-linecap:round;stroke-linejoin:round;stroke-dasharray:0,18.9303;}
	.st32{fill:none;stroke:#727272;stroke-width:3;stroke-linejoin:round;stroke-miterlimit:10;}
	.st33{clip-path:url(#SVGID_00000154395466331267027950000017377608870525088907_);}
	.st34{clip-path:url(#SVGID_00000056424094020140505360000007401611611367945659_);}
	.st35{fill:none;stroke:#FFFFFF;stroke-width:4;stroke-linecap:round;stroke-linejoin:round;stroke-miterlimit:10;}
	.st36{fill:#FFFFFF;stroke:#C6C6C6;stroke-miterlimit:10;}
	.st37{fill:#DDDDDD;stroke:#727272;stroke-miterlimit:10;}
	.st38{fill:#727272;stroke:#FFFFFF;stroke-width:3;stroke-miterlimit:10;}
</style>
<g id="liquid">
	<g class="st0">
		
			<image style="overflow:visible;opacity:0.12;" width="247" height="232" xlink:href="819D436EAD070691.png"  transform="matrix(1 0 0 1 296.4159 346.1101)">
		</image>
		<g>
			<path class="st1" d="M481.6,430.1c59.4-8.8,66.2,37.6,32.1,80.8c-30.5,38.6-92.2,69.7-122.7,48c-51.1-36.3,10.4-141.7-52.4-151.7
				c-59.1-9.5-26-69.7,9.3-50.3C373.5,370.9,331,452.4,481.6,430.1z"/>
		</g>
	</g>
	<g class="st0">
		
			<image style="overflow:visible;opacity:0.12;" width="76" height="76" xlink:href="819D436EAD070693.png"  transform="matrix(1 0 0 1 502.4159 344.1101)">
		</image>
		<g>
			<path class="st1" d="M512.4,372.7c3.4-15.4,18.7-25.1,34.1-21.6c15.4,3.4,25.1,18.7,21.6,34.1c-3.4,15.4-18.7,25.1-34.1,21.6
				S508.9,388.1,512.4,372.7z"/>
		</g>
	</g>
	<g>
		
			<image style="overflow:visible;opacity:0.12;" width="39" height="40" xlink:href="819D436EAD070696.png"  transform="matrix(1 0 0 1 320.4159 394.1101)">
		</image>
		<g>
			
				<ellipse transform="matrix(0.2371 -0.9715 0.9715 0.2371 -139.9982 643.9254)" class="st1" cx="340" cy="411.1" rx="10.3" ry="10.3"/>
		</g>
	</g>
	<g class="st0">
		
			<image style="overflow:visible;opacity:0.12;" width="234" height="233" xlink:href="819D436EAD070697.png"  transform="matrix(1 0 0 1 61.4159 320.1101)">
		</image>
		<g>
			<circle class="st1" cx="178.5" cy="433.6" r="107.3"/>
		</g>
	</g>
	<g class="st0">
		
			<image style="overflow:visible;opacity:0.12;" width="377" height="350" xlink:href="819D436EAD070692.png"  transform="matrix(1 0 0 1 187.4159 78.1101)">
		</image>
		<g>
			<path class="st1" d="M400.4,141.2c17.3,126.9,175.6,40.2,152,136.9C528.9,374.7,431.4,434,334.7,410.4
				c-96.7-23.6-155.9-121.1-132.3-217.7C232.3,70.5,388.1,50.8,400.4,141.2z"/>
		</g>
	</g>
	<g class="st2">
		
			<image style="overflow:visible;opacity:0.12;" width="404" height="404" xlink:href="819D436EAD07069D.png"  transform="matrix(1 0 0 1 118.4159 117.1101)">
		</image>
		<g>
			<circle class="st3" cx="320.5" cy="316.1" r="192.4"/>
		</g>
	</g>
</g>
<g id="objs">
	<path class="st4" d="M380.9,415.9H254.8c-6.6,0-12-5.4-12-12V173.4c0-6.6,5.4-12,12-12h126.1c6.6,0,12,5.4,12,12v230.5
		C393,410.5,387.6,415.9,380.9,415.9z"/>
	<path class="st5" d="M377.5,453.3H259.7c-14.3,0-25.9-11.6-25.9-25.9V177.2c0-14.3,11.6-25.9,25.9-25.9h117.8
		c14.3,0,25.9,11.6,25.9,25.9v250.1C403.5,441.7,391.8,453.3,377.5,453.3z"/>
	<path class="st4" d="M380.9,415.9H254.8c-6.6,0-12-5.4-12-12V173.4c0-6.6,5.4-12,12-12h126.1c6.6,0,12,5.4,12,12v230.5
		C393,410.5,387.6,415.9,380.9,415.9z"/>
	<g>
		<defs>
			<path id="SVGID_1_" d="M380.9,415.9H254.8c-6.6,0-12-5.4-12-12V173.4c0-6.6,5.4-12,12-12h126.1c6.6,0,12,5.4,12,12v230.5
				C393,410.5,387.6,415.9,380.9,415.9z"/>
		</defs>
		<clipPath id="SVGID_00000160869435499734839990000009301094301901678979_">
			<use xlink:href="#SVGID_1_"  style="overflow:visible;"/>
		</clipPath>
		<g style="clip-path:url(#SVGID_00000160869435499734839990000009301094301901678979_);">
			<defs>
				<rect id="SVGID_00000169525102078312804600000014310126517185033138_" x="250.7" y="148" width="12.9" height="275.3"/>
			</defs>
			<defs>
				<rect id="SVGID_00000089542354104526041290000005852732088293592503_" x="303.2" y="148" width="12.9" height="152"/>
			</defs>
			<defs>
				<rect id="SVGID_00000019679779777815946760000001585752530753841820_" x="355.8" y="148" width="12.9" height="273.4"/>
			</defs>
			<defs>
				<rect id="SVGID_00000008115931358224910980000016261184304752112043_" x="233.7" y="294.5" width="177.8" height="12.9"/>
			</defs>
			<defs>
				<rect id="SVGID_00000072980762692410380300000017499225176442239919_" x="257.2" y="213.1" width="159.2" height="12.9"/>
			</defs>
			<defs>
				<rect id="SVGID_00000012466291273148918710000015392130878107143357_" x="231.5" y="376" width="184.9" height="12.9"/>
			</defs>
			<use xlink:href="#SVGID_00000169525102078312804600000014310126517185033138_"  style="overflow:visible;fill:#FFFFFF;"/>
			<use xlink:href="#SVGID_00000089542354104526041290000005852732088293592503_"  style="overflow:visible;fill:#FFFFFF;"/>
			<use xlink:href="#SVGID_00000019679779777815946760000001585752530753841820_"  style="overflow:visible;fill:#FFFFFF;"/>
			<use xlink:href="#SVGID_00000008115931358224910980000016261184304752112043_"  style="overflow:visible;fill:#FFFFFF;"/>
			<use xlink:href="#SVGID_00000072980762692410380300000017499225176442239919_"  style="overflow:visible;fill:#FFFFFF;"/>
			<use xlink:href="#SVGID_00000012466291273148918710000015392130878107143357_"  style="overflow:visible;fill:#FFFFFF;"/>
			<clipPath id="SVGID_00000138570076001443840260000014887977173807868293_">
				<use xlink:href="#SVGID_00000169525102078312804600000014310126517185033138_"  style="overflow:visible;"/>
			</clipPath>
			
				<clipPath id="SVGID_00000059286327446340366460000016398455287521089922_" style="clip-path:url(#SVGID_00000138570076001443840260000014887977173807868293_);">
				<use xlink:href="#SVGID_00000089542354104526041290000005852732088293592503_"  style="overflow:visible;"/>
			</clipPath>
			
				<clipPath id="SVGID_00000123420842101109401960000006100244595761485492_" style="clip-path:url(#SVGID_00000059286327446340366460000016398455287521089922_);">
				<use xlink:href="#SVGID_00000019679779777815946760000001585752530753841820_"  style="overflow:visible;"/>
			</clipPath>
			
				<clipPath id="SVGID_00000124152701715460260950000017222665257719667893_" style="clip-path:url(#SVGID_00000123420842101109401960000006100244595761485492_);">
				<use xlink:href="#SVGID_00000008115931358224910980000016261184304752112043_"  style="overflow:visible;"/>
			</clipPath>
			
				<clipPath id="SVGID_00000142164743724199214550000006810790878031769526_" style="clip-path:url(#SVGID_00000124152701715460260950000017222665257719667893_);">
				<use xlink:href="#SVGID_00000072980762692410380300000017499225176442239919_"  style="overflow:visible;"/>
			</clipPath>
			
				<clipPath id="SVGID_00000065042707472772579210000015094697503337139604_" style="clip-path:url(#SVGID_00000142164743724199214550000006810790878031769526_);">
				<use xlink:href="#SVGID_00000012466291273148918710000015392130878107143357_"  style="overflow:visible;"/>
			</clipPath>
			
				<path style="clip-path:url(#SVGID_00000065042707472772579210000015094697503337139604_);fill:none;stroke:#FFFFFF;stroke-miterlimit:10;" d="
				M380.9,415.9H254.8c-6.6,0-12-5.4-12-12V173.4c0-6.6,5.4-12,12-12h126.1c6.6,0,12,5.4,12,12v230.5
				C393,410.5,387.6,415.9,380.9,415.9z"/>
		</g>
	</g>
	<path class="st13" d="M337.1,439.3h-38.6c-3.2,0-5.7-2.6-5.7-5.7v0c0-3.2,2.6-5.7,5.7-5.7h38.6c3.2,0,5.7,2.6,5.7,5.7v0
		C342.8,436.7,340.3,439.3,337.1,439.3z"/>
	<g>
		<path class="st14" d="M354.3,291.1c0-9.7-8.1-17.5-18-16.8c-8.6,0.5-15.5,7.6-15.8,16.2c-0.2,5.7,2.4,10.8,6.5,14
			c1.6,1.2,2.9,2.7,3.9,4.4l6.4,11.3l6-10.5c1.2-2,2.6-3.9,4.5-5.3C351.8,301.3,354.3,296.5,354.3,291.1z"/>
		<path class="st3" d="M337.4,298.5L337.4,298.5c-3.8,0-6.9-3.1-6.9-6.9l0,0c0-3.8,3.1-6.9,6.9-6.9h0c3.8,0,6.9,3.1,6.9,6.9l0,0
			C344.4,295.3,341.2,298.5,337.4,298.5z"/>
	</g>
	<path class="st15" d="M278.1,255.7c6.2-4.3,10-10.3,10-17c0-13-14.7-23.6-32.8-23.6s-32.8,10.6-32.8,23.6c0,13,14.7,23.6,32.8,23.6
		c3.5,0,6.8-0.4,10-1.1l22.8,8.8L278.1,255.7z"/>
	<g>
		<circle class="st3" cx="239.8" cy="238.8" r="3.3"/>
		<circle class="st3" cx="255.3" cy="238.8" r="3.3"/>
		<circle class="st3" cx="270.8" cy="238.8" r="3.3"/>
	</g>
</g>
</svg>
