<?xml version="1.0" encoding="utf-8"?>
<!-- Generator: $$$/GeneralStr/196=Adobe Illustrator 27.6.0, SVG Export Plug-In . SVG Version: 6.00 Build 0)  -->
<svg version="1.1" xmlns="http://www.w3.org/2000/svg" xmlns:xlink="http://www.w3.org/1999/xlink" x="0px" y="0px"
	 viewBox="0 0 640 640" style="enable-background:new 0 0 640 640;" xml:space="preserve">
<style type="text/css">
	.st0{opacity:0.8;}
	.st1{fill:#E4EBF1;}
	.st2{opacity:0.7;}
	.st3{fill:#FFFFFF;}
	.st4{fill:#DDDDDD;}
	.st5{fill:#C6C6C6;stroke:#FFFFFF;stroke-width:4;stroke-miterlimit:10;}
	.st6{clip-path:url(#SVGID_00000080923171794040160230000008039411567665516967_);}
	.st7{clip-path:url(#SVGID_00000077297366731458411240000009251855493356185219_);}
	.st8{clip-path:url(#SVGID_00000143585010679713426340000013199257604193347749_);}
	.st9{clip-path:url(#SVGID_00000030463240537398215830000015658433484778196396_);}
	.st10{clip-path:url(#SVGID_00000144319285908876138680000009689174703789625233_);}
	.st11{clip-path:url(#SVGID_00000025404991156900000090000009800945958794238622_);}
	.st12{clip-path:url(#SVGID_00000078737798751009440700000006783352216557230484_);fill:none;stroke:#FFFFFF;stroke-miterlimit:10;}
	.st13{fill:#727272;}
	.st14{fill:#EF5C60;}
	.st15{fill:#FEC92C;}
	.st16{fill:#C6C6C6;}
	.st17{fill:none;stroke:#FFFFFF;stroke-width:5;stroke-linecap:round;stroke-linejoin:round;stroke-miterlimit:10;}
	.st18{fill:none;stroke:#FEC92C;stroke-width:8;stroke-linecap:round;stroke-linejoin:round;}
	.st19{fill:none;stroke:#FEC92C;stroke-width:8;stroke-linecap:round;stroke-linejoin:round;stroke-dasharray:0,19.584;}
	.st20{fill:none;stroke:#FEC92C;stroke-width:8;stroke-linecap:round;stroke-linejoin:round;stroke-dasharray:0,14.8603;}
	.st21{fill:none;stroke:#FEC92C;stroke-width:8;stroke-linecap:round;stroke-linejoin:round;stroke-dasharray:0,14.6977;}
	.st22{fill:none;stroke:#FEC92C;stroke-width:8;stroke-linecap:round;stroke-linejoin:round;stroke-dasharray:0,15.0712;}
	.st23{fill:none;stroke:#FEC92C;stroke-width:8;stroke-linecap:round;stroke-linejoin:round;stroke-dasharray:0,18.1126;}
	.st24{fill:none;stroke:#FEC92C;stroke-width:8;stroke-linecap:round;stroke-linejoin:round;stroke-dasharray:0,18.9303;}
	.st25{fill:none;stroke:#727272;stroke-width:8;stroke-linecap:round;stroke-linejoin:round;}
	.st26{fill:none;stroke:#727272;stroke-width:8;stroke-linecap:round;stroke-linejoin:round;stroke-dasharray:0,19.584;}
	.st27{fill:none;stroke:#727272;stroke-width:8;stroke-linecap:round;stroke-linejoin:round;stroke-dasharray:0,14.8603;}
	.st28{fill:none;stroke:#727272;stroke-width:8;stroke-linecap:round;stroke-linejoin:round;stroke-dasharray:0,14.6977;}
	.st29{fill:none;stroke:#727272;stroke-width:8;stroke-linecap:round;stroke-linejoin:round;stroke-dasharray:0,15.0712;}
	.st30{fill:none;stroke:#727272;stroke-width:8;stroke-linecap:round;stroke-linejoin:round;stroke-dasharray:0,18.1126;}
	.st31{fill:none;stroke:#727272;stroke-width:8;stroke-linecap:round;stroke-linejoin:round;stroke-dasharray:0,18.9303;}
	.st32{fill:none;stroke:#727272;stroke-width:3;stroke-linejoin:round;stroke-miterlimit:10;}
	.st33{clip-path:url(#SVGID_00000176038036879999972720000018177119341568307081_);}
	.st34{clip-path:url(#SVGID_00000134957248095319855850000008900068708239976367_);}
	.st35{fill:none;stroke:#FFFFFF;stroke-width:4;stroke-linecap:round;stroke-linejoin:round;stroke-miterlimit:10;}
	.st36{fill:#FFFFFF;stroke:#C6C6C6;stroke-miterlimit:10;}
	.st37{fill:#DDDDDD;stroke:#727272;stroke-miterlimit:10;}
	.st38{fill:#727272;stroke:#FFFFFF;stroke-width:3;stroke-miterlimit:10;}
</style>
<g id="liquid">
	<g class="st0">
		
			<image style="overflow:visible;opacity:0.12;" width="135" height="135" xlink:href="81A5AE7B67155AD8.png"  transform="matrix(1 0 0 1 312.83 81.6961)">
		</image>
		<g>
			<circle class="st1" cx="380.5" cy="146.2" r="57.7"/>
		</g>
	</g>
	<g class="st0">
		
			<image style="overflow:visible;opacity:0.12;" width="374" height="316" xlink:href="81A5AE7B67155AD9.png"  transform="matrix(1 0 0 1 155.83 247.6961)">
		</image>
		<g>
			<path class="st1" d="M366.9,525c-73.8-102.5-171.6,46.2-195.8-48.9c-24.2-95.1,33.3-191.8,128.5-216s191.8,33.3,216,128.5
				C546.1,508.8,419.5,598.1,366.9,525z"/>
		</g>
	</g>
	<g class="st0">
		
			<image style="overflow:visible;opacity:0.12;" width="574" height="266" xlink:href="81A5AE7B67155ADF.png"  transform="matrix(1 0 0 1 32.83 139.6961)">
		</image>
		<g>
			<path class="st1" d="M349.7,248.7c-40.8-2.4-20.6-96.1-123.8-102.2C122.6,140.4,6.5,257.9,52.9,347
				c26.7,51.3,104.2,61.9,149.5,22.2c34.1-29.8,51-93.7,141.6-88.4c64.3,3.8,82.3,53.7,143.1,58.8c54.4,4.6,119.7-53.3,109.4-123
				c-7.6-51.3-65.5-79.2-124.9-47.4C431.2,190.8,395.4,251.4,349.7,248.7z"/>
		</g>
	</g>
	<g class="st2">
		
			<image style="overflow:visible;opacity:0.12;" width="404" height="404" xlink:href="81A5AE7B67155ADA.png"  transform="matrix(1 0 0 1 131.83 116.6961)">
		</image>
		<g>
			<circle class="st3" cx="333.8" cy="315.4" r="192.4"/>
		</g>
	</g>
</g>
<g id="objs">
	<g>
		<g>
			<g>
				<g>
					<rect x="302.3" y="329.9" class="st3" width="56.2" height="63"/>
					<path class="st13" d="M358,330.4v62h-55.2v-62H358 M359,329.4h-57.2v64H359V329.4L359,329.4z"/>
				</g>
				<g>
					<path class="st3" d="M334.8,340.7c-39.5,0-58.7-22.8-58.7-69.6c0-22.7,3.4-38.4,10.8-49.3c9.2-13.7,24.9-20.3,47.9-20.3
						c23,0,38.7,6.6,47.9,20.3c7.4,10.9,10.8,26.6,10.8,49.3C393.6,317.9,374.3,340.7,334.8,340.7z"/>
					<path class="st13" d="M334.8,202c22.9,0,38.4,6.6,47.5,20.1c7.3,10.8,10.7,26.4,10.7,49c0,46.5-19,69.1-58.2,69.1
						c-39.2,0-58.2-22.6-58.2-69.1c0-22.6,3.4-38.2,10.7-49C296.4,208.6,312,202,334.8,202 M334.8,201c-50,0-59.2,31.4-59.2,70.1
						c0,38.7,13.2,70.1,59.2,70.1c46.1,0,59.2-31.4,59.2-70.1C394.1,232.4,384.8,201,334.8,201L334.8,201z"/>
				</g>
				<path class="st13" d="M275.6,266.5c0,0-2.6-40.4-0.4-53.2c2.1-12.8,19.3-32.1,19.3-32.1l13,8l14.3-8l17.6,7.9l13.3-8.4
					c0,0,7.7,7.7,9.8,9.5c2.1,1.8,14.6-6.8,14.6-6.8s19.4,20.2,18.9,38.3c-0.6,18.1-1.8,49.6-1.8,49.6s3.5-27.2-18.7-44.1
					c-8.3-6.3-23.8,3.4-39.2,3.3c-13.9,0-27.8-10.4-36.2-6.3C282.3,232.4,275.6,266.5,275.6,266.5z"/>
				<path class="st13" d="M335.6,322.5c-3.4,0-7.3-0.5-11.5-1.9c-1.5-2.4,0.4-4.3,2.2-3.8c10.9,3.3,19.2-0.3,19.3-0.4
					c1.1-0.5,2.3,0,2.8,1.1c0.5,1.1,0,2.3-1.1,2.8C347.1,320.5,342.5,322.5,335.6,322.5z"/>
			</g>
			<g>
				<g>
					<path class="st14" d="M367.5,244.8c0,0-23,7.7-27.5,18.5c-0.9-1.9-3.5-3.3-6.6-3.3c-3,0-5.5,1.3-6.5,3
						c-3.9-11.8-28.1-20.3-28.1-20.3l26.2,43.6h15.4L367.5,244.8z"/>
					<g>
						<path class="st3" d="M218.7,302.5c2.7-1.3,17.8-8.9,20.6-14.5c0.4-0.9,1-2.1,1.6-3.5c3.8-8.3,10.9-23.8,21.5-30.9
							c7.7-5.2,20.6-10.7,30.6-10.7c4.9,0,8.8,1.3,11.5,3.9c1.7,1.6,2.4,3,2,4.1c-1.4,3.5-12.8,4.4-18.6,4.4h-0.1l-0.2,0.1
							c-0.2,0.1-19,11.9-14.9,28.8c3.7,15.6,18.2,22.4,24.4,25.4c0.6,0.3,1.1,0.5,1.5,0.7c1.6,0.8,2.3,2.3,1.9,4.1
							c-0.5,2.2-2.6,4.6-5.4,4.8c-0.2,0-0.3,0-0.5,0c0,0,0,0,0,0c-6.4,0-34.5-4.3-39.9-7.2c-0.7-0.4-1.5-0.5-2.7-0.5
							c-7.5,0-23.9,8-27.1,9.6L218.7,302.5z"/>
						<g>
							<path class="st13" d="M293.1,242.4l0,1c4.8,0,8.5,1.3,11.1,3.7c1.1,1,2.3,2.5,1.8,3.6c-0.6,1.6-6,4.1-18.1,4.1l-0.1,0l-0.3,0
								l-0.2,0.1c-0.2,0.1-4.9,3-9.1,8c-5.7,6.8-7.8,14.1-6.1,21.3c3.8,15.8,18.4,22.7,24.7,25.7c0.6,0.3,1.1,0.5,1.5,0.7
								c1.9,0.9,1.9,2.6,1.7,3.5c-0.4,2-2.4,4.2-4.9,4.4c-0.1,0-0.3,0-0.5,0c-6.2,0-34.5-4.4-39.7-7.2c-0.7-0.4-1.7-0.6-2.9-0.6
								c-7.3,0-22.7,7.4-26.8,9.4l-5.8-17.5c3.6-1.8,17.7-9.1,20.5-14.6c0.4-0.9,1-2.1,1.6-3.5c3.8-8.3,10.8-23.7,21.3-30.7
								c7.7-5.1,20.4-10.6,30.3-10.6V242.4 M293.1,242.4c-10.7,0-23.9,6.1-30.9,10.8c-12.6,8.4-20.3,28.6-23.3,34.6
								c-3,5.9-20.8,14.5-20.8,14.5l6.4,19.4c0,0,19.3-9.8,27.4-9.8c1,0,1.8,0.1,2.4,0.5c5.4,2.9,33.8,7.3,40.2,7.3
								c0.2,0,0.4,0,0.6,0c5.1-0.3,8.4-7.4,3.6-9.8c-4.8-2.4-21.6-8.9-25.6-25.7c-4-16.8,14.7-28.3,14.7-28.3s0,0,0.1,0
								c1.5,0,26.8-0.1,17-9.4C301.9,243.5,297.7,242.4,293.1,242.4L293.1,242.4z"/>
						</g>
					</g>
					<g>
						<path class="st3" d="M443.4,321c-3.2-1.6-19.6-9.6-27.1-9.6c-1.1,0-2,0.2-2.7,0.5c-5.4,2.9-33.6,7.2-39.9,7.2
							c-0.2,0-0.4,0-0.5,0c-2.8-0.2-4.9-2.6-5.4-4.8c-0.4-1.8,0.3-3.3,1.9-4.1c0.4-0.2,0.9-0.4,1.5-0.7c6.2-2.9,20.7-9.8,24.4-25.4
							c4.1-17-14.8-28.7-14.9-28.8l-0.1-0.1l-0.1,0c-5.9,0-17.3-0.9-18.7-4.4c-0.4-1.1,0.2-2.5,2-4.1c2.7-2.6,6.6-3.9,11.5-3.9
							c10,0,22.9,5.6,30.6,10.7c10.6,7.1,17.7,22.6,21.5,30.9c0.6,1.4,1.2,2.6,1.6,3.5c2.8,5.6,17.9,13.2,20.6,14.5L443.4,321z"/>
						<g>
							<path class="st13" d="M375.2,243.4c9.9,0,22.7,5.5,30.3,10.6c10.5,7,17.5,22.4,21.3,30.7c0.6,1.4,1.2,2.6,1.6,3.5
								c2.8,5.5,16.9,12.8,20.5,14.6l-5.8,17.5c-4.2-2.1-19.5-9.4-26.8-9.4c-1.2,0-2.2,0.2-2.9,0.6c-5.2,2.8-33.5,7.2-39.7,7.2
								c-0.2,0-0.3,0-0.5,0c-2.5-0.1-4.5-2.4-4.9-4.4c-0.2-0.9-0.2-2.6,1.7-3.5c0.4-0.2,0.9-0.4,1.5-0.7c6.3-3,20.9-9.9,24.7-25.7
								c1.7-7.2-0.4-14.6-6.1-21.3c-4.2-5-8.9-7.9-9.1-8l-0.2-0.1l-0.3,0l-0.1,0c-12.1,0-17.5-2.4-18.1-4.1
								c-0.4-1.1,0.8-2.6,1.8-3.6C366.6,244.7,370.4,243.4,375.2,243.4 M375.2,242.4c-4.6,0-8.8,1.1-11.8,4
								c-9.8,9.2,15.4,9.4,17,9.4c0,0,0.1,0,0.1,0s18.7,11.5,14.7,28.3c-4,16.8-20.9,23.3-25.6,25.7c-4.8,2.4-1.4,9.5,3.6,9.8
								c0.2,0,0.3,0,0.6,0c6.4,0,34.7-4.4,40.2-7.3c0.6-0.3,1.4-0.5,2.4-0.5c8.2,0,27.4,9.8,27.4,9.8l6.4-19.4
								c0,0-17.8-8.5-20.8-14.5c-3-5.9-10.7-26.2-23.3-34.6C399,248.5,385.9,242.4,375.2,242.4L375.2,242.4z"/>
						</g>
					</g>
					<g>
						<path class="st3" d="M319.9,264.5c18.1,27.3-11.2,56.6-38.5,38.5c-1.5-1-2.8-2.3-3.8-3.8c-18.1-27.3,11.2-56.6,38.5-38.5
							C317.7,261.7,319,263,319.9,264.5z"/>
						<path class="st14" d="M319,308.3c-32.6,20.7-67.3-14-46.6-46.6c1.6-2.5,3.7-4.6,6.1-6.2c32.6-20.7,67.3,14,46.6,46.6
							C323.6,304.6,321.5,306.7,319,308.3z M313,265.9c-21.7-15.4-45.6,8.6-30.2,30.2c0.5,0.7,1,1.2,1.7,1.7
							c21.6,15.4,45.6-8.6,30.2-30.2C314.3,266.9,313.7,266.4,313,265.9z"/>
					</g>
					<g>
						<path class="st3" d="M392.3,264.5c18.1,27.3-11.2,56.6-38.5,38.5c-1.5-1-2.8-2.3-3.8-3.8c-18.1-27.3,11.2-56.6,38.5-38.5
							C390,261.7,391.3,263,392.3,264.5z"/>
						<path class="st14" d="M391.3,308.3c-32.6,20.7-67.3-14-46.6-46.6c1.6-2.5,3.7-4.6,6.1-6.2c32.6-20.7,67.3,14,46.6,46.6
							C395.9,304.6,393.8,306.7,391.3,308.3z M385.4,265.9c-21.7-15.4-45.6,8.6-30.2,30.2c0.5,0.7,1,1.2,1.7,1.7
							c21.6,15.4,45.6-8.6,30.2-30.2C386.6,266.9,386,266.4,385.4,265.9z"/>
					</g>
					<circle class="st15" cx="298.8" cy="281.9" r="13.7"/>
					<circle class="st15" cx="371.1" cy="281.9" r="13.7"/>
				</g>
			</g>
			<path class="st16" d="M497,395l-29.4,1.5l-67,3.3v52.3c0,3.8-2.3,7.2-5.7,8.8c-19.7,8.7-41.6,13.6-64.5,13.6
				c-23.9,0-46.6-5.3-67-14.7c-3.9-1.8-6.5-5.8-6.5-10.1v-49.5l-64-3.8l-19.6-1.2c-6.8-0.2-38.5-21.2-16.4-46.9
				c4.5-5.2,9.3-10.9,14.4-16.8c19.9-23.2,42-48.8,48.8-51.9c8.5-3.8,27.5,38,16.5,49.8c-3.8,4-11.6,13-20.5,23.1l67.4,1.6h18.1
				c0,0,2,22,27.9,22s29.1-22,29.1-22h28l0-0.1l65.9-0.8c-8.7-8.9-16.2-16.7-19.5-20.1c-9.9-10.2,6.7-53,15.2-49.1
				c6,2.7,23,21.1,41.6,40.5c7.8,8.1,15.8,16.4,23.4,23.8C539.4,373.3,503.1,396.7,497,395z"/>
		</g>
	</g>
</g>
</svg>
